%TF.GenerationSoftware,KiCad,Pcbnew,8.0.5*%
%TF.CreationDate,2024-10-23T09:19:41+02:00*%
%TF.ProjectId,Projet_torero,50726f6a-6574-45f7-946f-7265726f2e6b,rev?*%
%TF.SameCoordinates,Original*%
%TF.FileFunction,Legend,Top*%
%TF.FilePolarity,Positive*%
%FSLAX46Y46*%
G04 Gerber Fmt 4.6, Leading zero omitted, Abs format (unit mm)*
G04 Created by KiCad (PCBNEW 8.0.5) date 2024-10-23 09:19:41*
%MOMM*%
%LPD*%
G01*
G04 APERTURE LIST*
%ADD10C,0.100000*%
%ADD11C,0.300000*%
%ADD12C,0.120000*%
%ADD13C,0.200000*%
%ADD14C,0.000000*%
%ADD15C,0.150000*%
G04 APERTURE END LIST*
D10*
X163332455Y-106534133D02*
X163332455Y-105834133D01*
X163332455Y-105834133D02*
X163599122Y-105834133D01*
X163599122Y-105834133D02*
X163665789Y-105867466D01*
X163665789Y-105867466D02*
X163699122Y-105900800D01*
X163699122Y-105900800D02*
X163732455Y-105967466D01*
X163732455Y-105967466D02*
X163732455Y-106067466D01*
X163732455Y-106067466D02*
X163699122Y-106134133D01*
X163699122Y-106134133D02*
X163665789Y-106167466D01*
X163665789Y-106167466D02*
X163599122Y-106200800D01*
X163599122Y-106200800D02*
X163332455Y-106200800D01*
X164032455Y-106534133D02*
X164032455Y-106067466D01*
X164032455Y-106200800D02*
X164065789Y-106134133D01*
X164065789Y-106134133D02*
X164099122Y-106100800D01*
X164099122Y-106100800D02*
X164165789Y-106067466D01*
X164165789Y-106067466D02*
X164232455Y-106067466D01*
X164565788Y-106534133D02*
X164499122Y-106500800D01*
X164499122Y-106500800D02*
X164465788Y-106467466D01*
X164465788Y-106467466D02*
X164432455Y-106400800D01*
X164432455Y-106400800D02*
X164432455Y-106200800D01*
X164432455Y-106200800D02*
X164465788Y-106134133D01*
X164465788Y-106134133D02*
X164499122Y-106100800D01*
X164499122Y-106100800D02*
X164565788Y-106067466D01*
X164565788Y-106067466D02*
X164665788Y-106067466D01*
X164665788Y-106067466D02*
X164732455Y-106100800D01*
X164732455Y-106100800D02*
X164765788Y-106134133D01*
X164765788Y-106134133D02*
X164799122Y-106200800D01*
X164799122Y-106200800D02*
X164799122Y-106400800D01*
X164799122Y-106400800D02*
X164765788Y-106467466D01*
X164765788Y-106467466D02*
X164732455Y-106500800D01*
X164732455Y-106500800D02*
X164665788Y-106534133D01*
X164665788Y-106534133D02*
X164565788Y-106534133D01*
X165099121Y-106067466D02*
X165099121Y-106667466D01*
X165099121Y-106667466D02*
X165065788Y-106734133D01*
X165065788Y-106734133D02*
X164999121Y-106767466D01*
X164999121Y-106767466D02*
X164965788Y-106767466D01*
X165099121Y-105834133D02*
X165065788Y-105867466D01*
X165065788Y-105867466D02*
X165099121Y-105900800D01*
X165099121Y-105900800D02*
X165132455Y-105867466D01*
X165132455Y-105867466D02*
X165099121Y-105834133D01*
X165099121Y-105834133D02*
X165099121Y-105900800D01*
X165699121Y-106500800D02*
X165632454Y-106534133D01*
X165632454Y-106534133D02*
X165499121Y-106534133D01*
X165499121Y-106534133D02*
X165432454Y-106500800D01*
X165432454Y-106500800D02*
X165399121Y-106434133D01*
X165399121Y-106434133D02*
X165399121Y-106167466D01*
X165399121Y-106167466D02*
X165432454Y-106100800D01*
X165432454Y-106100800D02*
X165499121Y-106067466D01*
X165499121Y-106067466D02*
X165632454Y-106067466D01*
X165632454Y-106067466D02*
X165699121Y-106100800D01*
X165699121Y-106100800D02*
X165732454Y-106167466D01*
X165732454Y-106167466D02*
X165732454Y-106234133D01*
X165732454Y-106234133D02*
X165399121Y-106300800D01*
X165932454Y-106067466D02*
X166199121Y-106067466D01*
X166032454Y-105834133D02*
X166032454Y-106434133D01*
X166032454Y-106434133D02*
X166065788Y-106500800D01*
X166065788Y-106500800D02*
X166132454Y-106534133D01*
X166132454Y-106534133D02*
X166199121Y-106534133D01*
X166865787Y-105834133D02*
X167265787Y-105834133D01*
X167065787Y-106534133D02*
X167065787Y-105834133D01*
X167599120Y-106534133D02*
X167532454Y-106500800D01*
X167532454Y-106500800D02*
X167499120Y-106467466D01*
X167499120Y-106467466D02*
X167465787Y-106400800D01*
X167465787Y-106400800D02*
X167465787Y-106200800D01*
X167465787Y-106200800D02*
X167499120Y-106134133D01*
X167499120Y-106134133D02*
X167532454Y-106100800D01*
X167532454Y-106100800D02*
X167599120Y-106067466D01*
X167599120Y-106067466D02*
X167699120Y-106067466D01*
X167699120Y-106067466D02*
X167765787Y-106100800D01*
X167765787Y-106100800D02*
X167799120Y-106134133D01*
X167799120Y-106134133D02*
X167832454Y-106200800D01*
X167832454Y-106200800D02*
X167832454Y-106400800D01*
X167832454Y-106400800D02*
X167799120Y-106467466D01*
X167799120Y-106467466D02*
X167765787Y-106500800D01*
X167765787Y-106500800D02*
X167699120Y-106534133D01*
X167699120Y-106534133D02*
X167599120Y-106534133D01*
X168132453Y-106534133D02*
X168132453Y-106067466D01*
X168132453Y-106200800D02*
X168165787Y-106134133D01*
X168165787Y-106134133D02*
X168199120Y-106100800D01*
X168199120Y-106100800D02*
X168265787Y-106067466D01*
X168265787Y-106067466D02*
X168332453Y-106067466D01*
X168832453Y-106500800D02*
X168765786Y-106534133D01*
X168765786Y-106534133D02*
X168632453Y-106534133D01*
X168632453Y-106534133D02*
X168565786Y-106500800D01*
X168565786Y-106500800D02*
X168532453Y-106434133D01*
X168532453Y-106434133D02*
X168532453Y-106167466D01*
X168532453Y-106167466D02*
X168565786Y-106100800D01*
X168565786Y-106100800D02*
X168632453Y-106067466D01*
X168632453Y-106067466D02*
X168765786Y-106067466D01*
X168765786Y-106067466D02*
X168832453Y-106100800D01*
X168832453Y-106100800D02*
X168865786Y-106167466D01*
X168865786Y-106167466D02*
X168865786Y-106234133D01*
X168865786Y-106234133D02*
X168532453Y-106300800D01*
X169165786Y-106534133D02*
X169165786Y-106067466D01*
X169165786Y-106200800D02*
X169199120Y-106134133D01*
X169199120Y-106134133D02*
X169232453Y-106100800D01*
X169232453Y-106100800D02*
X169299120Y-106067466D01*
X169299120Y-106067466D02*
X169365786Y-106067466D01*
X169699119Y-106534133D02*
X169632453Y-106500800D01*
X169632453Y-106500800D02*
X169599119Y-106467466D01*
X169599119Y-106467466D02*
X169565786Y-106400800D01*
X169565786Y-106400800D02*
X169565786Y-106200800D01*
X169565786Y-106200800D02*
X169599119Y-106134133D01*
X169599119Y-106134133D02*
X169632453Y-106100800D01*
X169632453Y-106100800D02*
X169699119Y-106067466D01*
X169699119Y-106067466D02*
X169799119Y-106067466D01*
X169799119Y-106067466D02*
X169865786Y-106100800D01*
X169865786Y-106100800D02*
X169899119Y-106134133D01*
X169899119Y-106134133D02*
X169932453Y-106200800D01*
X169932453Y-106200800D02*
X169932453Y-106400800D01*
X169932453Y-106400800D02*
X169899119Y-106467466D01*
X169899119Y-106467466D02*
X169865786Y-106500800D01*
X169865786Y-106500800D02*
X169799119Y-106534133D01*
X169799119Y-106534133D02*
X169699119Y-106534133D01*
D11*
X145604510Y-95554400D02*
X146747368Y-95554400D01*
X146175939Y-96125828D02*
X146175939Y-94982971D01*
X145654510Y-87929400D02*
X146797368Y-87929400D01*
D10*
X171159133Y-103992544D02*
X171725800Y-103992544D01*
X171725800Y-103992544D02*
X171792466Y-103959211D01*
X171792466Y-103959211D02*
X171825800Y-103925877D01*
X171825800Y-103925877D02*
X171859133Y-103859211D01*
X171859133Y-103859211D02*
X171859133Y-103725877D01*
X171859133Y-103725877D02*
X171825800Y-103659211D01*
X171825800Y-103659211D02*
X171792466Y-103625877D01*
X171792466Y-103625877D02*
X171725800Y-103592544D01*
X171725800Y-103592544D02*
X171159133Y-103592544D01*
X171825800Y-103292544D02*
X171859133Y-103225878D01*
X171859133Y-103225878D02*
X171859133Y-103092544D01*
X171859133Y-103092544D02*
X171825800Y-103025878D01*
X171825800Y-103025878D02*
X171759133Y-102992544D01*
X171759133Y-102992544D02*
X171725800Y-102992544D01*
X171725800Y-102992544D02*
X171659133Y-103025878D01*
X171659133Y-103025878D02*
X171625800Y-103092544D01*
X171625800Y-103092544D02*
X171625800Y-103192544D01*
X171625800Y-103192544D02*
X171592466Y-103259211D01*
X171592466Y-103259211D02*
X171525800Y-103292544D01*
X171525800Y-103292544D02*
X171492466Y-103292544D01*
X171492466Y-103292544D02*
X171425800Y-103259211D01*
X171425800Y-103259211D02*
X171392466Y-103192544D01*
X171392466Y-103192544D02*
X171392466Y-103092544D01*
X171392466Y-103092544D02*
X171425800Y-103025878D01*
X171825800Y-102425877D02*
X171859133Y-102492544D01*
X171859133Y-102492544D02*
X171859133Y-102625877D01*
X171859133Y-102625877D02*
X171825800Y-102692544D01*
X171825800Y-102692544D02*
X171759133Y-102725877D01*
X171759133Y-102725877D02*
X171492466Y-102725877D01*
X171492466Y-102725877D02*
X171425800Y-102692544D01*
X171425800Y-102692544D02*
X171392466Y-102625877D01*
X171392466Y-102625877D02*
X171392466Y-102492544D01*
X171392466Y-102492544D02*
X171425800Y-102425877D01*
X171425800Y-102425877D02*
X171492466Y-102392544D01*
X171492466Y-102392544D02*
X171559133Y-102392544D01*
X171559133Y-102392544D02*
X171625800Y-102725877D01*
X171859133Y-102092544D02*
X171392466Y-102092544D01*
X171525800Y-102092544D02*
X171459133Y-102059211D01*
X171459133Y-102059211D02*
X171425800Y-102025877D01*
X171425800Y-102025877D02*
X171392466Y-101959211D01*
X171392466Y-101959211D02*
X171392466Y-101892544D01*
X171492466Y-100892545D02*
X171525800Y-100792545D01*
X171525800Y-100792545D02*
X171559133Y-100759211D01*
X171559133Y-100759211D02*
X171625800Y-100725878D01*
X171625800Y-100725878D02*
X171725800Y-100725878D01*
X171725800Y-100725878D02*
X171792466Y-100759211D01*
X171792466Y-100759211D02*
X171825800Y-100792545D01*
X171825800Y-100792545D02*
X171859133Y-100859211D01*
X171859133Y-100859211D02*
X171859133Y-101125878D01*
X171859133Y-101125878D02*
X171159133Y-101125878D01*
X171159133Y-101125878D02*
X171159133Y-100892545D01*
X171159133Y-100892545D02*
X171192466Y-100825878D01*
X171192466Y-100825878D02*
X171225800Y-100792545D01*
X171225800Y-100792545D02*
X171292466Y-100759211D01*
X171292466Y-100759211D02*
X171359133Y-100759211D01*
X171359133Y-100759211D02*
X171425800Y-100792545D01*
X171425800Y-100792545D02*
X171459133Y-100825878D01*
X171459133Y-100825878D02*
X171492466Y-100892545D01*
X171492466Y-100892545D02*
X171492466Y-101125878D01*
X171159133Y-100525878D02*
X171159133Y-100125878D01*
X171859133Y-100325878D02*
X171159133Y-100325878D01*
X171859133Y-99892545D02*
X171159133Y-99892545D01*
X171159133Y-99892545D02*
X171859133Y-99492545D01*
X171859133Y-99492545D02*
X171159133Y-99492545D01*
X170791666Y-65243633D02*
X171191666Y-65243633D01*
X170991666Y-65943633D02*
X170991666Y-65243633D01*
X171424999Y-65943633D02*
X171424999Y-65243633D01*
X171424999Y-65243633D02*
X171691666Y-65243633D01*
X171691666Y-65243633D02*
X171758333Y-65276966D01*
X171758333Y-65276966D02*
X171791666Y-65310300D01*
X171791666Y-65310300D02*
X171824999Y-65376966D01*
X171824999Y-65376966D02*
X171824999Y-65476966D01*
X171824999Y-65476966D02*
X171791666Y-65543633D01*
X171791666Y-65543633D02*
X171758333Y-65576966D01*
X171758333Y-65576966D02*
X171691666Y-65610300D01*
X171691666Y-65610300D02*
X171424999Y-65610300D01*
X172491666Y-65943633D02*
X172091666Y-65943633D01*
X172291666Y-65943633D02*
X172291666Y-65243633D01*
X172291666Y-65243633D02*
X172224999Y-65343633D01*
X172224999Y-65343633D02*
X172158333Y-65410300D01*
X172158333Y-65410300D02*
X172091666Y-65443633D01*
X175875000Y-56218633D02*
X175875000Y-55518633D01*
X175875000Y-55518633D02*
X176108334Y-56018633D01*
X176108334Y-56018633D02*
X176341667Y-55518633D01*
X176341667Y-55518633D02*
X176341667Y-56218633D01*
X176775000Y-56218633D02*
X176708334Y-56185300D01*
X176708334Y-56185300D02*
X176675000Y-56151966D01*
X176675000Y-56151966D02*
X176641667Y-56085300D01*
X176641667Y-56085300D02*
X176641667Y-55885300D01*
X176641667Y-55885300D02*
X176675000Y-55818633D01*
X176675000Y-55818633D02*
X176708334Y-55785300D01*
X176708334Y-55785300D02*
X176775000Y-55751966D01*
X176775000Y-55751966D02*
X176875000Y-55751966D01*
X176875000Y-55751966D02*
X176941667Y-55785300D01*
X176941667Y-55785300D02*
X176975000Y-55818633D01*
X176975000Y-55818633D02*
X177008334Y-55885300D01*
X177008334Y-55885300D02*
X177008334Y-56085300D01*
X177008334Y-56085300D02*
X176975000Y-56151966D01*
X176975000Y-56151966D02*
X176941667Y-56185300D01*
X176941667Y-56185300D02*
X176875000Y-56218633D01*
X176875000Y-56218633D02*
X176775000Y-56218633D01*
X177208333Y-55751966D02*
X177475000Y-55751966D01*
X177308333Y-55518633D02*
X177308333Y-56118633D01*
X177308333Y-56118633D02*
X177341667Y-56185300D01*
X177341667Y-56185300D02*
X177408333Y-56218633D01*
X177408333Y-56218633D02*
X177475000Y-56218633D01*
X177975000Y-56185300D02*
X177908333Y-56218633D01*
X177908333Y-56218633D02*
X177775000Y-56218633D01*
X177775000Y-56218633D02*
X177708333Y-56185300D01*
X177708333Y-56185300D02*
X177675000Y-56118633D01*
X177675000Y-56118633D02*
X177675000Y-55851966D01*
X177675000Y-55851966D02*
X177708333Y-55785300D01*
X177708333Y-55785300D02*
X177775000Y-55751966D01*
X177775000Y-55751966D02*
X177908333Y-55751966D01*
X177908333Y-55751966D02*
X177975000Y-55785300D01*
X177975000Y-55785300D02*
X178008333Y-55851966D01*
X178008333Y-55851966D02*
X178008333Y-55918633D01*
X178008333Y-55918633D02*
X177675000Y-55985300D01*
X178608333Y-55751966D02*
X178608333Y-56218633D01*
X178308333Y-55751966D02*
X178308333Y-56118633D01*
X178308333Y-56118633D02*
X178341667Y-56185300D01*
X178341667Y-56185300D02*
X178408333Y-56218633D01*
X178408333Y-56218633D02*
X178508333Y-56218633D01*
X178508333Y-56218633D02*
X178575000Y-56185300D01*
X178575000Y-56185300D02*
X178608333Y-56151966D01*
X178941666Y-56218633D02*
X178941666Y-55751966D01*
X178941666Y-55885300D02*
X178975000Y-55818633D01*
X178975000Y-55818633D02*
X179008333Y-55785300D01*
X179008333Y-55785300D02*
X179075000Y-55751966D01*
X179075000Y-55751966D02*
X179141666Y-55751966D01*
X179908332Y-56218633D02*
X179908332Y-55518633D01*
X179908332Y-55518633D02*
X180074999Y-55518633D01*
X180074999Y-55518633D02*
X180174999Y-55551966D01*
X180174999Y-55551966D02*
X180241666Y-55618633D01*
X180241666Y-55618633D02*
X180274999Y-55685300D01*
X180274999Y-55685300D02*
X180308332Y-55818633D01*
X180308332Y-55818633D02*
X180308332Y-55918633D01*
X180308332Y-55918633D02*
X180274999Y-56051966D01*
X180274999Y-56051966D02*
X180241666Y-56118633D01*
X180241666Y-56118633D02*
X180174999Y-56185300D01*
X180174999Y-56185300D02*
X180074999Y-56218633D01*
X180074999Y-56218633D02*
X179908332Y-56218633D01*
X186793633Y-98741666D02*
X186460300Y-98974999D01*
X186793633Y-99141666D02*
X186093633Y-99141666D01*
X186093633Y-99141666D02*
X186093633Y-98874999D01*
X186093633Y-98874999D02*
X186126966Y-98808333D01*
X186126966Y-98808333D02*
X186160300Y-98774999D01*
X186160300Y-98774999D02*
X186226966Y-98741666D01*
X186226966Y-98741666D02*
X186326966Y-98741666D01*
X186326966Y-98741666D02*
X186393633Y-98774999D01*
X186393633Y-98774999D02*
X186426966Y-98808333D01*
X186426966Y-98808333D02*
X186460300Y-98874999D01*
X186460300Y-98874999D02*
X186460300Y-99141666D01*
X186760300Y-98174999D02*
X186793633Y-98241666D01*
X186793633Y-98241666D02*
X186793633Y-98374999D01*
X186793633Y-98374999D02*
X186760300Y-98441666D01*
X186760300Y-98441666D02*
X186693633Y-98474999D01*
X186693633Y-98474999D02*
X186426966Y-98474999D01*
X186426966Y-98474999D02*
X186360300Y-98441666D01*
X186360300Y-98441666D02*
X186326966Y-98374999D01*
X186326966Y-98374999D02*
X186326966Y-98241666D01*
X186326966Y-98241666D02*
X186360300Y-98174999D01*
X186360300Y-98174999D02*
X186426966Y-98141666D01*
X186426966Y-98141666D02*
X186493633Y-98141666D01*
X186493633Y-98141666D02*
X186560300Y-98474999D01*
X186760300Y-97874999D02*
X186793633Y-97808333D01*
X186793633Y-97808333D02*
X186793633Y-97674999D01*
X186793633Y-97674999D02*
X186760300Y-97608333D01*
X186760300Y-97608333D02*
X186693633Y-97574999D01*
X186693633Y-97574999D02*
X186660300Y-97574999D01*
X186660300Y-97574999D02*
X186593633Y-97608333D01*
X186593633Y-97608333D02*
X186560300Y-97674999D01*
X186560300Y-97674999D02*
X186560300Y-97774999D01*
X186560300Y-97774999D02*
X186526966Y-97841666D01*
X186526966Y-97841666D02*
X186460300Y-97874999D01*
X186460300Y-97874999D02*
X186426966Y-97874999D01*
X186426966Y-97874999D02*
X186360300Y-97841666D01*
X186360300Y-97841666D02*
X186326966Y-97774999D01*
X186326966Y-97774999D02*
X186326966Y-97674999D01*
X186326966Y-97674999D02*
X186360300Y-97608333D01*
X186760300Y-97008332D02*
X186793633Y-97074999D01*
X186793633Y-97074999D02*
X186793633Y-97208332D01*
X186793633Y-97208332D02*
X186760300Y-97274999D01*
X186760300Y-97274999D02*
X186693633Y-97308332D01*
X186693633Y-97308332D02*
X186426966Y-97308332D01*
X186426966Y-97308332D02*
X186360300Y-97274999D01*
X186360300Y-97274999D02*
X186326966Y-97208332D01*
X186326966Y-97208332D02*
X186326966Y-97074999D01*
X186326966Y-97074999D02*
X186360300Y-97008332D01*
X186360300Y-97008332D02*
X186426966Y-96974999D01*
X186426966Y-96974999D02*
X186493633Y-96974999D01*
X186493633Y-96974999D02*
X186560300Y-97308332D01*
X186326966Y-96774999D02*
X186326966Y-96508332D01*
X186093633Y-96674999D02*
X186693633Y-96674999D01*
X186693633Y-96674999D02*
X186760300Y-96641666D01*
X186760300Y-96641666D02*
X186793633Y-96574999D01*
X186793633Y-96574999D02*
X186793633Y-96508332D01*
X188301966Y-73799999D02*
X188335300Y-73833332D01*
X188335300Y-73833332D02*
X188368633Y-73933332D01*
X188368633Y-73933332D02*
X188368633Y-73999999D01*
X188368633Y-73999999D02*
X188335300Y-74099999D01*
X188335300Y-74099999D02*
X188268633Y-74166666D01*
X188268633Y-74166666D02*
X188201966Y-74199999D01*
X188201966Y-74199999D02*
X188068633Y-74233332D01*
X188068633Y-74233332D02*
X187968633Y-74233332D01*
X187968633Y-74233332D02*
X187835300Y-74199999D01*
X187835300Y-74199999D02*
X187768633Y-74166666D01*
X187768633Y-74166666D02*
X187701966Y-74099999D01*
X187701966Y-74099999D02*
X187668633Y-73999999D01*
X187668633Y-73999999D02*
X187668633Y-73933332D01*
X187668633Y-73933332D02*
X187701966Y-73833332D01*
X187701966Y-73833332D02*
X187735300Y-73799999D01*
X188368633Y-73199999D02*
X188001966Y-73199999D01*
X188001966Y-73199999D02*
X187935300Y-73233332D01*
X187935300Y-73233332D02*
X187901966Y-73299999D01*
X187901966Y-73299999D02*
X187901966Y-73433332D01*
X187901966Y-73433332D02*
X187935300Y-73499999D01*
X188335300Y-73199999D02*
X188368633Y-73266666D01*
X188368633Y-73266666D02*
X188368633Y-73433332D01*
X188368633Y-73433332D02*
X188335300Y-73499999D01*
X188335300Y-73499999D02*
X188268633Y-73533332D01*
X188268633Y-73533332D02*
X188201966Y-73533332D01*
X188201966Y-73533332D02*
X188135300Y-73499999D01*
X188135300Y-73499999D02*
X188101966Y-73433332D01*
X188101966Y-73433332D02*
X188101966Y-73266666D01*
X188101966Y-73266666D02*
X188068633Y-73199999D01*
X187901966Y-72866666D02*
X188601966Y-72866666D01*
X187935300Y-72866666D02*
X187901966Y-72799999D01*
X187901966Y-72799999D02*
X187901966Y-72666666D01*
X187901966Y-72666666D02*
X187935300Y-72599999D01*
X187935300Y-72599999D02*
X187968633Y-72566666D01*
X187968633Y-72566666D02*
X188035300Y-72533333D01*
X188035300Y-72533333D02*
X188235300Y-72533333D01*
X188235300Y-72533333D02*
X188301966Y-72566666D01*
X188301966Y-72566666D02*
X188335300Y-72599999D01*
X188335300Y-72599999D02*
X188368633Y-72666666D01*
X188368633Y-72666666D02*
X188368633Y-72799999D01*
X188368633Y-72799999D02*
X188335300Y-72866666D01*
X187901966Y-72333333D02*
X187901966Y-72066666D01*
X187668633Y-72233333D02*
X188268633Y-72233333D01*
X188268633Y-72233333D02*
X188335300Y-72200000D01*
X188335300Y-72200000D02*
X188368633Y-72133333D01*
X188368633Y-72133333D02*
X188368633Y-72066666D01*
X188335300Y-71566666D02*
X188368633Y-71633333D01*
X188368633Y-71633333D02*
X188368633Y-71766666D01*
X188368633Y-71766666D02*
X188335300Y-71833333D01*
X188335300Y-71833333D02*
X188268633Y-71866666D01*
X188268633Y-71866666D02*
X188001966Y-71866666D01*
X188001966Y-71866666D02*
X187935300Y-71833333D01*
X187935300Y-71833333D02*
X187901966Y-71766666D01*
X187901966Y-71766666D02*
X187901966Y-71633333D01*
X187901966Y-71633333D02*
X187935300Y-71566666D01*
X187935300Y-71566666D02*
X188001966Y-71533333D01*
X188001966Y-71533333D02*
X188068633Y-71533333D01*
X188068633Y-71533333D02*
X188135300Y-71866666D01*
X187901966Y-70933333D02*
X188368633Y-70933333D01*
X187901966Y-71233333D02*
X188268633Y-71233333D01*
X188268633Y-71233333D02*
X188335300Y-71200000D01*
X188335300Y-71200000D02*
X188368633Y-71133333D01*
X188368633Y-71133333D02*
X188368633Y-71033333D01*
X188368633Y-71033333D02*
X188335300Y-70966666D01*
X188335300Y-70966666D02*
X188301966Y-70933333D01*
X188368633Y-70600000D02*
X187901966Y-70600000D01*
X188035300Y-70600000D02*
X187968633Y-70566667D01*
X187968633Y-70566667D02*
X187935300Y-70533333D01*
X187935300Y-70533333D02*
X187901966Y-70466667D01*
X187901966Y-70466667D02*
X187901966Y-70400000D01*
X188001966Y-69933334D02*
X188035300Y-69833334D01*
X188035300Y-69833334D02*
X188068633Y-69800000D01*
X188068633Y-69800000D02*
X188135300Y-69766667D01*
X188135300Y-69766667D02*
X188235300Y-69766667D01*
X188235300Y-69766667D02*
X188301966Y-69800000D01*
X188301966Y-69800000D02*
X188335300Y-69833334D01*
X188335300Y-69833334D02*
X188368633Y-69900000D01*
X188368633Y-69900000D02*
X188368633Y-70166667D01*
X188368633Y-70166667D02*
X187668633Y-70166667D01*
X187668633Y-70166667D02*
X187668633Y-69933334D01*
X187668633Y-69933334D02*
X187701966Y-69866667D01*
X187701966Y-69866667D02*
X187735300Y-69833334D01*
X187735300Y-69833334D02*
X187801966Y-69800000D01*
X187801966Y-69800000D02*
X187868633Y-69800000D01*
X187868633Y-69800000D02*
X187935300Y-69833334D01*
X187935300Y-69833334D02*
X187968633Y-69866667D01*
X187968633Y-69866667D02*
X188001966Y-69933334D01*
X188001966Y-69933334D02*
X188001966Y-70166667D01*
X188368633Y-69466667D02*
X187668633Y-69466667D01*
X187668633Y-69466667D02*
X187668633Y-69300000D01*
X187668633Y-69300000D02*
X187701966Y-69200000D01*
X187701966Y-69200000D02*
X187768633Y-69133334D01*
X187768633Y-69133334D02*
X187835300Y-69100000D01*
X187835300Y-69100000D02*
X187968633Y-69066667D01*
X187968633Y-69066667D02*
X188068633Y-69066667D01*
X188068633Y-69066667D02*
X188201966Y-69100000D01*
X188201966Y-69100000D02*
X188268633Y-69133334D01*
X188268633Y-69133334D02*
X188335300Y-69200000D01*
X188335300Y-69200000D02*
X188368633Y-69300000D01*
X188368633Y-69300000D02*
X188368633Y-69466667D01*
X156250000Y-67818633D02*
X156016667Y-67485300D01*
X155850000Y-67818633D02*
X155850000Y-67118633D01*
X155850000Y-67118633D02*
X156116667Y-67118633D01*
X156116667Y-67118633D02*
X156183334Y-67151966D01*
X156183334Y-67151966D02*
X156216667Y-67185300D01*
X156216667Y-67185300D02*
X156250000Y-67251966D01*
X156250000Y-67251966D02*
X156250000Y-67351966D01*
X156250000Y-67351966D02*
X156216667Y-67418633D01*
X156216667Y-67418633D02*
X156183334Y-67451966D01*
X156183334Y-67451966D02*
X156116667Y-67485300D01*
X156116667Y-67485300D02*
X155850000Y-67485300D01*
X156816667Y-67785300D02*
X156750000Y-67818633D01*
X156750000Y-67818633D02*
X156616667Y-67818633D01*
X156616667Y-67818633D02*
X156550000Y-67785300D01*
X156550000Y-67785300D02*
X156516667Y-67718633D01*
X156516667Y-67718633D02*
X156516667Y-67451966D01*
X156516667Y-67451966D02*
X156550000Y-67385300D01*
X156550000Y-67385300D02*
X156616667Y-67351966D01*
X156616667Y-67351966D02*
X156750000Y-67351966D01*
X156750000Y-67351966D02*
X156816667Y-67385300D01*
X156816667Y-67385300D02*
X156850000Y-67451966D01*
X156850000Y-67451966D02*
X156850000Y-67518633D01*
X156850000Y-67518633D02*
X156516667Y-67585300D01*
X156750000Y-67085300D02*
X156650000Y-67185300D01*
X157450000Y-67351966D02*
X157450000Y-67918633D01*
X157450000Y-67918633D02*
X157416667Y-67985300D01*
X157416667Y-67985300D02*
X157383334Y-68018633D01*
X157383334Y-68018633D02*
X157316667Y-68051966D01*
X157316667Y-68051966D02*
X157216667Y-68051966D01*
X157216667Y-68051966D02*
X157150000Y-68018633D01*
X157450000Y-67785300D02*
X157383334Y-67818633D01*
X157383334Y-67818633D02*
X157250000Y-67818633D01*
X157250000Y-67818633D02*
X157183334Y-67785300D01*
X157183334Y-67785300D02*
X157150000Y-67751966D01*
X157150000Y-67751966D02*
X157116667Y-67685300D01*
X157116667Y-67685300D02*
X157116667Y-67485300D01*
X157116667Y-67485300D02*
X157150000Y-67418633D01*
X157150000Y-67418633D02*
X157183334Y-67385300D01*
X157183334Y-67385300D02*
X157250000Y-67351966D01*
X157250000Y-67351966D02*
X157383334Y-67351966D01*
X157383334Y-67351966D02*
X157450000Y-67385300D01*
X158083333Y-67351966D02*
X158083333Y-67818633D01*
X157783333Y-67351966D02*
X157783333Y-67718633D01*
X157783333Y-67718633D02*
X157816667Y-67785300D01*
X157816667Y-67785300D02*
X157883333Y-67818633D01*
X157883333Y-67818633D02*
X157983333Y-67818633D01*
X157983333Y-67818633D02*
X158050000Y-67785300D01*
X158050000Y-67785300D02*
X158083333Y-67751966D01*
X158350000Y-67118633D02*
X158783333Y-67118633D01*
X158783333Y-67118633D02*
X158550000Y-67385300D01*
X158550000Y-67385300D02*
X158650000Y-67385300D01*
X158650000Y-67385300D02*
X158716666Y-67418633D01*
X158716666Y-67418633D02*
X158750000Y-67451966D01*
X158750000Y-67451966D02*
X158783333Y-67518633D01*
X158783333Y-67518633D02*
X158783333Y-67685300D01*
X158783333Y-67685300D02*
X158750000Y-67751966D01*
X158750000Y-67751966D02*
X158716666Y-67785300D01*
X158716666Y-67785300D02*
X158650000Y-67818633D01*
X158650000Y-67818633D02*
X158450000Y-67818633D01*
X158450000Y-67818633D02*
X158383333Y-67785300D01*
X158383333Y-67785300D02*
X158350000Y-67751966D01*
X159083333Y-67751966D02*
X159116667Y-67785300D01*
X159116667Y-67785300D02*
X159083333Y-67818633D01*
X159083333Y-67818633D02*
X159050000Y-67785300D01*
X159050000Y-67785300D02*
X159083333Y-67751966D01*
X159083333Y-67751966D02*
X159083333Y-67818633D01*
X159350000Y-67118633D02*
X159783333Y-67118633D01*
X159783333Y-67118633D02*
X159550000Y-67385300D01*
X159550000Y-67385300D02*
X159650000Y-67385300D01*
X159650000Y-67385300D02*
X159716666Y-67418633D01*
X159716666Y-67418633D02*
X159750000Y-67451966D01*
X159750000Y-67451966D02*
X159783333Y-67518633D01*
X159783333Y-67518633D02*
X159783333Y-67685300D01*
X159783333Y-67685300D02*
X159750000Y-67751966D01*
X159750000Y-67751966D02*
X159716666Y-67785300D01*
X159716666Y-67785300D02*
X159650000Y-67818633D01*
X159650000Y-67818633D02*
X159450000Y-67818633D01*
X159450000Y-67818633D02*
X159383333Y-67785300D01*
X159383333Y-67785300D02*
X159350000Y-67751966D01*
X159983333Y-67118633D02*
X160216667Y-67818633D01*
X160216667Y-67818633D02*
X160450000Y-67118633D01*
X165941666Y-63618633D02*
X166341666Y-63618633D01*
X166141666Y-64318633D02*
X166141666Y-63618633D01*
X166574999Y-64318633D02*
X166574999Y-63618633D01*
X166574999Y-63618633D02*
X166841666Y-63618633D01*
X166841666Y-63618633D02*
X166908333Y-63651966D01*
X166908333Y-63651966D02*
X166941666Y-63685300D01*
X166941666Y-63685300D02*
X166974999Y-63751966D01*
X166974999Y-63751966D02*
X166974999Y-63851966D01*
X166974999Y-63851966D02*
X166941666Y-63918633D01*
X166941666Y-63918633D02*
X166908333Y-63951966D01*
X166908333Y-63951966D02*
X166841666Y-63985300D01*
X166841666Y-63985300D02*
X166574999Y-63985300D01*
X167574999Y-63851966D02*
X167574999Y-64318633D01*
X167408333Y-63585300D02*
X167241666Y-64085300D01*
X167241666Y-64085300D02*
X167674999Y-64085300D01*
X145493633Y-70866666D02*
X145493633Y-70733332D01*
X145493633Y-70733332D02*
X145526966Y-70666666D01*
X145526966Y-70666666D02*
X145593633Y-70599999D01*
X145593633Y-70599999D02*
X145726966Y-70566666D01*
X145726966Y-70566666D02*
X145960300Y-70566666D01*
X145960300Y-70566666D02*
X146093633Y-70599999D01*
X146093633Y-70599999D02*
X146160300Y-70666666D01*
X146160300Y-70666666D02*
X146193633Y-70733332D01*
X146193633Y-70733332D02*
X146193633Y-70866666D01*
X146193633Y-70866666D02*
X146160300Y-70933332D01*
X146160300Y-70933332D02*
X146093633Y-70999999D01*
X146093633Y-70999999D02*
X145960300Y-71033332D01*
X145960300Y-71033332D02*
X145726966Y-71033332D01*
X145726966Y-71033332D02*
X145593633Y-70999999D01*
X145593633Y-70999999D02*
X145526966Y-70933332D01*
X145526966Y-70933332D02*
X145493633Y-70866666D01*
X146193633Y-70266666D02*
X145493633Y-70266666D01*
X145493633Y-70266666D02*
X146193633Y-69866666D01*
X146193633Y-69866666D02*
X145493633Y-69866666D01*
X145460300Y-69033333D02*
X146360300Y-69633333D01*
X145493633Y-68666667D02*
X145493633Y-68533333D01*
X145493633Y-68533333D02*
X145526966Y-68466667D01*
X145526966Y-68466667D02*
X145593633Y-68400000D01*
X145593633Y-68400000D02*
X145726966Y-68366667D01*
X145726966Y-68366667D02*
X145960300Y-68366667D01*
X145960300Y-68366667D02*
X146093633Y-68400000D01*
X146093633Y-68400000D02*
X146160300Y-68466667D01*
X146160300Y-68466667D02*
X146193633Y-68533333D01*
X146193633Y-68533333D02*
X146193633Y-68666667D01*
X146193633Y-68666667D02*
X146160300Y-68733333D01*
X146160300Y-68733333D02*
X146093633Y-68800000D01*
X146093633Y-68800000D02*
X145960300Y-68833333D01*
X145960300Y-68833333D02*
X145726966Y-68833333D01*
X145726966Y-68833333D02*
X145593633Y-68800000D01*
X145593633Y-68800000D02*
X145526966Y-68733333D01*
X145526966Y-68733333D02*
X145493633Y-68666667D01*
X145826966Y-67833334D02*
X145826966Y-68066667D01*
X146193633Y-68066667D02*
X145493633Y-68066667D01*
X145493633Y-68066667D02*
X145493633Y-67733334D01*
X145826966Y-67233334D02*
X145826966Y-67466667D01*
X146193633Y-67466667D02*
X145493633Y-67466667D01*
X145493633Y-67466667D02*
X145493633Y-67133334D01*
X180558333Y-90143633D02*
X180891666Y-90143633D01*
X180491666Y-90343633D02*
X180725000Y-89643633D01*
X180725000Y-89643633D02*
X180958333Y-90343633D01*
X181491666Y-90310300D02*
X181425000Y-90343633D01*
X181425000Y-90343633D02*
X181291666Y-90343633D01*
X181291666Y-90343633D02*
X181225000Y-90310300D01*
X181225000Y-90310300D02*
X181191666Y-90276966D01*
X181191666Y-90276966D02*
X181158333Y-90210300D01*
X181158333Y-90210300D02*
X181158333Y-90010300D01*
X181158333Y-90010300D02*
X181191666Y-89943633D01*
X181191666Y-89943633D02*
X181225000Y-89910300D01*
X181225000Y-89910300D02*
X181291666Y-89876966D01*
X181291666Y-89876966D02*
X181425000Y-89876966D01*
X181425000Y-89876966D02*
X181491666Y-89910300D01*
X182091666Y-90310300D02*
X182025000Y-90343633D01*
X182025000Y-90343633D02*
X181891666Y-90343633D01*
X181891666Y-90343633D02*
X181825000Y-90310300D01*
X181825000Y-90310300D02*
X181791666Y-90276966D01*
X181791666Y-90276966D02*
X181758333Y-90210300D01*
X181758333Y-90210300D02*
X181758333Y-90010300D01*
X181758333Y-90010300D02*
X181791666Y-89943633D01*
X181791666Y-89943633D02*
X181825000Y-89910300D01*
X181825000Y-89910300D02*
X181891666Y-89876966D01*
X181891666Y-89876966D02*
X182025000Y-89876966D01*
X182025000Y-89876966D02*
X182091666Y-89910300D01*
X149375000Y-68243633D02*
X149141667Y-67910300D01*
X148975000Y-68243633D02*
X148975000Y-67543633D01*
X148975000Y-67543633D02*
X149241667Y-67543633D01*
X149241667Y-67543633D02*
X149308334Y-67576966D01*
X149308334Y-67576966D02*
X149341667Y-67610300D01*
X149341667Y-67610300D02*
X149375000Y-67676966D01*
X149375000Y-67676966D02*
X149375000Y-67776966D01*
X149375000Y-67776966D02*
X149341667Y-67843633D01*
X149341667Y-67843633D02*
X149308334Y-67876966D01*
X149308334Y-67876966D02*
X149241667Y-67910300D01*
X149241667Y-67910300D02*
X148975000Y-67910300D01*
X149941667Y-68210300D02*
X149875000Y-68243633D01*
X149875000Y-68243633D02*
X149741667Y-68243633D01*
X149741667Y-68243633D02*
X149675000Y-68210300D01*
X149675000Y-68210300D02*
X149641667Y-68143633D01*
X149641667Y-68143633D02*
X149641667Y-67876966D01*
X149641667Y-67876966D02*
X149675000Y-67810300D01*
X149675000Y-67810300D02*
X149741667Y-67776966D01*
X149741667Y-67776966D02*
X149875000Y-67776966D01*
X149875000Y-67776966D02*
X149941667Y-67810300D01*
X149941667Y-67810300D02*
X149975000Y-67876966D01*
X149975000Y-67876966D02*
X149975000Y-67943633D01*
X149975000Y-67943633D02*
X149641667Y-68010300D01*
X149875000Y-67510300D02*
X149775000Y-67610300D01*
X150575000Y-67776966D02*
X150575000Y-68343633D01*
X150575000Y-68343633D02*
X150541667Y-68410300D01*
X150541667Y-68410300D02*
X150508334Y-68443633D01*
X150508334Y-68443633D02*
X150441667Y-68476966D01*
X150441667Y-68476966D02*
X150341667Y-68476966D01*
X150341667Y-68476966D02*
X150275000Y-68443633D01*
X150575000Y-68210300D02*
X150508334Y-68243633D01*
X150508334Y-68243633D02*
X150375000Y-68243633D01*
X150375000Y-68243633D02*
X150308334Y-68210300D01*
X150308334Y-68210300D02*
X150275000Y-68176966D01*
X150275000Y-68176966D02*
X150241667Y-68110300D01*
X150241667Y-68110300D02*
X150241667Y-67910300D01*
X150241667Y-67910300D02*
X150275000Y-67843633D01*
X150275000Y-67843633D02*
X150308334Y-67810300D01*
X150308334Y-67810300D02*
X150375000Y-67776966D01*
X150375000Y-67776966D02*
X150508334Y-67776966D01*
X150508334Y-67776966D02*
X150575000Y-67810300D01*
X151208333Y-67776966D02*
X151208333Y-68243633D01*
X150908333Y-67776966D02*
X150908333Y-68143633D01*
X150908333Y-68143633D02*
X150941667Y-68210300D01*
X150941667Y-68210300D02*
X151008333Y-68243633D01*
X151008333Y-68243633D02*
X151108333Y-68243633D01*
X151108333Y-68243633D02*
X151175000Y-68210300D01*
X151175000Y-68210300D02*
X151208333Y-68176966D01*
X151875000Y-67543633D02*
X151541666Y-67543633D01*
X151541666Y-67543633D02*
X151508333Y-67876966D01*
X151508333Y-67876966D02*
X151541666Y-67843633D01*
X151541666Y-67843633D02*
X151608333Y-67810300D01*
X151608333Y-67810300D02*
X151775000Y-67810300D01*
X151775000Y-67810300D02*
X151841666Y-67843633D01*
X151841666Y-67843633D02*
X151875000Y-67876966D01*
X151875000Y-67876966D02*
X151908333Y-67943633D01*
X151908333Y-67943633D02*
X151908333Y-68110300D01*
X151908333Y-68110300D02*
X151875000Y-68176966D01*
X151875000Y-68176966D02*
X151841666Y-68210300D01*
X151841666Y-68210300D02*
X151775000Y-68243633D01*
X151775000Y-68243633D02*
X151608333Y-68243633D01*
X151608333Y-68243633D02*
X151541666Y-68210300D01*
X151541666Y-68210300D02*
X151508333Y-68176966D01*
X152108333Y-67543633D02*
X152341667Y-68243633D01*
X152341667Y-68243633D02*
X152575000Y-67543633D01*
X146866666Y-51218633D02*
X146866666Y-50518633D01*
X146866666Y-50851966D02*
X147266666Y-50851966D01*
X147266666Y-51218633D02*
X147266666Y-50518633D01*
X147566666Y-50585300D02*
X147599999Y-50551966D01*
X147599999Y-50551966D02*
X147666666Y-50518633D01*
X147666666Y-50518633D02*
X147833333Y-50518633D01*
X147833333Y-50518633D02*
X147899999Y-50551966D01*
X147899999Y-50551966D02*
X147933333Y-50585300D01*
X147933333Y-50585300D02*
X147966666Y-50651966D01*
X147966666Y-50651966D02*
X147966666Y-50718633D01*
X147966666Y-50718633D02*
X147933333Y-50818633D01*
X147933333Y-50818633D02*
X147533333Y-51218633D01*
X147533333Y-51218633D02*
X147966666Y-51218633D01*
X185866666Y-51218633D02*
X185866666Y-50518633D01*
X185866666Y-50851966D02*
X186266666Y-50851966D01*
X186266666Y-51218633D02*
X186266666Y-50518633D01*
X186966666Y-51218633D02*
X186566666Y-51218633D01*
X186766666Y-51218633D02*
X186766666Y-50518633D01*
X186766666Y-50518633D02*
X186699999Y-50618633D01*
X186699999Y-50618633D02*
X186633333Y-50685300D01*
X186633333Y-50685300D02*
X186566666Y-50718633D01*
X145901966Y-63349999D02*
X145935300Y-63249999D01*
X145935300Y-63249999D02*
X145968633Y-63216665D01*
X145968633Y-63216665D02*
X146035300Y-63183332D01*
X146035300Y-63183332D02*
X146135300Y-63183332D01*
X146135300Y-63183332D02*
X146201966Y-63216665D01*
X146201966Y-63216665D02*
X146235300Y-63249999D01*
X146235300Y-63249999D02*
X146268633Y-63316665D01*
X146268633Y-63316665D02*
X146268633Y-63583332D01*
X146268633Y-63583332D02*
X145568633Y-63583332D01*
X145568633Y-63583332D02*
X145568633Y-63349999D01*
X145568633Y-63349999D02*
X145601966Y-63283332D01*
X145601966Y-63283332D02*
X145635300Y-63249999D01*
X145635300Y-63249999D02*
X145701966Y-63216665D01*
X145701966Y-63216665D02*
X145768633Y-63216665D01*
X145768633Y-63216665D02*
X145835300Y-63249999D01*
X145835300Y-63249999D02*
X145868633Y-63283332D01*
X145868633Y-63283332D02*
X145901966Y-63349999D01*
X145901966Y-63349999D02*
X145901966Y-63583332D01*
X146268633Y-62583332D02*
X145901966Y-62583332D01*
X145901966Y-62583332D02*
X145835300Y-62616665D01*
X145835300Y-62616665D02*
X145801966Y-62683332D01*
X145801966Y-62683332D02*
X145801966Y-62816665D01*
X145801966Y-62816665D02*
X145835300Y-62883332D01*
X146235300Y-62583332D02*
X146268633Y-62649999D01*
X146268633Y-62649999D02*
X146268633Y-62816665D01*
X146268633Y-62816665D02*
X146235300Y-62883332D01*
X146235300Y-62883332D02*
X146168633Y-62916665D01*
X146168633Y-62916665D02*
X146101966Y-62916665D01*
X146101966Y-62916665D02*
X146035300Y-62883332D01*
X146035300Y-62883332D02*
X146001966Y-62816665D01*
X146001966Y-62816665D02*
X146001966Y-62649999D01*
X146001966Y-62649999D02*
X145968633Y-62583332D01*
X145801966Y-62349999D02*
X145801966Y-62083332D01*
X145568633Y-62249999D02*
X146168633Y-62249999D01*
X146168633Y-62249999D02*
X146235300Y-62216666D01*
X146235300Y-62216666D02*
X146268633Y-62149999D01*
X146268633Y-62149999D02*
X146268633Y-62083332D01*
X145801966Y-61949999D02*
X145801966Y-61683332D01*
X145568633Y-61849999D02*
X146168633Y-61849999D01*
X146168633Y-61849999D02*
X146235300Y-61816666D01*
X146235300Y-61816666D02*
X146268633Y-61749999D01*
X146268633Y-61749999D02*
X146268633Y-61683332D01*
X146235300Y-61183332D02*
X146268633Y-61249999D01*
X146268633Y-61249999D02*
X146268633Y-61383332D01*
X146268633Y-61383332D02*
X146235300Y-61449999D01*
X146235300Y-61449999D02*
X146168633Y-61483332D01*
X146168633Y-61483332D02*
X145901966Y-61483332D01*
X145901966Y-61483332D02*
X145835300Y-61449999D01*
X145835300Y-61449999D02*
X145801966Y-61383332D01*
X145801966Y-61383332D02*
X145801966Y-61249999D01*
X145801966Y-61249999D02*
X145835300Y-61183332D01*
X145835300Y-61183332D02*
X145901966Y-61149999D01*
X145901966Y-61149999D02*
X145968633Y-61149999D01*
X145968633Y-61149999D02*
X146035300Y-61483332D01*
X146268633Y-60849999D02*
X145801966Y-60849999D01*
X145935300Y-60849999D02*
X145868633Y-60816666D01*
X145868633Y-60816666D02*
X145835300Y-60783332D01*
X145835300Y-60783332D02*
X145801966Y-60716666D01*
X145801966Y-60716666D02*
X145801966Y-60649999D01*
X146268633Y-60416666D02*
X145801966Y-60416666D01*
X145568633Y-60416666D02*
X145601966Y-60449999D01*
X145601966Y-60449999D02*
X145635300Y-60416666D01*
X145635300Y-60416666D02*
X145601966Y-60383333D01*
X145601966Y-60383333D02*
X145568633Y-60416666D01*
X145568633Y-60416666D02*
X145635300Y-60416666D01*
X146235300Y-59816666D02*
X146268633Y-59883333D01*
X146268633Y-59883333D02*
X146268633Y-60016666D01*
X146268633Y-60016666D02*
X146235300Y-60083333D01*
X146235300Y-60083333D02*
X146168633Y-60116666D01*
X146168633Y-60116666D02*
X145901966Y-60116666D01*
X145901966Y-60116666D02*
X145835300Y-60083333D01*
X145835300Y-60083333D02*
X145801966Y-60016666D01*
X145801966Y-60016666D02*
X145801966Y-59883333D01*
X145801966Y-59883333D02*
X145835300Y-59816666D01*
X145835300Y-59816666D02*
X145901966Y-59783333D01*
X145901966Y-59783333D02*
X145968633Y-59783333D01*
X145968633Y-59783333D02*
X146035300Y-60116666D01*
X156891666Y-73468633D02*
X156558332Y-73468633D01*
X156558332Y-73468633D02*
X156558332Y-72768633D01*
X157458333Y-72768633D02*
X157124999Y-72768633D01*
X157124999Y-72768633D02*
X157091666Y-73101966D01*
X157091666Y-73101966D02*
X157124999Y-73068633D01*
X157124999Y-73068633D02*
X157191666Y-73035300D01*
X157191666Y-73035300D02*
X157358333Y-73035300D01*
X157358333Y-73035300D02*
X157424999Y-73068633D01*
X157424999Y-73068633D02*
X157458333Y-73101966D01*
X157458333Y-73101966D02*
X157491666Y-73168633D01*
X157491666Y-73168633D02*
X157491666Y-73335300D01*
X157491666Y-73335300D02*
X157458333Y-73401966D01*
X157458333Y-73401966D02*
X157424999Y-73435300D01*
X157424999Y-73435300D02*
X157358333Y-73468633D01*
X157358333Y-73468633D02*
X157191666Y-73468633D01*
X157191666Y-73468633D02*
X157124999Y-73435300D01*
X157124999Y-73435300D02*
X157091666Y-73401966D01*
X157925000Y-72768633D02*
X157991666Y-72768633D01*
X157991666Y-72768633D02*
X158058333Y-72801966D01*
X158058333Y-72801966D02*
X158091666Y-72835300D01*
X158091666Y-72835300D02*
X158125000Y-72901966D01*
X158125000Y-72901966D02*
X158158333Y-73035300D01*
X158158333Y-73035300D02*
X158158333Y-73201966D01*
X158158333Y-73201966D02*
X158125000Y-73335300D01*
X158125000Y-73335300D02*
X158091666Y-73401966D01*
X158091666Y-73401966D02*
X158058333Y-73435300D01*
X158058333Y-73435300D02*
X157991666Y-73468633D01*
X157991666Y-73468633D02*
X157925000Y-73468633D01*
X157925000Y-73468633D02*
X157858333Y-73435300D01*
X157858333Y-73435300D02*
X157825000Y-73401966D01*
X157825000Y-73401966D02*
X157791666Y-73335300D01*
X157791666Y-73335300D02*
X157758333Y-73201966D01*
X157758333Y-73201966D02*
X157758333Y-73035300D01*
X157758333Y-73035300D02*
X157791666Y-72901966D01*
X157791666Y-72901966D02*
X157825000Y-72835300D01*
X157825000Y-72835300D02*
X157858333Y-72801966D01*
X157858333Y-72801966D02*
X157925000Y-72768633D01*
X158825000Y-73468633D02*
X158425000Y-73468633D01*
X158625000Y-73468633D02*
X158625000Y-72768633D01*
X158625000Y-72768633D02*
X158558333Y-72868633D01*
X158558333Y-72868633D02*
X158491667Y-72935300D01*
X158491667Y-72935300D02*
X158425000Y-72968633D01*
X178666666Y-65793633D02*
X179066666Y-65793633D01*
X178866666Y-66493633D02*
X178866666Y-65793633D01*
X179299999Y-66493633D02*
X179299999Y-65793633D01*
X179299999Y-65793633D02*
X179566666Y-65793633D01*
X179566666Y-65793633D02*
X179633333Y-65826966D01*
X179633333Y-65826966D02*
X179666666Y-65860300D01*
X179666666Y-65860300D02*
X179699999Y-65926966D01*
X179699999Y-65926966D02*
X179699999Y-66026966D01*
X179699999Y-66026966D02*
X179666666Y-66093633D01*
X179666666Y-66093633D02*
X179633333Y-66126966D01*
X179633333Y-66126966D02*
X179566666Y-66160300D01*
X179566666Y-66160300D02*
X179299999Y-66160300D01*
X179933333Y-65793633D02*
X180366666Y-65793633D01*
X180366666Y-65793633D02*
X180133333Y-66060300D01*
X180133333Y-66060300D02*
X180233333Y-66060300D01*
X180233333Y-66060300D02*
X180299999Y-66093633D01*
X180299999Y-66093633D02*
X180333333Y-66126966D01*
X180333333Y-66126966D02*
X180366666Y-66193633D01*
X180366666Y-66193633D02*
X180366666Y-66360300D01*
X180366666Y-66360300D02*
X180333333Y-66426966D01*
X180333333Y-66426966D02*
X180299999Y-66460300D01*
X180299999Y-66460300D02*
X180233333Y-66493633D01*
X180233333Y-66493633D02*
X180033333Y-66493633D01*
X180033333Y-66493633D02*
X179966666Y-66460300D01*
X179966666Y-66460300D02*
X179933333Y-66426966D01*
X184558333Y-58260300D02*
X184658333Y-58293633D01*
X184658333Y-58293633D02*
X184825000Y-58293633D01*
X184825000Y-58293633D02*
X184891666Y-58260300D01*
X184891666Y-58260300D02*
X184925000Y-58226966D01*
X184925000Y-58226966D02*
X184958333Y-58160300D01*
X184958333Y-58160300D02*
X184958333Y-58093633D01*
X184958333Y-58093633D02*
X184925000Y-58026966D01*
X184925000Y-58026966D02*
X184891666Y-57993633D01*
X184891666Y-57993633D02*
X184825000Y-57960300D01*
X184825000Y-57960300D02*
X184691666Y-57926966D01*
X184691666Y-57926966D02*
X184625000Y-57893633D01*
X184625000Y-57893633D02*
X184591666Y-57860300D01*
X184591666Y-57860300D02*
X184558333Y-57793633D01*
X184558333Y-57793633D02*
X184558333Y-57726966D01*
X184558333Y-57726966D02*
X184591666Y-57660300D01*
X184591666Y-57660300D02*
X184625000Y-57626966D01*
X184625000Y-57626966D02*
X184691666Y-57593633D01*
X184691666Y-57593633D02*
X184858333Y-57593633D01*
X184858333Y-57593633D02*
X184958333Y-57626966D01*
X185158333Y-57593633D02*
X185558333Y-57593633D01*
X185358333Y-58293633D02*
X185358333Y-57593633D01*
X185791666Y-58026966D02*
X186325000Y-58026966D01*
X186991667Y-58293633D02*
X186658333Y-58293633D01*
X186658333Y-58293633D02*
X186658333Y-57593633D01*
X187225000Y-58293633D02*
X187225000Y-57593633D01*
X187558333Y-58293633D02*
X187558333Y-57593633D01*
X187558333Y-57593633D02*
X187958333Y-58293633D01*
X187958333Y-58293633D02*
X187958333Y-57593633D01*
X188291666Y-58293633D02*
X188291666Y-57593633D01*
X188691666Y-58293633D02*
X188391666Y-57893633D01*
X188691666Y-57593633D02*
X188291666Y-57993633D01*
X148343633Y-73733333D02*
X148010300Y-73966666D01*
X148343633Y-74133333D02*
X147643633Y-74133333D01*
X147643633Y-74133333D02*
X147643633Y-73866666D01*
X147643633Y-73866666D02*
X147676966Y-73800000D01*
X147676966Y-73800000D02*
X147710300Y-73766666D01*
X147710300Y-73766666D02*
X147776966Y-73733333D01*
X147776966Y-73733333D02*
X147876966Y-73733333D01*
X147876966Y-73733333D02*
X147943633Y-73766666D01*
X147943633Y-73766666D02*
X147976966Y-73800000D01*
X147976966Y-73800000D02*
X148010300Y-73866666D01*
X148010300Y-73866666D02*
X148010300Y-74133333D01*
X147643633Y-73100000D02*
X147643633Y-73433333D01*
X147643633Y-73433333D02*
X147976966Y-73466666D01*
X147976966Y-73466666D02*
X147943633Y-73433333D01*
X147943633Y-73433333D02*
X147910300Y-73366666D01*
X147910300Y-73366666D02*
X147910300Y-73200000D01*
X147910300Y-73200000D02*
X147943633Y-73133333D01*
X147943633Y-73133333D02*
X147976966Y-73100000D01*
X147976966Y-73100000D02*
X148043633Y-73066666D01*
X148043633Y-73066666D02*
X148210300Y-73066666D01*
X148210300Y-73066666D02*
X148276966Y-73100000D01*
X148276966Y-73100000D02*
X148310300Y-73133333D01*
X148310300Y-73133333D02*
X148343633Y-73200000D01*
X148343633Y-73200000D02*
X148343633Y-73366666D01*
X148343633Y-73366666D02*
X148310300Y-73433333D01*
X148310300Y-73433333D02*
X148276966Y-73466666D01*
X147643633Y-72633333D02*
X147643633Y-72566666D01*
X147643633Y-72566666D02*
X147676966Y-72499999D01*
X147676966Y-72499999D02*
X147710300Y-72466666D01*
X147710300Y-72466666D02*
X147776966Y-72433333D01*
X147776966Y-72433333D02*
X147910300Y-72399999D01*
X147910300Y-72399999D02*
X148076966Y-72399999D01*
X148076966Y-72399999D02*
X148210300Y-72433333D01*
X148210300Y-72433333D02*
X148276966Y-72466666D01*
X148276966Y-72466666D02*
X148310300Y-72499999D01*
X148310300Y-72499999D02*
X148343633Y-72566666D01*
X148343633Y-72566666D02*
X148343633Y-72633333D01*
X148343633Y-72633333D02*
X148310300Y-72699999D01*
X148310300Y-72699999D02*
X148276966Y-72733333D01*
X148276966Y-72733333D02*
X148210300Y-72766666D01*
X148210300Y-72766666D02*
X148076966Y-72799999D01*
X148076966Y-72799999D02*
X147910300Y-72799999D01*
X147910300Y-72799999D02*
X147776966Y-72766666D01*
X147776966Y-72766666D02*
X147710300Y-72733333D01*
X147710300Y-72733333D02*
X147676966Y-72699999D01*
X147676966Y-72699999D02*
X147643633Y-72633333D01*
X147876966Y-71799999D02*
X148343633Y-71799999D01*
X147610300Y-71966666D02*
X148110300Y-72133332D01*
X148110300Y-72133332D02*
X148110300Y-71699999D01*
X173591667Y-58668633D02*
X173591667Y-57968633D01*
X173591667Y-58301966D02*
X173991667Y-58301966D01*
X173991667Y-58668633D02*
X173991667Y-57968633D01*
X174625000Y-58668633D02*
X174625000Y-58301966D01*
X174625000Y-58301966D02*
X174591667Y-58235300D01*
X174591667Y-58235300D02*
X174525000Y-58201966D01*
X174525000Y-58201966D02*
X174391667Y-58201966D01*
X174391667Y-58201966D02*
X174325000Y-58235300D01*
X174625000Y-58635300D02*
X174558334Y-58668633D01*
X174558334Y-58668633D02*
X174391667Y-58668633D01*
X174391667Y-58668633D02*
X174325000Y-58635300D01*
X174325000Y-58635300D02*
X174291667Y-58568633D01*
X174291667Y-58568633D02*
X174291667Y-58501966D01*
X174291667Y-58501966D02*
X174325000Y-58435300D01*
X174325000Y-58435300D02*
X174391667Y-58401966D01*
X174391667Y-58401966D02*
X174558334Y-58401966D01*
X174558334Y-58401966D02*
X174625000Y-58368633D01*
X175258333Y-58635300D02*
X175191667Y-58668633D01*
X175191667Y-58668633D02*
X175058333Y-58668633D01*
X175058333Y-58668633D02*
X174991667Y-58635300D01*
X174991667Y-58635300D02*
X174958333Y-58601966D01*
X174958333Y-58601966D02*
X174925000Y-58535300D01*
X174925000Y-58535300D02*
X174925000Y-58335300D01*
X174925000Y-58335300D02*
X174958333Y-58268633D01*
X174958333Y-58268633D02*
X174991667Y-58235300D01*
X174991667Y-58235300D02*
X175058333Y-58201966D01*
X175058333Y-58201966D02*
X175191667Y-58201966D01*
X175191667Y-58201966D02*
X175258333Y-58235300D01*
X175558333Y-58668633D02*
X175558333Y-57968633D01*
X175858333Y-58668633D02*
X175858333Y-58301966D01*
X175858333Y-58301966D02*
X175825000Y-58235300D01*
X175825000Y-58235300D02*
X175758333Y-58201966D01*
X175758333Y-58201966D02*
X175658333Y-58201966D01*
X175658333Y-58201966D02*
X175591667Y-58235300D01*
X175591667Y-58235300D02*
X175558333Y-58268633D01*
X176458333Y-58635300D02*
X176391666Y-58668633D01*
X176391666Y-58668633D02*
X176258333Y-58668633D01*
X176258333Y-58668633D02*
X176191666Y-58635300D01*
X176191666Y-58635300D02*
X176158333Y-58568633D01*
X176158333Y-58568633D02*
X176158333Y-58301966D01*
X176158333Y-58301966D02*
X176191666Y-58235300D01*
X176191666Y-58235300D02*
X176258333Y-58201966D01*
X176258333Y-58201966D02*
X176391666Y-58201966D01*
X176391666Y-58201966D02*
X176458333Y-58235300D01*
X176458333Y-58235300D02*
X176491666Y-58301966D01*
X176491666Y-58301966D02*
X176491666Y-58368633D01*
X176491666Y-58368633D02*
X176158333Y-58435300D01*
X177091666Y-58201966D02*
X177091666Y-58668633D01*
X176791666Y-58201966D02*
X176791666Y-58568633D01*
X176791666Y-58568633D02*
X176825000Y-58635300D01*
X176825000Y-58635300D02*
X176891666Y-58668633D01*
X176891666Y-58668633D02*
X176991666Y-58668633D01*
X176991666Y-58668633D02*
X177058333Y-58635300D01*
X177058333Y-58635300D02*
X177091666Y-58601966D01*
X177424999Y-58668633D02*
X177424999Y-58201966D01*
X177424999Y-58335300D02*
X177458333Y-58268633D01*
X177458333Y-58268633D02*
X177491666Y-58235300D01*
X177491666Y-58235300D02*
X177558333Y-58201966D01*
X177558333Y-58201966D02*
X177624999Y-58201966D01*
X178391665Y-58668633D02*
X178391665Y-57968633D01*
X178391665Y-57968633D02*
X178558332Y-57968633D01*
X178558332Y-57968633D02*
X178658332Y-58001966D01*
X178658332Y-58001966D02*
X178724999Y-58068633D01*
X178724999Y-58068633D02*
X178758332Y-58135300D01*
X178758332Y-58135300D02*
X178791665Y-58268633D01*
X178791665Y-58268633D02*
X178791665Y-58368633D01*
X178791665Y-58368633D02*
X178758332Y-58501966D01*
X178758332Y-58501966D02*
X178724999Y-58568633D01*
X178724999Y-58568633D02*
X178658332Y-58635300D01*
X178658332Y-58635300D02*
X178558332Y-58668633D01*
X178558332Y-58668633D02*
X178391665Y-58668633D01*
X148168633Y-88975000D02*
X148168633Y-89308333D01*
X148168633Y-89308333D02*
X147468633Y-89308333D01*
X148168633Y-88741666D02*
X147468633Y-88741666D01*
X148168633Y-88408333D02*
X147468633Y-88408333D01*
X147468633Y-88408333D02*
X147468633Y-88241666D01*
X147468633Y-88241666D02*
X147501966Y-88141666D01*
X147501966Y-88141666D02*
X147568633Y-88075000D01*
X147568633Y-88075000D02*
X147635300Y-88041666D01*
X147635300Y-88041666D02*
X147768633Y-88008333D01*
X147768633Y-88008333D02*
X147868633Y-88008333D01*
X147868633Y-88008333D02*
X148001966Y-88041666D01*
X148001966Y-88041666D02*
X148068633Y-88075000D01*
X148068633Y-88075000D02*
X148135300Y-88141666D01*
X148135300Y-88141666D02*
X148168633Y-88241666D01*
X148168633Y-88241666D02*
X148168633Y-88408333D01*
X147968633Y-87741666D02*
X147968633Y-87408333D01*
X148168633Y-87808333D02*
X147468633Y-87575000D01*
X147468633Y-87575000D02*
X148168633Y-87341666D01*
X148168633Y-86708333D02*
X147835300Y-86941666D01*
X148168633Y-87108333D02*
X147468633Y-87108333D01*
X147468633Y-87108333D02*
X147468633Y-86841666D01*
X147468633Y-86841666D02*
X147501966Y-86775000D01*
X147501966Y-86775000D02*
X147535300Y-86741666D01*
X147535300Y-86741666D02*
X147601966Y-86708333D01*
X147601966Y-86708333D02*
X147701966Y-86708333D01*
X147701966Y-86708333D02*
X147768633Y-86741666D01*
X147768633Y-86741666D02*
X147801966Y-86775000D01*
X147801966Y-86775000D02*
X147835300Y-86841666D01*
X147835300Y-86841666D02*
X147835300Y-87108333D01*
X140366666Y-100118633D02*
X140366666Y-99418633D01*
X140366666Y-99751966D02*
X140766666Y-99751966D01*
X140766666Y-100118633D02*
X140766666Y-99418633D01*
X141033333Y-99418633D02*
X141466666Y-99418633D01*
X141466666Y-99418633D02*
X141233333Y-99685300D01*
X141233333Y-99685300D02*
X141333333Y-99685300D01*
X141333333Y-99685300D02*
X141399999Y-99718633D01*
X141399999Y-99718633D02*
X141433333Y-99751966D01*
X141433333Y-99751966D02*
X141466666Y-99818633D01*
X141466666Y-99818633D02*
X141466666Y-99985300D01*
X141466666Y-99985300D02*
X141433333Y-100051966D01*
X141433333Y-100051966D02*
X141399999Y-100085300D01*
X141399999Y-100085300D02*
X141333333Y-100118633D01*
X141333333Y-100118633D02*
X141133333Y-100118633D01*
X141133333Y-100118633D02*
X141066666Y-100085300D01*
X141066666Y-100085300D02*
X141033333Y-100051966D01*
X161008334Y-58593633D02*
X161008334Y-57893633D01*
X161008334Y-58226966D02*
X161408334Y-58226966D01*
X161408334Y-58593633D02*
X161408334Y-57893633D01*
X162041667Y-58593633D02*
X162041667Y-58226966D01*
X162041667Y-58226966D02*
X162008334Y-58160300D01*
X162008334Y-58160300D02*
X161941667Y-58126966D01*
X161941667Y-58126966D02*
X161808334Y-58126966D01*
X161808334Y-58126966D02*
X161741667Y-58160300D01*
X162041667Y-58560300D02*
X161975001Y-58593633D01*
X161975001Y-58593633D02*
X161808334Y-58593633D01*
X161808334Y-58593633D02*
X161741667Y-58560300D01*
X161741667Y-58560300D02*
X161708334Y-58493633D01*
X161708334Y-58493633D02*
X161708334Y-58426966D01*
X161708334Y-58426966D02*
X161741667Y-58360300D01*
X161741667Y-58360300D02*
X161808334Y-58326966D01*
X161808334Y-58326966D02*
X161975001Y-58326966D01*
X161975001Y-58326966D02*
X162041667Y-58293633D01*
X162675000Y-58560300D02*
X162608334Y-58593633D01*
X162608334Y-58593633D02*
X162475000Y-58593633D01*
X162475000Y-58593633D02*
X162408334Y-58560300D01*
X162408334Y-58560300D02*
X162375000Y-58526966D01*
X162375000Y-58526966D02*
X162341667Y-58460300D01*
X162341667Y-58460300D02*
X162341667Y-58260300D01*
X162341667Y-58260300D02*
X162375000Y-58193633D01*
X162375000Y-58193633D02*
X162408334Y-58160300D01*
X162408334Y-58160300D02*
X162475000Y-58126966D01*
X162475000Y-58126966D02*
X162608334Y-58126966D01*
X162608334Y-58126966D02*
X162675000Y-58160300D01*
X162975000Y-58593633D02*
X162975000Y-57893633D01*
X163275000Y-58593633D02*
X163275000Y-58226966D01*
X163275000Y-58226966D02*
X163241667Y-58160300D01*
X163241667Y-58160300D02*
X163175000Y-58126966D01*
X163175000Y-58126966D02*
X163075000Y-58126966D01*
X163075000Y-58126966D02*
X163008334Y-58160300D01*
X163008334Y-58160300D02*
X162975000Y-58193633D01*
X163875000Y-58560300D02*
X163808333Y-58593633D01*
X163808333Y-58593633D02*
X163675000Y-58593633D01*
X163675000Y-58593633D02*
X163608333Y-58560300D01*
X163608333Y-58560300D02*
X163575000Y-58493633D01*
X163575000Y-58493633D02*
X163575000Y-58226966D01*
X163575000Y-58226966D02*
X163608333Y-58160300D01*
X163608333Y-58160300D02*
X163675000Y-58126966D01*
X163675000Y-58126966D02*
X163808333Y-58126966D01*
X163808333Y-58126966D02*
X163875000Y-58160300D01*
X163875000Y-58160300D02*
X163908333Y-58226966D01*
X163908333Y-58226966D02*
X163908333Y-58293633D01*
X163908333Y-58293633D02*
X163575000Y-58360300D01*
X164508333Y-58126966D02*
X164508333Y-58593633D01*
X164208333Y-58126966D02*
X164208333Y-58493633D01*
X164208333Y-58493633D02*
X164241667Y-58560300D01*
X164241667Y-58560300D02*
X164308333Y-58593633D01*
X164308333Y-58593633D02*
X164408333Y-58593633D01*
X164408333Y-58593633D02*
X164475000Y-58560300D01*
X164475000Y-58560300D02*
X164508333Y-58526966D01*
X164841666Y-58593633D02*
X164841666Y-58126966D01*
X164841666Y-58260300D02*
X164875000Y-58193633D01*
X164875000Y-58193633D02*
X164908333Y-58160300D01*
X164908333Y-58160300D02*
X164975000Y-58126966D01*
X164975000Y-58126966D02*
X165041666Y-58126966D01*
X165641666Y-57926966D02*
X165574999Y-57893633D01*
X165574999Y-57893633D02*
X165474999Y-57893633D01*
X165474999Y-57893633D02*
X165374999Y-57926966D01*
X165374999Y-57926966D02*
X165308333Y-57993633D01*
X165308333Y-57993633D02*
X165274999Y-58060300D01*
X165274999Y-58060300D02*
X165241666Y-58193633D01*
X165241666Y-58193633D02*
X165241666Y-58293633D01*
X165241666Y-58293633D02*
X165274999Y-58426966D01*
X165274999Y-58426966D02*
X165308333Y-58493633D01*
X165308333Y-58493633D02*
X165374999Y-58560300D01*
X165374999Y-58560300D02*
X165474999Y-58593633D01*
X165474999Y-58593633D02*
X165541666Y-58593633D01*
X165541666Y-58593633D02*
X165641666Y-58560300D01*
X165641666Y-58560300D02*
X165674999Y-58526966D01*
X165674999Y-58526966D02*
X165674999Y-58293633D01*
X165674999Y-58293633D02*
X165541666Y-58293633D01*
X188326966Y-87599999D02*
X188360300Y-87633332D01*
X188360300Y-87633332D02*
X188393633Y-87733332D01*
X188393633Y-87733332D02*
X188393633Y-87799999D01*
X188393633Y-87799999D02*
X188360300Y-87899999D01*
X188360300Y-87899999D02*
X188293633Y-87966666D01*
X188293633Y-87966666D02*
X188226966Y-87999999D01*
X188226966Y-87999999D02*
X188093633Y-88033332D01*
X188093633Y-88033332D02*
X187993633Y-88033332D01*
X187993633Y-88033332D02*
X187860300Y-87999999D01*
X187860300Y-87999999D02*
X187793633Y-87966666D01*
X187793633Y-87966666D02*
X187726966Y-87899999D01*
X187726966Y-87899999D02*
X187693633Y-87799999D01*
X187693633Y-87799999D02*
X187693633Y-87733332D01*
X187693633Y-87733332D02*
X187726966Y-87633332D01*
X187726966Y-87633332D02*
X187760300Y-87599999D01*
X188393633Y-86999999D02*
X188026966Y-86999999D01*
X188026966Y-86999999D02*
X187960300Y-87033332D01*
X187960300Y-87033332D02*
X187926966Y-87099999D01*
X187926966Y-87099999D02*
X187926966Y-87233332D01*
X187926966Y-87233332D02*
X187960300Y-87299999D01*
X188360300Y-86999999D02*
X188393633Y-87066666D01*
X188393633Y-87066666D02*
X188393633Y-87233332D01*
X188393633Y-87233332D02*
X188360300Y-87299999D01*
X188360300Y-87299999D02*
X188293633Y-87333332D01*
X188293633Y-87333332D02*
X188226966Y-87333332D01*
X188226966Y-87333332D02*
X188160300Y-87299999D01*
X188160300Y-87299999D02*
X188126966Y-87233332D01*
X188126966Y-87233332D02*
X188126966Y-87066666D01*
X188126966Y-87066666D02*
X188093633Y-86999999D01*
X187926966Y-86666666D02*
X188626966Y-86666666D01*
X187960300Y-86666666D02*
X187926966Y-86599999D01*
X187926966Y-86599999D02*
X187926966Y-86466666D01*
X187926966Y-86466666D02*
X187960300Y-86399999D01*
X187960300Y-86399999D02*
X187993633Y-86366666D01*
X187993633Y-86366666D02*
X188060300Y-86333333D01*
X188060300Y-86333333D02*
X188260300Y-86333333D01*
X188260300Y-86333333D02*
X188326966Y-86366666D01*
X188326966Y-86366666D02*
X188360300Y-86399999D01*
X188360300Y-86399999D02*
X188393633Y-86466666D01*
X188393633Y-86466666D02*
X188393633Y-86599999D01*
X188393633Y-86599999D02*
X188360300Y-86666666D01*
X187926966Y-86133333D02*
X187926966Y-85866666D01*
X187693633Y-86033333D02*
X188293633Y-86033333D01*
X188293633Y-86033333D02*
X188360300Y-86000000D01*
X188360300Y-86000000D02*
X188393633Y-85933333D01*
X188393633Y-85933333D02*
X188393633Y-85866666D01*
X188360300Y-85366666D02*
X188393633Y-85433333D01*
X188393633Y-85433333D02*
X188393633Y-85566666D01*
X188393633Y-85566666D02*
X188360300Y-85633333D01*
X188360300Y-85633333D02*
X188293633Y-85666666D01*
X188293633Y-85666666D02*
X188026966Y-85666666D01*
X188026966Y-85666666D02*
X187960300Y-85633333D01*
X187960300Y-85633333D02*
X187926966Y-85566666D01*
X187926966Y-85566666D02*
X187926966Y-85433333D01*
X187926966Y-85433333D02*
X187960300Y-85366666D01*
X187960300Y-85366666D02*
X188026966Y-85333333D01*
X188026966Y-85333333D02*
X188093633Y-85333333D01*
X188093633Y-85333333D02*
X188160300Y-85666666D01*
X187926966Y-84733333D02*
X188393633Y-84733333D01*
X187926966Y-85033333D02*
X188293633Y-85033333D01*
X188293633Y-85033333D02*
X188360300Y-85000000D01*
X188360300Y-85000000D02*
X188393633Y-84933333D01*
X188393633Y-84933333D02*
X188393633Y-84833333D01*
X188393633Y-84833333D02*
X188360300Y-84766666D01*
X188360300Y-84766666D02*
X188326966Y-84733333D01*
X188393633Y-84400000D02*
X187926966Y-84400000D01*
X188060300Y-84400000D02*
X187993633Y-84366667D01*
X187993633Y-84366667D02*
X187960300Y-84333333D01*
X187960300Y-84333333D02*
X187926966Y-84266667D01*
X187926966Y-84266667D02*
X187926966Y-84200000D01*
X188026966Y-83733334D02*
X188060300Y-83633334D01*
X188060300Y-83633334D02*
X188093633Y-83600000D01*
X188093633Y-83600000D02*
X188160300Y-83566667D01*
X188160300Y-83566667D02*
X188260300Y-83566667D01*
X188260300Y-83566667D02*
X188326966Y-83600000D01*
X188326966Y-83600000D02*
X188360300Y-83633334D01*
X188360300Y-83633334D02*
X188393633Y-83700000D01*
X188393633Y-83700000D02*
X188393633Y-83966667D01*
X188393633Y-83966667D02*
X187693633Y-83966667D01*
X187693633Y-83966667D02*
X187693633Y-83733334D01*
X187693633Y-83733334D02*
X187726966Y-83666667D01*
X187726966Y-83666667D02*
X187760300Y-83633334D01*
X187760300Y-83633334D02*
X187826966Y-83600000D01*
X187826966Y-83600000D02*
X187893633Y-83600000D01*
X187893633Y-83600000D02*
X187960300Y-83633334D01*
X187960300Y-83633334D02*
X187993633Y-83666667D01*
X187993633Y-83666667D02*
X188026966Y-83733334D01*
X188026966Y-83733334D02*
X188026966Y-83966667D01*
X187726966Y-82900000D02*
X187693633Y-82966667D01*
X187693633Y-82966667D02*
X187693633Y-83066667D01*
X187693633Y-83066667D02*
X187726966Y-83166667D01*
X187726966Y-83166667D02*
X187793633Y-83233334D01*
X187793633Y-83233334D02*
X187860300Y-83266667D01*
X187860300Y-83266667D02*
X187993633Y-83300000D01*
X187993633Y-83300000D02*
X188093633Y-83300000D01*
X188093633Y-83300000D02*
X188226966Y-83266667D01*
X188226966Y-83266667D02*
X188293633Y-83233334D01*
X188293633Y-83233334D02*
X188360300Y-83166667D01*
X188360300Y-83166667D02*
X188393633Y-83066667D01*
X188393633Y-83066667D02*
X188393633Y-83000000D01*
X188393633Y-83000000D02*
X188360300Y-82900000D01*
X188360300Y-82900000D02*
X188326966Y-82866667D01*
X188326966Y-82866667D02*
X188093633Y-82866667D01*
X188093633Y-82866667D02*
X188093633Y-83000000D01*
X192466666Y-99818633D02*
X192466666Y-99118633D01*
X192466666Y-99451966D02*
X192866666Y-99451966D01*
X192866666Y-99818633D02*
X192866666Y-99118633D01*
X193499999Y-99351966D02*
X193499999Y-99818633D01*
X193333333Y-99085300D02*
X193166666Y-99585300D01*
X193166666Y-99585300D02*
X193599999Y-99585300D01*
X161718633Y-103574999D02*
X161718633Y-103908332D01*
X161718633Y-103908332D02*
X161018633Y-103908332D01*
X161351966Y-103341665D02*
X161351966Y-103108332D01*
X161718633Y-103008332D02*
X161718633Y-103341665D01*
X161718633Y-103341665D02*
X161018633Y-103341665D01*
X161018633Y-103341665D02*
X161018633Y-103008332D01*
X161718633Y-102708332D02*
X161018633Y-102708332D01*
X161018633Y-102708332D02*
X161018633Y-102541665D01*
X161018633Y-102541665D02*
X161051966Y-102441665D01*
X161051966Y-102441665D02*
X161118633Y-102374999D01*
X161118633Y-102374999D02*
X161185300Y-102341665D01*
X161185300Y-102341665D02*
X161318633Y-102308332D01*
X161318633Y-102308332D02*
X161418633Y-102308332D01*
X161418633Y-102308332D02*
X161551966Y-102341665D01*
X161551966Y-102341665D02*
X161618633Y-102374999D01*
X161618633Y-102374999D02*
X161685300Y-102441665D01*
X161685300Y-102441665D02*
X161718633Y-102541665D01*
X161718633Y-102541665D02*
X161718633Y-102708332D01*
X161685300Y-102041665D02*
X161718633Y-101974999D01*
X161718633Y-101974999D02*
X161718633Y-101841665D01*
X161718633Y-101841665D02*
X161685300Y-101774999D01*
X161685300Y-101774999D02*
X161618633Y-101741665D01*
X161618633Y-101741665D02*
X161585300Y-101741665D01*
X161585300Y-101741665D02*
X161518633Y-101774999D01*
X161518633Y-101774999D02*
X161485300Y-101841665D01*
X161485300Y-101841665D02*
X161485300Y-101941665D01*
X161485300Y-101941665D02*
X161451966Y-102008332D01*
X161451966Y-102008332D02*
X161385300Y-102041665D01*
X161385300Y-102041665D02*
X161351966Y-102041665D01*
X161351966Y-102041665D02*
X161285300Y-102008332D01*
X161285300Y-102008332D02*
X161251966Y-101941665D01*
X161251966Y-101941665D02*
X161251966Y-101841665D01*
X161251966Y-101841665D02*
X161285300Y-101774999D01*
X161718633Y-100574999D02*
X161718633Y-100908332D01*
X161718633Y-100908332D02*
X161018633Y-100908332D01*
X161718633Y-100341665D02*
X161251966Y-100341665D01*
X161018633Y-100341665D02*
X161051966Y-100374998D01*
X161051966Y-100374998D02*
X161085300Y-100341665D01*
X161085300Y-100341665D02*
X161051966Y-100308332D01*
X161051966Y-100308332D02*
X161018633Y-100341665D01*
X161018633Y-100341665D02*
X161085300Y-100341665D01*
X161718633Y-99708332D02*
X161018633Y-99708332D01*
X161685300Y-99708332D02*
X161718633Y-99774999D01*
X161718633Y-99774999D02*
X161718633Y-99908332D01*
X161718633Y-99908332D02*
X161685300Y-99974999D01*
X161685300Y-99974999D02*
X161651966Y-100008332D01*
X161651966Y-100008332D02*
X161585300Y-100041665D01*
X161585300Y-100041665D02*
X161385300Y-100041665D01*
X161385300Y-100041665D02*
X161318633Y-100008332D01*
X161318633Y-100008332D02*
X161285300Y-99974999D01*
X161285300Y-99974999D02*
X161251966Y-99908332D01*
X161251966Y-99908332D02*
X161251966Y-99774999D01*
X161251966Y-99774999D02*
X161285300Y-99708332D01*
X161718633Y-99074999D02*
X161351966Y-99074999D01*
X161351966Y-99074999D02*
X161285300Y-99108332D01*
X161285300Y-99108332D02*
X161251966Y-99174999D01*
X161251966Y-99174999D02*
X161251966Y-99308332D01*
X161251966Y-99308332D02*
X161285300Y-99374999D01*
X161685300Y-99074999D02*
X161718633Y-99141666D01*
X161718633Y-99141666D02*
X161718633Y-99308332D01*
X161718633Y-99308332D02*
X161685300Y-99374999D01*
X161685300Y-99374999D02*
X161618633Y-99408332D01*
X161618633Y-99408332D02*
X161551966Y-99408332D01*
X161551966Y-99408332D02*
X161485300Y-99374999D01*
X161485300Y-99374999D02*
X161451966Y-99308332D01*
X161451966Y-99308332D02*
X161451966Y-99141666D01*
X161451966Y-99141666D02*
X161418633Y-99074999D01*
X161718633Y-98741666D02*
X161251966Y-98741666D01*
X161385300Y-98741666D02*
X161318633Y-98708333D01*
X161318633Y-98708333D02*
X161285300Y-98674999D01*
X161285300Y-98674999D02*
X161251966Y-98608333D01*
X161251966Y-98608333D02*
X161251966Y-98541666D01*
X158441666Y-65618633D02*
X158841666Y-65618633D01*
X158641666Y-66318633D02*
X158641666Y-65618633D01*
X159074999Y-66318633D02*
X159074999Y-65618633D01*
X159074999Y-65618633D02*
X159341666Y-65618633D01*
X159341666Y-65618633D02*
X159408333Y-65651966D01*
X159408333Y-65651966D02*
X159441666Y-65685300D01*
X159441666Y-65685300D02*
X159474999Y-65751966D01*
X159474999Y-65751966D02*
X159474999Y-65851966D01*
X159474999Y-65851966D02*
X159441666Y-65918633D01*
X159441666Y-65918633D02*
X159408333Y-65951966D01*
X159408333Y-65951966D02*
X159341666Y-65985300D01*
X159341666Y-65985300D02*
X159074999Y-65985300D01*
X159741666Y-65685300D02*
X159774999Y-65651966D01*
X159774999Y-65651966D02*
X159841666Y-65618633D01*
X159841666Y-65618633D02*
X160008333Y-65618633D01*
X160008333Y-65618633D02*
X160074999Y-65651966D01*
X160074999Y-65651966D02*
X160108333Y-65685300D01*
X160108333Y-65685300D02*
X160141666Y-65751966D01*
X160141666Y-65751966D02*
X160141666Y-65818633D01*
X160141666Y-65818633D02*
X160108333Y-65918633D01*
X160108333Y-65918633D02*
X159708333Y-66318633D01*
X159708333Y-66318633D02*
X160141666Y-66318633D01*
X157750000Y-56243633D02*
X157750000Y-55543633D01*
X157750000Y-55543633D02*
X157983334Y-56043633D01*
X157983334Y-56043633D02*
X158216667Y-55543633D01*
X158216667Y-55543633D02*
X158216667Y-56243633D01*
X158650000Y-56243633D02*
X158583334Y-56210300D01*
X158583334Y-56210300D02*
X158550000Y-56176966D01*
X158550000Y-56176966D02*
X158516667Y-56110300D01*
X158516667Y-56110300D02*
X158516667Y-55910300D01*
X158516667Y-55910300D02*
X158550000Y-55843633D01*
X158550000Y-55843633D02*
X158583334Y-55810300D01*
X158583334Y-55810300D02*
X158650000Y-55776966D01*
X158650000Y-55776966D02*
X158750000Y-55776966D01*
X158750000Y-55776966D02*
X158816667Y-55810300D01*
X158816667Y-55810300D02*
X158850000Y-55843633D01*
X158850000Y-55843633D02*
X158883334Y-55910300D01*
X158883334Y-55910300D02*
X158883334Y-56110300D01*
X158883334Y-56110300D02*
X158850000Y-56176966D01*
X158850000Y-56176966D02*
X158816667Y-56210300D01*
X158816667Y-56210300D02*
X158750000Y-56243633D01*
X158750000Y-56243633D02*
X158650000Y-56243633D01*
X159083333Y-55776966D02*
X159350000Y-55776966D01*
X159183333Y-55543633D02*
X159183333Y-56143633D01*
X159183333Y-56143633D02*
X159216667Y-56210300D01*
X159216667Y-56210300D02*
X159283333Y-56243633D01*
X159283333Y-56243633D02*
X159350000Y-56243633D01*
X159850000Y-56210300D02*
X159783333Y-56243633D01*
X159783333Y-56243633D02*
X159650000Y-56243633D01*
X159650000Y-56243633D02*
X159583333Y-56210300D01*
X159583333Y-56210300D02*
X159550000Y-56143633D01*
X159550000Y-56143633D02*
X159550000Y-55876966D01*
X159550000Y-55876966D02*
X159583333Y-55810300D01*
X159583333Y-55810300D02*
X159650000Y-55776966D01*
X159650000Y-55776966D02*
X159783333Y-55776966D01*
X159783333Y-55776966D02*
X159850000Y-55810300D01*
X159850000Y-55810300D02*
X159883333Y-55876966D01*
X159883333Y-55876966D02*
X159883333Y-55943633D01*
X159883333Y-55943633D02*
X159550000Y-56010300D01*
X160483333Y-55776966D02*
X160483333Y-56243633D01*
X160183333Y-55776966D02*
X160183333Y-56143633D01*
X160183333Y-56143633D02*
X160216667Y-56210300D01*
X160216667Y-56210300D02*
X160283333Y-56243633D01*
X160283333Y-56243633D02*
X160383333Y-56243633D01*
X160383333Y-56243633D02*
X160450000Y-56210300D01*
X160450000Y-56210300D02*
X160483333Y-56176966D01*
X160816666Y-56243633D02*
X160816666Y-55776966D01*
X160816666Y-55910300D02*
X160850000Y-55843633D01*
X160850000Y-55843633D02*
X160883333Y-55810300D01*
X160883333Y-55810300D02*
X160950000Y-55776966D01*
X160950000Y-55776966D02*
X161016666Y-55776966D01*
X162149999Y-55576966D02*
X162083332Y-55543633D01*
X162083332Y-55543633D02*
X161983332Y-55543633D01*
X161983332Y-55543633D02*
X161883332Y-55576966D01*
X161883332Y-55576966D02*
X161816666Y-55643633D01*
X161816666Y-55643633D02*
X161783332Y-55710300D01*
X161783332Y-55710300D02*
X161749999Y-55843633D01*
X161749999Y-55843633D02*
X161749999Y-55943633D01*
X161749999Y-55943633D02*
X161783332Y-56076966D01*
X161783332Y-56076966D02*
X161816666Y-56143633D01*
X161816666Y-56143633D02*
X161883332Y-56210300D01*
X161883332Y-56210300D02*
X161983332Y-56243633D01*
X161983332Y-56243633D02*
X162049999Y-56243633D01*
X162049999Y-56243633D02*
X162149999Y-56210300D01*
X162149999Y-56210300D02*
X162183332Y-56176966D01*
X162183332Y-56176966D02*
X162183332Y-55943633D01*
X162183332Y-55943633D02*
X162049999Y-55943633D01*
D12*
%TO.C,TP1*%
X174875000Y-65550000D02*
G75*
G02*
X172975000Y-65550000I-950000J0D01*
G01*
X172975000Y-65550000D02*
G75*
G02*
X174875000Y-65550000I950000J0D01*
G01*
%TO.C,C206*%
X168040000Y-72907836D02*
X168040000Y-72692164D01*
X168760000Y-72907836D02*
X168760000Y-72692164D01*
%TO.C,R202*%
X152437258Y-58452500D02*
X151962742Y-58452500D01*
X152437258Y-59497500D02*
X151962742Y-59497500D01*
%TO.C,Moteur D*%
X167340000Y-43190000D02*
X167340000Y-54910000D01*
X167340000Y-54910000D02*
X168760000Y-54910000D01*
X168760000Y-50410000D02*
X176150000Y-50410000D01*
X168760000Y-54910000D02*
X168760000Y-50410000D01*
X169650000Y-43800000D02*
X169650000Y-49300000D01*
X169650000Y-49300000D02*
X170150000Y-49300000D01*
X170150000Y-43800000D02*
X169650000Y-43800000D01*
X170150000Y-49300000D02*
X170150000Y-43800000D01*
X172150000Y-43800000D02*
X172150000Y-49300000D01*
X172150000Y-49300000D02*
X172650000Y-49300000D01*
X172650000Y-43800000D02*
X172150000Y-43800000D01*
X172650000Y-49300000D02*
X172650000Y-43800000D01*
X174650000Y-43800000D02*
X174650000Y-49300000D01*
X174650000Y-49300000D02*
X175150000Y-49300000D01*
X175150000Y-43800000D02*
X174650000Y-43800000D01*
X175150000Y-49300000D02*
X175150000Y-43800000D01*
X176150000Y-43190000D02*
X167340000Y-43190000D01*
X176150000Y-43190000D02*
X184960000Y-43190000D01*
X177150000Y-43800000D02*
X177150000Y-49300000D01*
X177150000Y-49300000D02*
X177650000Y-49300000D01*
X177650000Y-43800000D02*
X177150000Y-43800000D01*
X177650000Y-49300000D02*
X177650000Y-43800000D01*
X179650000Y-43800000D02*
X179650000Y-49300000D01*
X179650000Y-49300000D02*
X180150000Y-49300000D01*
X180150000Y-43800000D02*
X179650000Y-43800000D01*
X180150000Y-49300000D02*
X180150000Y-43800000D01*
X182100000Y-54600000D02*
X182400000Y-54000000D01*
X182150000Y-43800000D02*
X182150000Y-49300000D01*
X182150000Y-49300000D02*
X182650000Y-49300000D01*
X182400000Y-54000000D02*
X182700000Y-54600000D01*
X182650000Y-43800000D02*
X182150000Y-43800000D01*
X182650000Y-49300000D02*
X182650000Y-43800000D01*
X182700000Y-54600000D02*
X182100000Y-54600000D01*
X183540000Y-50410000D02*
X176150000Y-50410000D01*
X183540000Y-54910000D02*
X183540000Y-50410000D01*
X184960000Y-43190000D02*
X184960000Y-54910000D01*
X184960000Y-54910000D02*
X183540000Y-54910000D01*
%TO.C,R802*%
X186812258Y-88477500D02*
X186337742Y-88477500D01*
X186812258Y-89522500D02*
X186337742Y-89522500D01*
%TO.C,Reset*%
X179270000Y-98495000D02*
X179270000Y-104955000D01*
X179270000Y-98495000D02*
X179300000Y-98495000D01*
X179270000Y-104955000D02*
X179300000Y-104955000D01*
X183800000Y-98495000D02*
X181200000Y-98495000D01*
X183800000Y-104955000D02*
X181200000Y-104955000D01*
X185700000Y-98495000D02*
X185730000Y-98495000D01*
X185730000Y-98495000D02*
X185730000Y-104955000D01*
X185730000Y-104955000D02*
X185700000Y-104955000D01*
%TO.C,CapteurBD*%
X189040000Y-70390000D02*
X189040000Y-71810000D01*
X189040000Y-71810000D02*
X193540000Y-71810000D01*
X189040000Y-81590000D02*
X193540000Y-81590000D01*
X189040000Y-83010000D02*
X189040000Y-81590000D01*
X189350000Y-80150000D02*
X189950000Y-80450000D01*
X189350000Y-80750000D02*
X189350000Y-80150000D01*
X189950000Y-80450000D02*
X189350000Y-80750000D01*
X193540000Y-71810000D02*
X193540000Y-76700000D01*
X193540000Y-81590000D02*
X193540000Y-76700000D01*
X194650000Y-72700000D02*
X194650000Y-73200000D01*
X194650000Y-73200000D02*
X200150000Y-73200000D01*
X194650000Y-75200000D02*
X194650000Y-75700000D01*
X194650000Y-75700000D02*
X200150000Y-75700000D01*
X194650000Y-77700000D02*
X194650000Y-78200000D01*
X194650000Y-78200000D02*
X200150000Y-78200000D01*
X194650000Y-80200000D02*
X194650000Y-80700000D01*
X194650000Y-80700000D02*
X200150000Y-80700000D01*
X200150000Y-72700000D02*
X194650000Y-72700000D01*
X200150000Y-73200000D02*
X200150000Y-72700000D01*
X200150000Y-75200000D02*
X194650000Y-75200000D01*
X200150000Y-75700000D02*
X200150000Y-75200000D01*
X200150000Y-77700000D02*
X194650000Y-77700000D01*
X200150000Y-78200000D02*
X200150000Y-77700000D01*
X200150000Y-80200000D02*
X194650000Y-80200000D01*
X200150000Y-80700000D02*
X200150000Y-80200000D01*
X200760000Y-70390000D02*
X189040000Y-70390000D01*
X200760000Y-76700000D02*
X200760000Y-70390000D01*
X200760000Y-76700000D02*
X200760000Y-83010000D01*
X200760000Y-83010000D02*
X189040000Y-83010000D01*
%TO.C,C505*%
X157990000Y-70634420D02*
X157990000Y-70915580D01*
X159010000Y-70634420D02*
X159010000Y-70915580D01*
%TO.C,D201*%
X147975000Y-59735000D02*
X150435000Y-59735000D01*
X150435000Y-58265000D02*
X147975000Y-58265000D01*
X150435000Y-59735000D02*
X150435000Y-58265000D01*
%TO.C,C601*%
X169940000Y-63183080D02*
X169940000Y-62901920D01*
X170960000Y-63183080D02*
X170960000Y-62901920D01*
%TO.C,C703*%
X155515580Y-55565000D02*
X155234420Y-55565000D01*
X155515580Y-56585000D02*
X155234420Y-56585000D01*
%TO.C,R204*%
X149877500Y-96187742D02*
X149877500Y-96662258D01*
X150922500Y-96187742D02*
X150922500Y-96662258D01*
D13*
%TO.C,R\u00E9gu3.3V*%
X159650000Y-69825000D02*
X160550000Y-69825000D01*
X160900000Y-69875000D02*
X162100000Y-69875000D01*
X160900000Y-72775000D02*
X160900000Y-69875000D01*
X162100000Y-69875000D02*
X162100000Y-72775000D01*
X162100000Y-72775000D02*
X160900000Y-72775000D01*
D12*
%TO.C,C602*%
X169940000Y-60083080D02*
X169940000Y-59801920D01*
X170960000Y-60083080D02*
X170960000Y-59801920D01*
%TO.C,TP4*%
X166250000Y-65450000D02*
G75*
G02*
X164350000Y-65450000I-950000J0D01*
G01*
X164350000Y-65450000D02*
G75*
G02*
X166250000Y-65450000I950000J0D01*
G01*
%TO.C,R203*%
X174077500Y-68537742D02*
X174077500Y-69012258D01*
X175122500Y-68537742D02*
X175122500Y-69012258D01*
%TO.C,ON/OFF*%
X133140000Y-66540000D02*
X144860000Y-66540000D01*
X133140000Y-70350000D02*
X133140000Y-66540000D01*
X133140000Y-70350000D02*
X133140000Y-74160000D01*
X133140000Y-74160000D02*
X144860000Y-74160000D01*
X133750000Y-68850000D02*
X133750000Y-69350000D01*
X133750000Y-69350000D02*
X139250000Y-69350000D01*
X133750000Y-71350000D02*
X133750000Y-71850000D01*
X133750000Y-71850000D02*
X139250000Y-71850000D01*
X139250000Y-68850000D02*
X133750000Y-68850000D01*
X139250000Y-69350000D02*
X139250000Y-68850000D01*
X139250000Y-71350000D02*
X133750000Y-71350000D01*
X139250000Y-71850000D02*
X139250000Y-71350000D01*
X140360000Y-67960000D02*
X140360000Y-70350000D01*
X140360000Y-72740000D02*
X140360000Y-70350000D01*
X143950000Y-69100000D02*
X144550000Y-68800000D01*
X144550000Y-68800000D02*
X144550000Y-69400000D01*
X144550000Y-69400000D02*
X143950000Y-69100000D01*
X144860000Y-66540000D02*
X144860000Y-67960000D01*
X144860000Y-67960000D02*
X140360000Y-67960000D01*
X144860000Y-72740000D02*
X140360000Y-72740000D01*
X144860000Y-74160000D02*
X144860000Y-72740000D01*
%TO.C,C506*%
X161959420Y-68065000D02*
X162240580Y-68065000D01*
X161959420Y-69085000D02*
X162240580Y-69085000D01*
%TO.C,C208*%
X173315000Y-84237164D02*
X173315000Y-84452836D01*
X174035000Y-84237164D02*
X174035000Y-84452836D01*
%TO.C,C502*%
X150642164Y-69440000D02*
X150857836Y-69440000D01*
X150642164Y-70160000D02*
X150857836Y-70160000D01*
%TO.C,Acc*%
X174590000Y-90140000D02*
X174590000Y-89090000D01*
X174590000Y-91260000D02*
X174590000Y-92010000D01*
X179810000Y-90140000D02*
X179810000Y-89090000D01*
X179810000Y-91260000D02*
X179810000Y-92310000D01*
X174590000Y-92310000D02*
X174400000Y-92450000D01*
X174400000Y-92170000D01*
X174590000Y-92310000D01*
G36*
X174590000Y-92310000D02*
G01*
X174400000Y-92450000D01*
X174400000Y-92170000D01*
X174590000Y-92310000D01*
G37*
D13*
%TO.C,R\u00E9gu5V*%
X149050000Y-75125000D02*
X149050000Y-73975000D01*
X149150000Y-72875000D02*
X152050000Y-72875000D01*
X149150000Y-73625000D02*
X149150000Y-72875000D01*
X152050000Y-72875000D02*
X152050000Y-73625000D01*
X152050000Y-73625000D02*
X149150000Y-73625000D01*
D12*
%TO.C,U201*%
X167590000Y-75365000D02*
X167590000Y-75130000D01*
X167590000Y-82110000D02*
X167590000Y-81635000D01*
X168065000Y-74890000D02*
X167890000Y-74890000D01*
X168065000Y-82110000D02*
X167590000Y-82110000D01*
X174335000Y-74890000D02*
X174810000Y-74890000D01*
X174335000Y-82110000D02*
X174810000Y-82110000D01*
X174810000Y-74890000D02*
X174810000Y-75365000D01*
X174810000Y-82110000D02*
X174810000Y-81635000D01*
X167590000Y-74890000D02*
X167350000Y-74560000D01*
X167830000Y-74560000D01*
X167590000Y-74890000D01*
G36*
X167590000Y-74890000D02*
G01*
X167350000Y-74560000D01*
X167830000Y-74560000D01*
X167590000Y-74890000D01*
G37*
%TO.C,10k201*%
X173537742Y-95277500D02*
X174012258Y-95277500D01*
X173537742Y-96322500D02*
X174012258Y-96322500D01*
%TO.C,R209*%
X157377500Y-96262742D02*
X157377500Y-96737258D01*
X158422500Y-96262742D02*
X158422500Y-96737258D01*
%TO.C,C504*%
X154040580Y-81490000D02*
X153759420Y-81490000D01*
X154040580Y-82510000D02*
X153759420Y-82510000D01*
%TO.C,R901*%
X186337742Y-79877500D02*
X186812258Y-79877500D01*
X186337742Y-80922500D02*
X186812258Y-80922500D01*
%TO.C,C501*%
X150838748Y-78115000D02*
X151361252Y-78115000D01*
X150838748Y-79585000D02*
X151361252Y-79585000D01*
%TO.C,Batterie*%
X133140000Y-57890000D02*
X144860000Y-57890000D01*
X133140000Y-61700000D02*
X133140000Y-57890000D01*
X133140000Y-61700000D02*
X133140000Y-65510000D01*
X133140000Y-65510000D02*
X144860000Y-65510000D01*
X133750000Y-60200000D02*
X133750000Y-60700000D01*
X133750000Y-60700000D02*
X139250000Y-60700000D01*
X133750000Y-62700000D02*
X133750000Y-63200000D01*
X133750000Y-63200000D02*
X139250000Y-63200000D01*
X139250000Y-60200000D02*
X133750000Y-60200000D01*
X139250000Y-60700000D02*
X139250000Y-60200000D01*
X139250000Y-62700000D02*
X133750000Y-62700000D01*
X139250000Y-63200000D02*
X139250000Y-62700000D01*
X140360000Y-59310000D02*
X140360000Y-61700000D01*
X140360000Y-64090000D02*
X140360000Y-61700000D01*
X143950000Y-60450000D02*
X144550000Y-60150000D01*
X144550000Y-60150000D02*
X144550000Y-60750000D01*
X144550000Y-60750000D02*
X143950000Y-60450000D01*
X144860000Y-57890000D02*
X144860000Y-59310000D01*
X144860000Y-59310000D02*
X140360000Y-59310000D01*
X144860000Y-64090000D02*
X140360000Y-64090000D01*
X144860000Y-65510000D02*
X144860000Y-64090000D01*
%TO.C,R201*%
X165753641Y-77320000D02*
X165446359Y-77320000D01*
X165753641Y-78080000D02*
X165446359Y-78080000D01*
%TO.C,C603*%
X173440580Y-55690000D02*
X173159420Y-55690000D01*
X173440580Y-56710000D02*
X173159420Y-56710000D01*
%TO.C,R501*%
X147687258Y-78327500D02*
X147212742Y-78327500D01*
X147687258Y-79372500D02*
X147212742Y-79372500D01*
%TO.C,SW201*%
X172170000Y-98470000D02*
X172200000Y-98470000D01*
X172170000Y-104930000D02*
X172170000Y-98470000D01*
X172200000Y-104930000D02*
X172170000Y-104930000D01*
X174100000Y-98470000D02*
X176700000Y-98470000D01*
X174100000Y-104930000D02*
X176700000Y-104930000D01*
X178630000Y-98470000D02*
X178600000Y-98470000D01*
X178630000Y-104930000D02*
X178600000Y-104930000D01*
X178630000Y-104930000D02*
X178630000Y-98470000D01*
%TO.C,R503*%
X152852500Y-72062742D02*
X152852500Y-72537258D01*
X153897500Y-72062742D02*
X153897500Y-72537258D01*
%TO.C,R207*%
X154327500Y-96237742D02*
X154327500Y-96712258D01*
X155372500Y-96237742D02*
X155372500Y-96712258D01*
D14*
%TO.C,G\u002A\u002A\u002A*%
G36*
X167469474Y-97183212D02*
G01*
X167461763Y-97190923D01*
X167454052Y-97183212D01*
X167461763Y-97175501D01*
X167469474Y-97183212D01*
G37*
G36*
X167500318Y-97167790D02*
G01*
X167492607Y-97175501D01*
X167484896Y-97167790D01*
X167492607Y-97160079D01*
X167500318Y-97167790D01*
G37*
G36*
X169181314Y-99018428D02*
G01*
X169173603Y-99026139D01*
X169165892Y-99018428D01*
X169173603Y-99010717D01*
X169181314Y-99018428D01*
G37*
G36*
X167325607Y-102306503D02*
G01*
X167330677Y-102326442D01*
X167319772Y-102352217D01*
X167299833Y-102357286D01*
X167274058Y-102346381D01*
X167268989Y-102326442D01*
X167279894Y-102300667D01*
X167299833Y-102295598D01*
X167325607Y-102306503D01*
G37*
G36*
X169006603Y-102306503D02*
G01*
X169011672Y-102326442D01*
X169000767Y-102352217D01*
X168980828Y-102357286D01*
X168955053Y-102346381D01*
X168949984Y-102326442D01*
X168960889Y-102300667D01*
X168980828Y-102295598D01*
X169006603Y-102306503D01*
G37*
G36*
X167315284Y-102422296D02*
G01*
X167323006Y-102432128D01*
X167327625Y-102456339D01*
X167329914Y-102499890D01*
X167330645Y-102567743D01*
X167330677Y-102595196D01*
X167330366Y-102671651D01*
X167328825Y-102722472D01*
X167325138Y-102752867D01*
X167318391Y-102768045D01*
X167307668Y-102773215D01*
X167299327Y-102773680D01*
X167285787Y-102772023D01*
X167277037Y-102763528D01*
X167272256Y-102742907D01*
X167270619Y-102704872D01*
X167271303Y-102644134D01*
X167272339Y-102600367D01*
X167274813Y-102524105D01*
X167278284Y-102473404D01*
X167283680Y-102442980D01*
X167291929Y-102427550D01*
X167303688Y-102421883D01*
X167315284Y-102422296D01*
G37*
G36*
X164647252Y-100776533D02*
G01*
X164647252Y-100861354D01*
X164423633Y-100861354D01*
X164200015Y-100861354D01*
X164200015Y-100945727D01*
X164200015Y-101030101D01*
X164404356Y-101034404D01*
X164608697Y-101038707D01*
X164613322Y-101127383D01*
X164617947Y-101216060D01*
X164408981Y-101216060D01*
X164200015Y-101216060D01*
X164200015Y-101339435D01*
X164200015Y-101462811D01*
X164423633Y-101462811D01*
X164647252Y-101462811D01*
X164647252Y-101555343D01*
X164647252Y-101647875D01*
X164300258Y-101647875D01*
X163953263Y-101647875D01*
X163953263Y-101169794D01*
X163953263Y-100691712D01*
X164300258Y-100691712D01*
X164647252Y-100691712D01*
X164647252Y-100776533D01*
G37*
G36*
X168009244Y-100776533D02*
G01*
X168009244Y-100861354D01*
X167785625Y-100861354D01*
X167562006Y-100861354D01*
X167562006Y-100946175D01*
X167562006Y-101030996D01*
X167770203Y-101030996D01*
X167978400Y-101030996D01*
X167978400Y-101123528D01*
X167978400Y-101216060D01*
X167770203Y-101216060D01*
X167562006Y-101216060D01*
X167562006Y-101339435D01*
X167562006Y-101462811D01*
X167785625Y-101462811D01*
X168009244Y-101462811D01*
X168009244Y-101555343D01*
X168009244Y-101647875D01*
X167662249Y-101647875D01*
X167315255Y-101647875D01*
X167315255Y-101169794D01*
X167315255Y-100691712D01*
X167662249Y-100691712D01*
X168009244Y-100691712D01*
X168009244Y-100776533D01*
G37*
G36*
X168976973Y-102421965D02*
G01*
X168988801Y-102427536D01*
X168996608Y-102442310D01*
X169001199Y-102471617D01*
X169003381Y-102520786D01*
X169003960Y-102595147D01*
X169003961Y-102600422D01*
X169003500Y-102676025D01*
X169001577Y-102725967D01*
X168997387Y-102755427D01*
X168990123Y-102769580D01*
X168978978Y-102773603D01*
X168976973Y-102773652D01*
X168965341Y-102770760D01*
X168957599Y-102758653D01*
X168952977Y-102732226D01*
X168950703Y-102686378D01*
X168950003Y-102616004D01*
X168949984Y-102595196D01*
X168950382Y-102518586D01*
X168952091Y-102467857D01*
X168955882Y-102438049D01*
X168962530Y-102424204D01*
X168972805Y-102421363D01*
X168976973Y-102421965D01*
G37*
G36*
X165861956Y-101165938D02*
G01*
X165857878Y-101640164D01*
X165742213Y-101640164D01*
X165626548Y-101640164D01*
X165426062Y-101318125D01*
X165225576Y-100996086D01*
X165217865Y-101318125D01*
X165210154Y-101640164D01*
X165109258Y-101644651D01*
X165055963Y-101645398D01*
X165015507Y-101642954D01*
X164997449Y-101638225D01*
X164994723Y-101620627D01*
X164992245Y-101576051D01*
X164990105Y-101508364D01*
X164988390Y-101421433D01*
X164987188Y-101319122D01*
X164986588Y-101205300D01*
X164986536Y-101159512D01*
X164986536Y-100691712D01*
X165136900Y-100691768D01*
X165287264Y-100691824D01*
X165456906Y-100957797D01*
X165626548Y-101223771D01*
X165630767Y-100957742D01*
X165634987Y-100691712D01*
X165750511Y-100691712D01*
X165866034Y-100691712D01*
X165861956Y-101165938D01*
G37*
G36*
X168715968Y-102431319D02*
G01*
X168718655Y-102442107D01*
X168719674Y-102458426D01*
X168727712Y-102463305D01*
X168750234Y-102456643D01*
X168787970Y-102441148D01*
X168841287Y-102425502D01*
X168875466Y-102430252D01*
X168888258Y-102455039D01*
X168888296Y-102457045D01*
X168876419Y-102474897D01*
X168838729Y-102480660D01*
X168837751Y-102480662D01*
X168790707Y-102488080D01*
X168752930Y-102504669D01*
X168735552Y-102520126D01*
X168725248Y-102541464D01*
X168720228Y-102576339D01*
X168718701Y-102632409D01*
X168718655Y-102651178D01*
X168717552Y-102714224D01*
X168713554Y-102751971D01*
X168705625Y-102769906D01*
X168695522Y-102773680D01*
X168685363Y-102768942D01*
X168678600Y-102751526D01*
X168674604Y-102716632D01*
X168672751Y-102659457D01*
X168672389Y-102596327D01*
X168673007Y-102518446D01*
X168675278Y-102466591D01*
X168679830Y-102435958D01*
X168687287Y-102421748D01*
X168695522Y-102418974D01*
X168715968Y-102431319D01*
G37*
G36*
X166259061Y-102311936D02*
G01*
X166308073Y-102314993D01*
X166333830Y-102320654D01*
X166340107Y-102329383D01*
X166339858Y-102330298D01*
X166320050Y-102342145D01*
X166269848Y-102350260D01*
X166207486Y-102354054D01*
X166081496Y-102358534D01*
X166081496Y-102427309D01*
X166081496Y-102496084D01*
X166213868Y-102496084D01*
X166281142Y-102497293D01*
X166321535Y-102501318D01*
X166338929Y-102508752D01*
X166339858Y-102515361D01*
X166320050Y-102527209D01*
X166269848Y-102535324D01*
X166207486Y-102539118D01*
X166081496Y-102543597D01*
X166081496Y-102634882D01*
X166081496Y-102726166D01*
X166207486Y-102730645D01*
X166281997Y-102735725D01*
X166326298Y-102744570D01*
X166339858Y-102754402D01*
X166335089Y-102763419D01*
X166311166Y-102769327D01*
X166264315Y-102772591D01*
X166190765Y-102773673D01*
X166183024Y-102773680D01*
X166019808Y-102773680D01*
X166019808Y-102542350D01*
X166019808Y-102311020D01*
X166183024Y-102311020D01*
X166259061Y-102311936D01*
G37*
G36*
X164456035Y-102423102D02*
G01*
X164452962Y-102439207D01*
X164439427Y-102478766D01*
X164417257Y-102536942D01*
X164388278Y-102608897D01*
X164363636Y-102667904D01*
X164323497Y-102760716D01*
X164292293Y-102827933D01*
X164268223Y-102872876D01*
X164249487Y-102898865D01*
X164234283Y-102909219D01*
X164232581Y-102909573D01*
X164215537Y-102910989D01*
X164210073Y-102903730D01*
X164216365Y-102881228D01*
X164234546Y-102837025D01*
X164267228Y-102759669D01*
X164202752Y-102608599D01*
X164170519Y-102531502D01*
X164150340Y-102478208D01*
X164141259Y-102444552D01*
X164142322Y-102426368D01*
X164152577Y-102419492D01*
X164159322Y-102418974D01*
X164174552Y-102432317D01*
X164196695Y-102467950D01*
X164221843Y-102519278D01*
X164230118Y-102538494D01*
X164254369Y-102594899D01*
X164275266Y-102640273D01*
X164289273Y-102667044D01*
X164291725Y-102670446D01*
X164302320Y-102662896D01*
X164320771Y-102632233D01*
X164343882Y-102584140D01*
X164355591Y-102556780D01*
X164389618Y-102481585D01*
X164417783Y-102435554D01*
X164440815Y-102417718D01*
X164456035Y-102423102D01*
G37*
G36*
X164760167Y-102432724D02*
G01*
X164794882Y-102454581D01*
X164825548Y-102498491D01*
X164843477Y-102560056D01*
X164846957Y-102628123D01*
X164834278Y-102691541D01*
X164832089Y-102697118D01*
X164796064Y-102748078D01*
X164743567Y-102778651D01*
X164682690Y-102787102D01*
X164621529Y-102771695D01*
X164587272Y-102749617D01*
X164546863Y-102697019D01*
X164527112Y-102630818D01*
X164527538Y-102603732D01*
X164585127Y-102603732D01*
X164591836Y-102661102D01*
X164610626Y-102705237D01*
X164616408Y-102711992D01*
X164661285Y-102737837D01*
X164712202Y-102739540D01*
X164757466Y-102717228D01*
X164764382Y-102710373D01*
X164786534Y-102666604D01*
X164794625Y-102608612D01*
X164788653Y-102549623D01*
X164768619Y-102502865D01*
X164764382Y-102497703D01*
X164723217Y-102471107D01*
X164674520Y-102465258D01*
X164629992Y-102480018D01*
X164609572Y-102499515D01*
X164590905Y-102545685D01*
X164585127Y-102603732D01*
X164527538Y-102603732D01*
X164528218Y-102560495D01*
X164550380Y-102495528D01*
X164581118Y-102455854D01*
X164634500Y-102425687D01*
X164697917Y-102417955D01*
X164760167Y-102432724D01*
G37*
G36*
X167502473Y-102429017D02*
G01*
X167511000Y-102435825D01*
X167534913Y-102444742D01*
X167559337Y-102435825D01*
X167611338Y-102419710D01*
X167665018Y-102421162D01*
X167708767Y-102438946D01*
X167723063Y-102453249D01*
X167735212Y-102484567D01*
X167743579Y-102533358D01*
X167748143Y-102591992D01*
X167748882Y-102652838D01*
X167745776Y-102708266D01*
X167738805Y-102750645D01*
X167727946Y-102772343D01*
X167723937Y-102773680D01*
X167711539Y-102767446D01*
X167704315Y-102745004D01*
X167701093Y-102700737D01*
X167700593Y-102661870D01*
X167699222Y-102601132D01*
X167695826Y-102548624D01*
X167691134Y-102515548D01*
X167691040Y-102515193D01*
X167668337Y-102483026D01*
X167627122Y-102469253D01*
X167575028Y-102475905D01*
X167561707Y-102480786D01*
X167515740Y-102499826D01*
X167515740Y-102636753D01*
X167515212Y-102702167D01*
X167512738Y-102742652D01*
X167506989Y-102764116D01*
X167496634Y-102772467D01*
X167484896Y-102773680D01*
X167471644Y-102771799D01*
X167462848Y-102762677D01*
X167457600Y-102741097D01*
X167454994Y-102701839D01*
X167454122Y-102639686D01*
X167454052Y-102596327D01*
X167454914Y-102515807D01*
X167457799Y-102462130D01*
X167463154Y-102431332D01*
X167471427Y-102419453D01*
X167474101Y-102418974D01*
X167502473Y-102429017D01*
G37*
G36*
X169180684Y-102430379D02*
G01*
X169185109Y-102438070D01*
X169195768Y-102449227D01*
X169220588Y-102443606D01*
X169233386Y-102438070D01*
X169283944Y-102423087D01*
X169335408Y-102420054D01*
X169373895Y-102429683D01*
X169375636Y-102430777D01*
X169401692Y-102460136D01*
X169418390Y-102509340D01*
X169426700Y-102582288D01*
X169428066Y-102641579D01*
X169427513Y-102705582D01*
X169424907Y-102744766D01*
X169418826Y-102765147D01*
X169407846Y-102772745D01*
X169396845Y-102773680D01*
X169381676Y-102771490D01*
X169372705Y-102760865D01*
X169368636Y-102735718D01*
X169368171Y-102689964D01*
X169369244Y-102644225D01*
X169368967Y-102564614D01*
X169361468Y-102511457D01*
X169344641Y-102480795D01*
X169316382Y-102468665D01*
X169277041Y-102470696D01*
X169233613Y-102480493D01*
X169205670Y-102496961D01*
X169189868Y-102526167D01*
X169182864Y-102574182D01*
X169181314Y-102644481D01*
X169180303Y-102709476D01*
X169176626Y-102749072D01*
X169169315Y-102768669D01*
X169158181Y-102773680D01*
X169148023Y-102768942D01*
X169141259Y-102751526D01*
X169137263Y-102716632D01*
X169135410Y-102659457D01*
X169135048Y-102596327D01*
X169135750Y-102517639D01*
X169138230Y-102465205D01*
X169143052Y-102434459D01*
X169150776Y-102420832D01*
X169156896Y-102418974D01*
X169180684Y-102430379D01*
G37*
G36*
X165001328Y-102430379D02*
G01*
X165005753Y-102438070D01*
X165016411Y-102449227D01*
X165041231Y-102443606D01*
X165054029Y-102438070D01*
X165117298Y-102420827D01*
X165176889Y-102424950D01*
X165211062Y-102440843D01*
X165225159Y-102455303D01*
X165234616Y-102478288D01*
X165240683Y-102516095D01*
X165244613Y-102575022D01*
X165246299Y-102618195D01*
X165248262Y-102688812D01*
X165247801Y-102734146D01*
X165244094Y-102759719D01*
X165236320Y-102771050D01*
X165223658Y-102773659D01*
X165223166Y-102773660D01*
X165209180Y-102770522D01*
X165200680Y-102757134D01*
X165196341Y-102727496D01*
X165194837Y-102675609D01*
X165194732Y-102644931D01*
X165190564Y-102559363D01*
X165176973Y-102501910D01*
X165152329Y-102470845D01*
X165115003Y-102464438D01*
X165063365Y-102480963D01*
X165047458Y-102488769D01*
X165025379Y-102501399D01*
X165011926Y-102516084D01*
X165004962Y-102540064D01*
X165002351Y-102580582D01*
X165001958Y-102642989D01*
X165000965Y-102708412D01*
X164997353Y-102748415D01*
X164990169Y-102768377D01*
X164978825Y-102773680D01*
X164968666Y-102768942D01*
X164961903Y-102751526D01*
X164957907Y-102716632D01*
X164956053Y-102659457D01*
X164955692Y-102596327D01*
X164956393Y-102517639D01*
X164958874Y-102465205D01*
X164963695Y-102434459D01*
X164971420Y-102420832D01*
X164977540Y-102418974D01*
X165001328Y-102430379D01*
G37*
G36*
X166493109Y-102426944D02*
G01*
X166501197Y-102436608D01*
X166513241Y-102446528D01*
X166540023Y-102436608D01*
X166590231Y-102421161D01*
X166644448Y-102421231D01*
X166689711Y-102435981D01*
X166703696Y-102447177D01*
X166716205Y-102474912D01*
X166725067Y-102521423D01*
X166730226Y-102579121D01*
X166731627Y-102640414D01*
X166729214Y-102697714D01*
X166722931Y-102743429D01*
X166712723Y-102769971D01*
X166706086Y-102773680D01*
X166694259Y-102767898D01*
X166687141Y-102746913D01*
X166683718Y-102705260D01*
X166682953Y-102649290D01*
X166681032Y-102586723D01*
X166675944Y-102533361D01*
X166668701Y-102498984D01*
X166666989Y-102495070D01*
X166637963Y-102470882D01*
X166591881Y-102466961D01*
X166537170Y-102483137D01*
X166518385Y-102493341D01*
X166506800Y-102507570D01*
X166500680Y-102532637D01*
X166498288Y-102575356D01*
X166497890Y-102637357D01*
X166497357Y-102702600D01*
X166494864Y-102742925D01*
X166489073Y-102764255D01*
X166478643Y-102772508D01*
X166467046Y-102773680D01*
X166453793Y-102771799D01*
X166444997Y-102762677D01*
X166439750Y-102741097D01*
X166437144Y-102701839D01*
X166436271Y-102639686D01*
X166436202Y-102596327D01*
X166436564Y-102520024D01*
X166438228Y-102469366D01*
X166442060Y-102439155D01*
X166448925Y-102424194D01*
X166459691Y-102419287D01*
X166465761Y-102418974D01*
X166493109Y-102426944D01*
G37*
G36*
X163979709Y-102428422D02*
G01*
X164025267Y-102458186D01*
X164051063Y-102510395D01*
X164056508Y-102538652D01*
X164065278Y-102604038D01*
X163932161Y-102604038D01*
X163867887Y-102604571D01*
X163828448Y-102607121D01*
X163807842Y-102613108D01*
X163800067Y-102623956D01*
X163799043Y-102635583D01*
X163809495Y-102667379D01*
X163835002Y-102702966D01*
X163838437Y-102706522D01*
X163880065Y-102733342D01*
X163934054Y-102739751D01*
X164005496Y-102726105D01*
X164026517Y-102719655D01*
X164054558Y-102716766D01*
X164062604Y-102728401D01*
X164052554Y-102747359D01*
X164026311Y-102766441D01*
X164012650Y-102772171D01*
X163936005Y-102787940D01*
X163864987Y-102776963D01*
X163829887Y-102762089D01*
X163781524Y-102722222D01*
X163752492Y-102665589D01*
X163743569Y-102600061D01*
X163751867Y-102553899D01*
X163804361Y-102553899D01*
X163823621Y-102561664D01*
X163862513Y-102565572D01*
X163910840Y-102565887D01*
X163958405Y-102562876D01*
X163995012Y-102556802D01*
X164010319Y-102548540D01*
X164004992Y-102523902D01*
X163983301Y-102494197D01*
X163955000Y-102470764D01*
X163937841Y-102464286D01*
X163877564Y-102464830D01*
X163836717Y-102484651D01*
X163821202Y-102503117D01*
X163805842Y-102534195D01*
X163804361Y-102553899D01*
X163751867Y-102553899D01*
X163755532Y-102533510D01*
X163789157Y-102473809D01*
X163800244Y-102461667D01*
X163837960Y-102432228D01*
X163881239Y-102420281D01*
X163911813Y-102418974D01*
X163979709Y-102428422D01*
G37*
G36*
X168482927Y-102428422D02*
G01*
X168528485Y-102458186D01*
X168554281Y-102510395D01*
X168559726Y-102538652D01*
X168568496Y-102604038D01*
X168435379Y-102604038D01*
X168371105Y-102604571D01*
X168331666Y-102607121D01*
X168311060Y-102613108D01*
X168303285Y-102623956D01*
X168302261Y-102635583D01*
X168312718Y-102667751D01*
X168338090Y-102702911D01*
X168340115Y-102704982D01*
X168391806Y-102736329D01*
X168454101Y-102740720D01*
X168518935Y-102719307D01*
X168549815Y-102704846D01*
X168562187Y-102706626D01*
X168564435Y-102725509D01*
X168550799Y-102755020D01*
X168514946Y-102775377D01*
X168464462Y-102785380D01*
X168406931Y-102783830D01*
X168349935Y-102769527D01*
X168333105Y-102762089D01*
X168284038Y-102721899D01*
X168254629Y-102665120D01*
X168245688Y-102599576D01*
X168257573Y-102535506D01*
X168309763Y-102535506D01*
X168309991Y-102557801D01*
X168329108Y-102564862D01*
X168368269Y-102568158D01*
X168416941Y-102567969D01*
X168464590Y-102564573D01*
X168500681Y-102558246D01*
X168513220Y-102552440D01*
X168512198Y-102534662D01*
X168496987Y-102504609D01*
X168496769Y-102504276D01*
X168460343Y-102473433D01*
X168412126Y-102462472D01*
X168363590Y-102471471D01*
X168326208Y-102500508D01*
X168324420Y-102503117D01*
X168309763Y-102535506D01*
X168257573Y-102535506D01*
X168258021Y-102533092D01*
X168292438Y-102473492D01*
X168302209Y-102462920D01*
X168340250Y-102432772D01*
X168382827Y-102420440D01*
X168415031Y-102418974D01*
X168482927Y-102428422D01*
G37*
G36*
X167145613Y-102425686D02*
G01*
X167145613Y-102624002D01*
X167145613Y-102822318D01*
X167100533Y-102867398D01*
X167068365Y-102894778D01*
X167034875Y-102908235D01*
X166986966Y-102912364D01*
X166972017Y-102912477D01*
X166923674Y-102910714D01*
X166888859Y-102906185D01*
X166878298Y-102902196D01*
X166868483Y-102878706D01*
X166868017Y-102872466D01*
X166877614Y-102861215D01*
X166909414Y-102858257D01*
X166948983Y-102860939D01*
X167014536Y-102861550D01*
X167057666Y-102846028D01*
X167083841Y-102811412D01*
X167093064Y-102782853D01*
X167098445Y-102752219D01*
X167089520Y-102744170D01*
X167066920Y-102749762D01*
X166999016Y-102767162D01*
X166949437Y-102768467D01*
X166909903Y-102753188D01*
X166891654Y-102739470D01*
X166857653Y-102692567D01*
X166840893Y-102631559D01*
X166840814Y-102596572D01*
X166891999Y-102596572D01*
X166900662Y-102652002D01*
X166924351Y-102694666D01*
X166930414Y-102700245D01*
X166977493Y-102720394D01*
X167031811Y-102717878D01*
X167078600Y-102694590D01*
X167090837Y-102668928D01*
X167097695Y-102624211D01*
X167099052Y-102571776D01*
X167094788Y-102522960D01*
X167084784Y-102489100D01*
X167080840Y-102483746D01*
X167046245Y-102467707D01*
X166998545Y-102465803D01*
X166951461Y-102476953D01*
X166921814Y-102496283D01*
X166898878Y-102540594D01*
X166891999Y-102596572D01*
X166840814Y-102596572D01*
X166840744Y-102565481D01*
X166856580Y-102503366D01*
X166887771Y-102454245D01*
X166912800Y-102435190D01*
X166942855Y-102427552D01*
X166992336Y-102423086D01*
X167043727Y-102422667D01*
X167145613Y-102425686D01*
G37*
G36*
X165645792Y-102281617D02*
G01*
X165654024Y-102288898D01*
X165659511Y-102306458D01*
X165662807Y-102338735D01*
X165664466Y-102390168D01*
X165665044Y-102465195D01*
X165665103Y-102526928D01*
X165664923Y-102619193D01*
X165664013Y-102685053D01*
X165661818Y-102728946D01*
X165657783Y-102755311D01*
X165651354Y-102768586D01*
X165641975Y-102773211D01*
X165634259Y-102773680D01*
X165609193Y-102767600D01*
X165603415Y-102759172D01*
X165591827Y-102755278D01*
X165563666Y-102765428D01*
X165561004Y-102766788D01*
X165498334Y-102786583D01*
X165437881Y-102777148D01*
X165423966Y-102771064D01*
X165386714Y-102738490D01*
X165364589Y-102682904D01*
X165357496Y-102610110D01*
X165403495Y-102610110D01*
X165413770Y-102662335D01*
X165438126Y-102705311D01*
X165473979Y-102732245D01*
X165518746Y-102736348D01*
X165523139Y-102735362D01*
X165561678Y-102721632D01*
X165584678Y-102708343D01*
X165596383Y-102683716D01*
X165600986Y-102633533D01*
X165600186Y-102582352D01*
X165595704Y-102472951D01*
X165531910Y-102468294D01*
X165486578Y-102468708D01*
X165456989Y-102482015D01*
X165435523Y-102505073D01*
X165409885Y-102555426D01*
X165403495Y-102610110D01*
X165357496Y-102610110D01*
X165356705Y-102601988D01*
X165356663Y-102594415D01*
X165359012Y-102541093D01*
X165369130Y-102505482D01*
X165391623Y-102474610D01*
X165403637Y-102462160D01*
X165435567Y-102433829D01*
X165464954Y-102421491D01*
X165505614Y-102420707D01*
X165527013Y-102422527D01*
X165603415Y-102429868D01*
X165603415Y-102355022D01*
X165605141Y-102309605D01*
X165612423Y-102287279D01*
X165628419Y-102280386D01*
X165634259Y-102280176D01*
X165645792Y-102281617D01*
G37*
G36*
X168090986Y-102432233D02*
G01*
X168116250Y-102445963D01*
X168137639Y-102473419D01*
X168156366Y-102513546D01*
X168168639Y-102555128D01*
X168170670Y-102586950D01*
X168166806Y-102595555D01*
X168148481Y-102599449D01*
X168107109Y-102602401D01*
X168050485Y-102603928D01*
X168029806Y-102604038D01*
X167970780Y-102605667D01*
X167926187Y-102610021D01*
X167903033Y-102616299D01*
X167901290Y-102618734D01*
X167913187Y-102660725D01*
X167942075Y-102702075D01*
X167973115Y-102725713D01*
X168039613Y-102741804D01*
X168105835Y-102727775D01*
X168121053Y-102720522D01*
X168150462Y-102707000D01*
X168161755Y-102710443D01*
X168163463Y-102727418D01*
X168156352Y-102756435D01*
X168148409Y-102765742D01*
X168117096Y-102775306D01*
X168068200Y-102781153D01*
X168014824Y-102782668D01*
X167970073Y-102779237D01*
X167953541Y-102774874D01*
X167921185Y-102752923D01*
X167888508Y-102719553D01*
X167887998Y-102718908D01*
X167862765Y-102666122D01*
X167855289Y-102602122D01*
X167862684Y-102547095D01*
X167909530Y-102547095D01*
X167916074Y-102562811D01*
X167943592Y-102570666D01*
X167996480Y-102573130D01*
X168012298Y-102573194D01*
X168070708Y-102570266D01*
X168102736Y-102560896D01*
X168111158Y-102551266D01*
X168112232Y-102512939D01*
X168088429Y-102482699D01*
X168045648Y-102466630D01*
X168027978Y-102465476D01*
X167976708Y-102469691D01*
X167944650Y-102485575D01*
X167920762Y-102518787D01*
X167919563Y-102521045D01*
X167909530Y-102547095D01*
X167862684Y-102547095D01*
X167864108Y-102536495D01*
X167887763Y-102478824D01*
X167924791Y-102438697D01*
X167931279Y-102434853D01*
X167979476Y-102421171D01*
X168037593Y-102420591D01*
X168090986Y-102432233D01*
G37*
G36*
X169735191Y-102422467D02*
G01*
X169836748Y-102426685D01*
X169841516Y-102565483D01*
X169842572Y-102680289D01*
X169835817Y-102768039D01*
X169819700Y-102831879D01*
X169792669Y-102874958D01*
X169753171Y-102900420D01*
X169699655Y-102911413D01*
X169670378Y-102912477D01*
X169622177Y-102910704D01*
X169587520Y-102906151D01*
X169577145Y-102902196D01*
X169567373Y-102878740D01*
X169566864Y-102872079D01*
X169575596Y-102860634D01*
X169605225Y-102858012D01*
X169644210Y-102861403D01*
X169696529Y-102864674D01*
X169730279Y-102857738D01*
X169752164Y-102842864D01*
X169773607Y-102814010D01*
X169783171Y-102782759D01*
X169780502Y-102758055D01*
X169765247Y-102748843D01*
X169755783Y-102751393D01*
X169693924Y-102768432D01*
X169633965Y-102767874D01*
X169587370Y-102749945D01*
X169584843Y-102747995D01*
X169549554Y-102701218D01*
X169532204Y-102639130D01*
X169532312Y-102616838D01*
X169581183Y-102616838D01*
X169593049Y-102667765D01*
X169613129Y-102696570D01*
X169655772Y-102723189D01*
X169706491Y-102722783D01*
X169743491Y-102709516D01*
X169764499Y-102697460D01*
X169776297Y-102680007D01*
X169781510Y-102649021D01*
X169782762Y-102596367D01*
X169782771Y-102587790D01*
X169780833Y-102526633D01*
X169771892Y-102490030D01*
X169751256Y-102471778D01*
X169714236Y-102465676D01*
X169690097Y-102465240D01*
X169644897Y-102478836D01*
X169609849Y-102514130D01*
X169587697Y-102562878D01*
X169581183Y-102616838D01*
X169532312Y-102616838D01*
X169532531Y-102571322D01*
X169550276Y-102507388D01*
X169585179Y-102456918D01*
X169592909Y-102450282D01*
X169622144Y-102432202D01*
X169657340Y-102423321D01*
X169708795Y-102421627D01*
X169735191Y-102422467D01*
G37*
G36*
X168919272Y-100780389D02*
G01*
X168976981Y-100935027D01*
X169030998Y-101080669D01*
X169080386Y-101214731D01*
X169124208Y-101334626D01*
X169161527Y-101437770D01*
X169191405Y-101521578D01*
X169212906Y-101583463D01*
X169225092Y-101620842D01*
X169227580Y-101630956D01*
X169216051Y-101640708D01*
X169179660Y-101645259D01*
X169115706Y-101644922D01*
X169108653Y-101644668D01*
X168989727Y-101640164D01*
X168951819Y-101543310D01*
X168913911Y-101446456D01*
X168736821Y-101450778D01*
X168559730Y-101455100D01*
X168525279Y-101547632D01*
X168490827Y-101640164D01*
X168373411Y-101644668D01*
X168311496Y-101645129D01*
X168270789Y-101641360D01*
X168255996Y-101633799D01*
X168255995Y-101633718D01*
X168261183Y-101615978D01*
X168275893Y-101572917D01*
X168298844Y-101508102D01*
X168328752Y-101425102D01*
X168364337Y-101327486D01*
X168386878Y-101266219D01*
X168626123Y-101266219D01*
X168640294Y-101271695D01*
X168677818Y-101275762D01*
X168731212Y-101277685D01*
X168743438Y-101277748D01*
X168805900Y-101276343D01*
X168841545Y-101271674D01*
X168854294Y-101263056D01*
X168853904Y-101258470D01*
X168846269Y-101236424D01*
X168831141Y-101192344D01*
X168810974Y-101133391D01*
X168795615Y-101088406D01*
X168773481Y-101027425D01*
X168753930Y-100980660D01*
X168739431Y-100953613D01*
X168733333Y-100949608D01*
X168724666Y-100968006D01*
X168709428Y-101008044D01*
X168690260Y-101061927D01*
X168669801Y-101121858D01*
X168650691Y-101180041D01*
X168635570Y-101228680D01*
X168627079Y-101259979D01*
X168626123Y-101266219D01*
X168386878Y-101266219D01*
X168404316Y-101218822D01*
X168427956Y-101154988D01*
X168599917Y-100691712D01*
X168742999Y-100691712D01*
X168886080Y-100691712D01*
X168919272Y-100780389D01*
G37*
G36*
X163516940Y-102312275D02*
G01*
X163560630Y-102316916D01*
X163587909Y-102326256D01*
X163603878Y-102339223D01*
X163626134Y-102384647D01*
X163624823Y-102437098D01*
X163608020Y-102473163D01*
X163596750Y-102494627D01*
X163602835Y-102514341D01*
X163629620Y-102542551D01*
X163631153Y-102543986D01*
X163668287Y-102595213D01*
X163675102Y-102649439D01*
X163651606Y-102704044D01*
X163630588Y-102728600D01*
X163606723Y-102750550D01*
X163583466Y-102763909D01*
X163552468Y-102770800D01*
X163505376Y-102773346D01*
X163453235Y-102773680D01*
X163320962Y-102773680D01*
X163320962Y-102663863D01*
X163368897Y-102663863D01*
X163371683Y-102699092D01*
X163373482Y-102706045D01*
X163393459Y-102719863D01*
X163433406Y-102726822D01*
X163483248Y-102727048D01*
X163532915Y-102720673D01*
X163572332Y-102707823D01*
X163579704Y-102703406D01*
X163608801Y-102665356D01*
X163613980Y-102634363D01*
X163601122Y-102587472D01*
X163562786Y-102557635D01*
X163499327Y-102545053D01*
X163457307Y-102545351D01*
X163374939Y-102550061D01*
X163370110Y-102617369D01*
X163368897Y-102663863D01*
X163320962Y-102663863D01*
X163320962Y-102542350D01*
X163320962Y-102415668D01*
X163320962Y-102355814D01*
X163367228Y-102355814D01*
X163367228Y-102415668D01*
X163369662Y-102456668D01*
X163375694Y-102483048D01*
X163377509Y-102485803D01*
X163402821Y-102494602D01*
X163445539Y-102496682D01*
X163493166Y-102492896D01*
X163533210Y-102484102D01*
X163551518Y-102473884D01*
X163563598Y-102442739D01*
X163564972Y-102408340D01*
X163560471Y-102384593D01*
X163548870Y-102371138D01*
X163522678Y-102364431D01*
X163474403Y-102360930D01*
X163463615Y-102360406D01*
X163367228Y-102355814D01*
X163320962Y-102355814D01*
X163320962Y-102311020D01*
X163449659Y-102311020D01*
X163516940Y-102312275D01*
G37*
G36*
X166702122Y-100671081D02*
G01*
X166788861Y-100682052D01*
X166868245Y-100697727D01*
X166925850Y-100715588D01*
X166953005Y-100728363D01*
X166968000Y-100743808D01*
X166974444Y-100770510D01*
X166975945Y-100817057D01*
X166975971Y-100834864D01*
X166974876Y-100886886D01*
X166972019Y-100925315D01*
X166968425Y-100940869D01*
X166952080Y-100938088D01*
X166915546Y-100923928D01*
X166866001Y-100901246D01*
X166853774Y-100895249D01*
X166768630Y-100861279D01*
X166684756Y-100842589D01*
X166607054Y-100838707D01*
X166540426Y-100849161D01*
X166489772Y-100873479D01*
X166459996Y-100911189D01*
X166454579Y-100933691D01*
X166454087Y-100960302D01*
X166461483Y-100980703D01*
X166481180Y-100997370D01*
X166517588Y-101012779D01*
X166575121Y-101029405D01*
X166658189Y-101049726D01*
X166663622Y-101051008D01*
X166783416Y-101084655D01*
X166874908Y-101123377D01*
X166940483Y-101169162D01*
X166982528Y-101223996D01*
X167003428Y-101289869D01*
X167006815Y-101336907D01*
X166993035Y-101429488D01*
X166952356Y-101507927D01*
X166885773Y-101571249D01*
X166794279Y-101618480D01*
X166691198Y-101646471D01*
X166567874Y-101660475D01*
X166448066Y-101653877D01*
X166405358Y-101647070D01*
X166343812Y-101633905D01*
X166279221Y-101617250D01*
X166266560Y-101613553D01*
X166197161Y-101592634D01*
X166192657Y-101473746D01*
X166191567Y-101417642D01*
X166192726Y-101375802D01*
X166195873Y-101355646D01*
X166196843Y-101354857D01*
X166213866Y-101362626D01*
X166246636Y-101382217D01*
X166263035Y-101392813D01*
X166372242Y-101448695D01*
X166492195Y-101477962D01*
X166568540Y-101483366D01*
X166657007Y-101478164D01*
X166718440Y-101459236D01*
X166752560Y-101426710D01*
X166760063Y-101394176D01*
X166745205Y-101351518D01*
X166701579Y-101316121D01*
X166630607Y-101288931D01*
X166587194Y-101279065D01*
X166466021Y-101251295D01*
X166371947Y-101218207D01*
X166301423Y-101177951D01*
X166250899Y-101128677D01*
X166227451Y-101091613D01*
X166210966Y-101036917D01*
X166205692Y-100967920D01*
X166211596Y-100899044D01*
X166227989Y-100845964D01*
X166277305Y-100782748D01*
X166352298Y-100730645D01*
X166449161Y-100691715D01*
X166554678Y-100669253D01*
X166620053Y-100666314D01*
X166702122Y-100671081D01*
G37*
G36*
X166961354Y-95757568D02*
G01*
X166968260Y-95779812D01*
X166960746Y-95800931D01*
X166934291Y-95818956D01*
X166885477Y-95837172D01*
X166775359Y-95878974D01*
X166648333Y-95938281D01*
X166510242Y-96011771D01*
X166366926Y-96096119D01*
X166224227Y-96188003D01*
X166087987Y-96284098D01*
X166050652Y-96312177D01*
X165934799Y-96405653D01*
X165820366Y-96507227D01*
X165711451Y-96612594D01*
X165612149Y-96717449D01*
X165526558Y-96817489D01*
X165458774Y-96908408D01*
X165416660Y-96978330D01*
X165370606Y-97078266D01*
X165332797Y-97179440D01*
X165304521Y-97276443D01*
X165287064Y-97363866D01*
X165281715Y-97436303D01*
X165289758Y-97488343D01*
X165293384Y-97496390D01*
X165326602Y-97533310D01*
X165383715Y-97570545D01*
X165458024Y-97604509D01*
X165542828Y-97631617D01*
X165549084Y-97633190D01*
X165613576Y-97652242D01*
X165650165Y-97671122D01*
X165661114Y-97686261D01*
X165672372Y-97701651D01*
X165698915Y-97713457D01*
X165743444Y-97721932D01*
X165808660Y-97727326D01*
X165897264Y-97729890D01*
X166011955Y-97729875D01*
X166114240Y-97728369D01*
X166201012Y-97726934D01*
X166273378Y-97726155D01*
X166327281Y-97726040D01*
X166358662Y-97726597D01*
X166363464Y-97727832D01*
X166362947Y-97727909D01*
X166335824Y-97737955D01*
X166328248Y-97749218D01*
X166340737Y-97760742D01*
X166372974Y-97760439D01*
X166417119Y-97750270D01*
X166465327Y-97732193D01*
X166509758Y-97708168D01*
X166519350Y-97701466D01*
X166577790Y-97660937D01*
X166654421Y-97611775D01*
X166740086Y-97559607D01*
X166825626Y-97510058D01*
X166875728Y-97482508D01*
X166915756Y-97461009D01*
X166976335Y-97428390D01*
X167050882Y-97388199D01*
X167132815Y-97343984D01*
X167184168Y-97316252D01*
X167260959Y-97275115D01*
X167328377Y-97239656D01*
X167381737Y-97212287D01*
X167416351Y-97195419D01*
X167427307Y-97191104D01*
X167424518Y-97200251D01*
X167404015Y-97223663D01*
X167388752Y-97238708D01*
X167338388Y-97286493D01*
X167444333Y-97230273D01*
X167495466Y-97204888D01*
X167535778Y-97188132D01*
X167558059Y-97182914D01*
X167559869Y-97183645D01*
X167556724Y-97197614D01*
X167543575Y-97207723D01*
X167520013Y-97224151D01*
X167480596Y-97254815D01*
X167432843Y-97293822D01*
X167420328Y-97304318D01*
X167369043Y-97344160D01*
X167299758Y-97393292D01*
X167221250Y-97445699D01*
X167142295Y-97495364D01*
X167136093Y-97499117D01*
X167044432Y-97554326D01*
X166977524Y-97595360D01*
X166933964Y-97624387D01*
X166912348Y-97643576D01*
X166911273Y-97655099D01*
X166929334Y-97661123D01*
X166965127Y-97663818D01*
X167017247Y-97665353D01*
X167028285Y-97665674D01*
X167109544Y-97666275D01*
X167170230Y-97661566D01*
X167220327Y-97650414D01*
X167247807Y-97640806D01*
X167309520Y-97619423D01*
X167379070Y-97599020D01*
X167407786Y-97591794D01*
X167469118Y-97574068D01*
X167539929Y-97548681D01*
X167589381Y-97527986D01*
X167639077Y-97505951D01*
X167677148Y-97490154D01*
X167695518Y-97483944D01*
X167695646Y-97483941D01*
X167717172Y-97477003D01*
X167754880Y-97459752D01*
X167798376Y-97437530D01*
X167837267Y-97415683D01*
X167861159Y-97399553D01*
X167862735Y-97398034D01*
X167885507Y-97385559D01*
X167927776Y-97370948D01*
X167962978Y-97361595D01*
X168026716Y-97343961D01*
X168091416Y-97322025D01*
X168117004Y-97311806D01*
X168169722Y-97295057D01*
X168215406Y-97291015D01*
X168246554Y-97299445D01*
X168255995Y-97316183D01*
X168242007Y-97344197D01*
X168200529Y-97384173D01*
X168132290Y-97435624D01*
X168038019Y-97498059D01*
X167918445Y-97570990D01*
X167774298Y-97653929D01*
X167646827Y-97724409D01*
X167586895Y-97754811D01*
X167516517Y-97787002D01*
X167440856Y-97819047D01*
X167365076Y-97849010D01*
X167294341Y-97874956D01*
X167233814Y-97894950D01*
X167188660Y-97907056D01*
X167164042Y-97909340D01*
X167161035Y-97906476D01*
X167155704Y-97888334D01*
X167137146Y-97889498D01*
X167101509Y-97910818D01*
X167083925Y-97923467D01*
X167048468Y-97947481D01*
X167022923Y-97960961D01*
X167018395Y-97962022D01*
X166993361Y-97968737D01*
X166953932Y-97985287D01*
X166911167Y-98006279D01*
X166876125Y-98026321D01*
X166860331Y-98039091D01*
X166839083Y-98050997D01*
X166812587Y-98054554D01*
X166770595Y-98063106D01*
X166737038Y-98079035D01*
X166707437Y-98091707D01*
X166655074Y-98107748D01*
X166587538Y-98125035D01*
X166517817Y-98140358D01*
X166422221Y-98159752D01*
X166351563Y-98175139D01*
X166300643Y-98189057D01*
X166264257Y-98204044D01*
X166237204Y-98222640D01*
X166214281Y-98247382D01*
X166190286Y-98280810D01*
X166170758Y-98309715D01*
X166090417Y-98438213D01*
X166032900Y-98555268D01*
X165996103Y-98667598D01*
X165977921Y-98781921D01*
X165976249Y-98904955D01*
X165977428Y-98926783D01*
X165994384Y-99047124D01*
X166031455Y-99151449D01*
X166092540Y-99248969D01*
X166135819Y-99300861D01*
X166180786Y-99345290D01*
X166230992Y-99381427D01*
X166296187Y-99415696D01*
X166339261Y-99434917D01*
X166463304Y-99479395D01*
X166606470Y-99516326D01*
X166757534Y-99543676D01*
X166905271Y-99559408D01*
X167037659Y-99561525D01*
X167104032Y-99559376D01*
X167141186Y-99560098D01*
X167150626Y-99563808D01*
X167137902Y-99569425D01*
X167104279Y-99575208D01*
X167047957Y-99580122D01*
X166977080Y-99583613D01*
X166907339Y-99585084D01*
X166838887Y-99586504D01*
X166787169Y-99589371D01*
X166756773Y-99593294D01*
X166752289Y-99597881D01*
X166753119Y-99598238D01*
X166794791Y-99606715D01*
X166861433Y-99610987D01*
X166947510Y-99611415D01*
X167047487Y-99608356D01*
X167155831Y-99602170D01*
X167267005Y-99593214D01*
X167375475Y-99581847D01*
X167475706Y-99568428D01*
X167562165Y-99553315D01*
X167607932Y-99542863D01*
X167680565Y-99521798D01*
X167774370Y-99491276D01*
X167882143Y-99453935D01*
X167996684Y-99412414D01*
X168110790Y-99369353D01*
X168217260Y-99327389D01*
X168308890Y-99289163D01*
X168348907Y-99271352D01*
X168421580Y-99239521D01*
X168491233Y-99211679D01*
X168549092Y-99191190D01*
X168581535Y-99182240D01*
X168617153Y-99171246D01*
X168674512Y-99148952D01*
X168747756Y-99117837D01*
X168831032Y-99080379D01*
X168909866Y-99043223D01*
X168991965Y-99004186D01*
X169064198Y-98970843D01*
X169122138Y-98945157D01*
X169161359Y-98929089D01*
X169177434Y-98924600D01*
X169177503Y-98924655D01*
X169167604Y-98933944D01*
X169135347Y-98953577D01*
X169086124Y-98980437D01*
X169040269Y-99003975D01*
X168979814Y-99034874D01*
X168930248Y-99061341D01*
X168897728Y-99080022D01*
X168888296Y-99086804D01*
X168870503Y-99099718D01*
X168830165Y-99123539D01*
X168772431Y-99155587D01*
X168702446Y-99193183D01*
X168625357Y-99233647D01*
X168546310Y-99274300D01*
X168470452Y-99312461D01*
X168402930Y-99345450D01*
X168348889Y-99370589D01*
X168319400Y-99383026D01*
X168295518Y-99396689D01*
X168292591Y-99407158D01*
X168310704Y-99406454D01*
X168348000Y-99394681D01*
X168391117Y-99376719D01*
X168442272Y-99353726D01*
X168511741Y-99323038D01*
X168589476Y-99289076D01*
X168649256Y-99263208D01*
X168734593Y-99225354D01*
X168827105Y-99182532D01*
X168913194Y-99141109D01*
X168957695Y-99118761D01*
X169019817Y-99087207D01*
X169074294Y-99060268D01*
X169113579Y-99041639D01*
X169126867Y-99035933D01*
X169149121Y-99029287D01*
X169145526Y-99035505D01*
X169117743Y-99053505D01*
X169067433Y-99082202D01*
X169001319Y-99117840D01*
X168945459Y-99148854D01*
X168902487Y-99175554D01*
X168877989Y-99194303D01*
X168874542Y-99200374D01*
X168864946Y-99213047D01*
X168834100Y-99235858D01*
X168788014Y-99264509D01*
X168772632Y-99273309D01*
X168725937Y-99300972D01*
X168695301Y-99322010D01*
X168685453Y-99333044D01*
X168687811Y-99333916D01*
X168715729Y-99324915D01*
X168749499Y-99303734D01*
X168780522Y-99282483D01*
X168801630Y-99273242D01*
X168801838Y-99273233D01*
X168801307Y-99280407D01*
X168778246Y-99300699D01*
X168736578Y-99331367D01*
X168680224Y-99369669D01*
X168613109Y-99412864D01*
X168539155Y-99458209D01*
X168525880Y-99466115D01*
X168430516Y-99518733D01*
X168313418Y-99577188D01*
X168182289Y-99638100D01*
X168044830Y-99698090D01*
X167908744Y-99753779D01*
X167781731Y-99801788D01*
X167689054Y-99833276D01*
X167567157Y-99866707D01*
X167420921Y-99897962D01*
X167256838Y-99925667D01*
X167242717Y-99927750D01*
X167147919Y-99942179D01*
X167058018Y-99956948D01*
X166979823Y-99970858D01*
X166920147Y-99982710D01*
X166891150Y-99989665D01*
X166794834Y-100008751D01*
X166678409Y-100018775D01*
X166551292Y-100019608D01*
X166422897Y-100011119D01*
X166325326Y-99997482D01*
X166279609Y-99987442D01*
X166765204Y-99987442D01*
X166767321Y-99996610D01*
X166775485Y-99997723D01*
X166788179Y-99992081D01*
X166785767Y-99987442D01*
X166767464Y-99985596D01*
X166765204Y-99987442D01*
X166279609Y-99987442D01*
X166199336Y-99969813D01*
X166077140Y-99933507D01*
X165966835Y-99891412D01*
X165876520Y-99846376D01*
X165851871Y-99830945D01*
X165786738Y-99777445D01*
X165718004Y-99704811D01*
X165666567Y-99639146D01*
X165726791Y-99639146D01*
X165736009Y-99660890D01*
X165758926Y-99693938D01*
X165766717Y-99703522D01*
X165797031Y-99734874D01*
X165819363Y-99749926D01*
X165829029Y-99746924D01*
X165821350Y-99724111D01*
X165821281Y-99723983D01*
X165801948Y-99696541D01*
X165775608Y-99668268D01*
X165749583Y-99645740D01*
X165731196Y-99635531D01*
X165726791Y-99639146D01*
X165666567Y-99639146D01*
X165653555Y-99622534D01*
X165601277Y-99540105D01*
X165586817Y-99511931D01*
X165544183Y-99391534D01*
X165520142Y-99254906D01*
X165519361Y-99234767D01*
X165581314Y-99234767D01*
X165587460Y-99285264D01*
X165590645Y-99303734D01*
X165601689Y-99346207D01*
X165619885Y-99397989D01*
X165642103Y-99452158D01*
X165665212Y-99501792D01*
X165686081Y-99539969D01*
X165701581Y-99559766D01*
X165706677Y-99560319D01*
X165704425Y-99544198D01*
X165693694Y-99505006D01*
X165676251Y-99448762D01*
X165655598Y-99386546D01*
X165632530Y-99319682D01*
X165612962Y-99264314D01*
X165599073Y-99226516D01*
X165593187Y-99212488D01*
X165583243Y-99209796D01*
X165581314Y-99234767D01*
X165519361Y-99234767D01*
X165514538Y-99110308D01*
X165527216Y-98966002D01*
X165558021Y-98830248D01*
X165601701Y-98721059D01*
X165622964Y-98668884D01*
X165636316Y-98616621D01*
X165637748Y-98604964D01*
X165643724Y-98577073D01*
X165659521Y-98545295D01*
X165688435Y-98504840D01*
X165733762Y-98450916D01*
X165776912Y-98402711D01*
X165827303Y-98346428D01*
X165869141Y-98298146D01*
X165898523Y-98262487D01*
X165911548Y-98244068D01*
X165911854Y-98242974D01*
X165897548Y-98237830D01*
X165859086Y-98233144D01*
X165803157Y-98229586D01*
X165764893Y-98228291D01*
X165592965Y-98212301D01*
X165440754Y-98173066D01*
X165308571Y-98110762D01*
X165196727Y-98025563D01*
X165105535Y-97917645D01*
X165054188Y-97828745D01*
X165020491Y-97731321D01*
X165004064Y-97617681D01*
X165005601Y-97497620D01*
X165023222Y-97390930D01*
X165050866Y-97304840D01*
X165093512Y-97202835D01*
X165146913Y-97093099D01*
X165206823Y-96983816D01*
X165268996Y-96883171D01*
X165329183Y-96799349D01*
X165332003Y-96795822D01*
X165447913Y-96664304D01*
X165587765Y-96526976D01*
X165746446Y-96388371D01*
X165918841Y-96253025D01*
X166050654Y-96158717D01*
X166117692Y-96114734D01*
X166199060Y-96064518D01*
X166288769Y-96011445D01*
X166380828Y-95958888D01*
X166469247Y-95910225D01*
X166548036Y-95868830D01*
X166611205Y-95838079D01*
X166644398Y-95824151D01*
X166753707Y-95785953D01*
X166837578Y-95760535D01*
X166898491Y-95747558D01*
X166938924Y-95746682D01*
X166961354Y-95757568D01*
G37*
D12*
%TO.C,L501*%
X155165000Y-76520000D02*
X155165000Y-75780000D01*
X159185000Y-75780000D02*
X159185000Y-76520000D01*
%TO.C,C503*%
X154987164Y-70890000D02*
X155202836Y-70890000D01*
X154987164Y-71610000D02*
X155202836Y-71610000D01*
%TO.C,R505*%
X147477500Y-68162742D02*
X147477500Y-68637258D01*
X148522500Y-68162742D02*
X148522500Y-68637258D01*
%TO.C,C207*%
X177232164Y-75140000D02*
X177447836Y-75140000D01*
X177232164Y-75860000D02*
X177447836Y-75860000D01*
%TO.C,R506*%
X145927500Y-72712742D02*
X145927500Y-73187258D01*
X146972500Y-72712742D02*
X146972500Y-73187258D01*
%TO.C,R208*%
X155877500Y-96262742D02*
X155877500Y-96737258D01*
X156922500Y-96262742D02*
X156922500Y-96737258D01*
%TO.C,TP3*%
X178325000Y-66175000D02*
G75*
G02*
X176425000Y-66175000I-950000J0D01*
G01*
X176425000Y-66175000D02*
G75*
G02*
X178325000Y-66175000I950000J0D01*
G01*
%TO.C,ST-LINK*%
X187085000Y-58960000D02*
X187085000Y-58895000D01*
X187085000Y-67905000D02*
X187085000Y-67840000D01*
X190615000Y-58895000D02*
X187085000Y-58895000D01*
X190615000Y-58960000D02*
X190615000Y-58895000D01*
X190615000Y-67905000D02*
X187085000Y-67905000D01*
X190615000Y-67905000D02*
X190615000Y-67840000D01*
X191940000Y-67840000D02*
X190615000Y-67840000D01*
%TO.C,C202*%
X162092164Y-74640000D02*
X162307836Y-74640000D01*
X162092164Y-75360000D02*
X162307836Y-75360000D01*
%TO.C,R210*%
X158877500Y-96262742D02*
X158877500Y-96737258D01*
X159922500Y-96262742D02*
X159922500Y-96737258D01*
%TO.C,R504*%
X147502500Y-72712742D02*
X147502500Y-73187258D01*
X148547500Y-72712742D02*
X148547500Y-73187258D01*
%TO.C,C401*%
X178765580Y-92790000D02*
X178484420Y-92790000D01*
X178765580Y-93810000D02*
X178484420Y-93810000D01*
D15*
%TO.C,Hacheur D*%
X172772500Y-58987500D02*
X176922500Y-58987500D01*
X172772500Y-64137500D02*
X176922500Y-64137500D01*
D12*
X172347500Y-58987500D02*
X172107500Y-58657500D01*
X172587500Y-58657500D01*
X172347500Y-58987500D01*
G36*
X172347500Y-58987500D02*
G01*
X172107500Y-58657500D01*
X172587500Y-58657500D01*
X172347500Y-58987500D01*
G37*
%TO.C,R801*%
X186387742Y-93477500D02*
X186862258Y-93477500D01*
X186387742Y-94522500D02*
X186862258Y-94522500D01*
%TO.C,LIDAR*%
X133140000Y-75340000D02*
X144860000Y-75340000D01*
X133140000Y-86650000D02*
X133140000Y-75340000D01*
X133140000Y-86650000D02*
X133140000Y-97960000D01*
X133140000Y-97960000D02*
X144860000Y-97960000D01*
X133750000Y-77650000D02*
X133750000Y-78150000D01*
X133750000Y-78150000D02*
X139250000Y-78150000D01*
X133750000Y-80150000D02*
X133750000Y-80650000D01*
X133750000Y-80650000D02*
X139250000Y-80650000D01*
X133750000Y-82650000D02*
X133750000Y-83150000D01*
X133750000Y-83150000D02*
X139250000Y-83150000D01*
X133750000Y-85150000D02*
X133750000Y-85650000D01*
X133750000Y-85650000D02*
X139250000Y-85650000D01*
X133750000Y-87650000D02*
X133750000Y-88150000D01*
X133750000Y-88150000D02*
X139250000Y-88150000D01*
X133750000Y-90150000D02*
X133750000Y-90650000D01*
X133750000Y-90650000D02*
X139250000Y-90650000D01*
X133750000Y-92650000D02*
X133750000Y-93150000D01*
X133750000Y-93150000D02*
X139250000Y-93150000D01*
X133750000Y-95150000D02*
X133750000Y-95650000D01*
X133750000Y-95650000D02*
X139250000Y-95650000D01*
X139250000Y-77650000D02*
X133750000Y-77650000D01*
X139250000Y-78150000D02*
X139250000Y-77650000D01*
X139250000Y-80150000D02*
X133750000Y-80150000D01*
X139250000Y-80650000D02*
X139250000Y-80150000D01*
X139250000Y-82650000D02*
X133750000Y-82650000D01*
X139250000Y-83150000D02*
X139250000Y-82650000D01*
X139250000Y-85150000D02*
X133750000Y-85150000D01*
X139250000Y-85650000D02*
X139250000Y-85150000D01*
X139250000Y-87650000D02*
X133750000Y-87650000D01*
X139250000Y-88150000D02*
X139250000Y-87650000D01*
X139250000Y-90150000D02*
X133750000Y-90150000D01*
X139250000Y-90650000D02*
X139250000Y-90150000D01*
X139250000Y-92650000D02*
X133750000Y-92650000D01*
X139250000Y-93150000D02*
X139250000Y-92650000D01*
X139250000Y-95150000D02*
X133750000Y-95150000D01*
X139250000Y-95650000D02*
X139250000Y-95150000D01*
X140360000Y-76760000D02*
X140360000Y-86650000D01*
X140360000Y-96540000D02*
X140360000Y-86650000D01*
X143950000Y-77900000D02*
X144550000Y-77600000D01*
X144550000Y-77600000D02*
X144550000Y-78200000D01*
X144550000Y-78200000D02*
X143950000Y-77900000D01*
X144860000Y-75340000D02*
X144860000Y-76760000D01*
X144860000Y-76760000D02*
X140360000Y-76760000D01*
X144860000Y-96540000D02*
X140360000Y-96540000D01*
X144860000Y-97960000D02*
X144860000Y-96540000D01*
%TO.C,C701*%
X157390000Y-63140580D02*
X157390000Y-62859420D01*
X158410000Y-63140580D02*
X158410000Y-62859420D01*
D15*
%TO.C,HacheurG*%
X160225000Y-58982500D02*
X164375000Y-58982500D01*
X160225000Y-64132500D02*
X164375000Y-64132500D01*
D12*
X159800000Y-58982500D02*
X159560000Y-58652500D01*
X160040000Y-58652500D01*
X159800000Y-58982500D01*
G36*
X159800000Y-58982500D02*
G01*
X159560000Y-58652500D01*
X160040000Y-58652500D01*
X159800000Y-58982500D01*
G37*
%TO.C,D202*%
X172265000Y-68840000D02*
X172265000Y-71300000D01*
X173735000Y-68840000D02*
X172265000Y-68840000D01*
X173735000Y-71300000D02*
X173735000Y-68840000D01*
%TO.C,C205*%
X169284420Y-85990000D02*
X169565580Y-85990000D01*
X169284420Y-87010000D02*
X169565580Y-87010000D01*
%TO.C,R205*%
X151352500Y-96237742D02*
X151352500Y-96712258D01*
X152397500Y-96237742D02*
X152397500Y-96712258D01*
%TO.C,C203*%
X165707836Y-78340000D02*
X165492164Y-78340000D01*
X165707836Y-79060000D02*
X165492164Y-79060000D01*
%TO.C,CapteurBG*%
X189040000Y-83890000D02*
X189040000Y-85310000D01*
X189040000Y-85310000D02*
X193540000Y-85310000D01*
X189040000Y-95090000D02*
X193540000Y-95090000D01*
X189040000Y-96510000D02*
X189040000Y-95090000D01*
X189350000Y-93650000D02*
X189950000Y-93950000D01*
X189350000Y-94250000D02*
X189350000Y-93650000D01*
X189950000Y-93950000D02*
X189350000Y-94250000D01*
X193540000Y-85310000D02*
X193540000Y-90200000D01*
X193540000Y-95090000D02*
X193540000Y-90200000D01*
X194650000Y-86200000D02*
X194650000Y-86700000D01*
X194650000Y-86700000D02*
X200150000Y-86700000D01*
X194650000Y-88700000D02*
X194650000Y-89200000D01*
X194650000Y-89200000D02*
X200150000Y-89200000D01*
X194650000Y-91200000D02*
X194650000Y-91700000D01*
X194650000Y-91700000D02*
X200150000Y-91700000D01*
X194650000Y-93700000D02*
X194650000Y-94200000D01*
X194650000Y-94200000D02*
X200150000Y-94200000D01*
X200150000Y-86200000D02*
X194650000Y-86200000D01*
X200150000Y-86700000D02*
X200150000Y-86200000D01*
X200150000Y-88700000D02*
X194650000Y-88700000D01*
X200150000Y-89200000D02*
X200150000Y-88700000D01*
X200150000Y-91200000D02*
X194650000Y-91200000D01*
X200150000Y-91700000D02*
X200150000Y-91200000D01*
X200150000Y-93700000D02*
X194650000Y-93700000D01*
X200150000Y-94200000D02*
X200150000Y-93700000D01*
X200760000Y-83890000D02*
X189040000Y-83890000D01*
X200760000Y-90200000D02*
X200760000Y-83890000D01*
X200760000Y-90200000D02*
X200760000Y-96510000D01*
X200760000Y-96510000D02*
X189040000Y-96510000D01*
%TO.C,L202*%
X179037221Y-83990000D02*
X179362779Y-83990000D01*
X179037221Y-85010000D02*
X179362779Y-85010000D01*
%TO.C,C211*%
X171965000Y-83942164D02*
X171965000Y-84157836D01*
X172685000Y-83942164D02*
X172685000Y-84157836D01*
%TO.C,C204*%
X166007836Y-74640000D02*
X165792164Y-74640000D01*
X166007836Y-75360000D02*
X165792164Y-75360000D01*
%TO.C,R502*%
X147187742Y-76727500D02*
X147662258Y-76727500D01*
X147187742Y-77772500D02*
X147662258Y-77772500D01*
%TO.C,R206*%
X152827500Y-96237742D02*
X152827500Y-96712258D01*
X153872500Y-96237742D02*
X153872500Y-96712258D01*
%TO.C,R314*%
X169277500Y-68587742D02*
X169277500Y-69062258D01*
X170322500Y-68587742D02*
X170322500Y-69062258D01*
%TO.C,R902*%
X186712258Y-74877500D02*
X186237742Y-74877500D01*
X186712258Y-75922500D02*
X186237742Y-75922500D01*
D14*
%TO.C,G\u002A\u002A\u002A*%
G36*
X151348343Y-85647677D02*
G01*
X151387353Y-85710698D01*
X151444353Y-85807284D01*
X151514317Y-85928986D01*
X151555061Y-86001007D01*
X151770052Y-86383069D01*
X152572744Y-86397500D01*
X153375437Y-86411932D01*
X153474195Y-86519747D01*
X153572954Y-86627562D01*
X153572954Y-87724804D01*
X153572406Y-87969977D01*
X153570842Y-88195979D01*
X153568387Y-88396555D01*
X153565165Y-88565451D01*
X153561298Y-88696415D01*
X153556910Y-88783191D01*
X153552126Y-88819528D01*
X153551307Y-88820241D01*
X153523058Y-88801280D01*
X153460605Y-88750531D01*
X153372391Y-88675113D01*
X153266861Y-88582142D01*
X153234601Y-88553253D01*
X152939542Y-88288069D01*
X152938748Y-87573694D01*
X152937954Y-86859319D01*
X152339034Y-86859211D01*
X152135460Y-86858740D01*
X151981098Y-86856949D01*
X151867438Y-86853143D01*
X151785967Y-86846628D01*
X151728174Y-86836712D01*
X151685549Y-86822699D01*
X151649578Y-86803895D01*
X151647875Y-86802861D01*
X151573175Y-86746268D01*
X151516193Y-86684672D01*
X151513284Y-86680299D01*
X151498963Y-86638039D01*
X151478727Y-86552247D01*
X151454479Y-86433991D01*
X151428118Y-86294342D01*
X151401546Y-86144367D01*
X151376663Y-85995138D01*
X151355371Y-85857722D01*
X151339569Y-85743188D01*
X151331160Y-85662607D01*
X151332044Y-85627047D01*
X151332348Y-85626667D01*
X151348343Y-85647677D01*
G37*
G36*
X156100771Y-85658833D02*
G01*
X156092689Y-85738074D01*
X156077247Y-85851531D01*
X156056344Y-85987991D01*
X156031881Y-86136243D01*
X156005756Y-86285076D01*
X155979869Y-86423278D01*
X155956120Y-86539637D01*
X155936408Y-86622942D01*
X155924403Y-86659086D01*
X155867352Y-86735226D01*
X155790926Y-86800210D01*
X155786837Y-86802760D01*
X155750947Y-86821842D01*
X155708878Y-86836093D01*
X155652115Y-86846207D01*
X155572143Y-86852881D01*
X155460448Y-86856808D01*
X155308515Y-86858686D01*
X155107830Y-86859207D01*
X155095511Y-86859211D01*
X154496591Y-86859319D01*
X154496149Y-87559262D01*
X154495183Y-87755417D01*
X154492706Y-87932773D01*
X154488965Y-88083038D01*
X154484204Y-88197921D01*
X154478671Y-88269132D01*
X154474501Y-88288513D01*
X154444707Y-88319728D01*
X154383204Y-88378001D01*
X154299654Y-88454720D01*
X154203718Y-88541268D01*
X154105059Y-88629034D01*
X154013338Y-88709402D01*
X153938216Y-88773758D01*
X153889357Y-88813490D01*
X153876070Y-88822046D01*
X153872833Y-88794227D01*
X153869849Y-88714948D01*
X153867199Y-88590478D01*
X153864967Y-88427082D01*
X153863234Y-88231030D01*
X153862085Y-88008588D01*
X153861601Y-87766023D01*
X153861591Y-87724804D01*
X153861591Y-86627562D01*
X153960349Y-86519747D01*
X154059108Y-86411932D01*
X154859772Y-86397500D01*
X155660435Y-86383069D01*
X155876694Y-86000245D01*
X155951764Y-85868551D01*
X156016399Y-85757431D01*
X156065593Y-85675312D01*
X156094339Y-85630623D01*
X156099594Y-85625018D01*
X156100771Y-85658833D01*
G37*
D12*
%TO.C,LEDs Lidar*%
X149905000Y-101035000D02*
X149970000Y-101035000D01*
X149905000Y-104565000D02*
X149905000Y-101035000D01*
X149905000Y-104565000D02*
X149970000Y-104565000D01*
X149970000Y-105890000D02*
X149970000Y-104565000D01*
X160120000Y-101035000D02*
X160185000Y-101035000D01*
X160120000Y-104565000D02*
X160185000Y-104565000D01*
X160185000Y-104565000D02*
X160185000Y-101035000D01*
D14*
%TO.C,G\u002A\u002A\u002A*%
G36*
X150534900Y-63736784D02*
G01*
X150538476Y-63790042D01*
X150521596Y-63842088D01*
X150498640Y-63862071D01*
X150469227Y-63852461D01*
X150467360Y-63793323D01*
X150485085Y-63732787D01*
X150508867Y-63711713D01*
X150534900Y-63736784D01*
G37*
G36*
X151769874Y-63801446D02*
G01*
X151775739Y-63837808D01*
X151762640Y-63888638D01*
X151744458Y-63900370D01*
X151719043Y-63874171D01*
X151713178Y-63837808D01*
X151726277Y-63786978D01*
X151744458Y-63775247D01*
X151769874Y-63801446D01*
G37*
G36*
X151892186Y-64949003D02*
G01*
X151858607Y-64990492D01*
X151818276Y-65021962D01*
X151803190Y-65026478D01*
X151800715Y-65007951D01*
X151830481Y-64969130D01*
X151875710Y-64929414D01*
X151897500Y-64921453D01*
X151892186Y-64949003D01*
G37*
G36*
X152487742Y-64786020D02*
G01*
X152495054Y-64794476D01*
X152450133Y-64799220D01*
X152416995Y-64799624D01*
X152356418Y-64796544D01*
X152347227Y-64789479D01*
X152362619Y-64785389D01*
X152444125Y-64780353D01*
X152487742Y-64786020D01*
G37*
G36*
X149833724Y-64115919D02*
G01*
X149801644Y-64141618D01*
X149734668Y-64169620D01*
X149647431Y-64200550D01*
X149578953Y-64227245D01*
X149578264Y-64227542D01*
X149533392Y-64239223D01*
X149523523Y-64233265D01*
X149550332Y-64204084D01*
X149618233Y-64166488D01*
X149708432Y-64130170D01*
X149746848Y-64118085D01*
X149816131Y-64105229D01*
X149833724Y-64115919D01*
G37*
G36*
X149867611Y-64272078D02*
G01*
X149840905Y-64300133D01*
X149774894Y-64335477D01*
X149690740Y-64369346D01*
X149609606Y-64392976D01*
X149561990Y-64398658D01*
X149554371Y-64388761D01*
X149596733Y-64366180D01*
X149633005Y-64352323D01*
X149725829Y-64316595D01*
X149800321Y-64282901D01*
X149812870Y-64276060D01*
X149856442Y-64261644D01*
X149867611Y-64272078D01*
G37*
G36*
X150489846Y-64854434D02*
G01*
X150508029Y-64936545D01*
X150541623Y-64977161D01*
X150609288Y-64997263D01*
X150618350Y-64998900D01*
X150727833Y-65018242D01*
X150615743Y-65022360D01*
X150535815Y-65019778D01*
X150486056Y-65008065D01*
X150482800Y-65005624D01*
X150470658Y-64963750D01*
X150465919Y-64884862D01*
X150466385Y-64857041D01*
X150470824Y-64729311D01*
X150489846Y-64854434D01*
G37*
G36*
X149608094Y-63830959D02*
G01*
X149687104Y-63858358D01*
X149766860Y-63896421D01*
X149829559Y-63938259D01*
X149851833Y-63962709D01*
X149863826Y-63986293D01*
X149850887Y-63987736D01*
X149801949Y-63963895D01*
X149742488Y-63931651D01*
X149658020Y-63892343D01*
X149588425Y-63871381D01*
X149578264Y-63870400D01*
X149531817Y-63853515D01*
X149523523Y-63835700D01*
X149547633Y-63821111D01*
X149608094Y-63830959D01*
G37*
G36*
X151190670Y-64137234D02*
G01*
X151256459Y-64179712D01*
X151282657Y-64207148D01*
X151274387Y-64212801D01*
X151214334Y-64196017D01*
X151154275Y-64162515D01*
X151084563Y-64129479D01*
X151014501Y-64142726D01*
X151005079Y-64146875D01*
X150925325Y-64176392D01*
X150879828Y-64181370D01*
X150876928Y-64165084D01*
X150924963Y-64130806D01*
X150941630Y-64121970D01*
X151059173Y-64062044D01*
X151190670Y-64137234D01*
G37*
G36*
X150613294Y-63364685D02*
G01*
X150563581Y-63427516D01*
X150486085Y-63516380D01*
X150391546Y-63618843D01*
X150297853Y-63715755D01*
X150225700Y-63786034D01*
X150181922Y-63823358D01*
X150173355Y-63821404D01*
X150174077Y-63819964D01*
X150210051Y-63767718D01*
X150272998Y-63691120D01*
X150352325Y-63601450D01*
X150437439Y-63509989D01*
X150517747Y-63428016D01*
X150582655Y-63366811D01*
X150621570Y-63337656D01*
X150627329Y-63337316D01*
X150613294Y-63364685D01*
G37*
G36*
X149669656Y-62219591D02*
G01*
X149660867Y-62270444D01*
X149650683Y-62370204D01*
X149640268Y-62505266D01*
X149630787Y-62662027D01*
X149629326Y-62690373D01*
X149621772Y-62884503D01*
X149621773Y-63024602D01*
X149629618Y-63118780D01*
X149645598Y-63175146D01*
X149646735Y-63177342D01*
X149669498Y-63236633D01*
X149667696Y-63266131D01*
X149646017Y-63253144D01*
X149616874Y-63198133D01*
X149614844Y-63193070D01*
X149602274Y-63127196D01*
X149595351Y-63017920D01*
X149593534Y-62879011D01*
X149596282Y-62724239D01*
X149603052Y-62567374D01*
X149613303Y-62422185D01*
X149626495Y-62302443D01*
X149642086Y-62221916D01*
X149654033Y-62196347D01*
X149676869Y-62185057D01*
X149669656Y-62219591D01*
G37*
G36*
X151576294Y-63395784D02*
G01*
X151629640Y-63445787D01*
X151704479Y-63526114D01*
X151796707Y-63617725D01*
X151891701Y-63694758D01*
X151962545Y-63737294D01*
X152022733Y-63769532D01*
X152039863Y-63793480D01*
X152033806Y-63797965D01*
X152019140Y-63831632D01*
X152007432Y-63911391D01*
X151998970Y-64022345D01*
X151994042Y-64149596D01*
X151992937Y-64278245D01*
X151995944Y-64393396D01*
X152003351Y-64480148D01*
X152015447Y-64523605D01*
X152019704Y-64525986D01*
X152032995Y-64553176D01*
X152033477Y-64620111D01*
X152031959Y-64635151D01*
X152038629Y-64722794D01*
X152076349Y-64769397D01*
X152134821Y-64766242D01*
X152164184Y-64747080D01*
X152198218Y-64698454D01*
X152244539Y-64605823D01*
X152296780Y-64484899D01*
X152348576Y-64351393D01*
X152393561Y-64221015D01*
X152425368Y-64109479D01*
X152429025Y-64093439D01*
X152456436Y-63987420D01*
X152482155Y-63937331D01*
X152509894Y-63936774D01*
X152516573Y-63942599D01*
X152516780Y-63979147D01*
X152500932Y-64000990D01*
X152468276Y-64062377D01*
X152471254Y-64126103D01*
X152503018Y-64161180D01*
X152516532Y-64175141D01*
X152491026Y-64179427D01*
X152443900Y-64208038D01*
X152421071Y-64252279D01*
X152404585Y-64328087D01*
X152414257Y-64361530D01*
X152456266Y-64369528D01*
X152463917Y-64369582D01*
X152514734Y-64383445D01*
X152526478Y-64402708D01*
X152506264Y-64419543D01*
X152487377Y-64412344D01*
X152469273Y-64409153D01*
X152491835Y-64442535D01*
X152519240Y-64491775D01*
X152517463Y-64514147D01*
X152490026Y-64505228D01*
X152458559Y-64466470D01*
X152419565Y-64416308D01*
X152396124Y-64400862D01*
X152372538Y-64426796D01*
X152332113Y-64494493D01*
X152287845Y-64580727D01*
X152241258Y-64676869D01*
X152205874Y-64749198D01*
X152190531Y-64779769D01*
X152207874Y-64803584D01*
X152268219Y-64832841D01*
X152353273Y-64860442D01*
X152444746Y-64879292D01*
X152448276Y-64879763D01*
X152542119Y-64891981D01*
X152439675Y-64896668D01*
X152351805Y-64888745D01*
X152237590Y-64863357D01*
X152165968Y-64841161D01*
X152069649Y-64809104D01*
X152018066Y-64799019D01*
X151997675Y-64810126D01*
X151994705Y-64831325D01*
X152014923Y-64888587D01*
X152062719Y-64954080D01*
X152100193Y-65002903D01*
X152101536Y-65026161D01*
X152098848Y-65026478D01*
X152056054Y-65005370D01*
X152009517Y-64963001D01*
X151964057Y-64870376D01*
X151953902Y-64773992D01*
X151950775Y-64698392D01*
X151940741Y-64660194D01*
X151936118Y-64659104D01*
X151762430Y-64747841D01*
X151618558Y-64806009D01*
X151483743Y-64839861D01*
X151337223Y-64855652D01*
X151275247Y-64858188D01*
X151009360Y-64865678D01*
X151281532Y-64839311D01*
X151461624Y-64814689D01*
X151609740Y-64775378D01*
X151756115Y-64713292D01*
X151760075Y-64711348D01*
X151966446Y-64609752D01*
X151961448Y-64222053D01*
X151960936Y-64072499D01*
X151963176Y-63946656D01*
X151967753Y-63857175D01*
X151974251Y-63816708D01*
X151974764Y-63816041D01*
X151961593Y-63790661D01*
X151907886Y-63745718D01*
X151860948Y-63713844D01*
X151759977Y-63636999D01*
X151666718Y-63545903D01*
X151642796Y-63517006D01*
X151580838Y-63431093D01*
X151559349Y-63390786D01*
X151576294Y-63395784D01*
G37*
G36*
X149855918Y-62038098D02*
G01*
X149970582Y-62073954D01*
X150110090Y-62127652D01*
X150259666Y-62192665D01*
X150404534Y-62262462D01*
X150529918Y-62330514D01*
X150621040Y-62390291D01*
X150640308Y-62406384D01*
X150719379Y-62451492D01*
X150773252Y-62452783D01*
X150823925Y-62450587D01*
X150837316Y-62464382D01*
X150811488Y-62488497D01*
X150783023Y-62492734D01*
X150698221Y-62513249D01*
X150587366Y-62568556D01*
X150462047Y-62649301D01*
X150333850Y-62746131D01*
X150214364Y-62849691D01*
X150115176Y-62950626D01*
X150047873Y-63039583D01*
X150024015Y-63105455D01*
X150030234Y-63136123D01*
X150057032Y-63127706D01*
X150108312Y-63084702D01*
X150150953Y-63048102D01*
X150158149Y-63048916D01*
X150128480Y-63091425D01*
X150088901Y-63143253D01*
X150033699Y-63218723D01*
X150001006Y-63271239D01*
X149996784Y-63286276D01*
X150030585Y-63287359D01*
X150114490Y-63284075D01*
X150236239Y-63277049D01*
X150383573Y-63266907D01*
X150399385Y-63265735D01*
X150588858Y-63248818D01*
X150722741Y-63230025D01*
X150808001Y-63208127D01*
X150846482Y-63187027D01*
X150886130Y-63155373D01*
X150890692Y-63166933D01*
X150884114Y-63185593D01*
X150884383Y-63206003D01*
X150909210Y-63221286D01*
X150967549Y-63233074D01*
X151068357Y-63242999D01*
X151220587Y-63252693D01*
X151265957Y-63255176D01*
X151447109Y-63267489D01*
X151633041Y-63284492D01*
X151800253Y-63303806D01*
X151911599Y-63320529D01*
X152032368Y-63339379D01*
X152131665Y-63349864D01*
X152191568Y-63350218D01*
X152197782Y-63348723D01*
X152247164Y-63354130D01*
X152259273Y-63366464D01*
X152304858Y-63395043D01*
X152337670Y-63399877D01*
X152368744Y-63395838D01*
X152380387Y-63374251D01*
X152373470Y-63320909D01*
X152348863Y-63221607D01*
X152348645Y-63220772D01*
X152268791Y-62997843D01*
X152159074Y-62820147D01*
X152032806Y-62700786D01*
X151909410Y-62627195D01*
X151793035Y-62578768D01*
X151699915Y-62561435D01*
X151665865Y-62566758D01*
X151625776Y-62568216D01*
X151619335Y-62556422D01*
X151611614Y-62537154D01*
X151581116Y-62519903D01*
X151516844Y-62501070D01*
X151407800Y-62477053D01*
X151327507Y-62460875D01*
X151233959Y-62439432D01*
X151174169Y-62420065D01*
X151161153Y-62408716D01*
X151197045Y-62407441D01*
X151278284Y-62418194D01*
X151389299Y-62438760D01*
X151424444Y-62446158D01*
X151549874Y-62471941D01*
X151632498Y-62483269D01*
X151690368Y-62480187D01*
X151741536Y-62462743D01*
X151773361Y-62447043D01*
X151871170Y-62406790D01*
X151994149Y-62370894D01*
X152129003Y-62341308D01*
X152262435Y-62319987D01*
X152381151Y-62308886D01*
X152471854Y-62309959D01*
X152521248Y-62325162D01*
X152526478Y-62336330D01*
X152497832Y-62352789D01*
X152422307Y-62364019D01*
X152328831Y-62367611D01*
X152203170Y-62375387D01*
X152065232Y-62395951D01*
X151933675Y-62425158D01*
X151827155Y-62458862D01*
X151764328Y-62492918D01*
X151764153Y-62493084D01*
X151775000Y-62518080D01*
X151831203Y-62555933D01*
X151897324Y-62588037D01*
X152052692Y-62679856D01*
X152187832Y-62805911D01*
X152282096Y-62946783D01*
X152284664Y-62952320D01*
X152319527Y-63028836D01*
X152425269Y-62909369D01*
X152483318Y-62848055D01*
X152505443Y-62834157D01*
X152492319Y-62864348D01*
X152444617Y-62935302D01*
X152410673Y-62981481D01*
X152363709Y-63056596D01*
X152356046Y-63117375D01*
X152368929Y-63162258D01*
X152395665Y-63259275D01*
X152407581Y-63338228D01*
X152426448Y-63409826D01*
X152470570Y-63431158D01*
X152517666Y-63445910D01*
X152526478Y-63463035D01*
X152499345Y-63479648D01*
X152424888Y-63473103D01*
X152313516Y-63444334D01*
X152311563Y-63443721D01*
X152283511Y-63448273D01*
X152290393Y-63497289D01*
X152291599Y-63501075D01*
X152305302Y-63567607D01*
X152319090Y-63673527D01*
X152329836Y-63794099D01*
X152334343Y-63935224D01*
X152323082Y-64035644D01*
X152293717Y-64115757D01*
X152292752Y-64117634D01*
X152254907Y-64179240D01*
X152227387Y-64203801D01*
X152223814Y-64202467D01*
X152227511Y-64168113D01*
X152257401Y-64114398D01*
X152290936Y-64026771D01*
X152305965Y-63898223D01*
X152301945Y-63747761D01*
X152278331Y-63594391D01*
X152272903Y-63571660D01*
X152249093Y-63490623D01*
X152217609Y-63445633D01*
X152159366Y-63420122D01*
X152077398Y-63401947D01*
X151948794Y-63377882D01*
X151802893Y-63353008D01*
X151734208Y-63342213D01*
X151631818Y-63328409D01*
X151574030Y-63328904D01*
X151543750Y-63347619D01*
X151523885Y-63388472D01*
X151523063Y-63390628D01*
X151500812Y-63462514D01*
X151494095Y-63503576D01*
X151477078Y-63556749D01*
X151435832Y-63635227D01*
X151384754Y-63715104D01*
X151338244Y-63772472D01*
X151326052Y-63782588D01*
X151245216Y-63806303D01*
X151175785Y-63771230D01*
X151138952Y-63712746D01*
X151099520Y-63618964D01*
X151000343Y-63759667D01*
X150912613Y-63859359D01*
X150836258Y-63899706D01*
X150775957Y-63883566D01*
X150736392Y-63813796D01*
X150729548Y-63755484D01*
X150757140Y-63755484D01*
X150774830Y-63841435D01*
X150815179Y-63869552D01*
X150877820Y-63839526D01*
X150948854Y-63767426D01*
X151020026Y-63668615D01*
X151083653Y-63557598D01*
X151091712Y-63540641D01*
X151148750Y-63415518D01*
X151149436Y-63542482D01*
X151163386Y-63658319D01*
X151199629Y-63736829D01*
X151251891Y-63768862D01*
X151296875Y-63757451D01*
X151356625Y-63696958D01*
X151416047Y-63596017D01*
X151463982Y-63475794D01*
X151481972Y-63406337D01*
X151502032Y-63306035D01*
X151154630Y-63306035D01*
X150999818Y-63305555D01*
X150896181Y-63309974D01*
X150832455Y-63328081D01*
X150797373Y-63368666D01*
X150779671Y-63440519D01*
X150768084Y-63552429D01*
X150762478Y-63612002D01*
X150757140Y-63755484D01*
X150729548Y-63755484D01*
X150722244Y-63693253D01*
X150728362Y-63593640D01*
X150741909Y-63486456D01*
X150755279Y-63399810D01*
X150762484Y-63364873D01*
X150761589Y-63340649D01*
X150735603Y-63325397D01*
X150673757Y-63317034D01*
X150565282Y-63313472D01*
X150493899Y-63312858D01*
X150357179Y-63313640D01*
X150268698Y-63319495D01*
X150214175Y-63333271D01*
X150179327Y-63357820D01*
X150161747Y-63379143D01*
X150126959Y-63424277D01*
X150120866Y-63419429D01*
X150130720Y-63382684D01*
X150136219Y-63340650D01*
X150108640Y-63326618D01*
X150040925Y-63331230D01*
X149967889Y-63349498D01*
X149909268Y-63394028D01*
X149846106Y-63479726D01*
X149840046Y-63489187D01*
X149767395Y-63616186D01*
X149738022Y-63702595D01*
X149751220Y-63752310D01*
X149789409Y-63767969D01*
X149883863Y-63752838D01*
X149976390Y-63694949D01*
X150045394Y-63610931D01*
X150066597Y-63554515D01*
X150083776Y-63489783D01*
X150099057Y-63465227D01*
X150100676Y-63466111D01*
X150102421Y-63501961D01*
X150091131Y-63576986D01*
X150082060Y-63619691D01*
X150059129Y-63850143D01*
X150095441Y-64072352D01*
X150187715Y-64280188D01*
X150332671Y-64467521D01*
X150527024Y-64628223D01*
X150665271Y-64708949D01*
X150768121Y-64764512D01*
X150814836Y-64796324D01*
X150807645Y-64803166D01*
X150748778Y-64783818D01*
X150640463Y-64737060D01*
X150626076Y-64730401D01*
X150514424Y-64665506D01*
X150392137Y-64575073D01*
X150305448Y-64497590D01*
X150149138Y-64341280D01*
X150149138Y-64496194D01*
X150138760Y-64601846D01*
X150109319Y-64650707D01*
X150063351Y-64641156D01*
X150011763Y-64583892D01*
X149974297Y-64539372D01*
X149937579Y-64537957D01*
X149885966Y-64568251D01*
X149819343Y-64605378D01*
X149774869Y-64619828D01*
X149746141Y-64597016D01*
X149746368Y-64544505D01*
X149772220Y-64486185D01*
X149797229Y-64459434D01*
X149834260Y-64432406D01*
X149826732Y-64448341D01*
X149809912Y-64470192D01*
X149776906Y-64532667D01*
X149786903Y-64565465D01*
X149831085Y-64556668D01*
X149859039Y-64536583D01*
X149895220Y-64498955D01*
X149913169Y-64452747D01*
X149916297Y-64379758D01*
X149908821Y-64271019D01*
X149890824Y-64062974D01*
X149723307Y-64042044D01*
X149626078Y-64024732D01*
X149556404Y-64002766D01*
X149535739Y-63988672D01*
X149540932Y-63968487D01*
X149574347Y-63972935D01*
X149642585Y-63988417D01*
X149738109Y-64005823D01*
X149762074Y-64009662D01*
X149843995Y-64019580D01*
X149884439Y-64007227D01*
X149903683Y-63960357D01*
X149911870Y-63919202D01*
X149932850Y-63841178D01*
X149957230Y-63794167D01*
X149960655Y-63791381D01*
X149972338Y-63804732D01*
X149963052Y-63862905D01*
X149959443Y-63876099D01*
X149939693Y-63980780D01*
X149930946Y-64104803D01*
X149932752Y-64228847D01*
X149944663Y-64333590D01*
X149966229Y-64399711D01*
X149971787Y-64406728D01*
X150001921Y-64456923D01*
X150002647Y-64480609D01*
X150009313Y-64522694D01*
X150038089Y-64575237D01*
X150073093Y-64614803D01*
X150096968Y-64619779D01*
X150113741Y-64569514D01*
X150119461Y-64476680D01*
X150114938Y-64360133D01*
X150100985Y-64238729D01*
X150078411Y-64131325D01*
X150075528Y-64121478D01*
X150045785Y-64001159D01*
X150027176Y-63883131D01*
X150024015Y-63831327D01*
X150024015Y-63711078D01*
X149931726Y-63758803D01*
X149815731Y-63804035D01*
X149739260Y-63802136D01*
X149704510Y-63756180D01*
X149713680Y-63669243D01*
X149768968Y-63544400D01*
X149773145Y-63536930D01*
X149822701Y-63447494D01*
X149856907Y-63382652D01*
X149867611Y-63358677D01*
X149839290Y-63354168D01*
X149765938Y-63353660D01*
X149687747Y-63356237D01*
X149507883Y-63364665D01*
X149721635Y-63327529D01*
X149868247Y-63292883D01*
X149959128Y-63246852D01*
X150000803Y-63184231D01*
X150000795Y-63104829D01*
X150002304Y-63059523D01*
X150028647Y-63005791D01*
X150086997Y-62933246D01*
X150184525Y-62831500D01*
X150200645Y-62815398D01*
X150310440Y-62713784D01*
X150421588Y-62623686D01*
X150516068Y-62559276D01*
X150547116Y-62542989D01*
X150621071Y-62502388D01*
X150659251Y-62466104D01*
X150660115Y-62453111D01*
X150623849Y-62426205D01*
X150542996Y-62380867D01*
X150430488Y-62323269D01*
X150299257Y-62259585D01*
X150162237Y-62195986D01*
X150032361Y-62138646D01*
X149922560Y-62093737D01*
X149862060Y-62072208D01*
X149794109Y-62047160D01*
X149770570Y-62030350D01*
X149780875Y-62026615D01*
X149855918Y-62038098D01*
G37*
D12*
%TO.C,TP2*%
X162450000Y-65975000D02*
G75*
G02*
X160550000Y-65975000I-950000J0D01*
G01*
X160550000Y-65975000D02*
G75*
G02*
X162450000Y-65975000I950000J0D01*
G01*
%TO.C,C201*%
X162892164Y-79840000D02*
X163107836Y-79840000D01*
X162892164Y-80560000D02*
X163107836Y-80560000D01*
%TO.C,D1*%
X170665000Y-68865000D02*
X170665000Y-71325000D01*
X172135000Y-68865000D02*
X170665000Y-68865000D01*
X172135000Y-71325000D02*
X172135000Y-68865000D01*
%TO.C,R211*%
X160377500Y-96262742D02*
X160377500Y-96737258D01*
X161422500Y-96262742D02*
X161422500Y-96737258D01*
%TO.C,Moteur G*%
X148840000Y-43190000D02*
X148840000Y-54910000D01*
X148840000Y-54910000D02*
X150260000Y-54910000D01*
X150260000Y-50410000D02*
X157650000Y-50410000D01*
X150260000Y-54910000D02*
X150260000Y-50410000D01*
X151150000Y-43800000D02*
X151150000Y-49300000D01*
X151150000Y-49300000D02*
X151650000Y-49300000D01*
X151650000Y-43800000D02*
X151150000Y-43800000D01*
X151650000Y-49300000D02*
X151650000Y-43800000D01*
X153650000Y-43800000D02*
X153650000Y-49300000D01*
X153650000Y-49300000D02*
X154150000Y-49300000D01*
X154150000Y-43800000D02*
X153650000Y-43800000D01*
X154150000Y-49300000D02*
X154150000Y-43800000D01*
X156150000Y-43800000D02*
X156150000Y-49300000D01*
X156150000Y-49300000D02*
X156650000Y-49300000D01*
X156650000Y-43800000D02*
X156150000Y-43800000D01*
X156650000Y-49300000D02*
X156650000Y-43800000D01*
X157650000Y-43190000D02*
X148840000Y-43190000D01*
X157650000Y-43190000D02*
X166460000Y-43190000D01*
X158650000Y-43800000D02*
X158650000Y-49300000D01*
X158650000Y-49300000D02*
X159150000Y-49300000D01*
X159150000Y-43800000D02*
X158650000Y-43800000D01*
X159150000Y-49300000D02*
X159150000Y-43800000D01*
X161150000Y-43800000D02*
X161150000Y-49300000D01*
X161150000Y-49300000D02*
X161650000Y-49300000D01*
X161650000Y-43800000D02*
X161150000Y-43800000D01*
X161650000Y-49300000D02*
X161650000Y-43800000D01*
X163600000Y-54600000D02*
X163900000Y-54000000D01*
X163650000Y-43800000D02*
X163650000Y-49300000D01*
X163650000Y-49300000D02*
X164150000Y-49300000D01*
X163900000Y-54000000D02*
X164200000Y-54600000D01*
X164150000Y-43800000D02*
X163650000Y-43800000D01*
X164150000Y-49300000D02*
X164150000Y-43800000D01*
X164200000Y-54600000D02*
X163600000Y-54600000D01*
X165040000Y-50410000D02*
X157650000Y-50410000D01*
X165040000Y-54910000D02*
X165040000Y-50410000D01*
X166460000Y-43190000D02*
X166460000Y-54910000D01*
X166460000Y-54910000D02*
X165040000Y-54910000D01*
%TO.C,C210*%
X171265000Y-87465580D02*
X171265000Y-87184420D01*
X172285000Y-87465580D02*
X172285000Y-87184420D01*
%TO.C,C402*%
X175607836Y-92640000D02*
X175392164Y-92640000D01*
X175607836Y-93360000D02*
X175392164Y-93360000D01*
%TO.C,C702*%
X157390000Y-60040580D02*
X157390000Y-59759420D01*
X158410000Y-60040580D02*
X158410000Y-59759420D01*
%TO.C,Y201*%
X161000000Y-75650000D02*
X161000000Y-79550000D01*
X164200000Y-75650000D02*
X161000000Y-75650000D01*
%TO.C,C209*%
X177774420Y-76290000D02*
X178055580Y-76290000D01*
X177774420Y-77310000D02*
X178055580Y-77310000D01*
%TD*%
M02*
