%TF.GenerationSoftware,KiCad,Pcbnew,8.0.5*%
%TF.CreationDate,2024-10-23T00:06:31+02:00*%
%TF.ProjectId,Projet_torero,50726f6a-6574-45f7-946f-7265726f2e6b,rev?*%
%TF.SameCoordinates,Original*%
%TF.FileFunction,Copper,L2,Inr*%
%TF.FilePolarity,Positive*%
%FSLAX46Y46*%
G04 Gerber Fmt 4.6, Leading zero omitted, Abs format (unit mm)*
G04 Created by KiCad (PCBNEW 8.0.5) date 2024-10-23 00:06:31*
%MOMM*%
%LPD*%
G01*
G04 APERTURE LIST*
G04 Aperture macros list*
%AMRoundRect*
0 Rectangle with rounded corners*
0 $1 Rounding radius*
0 $2 $3 $4 $5 $6 $7 $8 $9 X,Y pos of 4 corners*
0 Add a 4 corners polygon primitive as box body*
4,1,4,$2,$3,$4,$5,$6,$7,$8,$9,$2,$3,0*
0 Add four circle primitives for the rounded corners*
1,1,$1+$1,$2,$3*
1,1,$1+$1,$4,$5*
1,1,$1+$1,$6,$7*
1,1,$1+$1,$8,$9*
0 Add four rect primitives between the rounded corners*
20,1,$1+$1,$2,$3,$4,$5,0*
20,1,$1+$1,$4,$5,$6,$7,0*
20,1,$1+$1,$6,$7,$8,$9,0*
20,1,$1+$1,$8,$9,$2,$3,0*%
G04 Aperture macros list end*
%TA.AperFunction,ComponentPad*%
%ADD10RoundRect,0.250000X0.600000X0.725000X-0.600000X0.725000X-0.600000X-0.725000X0.600000X-0.725000X0*%
%TD*%
%TA.AperFunction,ComponentPad*%
%ADD11O,1.700000X1.950000*%
%TD*%
%TA.AperFunction,ComponentPad*%
%ADD12RoundRect,0.250000X0.725000X-0.600000X0.725000X0.600000X-0.725000X0.600000X-0.725000X-0.600000X0*%
%TD*%
%TA.AperFunction,ComponentPad*%
%ADD13O,1.950000X1.700000*%
%TD*%
%TA.AperFunction,ComponentPad*%
%ADD14RoundRect,0.250000X-0.750000X0.600000X-0.750000X-0.600000X0.750000X-0.600000X0.750000X0.600000X0*%
%TD*%
%TA.AperFunction,ComponentPad*%
%ADD15O,2.000000X1.700000*%
%TD*%
%TA.AperFunction,ComponentPad*%
%ADD16C,0.800000*%
%TD*%
%TA.AperFunction,ComponentPad*%
%ADD17C,6.400000*%
%TD*%
%TA.AperFunction,ComponentPad*%
%ADD18RoundRect,0.250000X-0.725000X0.600000X-0.725000X-0.600000X0.725000X-0.600000X0.725000X0.600000X0*%
%TD*%
%TA.AperFunction,ViaPad*%
%ADD19C,0.450000*%
%TD*%
G04 APERTURE END LIST*
D10*
%TO.N,/PUISSANCE/Moteur/Commande moteur*%
%TO.C,Moteur D*%
X182400000Y-52500000D03*
D11*
%TO.N,GND*%
X179900000Y-52500000D03*
%TO.N,/PUISSANCE/EncodeurA_Gauche*%
X177400000Y-52500000D03*
%TO.N,/PUISSANCE/EncodeurB_Gauche*%
X174900000Y-52500000D03*
%TO.N,+3.3V*%
X172400000Y-52500000D03*
%TO.N,/PUISSANCE/Moteur/Connecteur Moteur*%
X169900000Y-52500000D03*
%TD*%
D12*
%TO.N,/CAPTEURS/ANALOG_OUTPUT_CAPT_BORD_D*%
%TO.C,CapteurBD*%
X191450000Y-80450000D03*
D13*
%TO.N,GND*%
X191450000Y-77950000D03*
%TO.N,Net-(QRD901-Pad3)*%
X191450000Y-75450000D03*
%TO.N,GND*%
X191450000Y-72950000D03*
%TD*%
D14*
%TO.N,Net-(J501-Pin_2)*%
%TO.C,ON/OFF*%
X142450000Y-69100000D03*
D15*
%TO.N,7.2V*%
X142450000Y-71600000D03*
%TD*%
D16*
%TO.N,GND*%
%TO.C,H2*%
X141602944Y-53997056D03*
X142305888Y-52300000D03*
X142305888Y-55694112D03*
X144002944Y-51597056D03*
D17*
X144002944Y-53997056D03*
D16*
X144002944Y-56397056D03*
X145700000Y-52300000D03*
X145700000Y-55694112D03*
X146402944Y-53997056D03*
%TD*%
%TO.N,GND*%
%TO.C,H1*%
X187600000Y-54000000D03*
X188302944Y-52302944D03*
X188302944Y-55697056D03*
X190000000Y-51600000D03*
D17*
X190000000Y-54000000D03*
D16*
X190000000Y-56400000D03*
X191697056Y-52302944D03*
X191697056Y-55697056D03*
X192400000Y-54000000D03*
%TD*%
D14*
%TO.N,GND*%
%TO.C,Batterie*%
X142450000Y-60450000D03*
D15*
%TO.N,Net-(J501-Pin_2)*%
X142450000Y-62950000D03*
%TD*%
D18*
%TO.N,unconnected-(J401-Pin_1-Pad1)*%
%TO.C,LIDAR*%
X142450000Y-77900000D03*
D13*
%TO.N,/CAPTEURS/M_EN_LIDAR*%
X142450000Y-80400000D03*
%TO.N,/CAPTEURS/DEV_EN_LIDAR*%
X142450000Y-82900000D03*
%TO.N,/CAPTEURS/M_SCTR_LIDAR*%
X142450000Y-85400000D03*
%TO.N,GND*%
X142450000Y-87900000D03*
%TO.N,/CAPTEURS/Rx_LIDAR*%
X142450000Y-90400000D03*
%TO.N,/CAPTEURS/Tx_LIDAR*%
X142450000Y-92900000D03*
%TO.N,+5V*%
X142450000Y-95400000D03*
%TD*%
D16*
%TO.N,GND*%
%TO.C,H3*%
X141600000Y-102900000D03*
X142302944Y-101202944D03*
X142302944Y-104597056D03*
X144000000Y-100500000D03*
D17*
X144000000Y-102900000D03*
D16*
X144000000Y-105300000D03*
X145697056Y-101202944D03*
X145697056Y-104597056D03*
X146400000Y-102900000D03*
%TD*%
D12*
%TO.N,/CAPTEURS/ANALOG_OUTPUT_CAPT_BORD_G*%
%TO.C,CapteurBG*%
X191450000Y-93950000D03*
D13*
%TO.N,GND*%
X191450000Y-91450000D03*
%TO.N,Net-(QRD801-Pad3)*%
X191450000Y-88950000D03*
%TO.N,GND*%
X191450000Y-86450000D03*
%TD*%
D16*
%TO.N,GND*%
%TO.C,H4*%
X192400000Y-102900000D03*
X191697056Y-104597056D03*
X191697056Y-101202944D03*
X190000000Y-105300000D03*
D17*
X190000000Y-102900000D03*
D16*
X190000000Y-100500000D03*
X188302944Y-104597056D03*
X188302944Y-101202944D03*
X187600000Y-102900000D03*
%TD*%
D10*
%TO.N,/PUISSANCE/Moteur1/Commande moteur*%
%TO.C,Moteur G*%
X163900000Y-52500000D03*
D11*
%TO.N,GND*%
X161400000Y-52500000D03*
%TO.N,/PUISSANCE/EncodeurA_Droite*%
X158900000Y-52500000D03*
%TO.N,/PUISSANCE/EncodeurB_Droite*%
X156400000Y-52500000D03*
%TO.N,+3.3V*%
X153900000Y-52500000D03*
%TO.N,/PUISSANCE/Moteur1/Connecteur Moteur*%
X151400000Y-52500000D03*
%TD*%
D19*
%TO.N,GND*%
X165925000Y-68875000D03*
X172200000Y-95800000D03*
X171200000Y-78500000D03*
X163675000Y-75000000D03*
X161250000Y-104750000D03*
X171200000Y-79900000D03*
X163350000Y-63000000D03*
X171200000Y-77100000D03*
X164775000Y-86825000D03*
X160300000Y-68500000D03*
X175980000Y-92400000D03*
X162300000Y-63000000D03*
X174850000Y-62992500D03*
X173800000Y-60092500D03*
X153300000Y-78850000D03*
X172600000Y-79900000D03*
X172600000Y-77100000D03*
X175900000Y-60092500D03*
X182000000Y-68200000D03*
X154050000Y-58975000D03*
X164525000Y-76475000D03*
X173200000Y-90725000D03*
X157925000Y-64750000D03*
X163225000Y-73675000D03*
X157000000Y-59200000D03*
X170450000Y-64500000D03*
X172600000Y-78500000D03*
X146450000Y-75100000D03*
X160650000Y-78750000D03*
X168263174Y-71513174D03*
X172325000Y-85225000D03*
X177996164Y-90703836D03*
X163350000Y-61550000D03*
X170450000Y-58400000D03*
X175075000Y-56200000D03*
X169825000Y-67000000D03*
X151975000Y-69800000D03*
X179800000Y-76825000D03*
X174550000Y-67000000D03*
X175900000Y-61542500D03*
X161250000Y-60100000D03*
X162200000Y-83500000D03*
X174850000Y-60092500D03*
X162300000Y-60100000D03*
X192270000Y-60875000D03*
X169800000Y-77100000D03*
X169800000Y-78500000D03*
X173675000Y-85525000D03*
X192320000Y-63450000D03*
X184750000Y-96325000D03*
X192320000Y-64675000D03*
X173800000Y-62992500D03*
X172775000Y-86550000D03*
X161800000Y-80200000D03*
X152250000Y-82000000D03*
X177850000Y-92500000D03*
X161250000Y-63000000D03*
X164875000Y-79475000D03*
X186050000Y-105700000D03*
X148712500Y-104750000D03*
X178900000Y-75525000D03*
X156900000Y-56125000D03*
X161250000Y-61550000D03*
X173800000Y-61542500D03*
X169800000Y-79900000D03*
X152850000Y-74550000D03*
X163350000Y-60100000D03*
X159275000Y-71400000D03*
X175900000Y-62992500D03*
%TO.N,NRST*%
X183450000Y-90400000D03*
X165475000Y-80475000D03*
X181200000Y-96050000D03*
X183450000Y-85825000D03*
%TO.N,+3.3V*%
X184750000Y-75400000D03*
X171600000Y-56250000D03*
X184950000Y-93950000D03*
X146850000Y-59000000D03*
X192300000Y-65900000D03*
X180175000Y-93325000D03*
X168400000Y-74000000D03*
X173675000Y-83325000D03*
X176675000Y-105725000D03*
X175609310Y-76118620D03*
X184950000Y-80400000D03*
X174300000Y-92975000D03*
X153800000Y-56100000D03*
X164001409Y-70401409D03*
X162900000Y-69400000D03*
X185050000Y-89025000D03*
X177370000Y-84500000D03*
X177725000Y-96370000D03*
%TO.N,7.2V*%
X158700000Y-62250000D03*
X150275000Y-75825000D03*
X178400000Y-62217500D03*
X158700000Y-60750000D03*
X165800000Y-62225000D03*
X150175000Y-80000000D03*
X171200000Y-60742500D03*
X171200000Y-62292500D03*
X148250000Y-79775000D03*
%TO.N,+5V*%
X158050000Y-78850000D03*
X155625000Y-82000000D03*
X160100000Y-72825000D03*
X158500000Y-69300000D03*
X156250000Y-78850000D03*
X148000000Y-66500000D03*
X157100000Y-78850000D03*
X159275000Y-70375000D03*
%TO.N,Net-(IC501-EN{slash}SYNC)*%
X150925000Y-70725000D03*
X145550000Y-76225000D03*
%TO.N,SWO*%
X173013604Y-72813604D03*
X177785355Y-73085356D03*
%TO.N,Net-(U201-VBAT)*%
X172992678Y-87742677D03*
X166700000Y-74025000D03*
X176700000Y-88100000D03*
X177850000Y-81950000D03*
%TO.N,/CAPTEURS/DEV_EN_LIDAR*%
X175562500Y-70637500D03*
%TO.N,/CAPTEURS/M_EN_LIDAR*%
X167400000Y-85600000D03*
X164500000Y-84500000D03*
%TO.N,/CAPTEURS/M_SCTR_LIDAR*%
X147200000Y-82700000D03*
%TO.N,/PUISSANCE/EncodeurB_Gauche*%
X176400000Y-73600000D03*
X181000000Y-68600000D03*
X175900000Y-76700000D03*
%TO.N,/PUISSANCE/EncodeurA_Gauche*%
X184000000Y-70500000D03*
%TO.N,/PUISSANCE/EncodeurB_Droite*%
X154900000Y-63200000D03*
X156700000Y-70900000D03*
X159200000Y-80800000D03*
%TO.N,/PUISSANCE/EncodeurA_Droite*%
X167825000Y-58675000D03*
X167900000Y-67375000D03*
X163850000Y-82000000D03*
%TO.N,VCP_RX*%
X165822183Y-81600001D03*
X188975000Y-57925000D03*
%TO.N,VCP_TX*%
X166586221Y-80661221D03*
X185275000Y-59590000D03*
%TO.N,LED_N*%
X182650000Y-91975000D03*
X178350000Y-78975000D03*
X148300000Y-96700000D03*
X171129271Y-73435015D03*
%TO.N,LED_E*%
X151825000Y-94275000D03*
X166350000Y-66650000D03*
%TO.N,LED_S*%
X153325000Y-94375000D03*
X164225000Y-71850000D03*
X170100000Y-72800000D03*
X160000000Y-74075000D03*
%TO.N,LED_W*%
X171876719Y-72650677D03*
X154850000Y-94300000D03*
%TO.N,LED_NE*%
X160100000Y-87700000D03*
X156450000Y-94275000D03*
%TO.N,LED_SE*%
X159925000Y-94125000D03*
X165247182Y-88852818D03*
%TO.N,LED_SW*%
X177000000Y-86700000D03*
X172100000Y-92200000D03*
%TO.N,/CAPTEURS/ANALOG_OUTPUT_CAPT_BORD_G*%
X166350000Y-88225000D03*
X172300000Y-93600000D03*
%TO.N,/CAPTEURS/ANALOG_OUTPUT_CAPT_BORD_D*%
X166987500Y-86787500D03*
X172500000Y-91400000D03*
%TO.N,/PUISSANCE/REVG*%
X178975000Y-68875000D03*
X179700000Y-82500000D03*
%TO.N,/CAPTEURS/CS_ACC*%
X165450000Y-82700000D03*
X180700000Y-91200000D03*
%TO.N,/PUISSANCE/FWDD*%
X164275000Y-79925000D03*
X164850000Y-73300000D03*
%TO.N,/CAPTEURS/SDO_ACC*%
X176300000Y-87400000D03*
X175711091Y-86411091D03*
%TO.N,/PUISSANCE/REVD*%
X166661373Y-79950000D03*
X165400000Y-72625000D03*
%TO.N,/CAPTEURS/INT2_ACC*%
X179748591Y-88373591D03*
X165500000Y-76450000D03*
%TO.N,/PUISSANCE/FWDG*%
X178300000Y-69500000D03*
X178900000Y-82500000D03*
%TO.N,/STM32/USER_BTN*%
X166425000Y-71750000D03*
X160085346Y-74885346D03*
X167650000Y-92350000D03*
X171050000Y-97375000D03*
X164075000Y-72925000D03*
X153700000Y-91000000D03*
%TD*%
%TA.AperFunction,Conductor*%
%TO.N,GND*%
G36*
X190000733Y-50000008D02*
G01*
X190191077Y-50002343D01*
X190201681Y-50002930D01*
X190581224Y-50040312D01*
X190593249Y-50042096D01*
X190966527Y-50116345D01*
X190978329Y-50119301D01*
X191342544Y-50229785D01*
X191354002Y-50233885D01*
X191705627Y-50379532D01*
X191716626Y-50384734D01*
X192052282Y-50564147D01*
X192062713Y-50570399D01*
X192379169Y-50781849D01*
X192388942Y-50789097D01*
X192645426Y-50999587D01*
X192683148Y-51030544D01*
X192692165Y-51038717D01*
X192961282Y-51307834D01*
X192969455Y-51316851D01*
X193210902Y-51611057D01*
X193218150Y-51620830D01*
X193429600Y-51937286D01*
X193435856Y-51947724D01*
X193615264Y-52283372D01*
X193620467Y-52294372D01*
X193766114Y-52645997D01*
X193770214Y-52657455D01*
X193880698Y-53021670D01*
X193883654Y-53033474D01*
X193957902Y-53406744D01*
X193959688Y-53418781D01*
X193997068Y-53798304D01*
X193997656Y-53808937D01*
X193999991Y-53999266D01*
X194000000Y-54000787D01*
X194000000Y-102999212D01*
X193999991Y-103000733D01*
X193997656Y-103191062D01*
X193997068Y-103201695D01*
X193959688Y-103581218D01*
X193957902Y-103593255D01*
X193883654Y-103966525D01*
X193880698Y-103978329D01*
X193770214Y-104342544D01*
X193766114Y-104354002D01*
X193620467Y-104705627D01*
X193615264Y-104716627D01*
X193435856Y-105052275D01*
X193429600Y-105062713D01*
X193218150Y-105379169D01*
X193210902Y-105388942D01*
X192969455Y-105683148D01*
X192961282Y-105692165D01*
X192692165Y-105961282D01*
X192683148Y-105969455D01*
X192388942Y-106210902D01*
X192379169Y-106218150D01*
X192062713Y-106429600D01*
X192052275Y-106435856D01*
X191716627Y-106615264D01*
X191705627Y-106620467D01*
X191354002Y-106766114D01*
X191342544Y-106770214D01*
X190978329Y-106880698D01*
X190966525Y-106883654D01*
X190593255Y-106957902D01*
X190581218Y-106959688D01*
X190201695Y-106997068D01*
X190191062Y-106997656D01*
X190000734Y-106999991D01*
X189999213Y-107000000D01*
X144000787Y-107000000D01*
X143999266Y-106999991D01*
X143808937Y-106997656D01*
X143798304Y-106997068D01*
X143418781Y-106959688D01*
X143406744Y-106957902D01*
X143033474Y-106883654D01*
X143021670Y-106880698D01*
X142657455Y-106770214D01*
X142645997Y-106766114D01*
X142294372Y-106620467D01*
X142283372Y-106615264D01*
X141947724Y-106435856D01*
X141937286Y-106429600D01*
X141620830Y-106218150D01*
X141611057Y-106210902D01*
X141327537Y-105978225D01*
X141316850Y-105969454D01*
X141307834Y-105961282D01*
X141038717Y-105692165D01*
X141030544Y-105683148D01*
X140789097Y-105388942D01*
X140781849Y-105379169D01*
X140580470Y-105077785D01*
X140570396Y-105062708D01*
X140564143Y-105052275D01*
X140384735Y-104716627D01*
X140379532Y-104705627D01*
X140233885Y-104354002D01*
X140229785Y-104342544D01*
X140119301Y-103978329D01*
X140116345Y-103966525D01*
X140042097Y-103593255D01*
X140040311Y-103581218D01*
X140002930Y-103201681D01*
X140002343Y-103191075D01*
X140000009Y-103000732D01*
X140000000Y-102999212D01*
X140000000Y-102899999D01*
X140294922Y-102899999D01*
X140294922Y-102900000D01*
X140315219Y-103287287D01*
X140375886Y-103670323D01*
X140375887Y-103670330D01*
X140476262Y-104044936D01*
X140615244Y-104406994D01*
X140791310Y-104752543D01*
X141002531Y-105077793D01*
X141211095Y-105335350D01*
X141211096Y-105335350D01*
X142705748Y-103840698D01*
X142779588Y-103942330D01*
X142957670Y-104120412D01*
X143059300Y-104194251D01*
X141564648Y-105688903D01*
X141564649Y-105688904D01*
X141822206Y-105897468D01*
X142147456Y-106108689D01*
X142493005Y-106284755D01*
X142855063Y-106423737D01*
X143229669Y-106524112D01*
X143229676Y-106524113D01*
X143612712Y-106584780D01*
X143999999Y-106605078D01*
X144000001Y-106605078D01*
X144387287Y-106584780D01*
X144770323Y-106524113D01*
X144770330Y-106524112D01*
X145144936Y-106423737D01*
X145506994Y-106284755D01*
X145852543Y-106108689D01*
X146177783Y-105897476D01*
X146177785Y-105897475D01*
X146390776Y-105724997D01*
X176244196Y-105724997D01*
X176244196Y-105725002D01*
X176265279Y-105858121D01*
X176265280Y-105858124D01*
X176265281Y-105858126D01*
X176326472Y-105978220D01*
X176326473Y-105978221D01*
X176326476Y-105978225D01*
X176421774Y-106073523D01*
X176421778Y-106073526D01*
X176421780Y-106073528D01*
X176541874Y-106134719D01*
X176541876Y-106134719D01*
X176541878Y-106134720D01*
X176674998Y-106155804D01*
X176675000Y-106155804D01*
X176675002Y-106155804D01*
X176808121Y-106134720D01*
X176808121Y-106134719D01*
X176808126Y-106134719D01*
X176928220Y-106073528D01*
X177023528Y-105978220D01*
X177084719Y-105858126D01*
X177105804Y-105725000D01*
X177100603Y-105692165D01*
X177084720Y-105591878D01*
X177084719Y-105591876D01*
X177084719Y-105591874D01*
X177023528Y-105471780D01*
X177023526Y-105471778D01*
X177023523Y-105471774D01*
X176928225Y-105376476D01*
X176928221Y-105376473D01*
X176928220Y-105376472D01*
X176808126Y-105315281D01*
X176808124Y-105315280D01*
X176808121Y-105315279D01*
X176675002Y-105294196D01*
X176674998Y-105294196D01*
X176541878Y-105315279D01*
X176421778Y-105376473D01*
X176421774Y-105376476D01*
X176326476Y-105471774D01*
X176326473Y-105471778D01*
X176265279Y-105591878D01*
X176244196Y-105724997D01*
X146390776Y-105724997D01*
X146435349Y-105688902D01*
X144940698Y-104194251D01*
X145042330Y-104120412D01*
X145220412Y-103942330D01*
X145294251Y-103840698D01*
X146788902Y-105335349D01*
X146997475Y-105077785D01*
X146997476Y-105077783D01*
X147208689Y-104752543D01*
X147384755Y-104406994D01*
X147523737Y-104044936D01*
X147624112Y-103670330D01*
X147624113Y-103670323D01*
X147684780Y-103287287D01*
X147705078Y-102900000D01*
X147705078Y-102899999D01*
X186294922Y-102899999D01*
X186294922Y-102900000D01*
X186315219Y-103287287D01*
X186375886Y-103670323D01*
X186375887Y-103670330D01*
X186476262Y-104044936D01*
X186615244Y-104406994D01*
X186791310Y-104752543D01*
X187002531Y-105077793D01*
X187211095Y-105335350D01*
X187211096Y-105335350D01*
X188705748Y-103840698D01*
X188779588Y-103942330D01*
X188957670Y-104120412D01*
X189059300Y-104194251D01*
X187564648Y-105688903D01*
X187564649Y-105688904D01*
X187822206Y-105897468D01*
X188147456Y-106108689D01*
X188493005Y-106284755D01*
X188855063Y-106423737D01*
X189229669Y-106524112D01*
X189229676Y-106524113D01*
X189612712Y-106584780D01*
X189999999Y-106605078D01*
X190000001Y-106605078D01*
X190387287Y-106584780D01*
X190770323Y-106524113D01*
X190770330Y-106524112D01*
X191144936Y-106423737D01*
X191506994Y-106284755D01*
X191852543Y-106108689D01*
X192177783Y-105897476D01*
X192177785Y-105897475D01*
X192435349Y-105688902D01*
X190940698Y-104194251D01*
X191042330Y-104120412D01*
X191220412Y-103942330D01*
X191294251Y-103840698D01*
X192788902Y-105335349D01*
X192997475Y-105077785D01*
X192997476Y-105077783D01*
X193208689Y-104752543D01*
X193384755Y-104406994D01*
X193523737Y-104044936D01*
X193624112Y-103670330D01*
X193624113Y-103670323D01*
X193684780Y-103287287D01*
X193705078Y-102900000D01*
X193705078Y-102899999D01*
X193684780Y-102512712D01*
X193624113Y-102129676D01*
X193624112Y-102129669D01*
X193523737Y-101755063D01*
X193384755Y-101393005D01*
X193208689Y-101047456D01*
X192997468Y-100722206D01*
X192788904Y-100464649D01*
X192788903Y-100464648D01*
X191294251Y-101959300D01*
X191220412Y-101857670D01*
X191042330Y-101679588D01*
X190940698Y-101605748D01*
X192435350Y-100111096D01*
X192435350Y-100111095D01*
X192177793Y-99902531D01*
X191852543Y-99691310D01*
X191506994Y-99515244D01*
X191144936Y-99376262D01*
X190770330Y-99275887D01*
X190770323Y-99275886D01*
X190387287Y-99215219D01*
X190000001Y-99194922D01*
X189999999Y-99194922D01*
X189612712Y-99215219D01*
X189229676Y-99275886D01*
X189229669Y-99275887D01*
X188855063Y-99376262D01*
X188493005Y-99515244D01*
X188147456Y-99691310D01*
X187822206Y-99902531D01*
X187564648Y-100111095D01*
X187564648Y-100111096D01*
X189059301Y-101605748D01*
X188957670Y-101679588D01*
X188779588Y-101857670D01*
X188705748Y-101959300D01*
X187211096Y-100464648D01*
X187211095Y-100464648D01*
X187002531Y-100722206D01*
X186791310Y-101047456D01*
X186615244Y-101393005D01*
X186476262Y-101755063D01*
X186375887Y-102129669D01*
X186375886Y-102129676D01*
X186315219Y-102512712D01*
X186294922Y-102899999D01*
X147705078Y-102899999D01*
X147684780Y-102512712D01*
X147624113Y-102129676D01*
X147624112Y-102129669D01*
X147523737Y-101755063D01*
X147384755Y-101393005D01*
X147208689Y-101047456D01*
X146997468Y-100722206D01*
X146788904Y-100464649D01*
X146788903Y-100464648D01*
X145294251Y-101959300D01*
X145220412Y-101857670D01*
X145042330Y-101679588D01*
X144940698Y-101605748D01*
X146435350Y-100111096D01*
X146435350Y-100111095D01*
X146177793Y-99902531D01*
X145852543Y-99691310D01*
X145506994Y-99515244D01*
X145144936Y-99376262D01*
X144770330Y-99275887D01*
X144770323Y-99275886D01*
X144387287Y-99215219D01*
X144000001Y-99194922D01*
X143999999Y-99194922D01*
X143612712Y-99215219D01*
X143229676Y-99275886D01*
X143229669Y-99275887D01*
X142855063Y-99376262D01*
X142493005Y-99515244D01*
X142147456Y-99691310D01*
X141822206Y-99902531D01*
X141564648Y-100111095D01*
X141564648Y-100111096D01*
X143059301Y-101605748D01*
X142957670Y-101679588D01*
X142779588Y-101857670D01*
X142705748Y-101959300D01*
X141211096Y-100464648D01*
X141211095Y-100464648D01*
X141002531Y-100722206D01*
X140791310Y-101047456D01*
X140615244Y-101393005D01*
X140476262Y-101755063D01*
X140375887Y-102129669D01*
X140375886Y-102129676D01*
X140315219Y-102512712D01*
X140294922Y-102899999D01*
X140000000Y-102899999D01*
X140000000Y-97374997D01*
X170619196Y-97374997D01*
X170619196Y-97375002D01*
X170640279Y-97508121D01*
X170640280Y-97508124D01*
X170640281Y-97508126D01*
X170701472Y-97628220D01*
X170701473Y-97628221D01*
X170701476Y-97628225D01*
X170796774Y-97723523D01*
X170796778Y-97723526D01*
X170796780Y-97723528D01*
X170916874Y-97784719D01*
X170916876Y-97784719D01*
X170916878Y-97784720D01*
X171049998Y-97805804D01*
X171050000Y-97805804D01*
X171050002Y-97805804D01*
X171183121Y-97784720D01*
X171183121Y-97784719D01*
X171183126Y-97784719D01*
X171303220Y-97723528D01*
X171398528Y-97628220D01*
X171459719Y-97508126D01*
X171480804Y-97375000D01*
X171459719Y-97241874D01*
X171398528Y-97121780D01*
X171398526Y-97121778D01*
X171398523Y-97121774D01*
X171303225Y-97026476D01*
X171303221Y-97026473D01*
X171303220Y-97026472D01*
X171183126Y-96965281D01*
X171183124Y-96965280D01*
X171183121Y-96965279D01*
X171050002Y-96944196D01*
X171049998Y-96944196D01*
X170916878Y-96965279D01*
X170796778Y-97026473D01*
X170796774Y-97026476D01*
X170701476Y-97121774D01*
X170701473Y-97121778D01*
X170640279Y-97241878D01*
X170619196Y-97374997D01*
X140000000Y-97374997D01*
X140000000Y-96699997D01*
X147869196Y-96699997D01*
X147869196Y-96700002D01*
X147890279Y-96833121D01*
X147890280Y-96833124D01*
X147890281Y-96833126D01*
X147951472Y-96953220D01*
X147951473Y-96953221D01*
X147951476Y-96953225D01*
X148046774Y-97048523D01*
X148046778Y-97048526D01*
X148046780Y-97048528D01*
X148166874Y-97109719D01*
X148166876Y-97109719D01*
X148166878Y-97109720D01*
X148299998Y-97130804D01*
X148300000Y-97130804D01*
X148300002Y-97130804D01*
X148433121Y-97109720D01*
X148433121Y-97109719D01*
X148433126Y-97109719D01*
X148553220Y-97048528D01*
X148648528Y-96953220D01*
X148709719Y-96833126D01*
X148709720Y-96833121D01*
X148730804Y-96700002D01*
X148730804Y-96699997D01*
X148709720Y-96566878D01*
X148709719Y-96566876D01*
X148709719Y-96566874D01*
X148648528Y-96446780D01*
X148648526Y-96446778D01*
X148648523Y-96446774D01*
X148571746Y-96369997D01*
X177294196Y-96369997D01*
X177294196Y-96370002D01*
X177315279Y-96503121D01*
X177315280Y-96503124D01*
X177315281Y-96503126D01*
X177376472Y-96623220D01*
X177376473Y-96623221D01*
X177376476Y-96623225D01*
X177471774Y-96718523D01*
X177471778Y-96718526D01*
X177471780Y-96718528D01*
X177591874Y-96779719D01*
X177591876Y-96779719D01*
X177591878Y-96779720D01*
X177724998Y-96800804D01*
X177725000Y-96800804D01*
X177725002Y-96800804D01*
X177858121Y-96779720D01*
X177858121Y-96779719D01*
X177858126Y-96779719D01*
X177978220Y-96718528D01*
X178073528Y-96623220D01*
X178134719Y-96503126D01*
X178134720Y-96503121D01*
X178155804Y-96370002D01*
X178155804Y-96369997D01*
X178134720Y-96236878D01*
X178134719Y-96236876D01*
X178134719Y-96236874D01*
X178073528Y-96116780D01*
X178073526Y-96116778D01*
X178073523Y-96116774D01*
X178006746Y-96049997D01*
X180769196Y-96049997D01*
X180769196Y-96050002D01*
X180790279Y-96183121D01*
X180790280Y-96183124D01*
X180790281Y-96183126D01*
X180851472Y-96303220D01*
X180851473Y-96303221D01*
X180851476Y-96303225D01*
X180946774Y-96398523D01*
X180946778Y-96398526D01*
X180946780Y-96398528D01*
X181066874Y-96459719D01*
X181066876Y-96459719D01*
X181066878Y-96459720D01*
X181199998Y-96480804D01*
X181200000Y-96480804D01*
X181200002Y-96480804D01*
X181333121Y-96459720D01*
X181333121Y-96459719D01*
X181333126Y-96459719D01*
X181453220Y-96398528D01*
X181548528Y-96303220D01*
X181609719Y-96183126D01*
X181620227Y-96116780D01*
X181630804Y-96050002D01*
X181630804Y-96049997D01*
X181609720Y-95916878D01*
X181609719Y-95916876D01*
X181609719Y-95916874D01*
X181548528Y-95796780D01*
X181548526Y-95796778D01*
X181548523Y-95796774D01*
X181453225Y-95701476D01*
X181453221Y-95701473D01*
X181453220Y-95701472D01*
X181333126Y-95640281D01*
X181333124Y-95640280D01*
X181333121Y-95640279D01*
X181200002Y-95619196D01*
X181199998Y-95619196D01*
X181066878Y-95640279D01*
X180946778Y-95701473D01*
X180946774Y-95701476D01*
X180851476Y-95796774D01*
X180851473Y-95796778D01*
X180790279Y-95916878D01*
X180769196Y-96049997D01*
X178006746Y-96049997D01*
X177978225Y-96021476D01*
X177978221Y-96021473D01*
X177978220Y-96021472D01*
X177858126Y-95960281D01*
X177858124Y-95960280D01*
X177858121Y-95960279D01*
X177725002Y-95939196D01*
X177724998Y-95939196D01*
X177591878Y-95960279D01*
X177471778Y-96021473D01*
X177471774Y-96021476D01*
X177376476Y-96116774D01*
X177376473Y-96116778D01*
X177315279Y-96236878D01*
X177294196Y-96369997D01*
X148571746Y-96369997D01*
X148553225Y-96351476D01*
X148553221Y-96351473D01*
X148553220Y-96351472D01*
X148433126Y-96290281D01*
X148433124Y-96290280D01*
X148433121Y-96290279D01*
X148300002Y-96269196D01*
X148299998Y-96269196D01*
X148166878Y-96290279D01*
X148046778Y-96351473D01*
X148046774Y-96351476D01*
X147951476Y-96446774D01*
X147951473Y-96446778D01*
X147890279Y-96566878D01*
X147869196Y-96699997D01*
X140000000Y-96699997D01*
X140000000Y-95296530D01*
X141274500Y-95296530D01*
X141274500Y-95503469D01*
X141314868Y-95706412D01*
X141314870Y-95706420D01*
X141352298Y-95796780D01*
X141394059Y-95897598D01*
X141421854Y-95939196D01*
X141509024Y-96069657D01*
X141655342Y-96215975D01*
X141655345Y-96215977D01*
X141827402Y-96330941D01*
X142018580Y-96410130D01*
X142202803Y-96446774D01*
X142221530Y-96450499D01*
X142221534Y-96450500D01*
X142221535Y-96450500D01*
X142678466Y-96450500D01*
X142678467Y-96450499D01*
X142881420Y-96410130D01*
X143072598Y-96330941D01*
X143244655Y-96215977D01*
X143390977Y-96069655D01*
X143505941Y-95897598D01*
X143585130Y-95706420D01*
X143625500Y-95503465D01*
X143625500Y-95296535D01*
X143585130Y-95093580D01*
X143505941Y-94902402D01*
X143390977Y-94730345D01*
X143390975Y-94730342D01*
X143244657Y-94584024D01*
X143079283Y-94473526D01*
X143072598Y-94469059D01*
X142881420Y-94389870D01*
X142881412Y-94389868D01*
X142678469Y-94349500D01*
X142678465Y-94349500D01*
X142221535Y-94349500D01*
X142221530Y-94349500D01*
X142018587Y-94389868D01*
X142018579Y-94389870D01*
X141827403Y-94469058D01*
X141655342Y-94584024D01*
X141509024Y-94730342D01*
X141394058Y-94902403D01*
X141314870Y-95093579D01*
X141314868Y-95093587D01*
X141274500Y-95296530D01*
X140000000Y-95296530D01*
X140000000Y-94274997D01*
X151394196Y-94274997D01*
X151394196Y-94275002D01*
X151415279Y-94408121D01*
X151415280Y-94408124D01*
X151415281Y-94408126D01*
X151466234Y-94508126D01*
X151476473Y-94528221D01*
X151476476Y-94528225D01*
X151571774Y-94623523D01*
X151571778Y-94623526D01*
X151571780Y-94623528D01*
X151691874Y-94684719D01*
X151691876Y-94684719D01*
X151691878Y-94684720D01*
X151824998Y-94705804D01*
X151825000Y-94705804D01*
X151825002Y-94705804D01*
X151958121Y-94684720D01*
X151958121Y-94684719D01*
X151958126Y-94684719D01*
X152078220Y-94623528D01*
X152173528Y-94528220D01*
X152234719Y-94408126D01*
X152234720Y-94408121D01*
X152239966Y-94374997D01*
X152894196Y-94374997D01*
X152894196Y-94375002D01*
X152915279Y-94508121D01*
X152915280Y-94508124D01*
X152915281Y-94508126D01*
X152976472Y-94628220D01*
X152976473Y-94628221D01*
X152976476Y-94628225D01*
X153071774Y-94723523D01*
X153071778Y-94723526D01*
X153071780Y-94723528D01*
X153191874Y-94784719D01*
X153191876Y-94784719D01*
X153191878Y-94784720D01*
X153324998Y-94805804D01*
X153325000Y-94805804D01*
X153325002Y-94805804D01*
X153458121Y-94784720D01*
X153458121Y-94784719D01*
X153458126Y-94784719D01*
X153578220Y-94723528D01*
X153673528Y-94628220D01*
X153734719Y-94508126D01*
X153746599Y-94433121D01*
X153755804Y-94375002D01*
X153755804Y-94374997D01*
X153743925Y-94299997D01*
X154419196Y-94299997D01*
X154419196Y-94300002D01*
X154440279Y-94433121D01*
X154440280Y-94433124D01*
X154440281Y-94433126D01*
X154492046Y-94534720D01*
X154501473Y-94553221D01*
X154501476Y-94553225D01*
X154596774Y-94648523D01*
X154596778Y-94648526D01*
X154596780Y-94648528D01*
X154716874Y-94709719D01*
X154716876Y-94709719D01*
X154716878Y-94709720D01*
X154849998Y-94730804D01*
X154850000Y-94730804D01*
X154850002Y-94730804D01*
X154983121Y-94709720D01*
X154983121Y-94709719D01*
X154983126Y-94709719D01*
X155103220Y-94648528D01*
X155198528Y-94553220D01*
X155259719Y-94433126D01*
X155263679Y-94408126D01*
X155280804Y-94300002D01*
X155280804Y-94299997D01*
X155276844Y-94274997D01*
X156019196Y-94274997D01*
X156019196Y-94275002D01*
X156040279Y-94408121D01*
X156040280Y-94408124D01*
X156040281Y-94408126D01*
X156091234Y-94508126D01*
X156101473Y-94528221D01*
X156101476Y-94528225D01*
X156196774Y-94623523D01*
X156196778Y-94623526D01*
X156196780Y-94623528D01*
X156316874Y-94684719D01*
X156316876Y-94684719D01*
X156316878Y-94684720D01*
X156449998Y-94705804D01*
X156450000Y-94705804D01*
X156450002Y-94705804D01*
X156583121Y-94684720D01*
X156583121Y-94684719D01*
X156583126Y-94684719D01*
X156703220Y-94623528D01*
X156798528Y-94528220D01*
X156859719Y-94408126D01*
X156859720Y-94408121D01*
X156880804Y-94275002D01*
X156880804Y-94274997D01*
X156859720Y-94141878D01*
X156859719Y-94141876D01*
X156859719Y-94141874D01*
X156851120Y-94124997D01*
X159494196Y-94124997D01*
X159494196Y-94125002D01*
X159515279Y-94258121D01*
X159515280Y-94258124D01*
X159515281Y-94258126D01*
X159576472Y-94378220D01*
X159576473Y-94378221D01*
X159576476Y-94378225D01*
X159671774Y-94473523D01*
X159671778Y-94473526D01*
X159671780Y-94473528D01*
X159791874Y-94534719D01*
X159791876Y-94534719D01*
X159791878Y-94534720D01*
X159924998Y-94555804D01*
X159925000Y-94555804D01*
X159925002Y-94555804D01*
X160058121Y-94534720D01*
X160058121Y-94534719D01*
X160058126Y-94534719D01*
X160178220Y-94473528D01*
X160273528Y-94378220D01*
X160334719Y-94258126D01*
X160334720Y-94258121D01*
X160355804Y-94125002D01*
X160355804Y-94124997D01*
X160334720Y-93991878D01*
X160334719Y-93991876D01*
X160334719Y-93991874D01*
X160273528Y-93871780D01*
X160273526Y-93871778D01*
X160273523Y-93871774D01*
X160178225Y-93776476D01*
X160178221Y-93776473D01*
X160178220Y-93776472D01*
X160058126Y-93715281D01*
X160058124Y-93715280D01*
X160058121Y-93715279D01*
X159925002Y-93694196D01*
X159924998Y-93694196D01*
X159791878Y-93715279D01*
X159671778Y-93776473D01*
X159671774Y-93776476D01*
X159576476Y-93871774D01*
X159576473Y-93871778D01*
X159515279Y-93991878D01*
X159494196Y-94124997D01*
X156851120Y-94124997D01*
X156798528Y-94021780D01*
X156798526Y-94021778D01*
X156798523Y-94021774D01*
X156703225Y-93926476D01*
X156703221Y-93926473D01*
X156703220Y-93926472D01*
X156583126Y-93865281D01*
X156583124Y-93865280D01*
X156583121Y-93865279D01*
X156450002Y-93844196D01*
X156449998Y-93844196D01*
X156316878Y-93865279D01*
X156196778Y-93926473D01*
X156196774Y-93926476D01*
X156101476Y-94021774D01*
X156101473Y-94021778D01*
X156040279Y-94141878D01*
X156019196Y-94274997D01*
X155276844Y-94274997D01*
X155259720Y-94166878D01*
X155259719Y-94166876D01*
X155259719Y-94166874D01*
X155198528Y-94046780D01*
X155198526Y-94046778D01*
X155198523Y-94046774D01*
X155103225Y-93951476D01*
X155103221Y-93951473D01*
X155103220Y-93951472D01*
X154983126Y-93890281D01*
X154983124Y-93890280D01*
X154983121Y-93890279D01*
X154850002Y-93869196D01*
X154849998Y-93869196D01*
X154716878Y-93890279D01*
X154596778Y-93951473D01*
X154596774Y-93951476D01*
X154501476Y-94046774D01*
X154501473Y-94046778D01*
X154440279Y-94166878D01*
X154419196Y-94299997D01*
X153743925Y-94299997D01*
X153734720Y-94241878D01*
X153734719Y-94241876D01*
X153734719Y-94241874D01*
X153673528Y-94121780D01*
X153673526Y-94121778D01*
X153673523Y-94121774D01*
X153578225Y-94026476D01*
X153578221Y-94026473D01*
X153578220Y-94026472D01*
X153458126Y-93965281D01*
X153458124Y-93965280D01*
X153458121Y-93965279D01*
X153325002Y-93944196D01*
X153324998Y-93944196D01*
X153191878Y-93965279D01*
X153191874Y-93965280D01*
X153191874Y-93965281D01*
X153111811Y-94006075D01*
X153071778Y-94026473D01*
X153071774Y-94026476D01*
X152976476Y-94121774D01*
X152976473Y-94121778D01*
X152915279Y-94241878D01*
X152894196Y-94374997D01*
X152239966Y-94374997D01*
X152255804Y-94275002D01*
X152255804Y-94274997D01*
X152234720Y-94141878D01*
X152234719Y-94141876D01*
X152234719Y-94141874D01*
X152173528Y-94021780D01*
X152173526Y-94021778D01*
X152173523Y-94021774D01*
X152078225Y-93926476D01*
X152078221Y-93926473D01*
X152078220Y-93926472D01*
X151958126Y-93865281D01*
X151958124Y-93865280D01*
X151958121Y-93865279D01*
X151825002Y-93844196D01*
X151824998Y-93844196D01*
X151691878Y-93865279D01*
X151571778Y-93926473D01*
X151571774Y-93926476D01*
X151476476Y-94021774D01*
X151476473Y-94021778D01*
X151415279Y-94141878D01*
X151394196Y-94274997D01*
X140000000Y-94274997D01*
X140000000Y-92796530D01*
X141274500Y-92796530D01*
X141274500Y-93003469D01*
X141314868Y-93206412D01*
X141314870Y-93206420D01*
X141394058Y-93397596D01*
X141509024Y-93569657D01*
X141655342Y-93715975D01*
X141655345Y-93715977D01*
X141827402Y-93830941D01*
X142018580Y-93910130D01*
X142211596Y-93948523D01*
X142221530Y-93950499D01*
X142221534Y-93950500D01*
X142221535Y-93950500D01*
X142678466Y-93950500D01*
X142678467Y-93950499D01*
X142881420Y-93910130D01*
X143072598Y-93830941D01*
X143244655Y-93715977D01*
X143360635Y-93599997D01*
X171869196Y-93599997D01*
X171869196Y-93600002D01*
X171890279Y-93733121D01*
X171890280Y-93733124D01*
X171890281Y-93733126D01*
X171951472Y-93853220D01*
X171951473Y-93853221D01*
X171951476Y-93853225D01*
X172046774Y-93948523D01*
X172046778Y-93948526D01*
X172046780Y-93948528D01*
X172166874Y-94009719D01*
X172166876Y-94009719D01*
X172166878Y-94009720D01*
X172299998Y-94030804D01*
X172300000Y-94030804D01*
X172300002Y-94030804D01*
X172433121Y-94009720D01*
X172433121Y-94009719D01*
X172433126Y-94009719D01*
X172550337Y-93949997D01*
X184519196Y-93949997D01*
X184519196Y-93950002D01*
X184540279Y-94083121D01*
X184540280Y-94083124D01*
X184540281Y-94083126D01*
X184561617Y-94125000D01*
X184601473Y-94203221D01*
X184601476Y-94203225D01*
X184696774Y-94298523D01*
X184696778Y-94298526D01*
X184696780Y-94298528D01*
X184816874Y-94359719D01*
X184816876Y-94359719D01*
X184816878Y-94359720D01*
X184949998Y-94380804D01*
X184950000Y-94380804D01*
X184950002Y-94380804D01*
X185083121Y-94359720D01*
X185083121Y-94359719D01*
X185083126Y-94359719D01*
X185203220Y-94298528D01*
X185298528Y-94203220D01*
X185359719Y-94083126D01*
X185368006Y-94030804D01*
X185380804Y-93950002D01*
X185380804Y-93949997D01*
X185359720Y-93816878D01*
X185359719Y-93816876D01*
X185359719Y-93816874D01*
X185298528Y-93696780D01*
X185298526Y-93696778D01*
X185298523Y-93696774D01*
X185203225Y-93601476D01*
X185203221Y-93601473D01*
X185203220Y-93601472D01*
X185083126Y-93540281D01*
X185083124Y-93540280D01*
X185083121Y-93540279D01*
X184950002Y-93519196D01*
X184949998Y-93519196D01*
X184816878Y-93540279D01*
X184696778Y-93601473D01*
X184696774Y-93601476D01*
X184601476Y-93696774D01*
X184601473Y-93696778D01*
X184540279Y-93816878D01*
X184519196Y-93949997D01*
X172550337Y-93949997D01*
X172553220Y-93948528D01*
X172648528Y-93853220D01*
X172709719Y-93733126D01*
X172712435Y-93715977D01*
X172730804Y-93600002D01*
X172730804Y-93599997D01*
X172709720Y-93466878D01*
X172709719Y-93466876D01*
X172709719Y-93466874D01*
X172648528Y-93346780D01*
X172648526Y-93346778D01*
X172648523Y-93346774D01*
X172553225Y-93251476D01*
X172553221Y-93251473D01*
X172553220Y-93251472D01*
X172433126Y-93190281D01*
X172433124Y-93190280D01*
X172433121Y-93190279D01*
X172300002Y-93169196D01*
X172299998Y-93169196D01*
X172166878Y-93190279D01*
X172166874Y-93190280D01*
X172166874Y-93190281D01*
X172092415Y-93228220D01*
X172046778Y-93251473D01*
X172046774Y-93251476D01*
X171951476Y-93346774D01*
X171951473Y-93346778D01*
X171890279Y-93466878D01*
X171869196Y-93599997D01*
X143360635Y-93599997D01*
X143390977Y-93569655D01*
X143505941Y-93397598D01*
X143585130Y-93206420D01*
X143625500Y-93003465D01*
X143625500Y-92974997D01*
X173869196Y-92974997D01*
X173869196Y-92975002D01*
X173890279Y-93108121D01*
X173890280Y-93108124D01*
X173890281Y-93108126D01*
X173951472Y-93228220D01*
X173951473Y-93228221D01*
X173951476Y-93228225D01*
X174046774Y-93323523D01*
X174046778Y-93323526D01*
X174046780Y-93323528D01*
X174166874Y-93384719D01*
X174166876Y-93384719D01*
X174166878Y-93384720D01*
X174299998Y-93405804D01*
X174300000Y-93405804D01*
X174300002Y-93405804D01*
X174433121Y-93384720D01*
X174433121Y-93384719D01*
X174433126Y-93384719D01*
X174550337Y-93324997D01*
X179744196Y-93324997D01*
X179744196Y-93325002D01*
X179765279Y-93458121D01*
X179765280Y-93458124D01*
X179765281Y-93458126D01*
X179822108Y-93569655D01*
X179826473Y-93578221D01*
X179826476Y-93578225D01*
X179921774Y-93673523D01*
X179921778Y-93673526D01*
X179921780Y-93673528D01*
X180041874Y-93734719D01*
X180041876Y-93734719D01*
X180041878Y-93734720D01*
X180174998Y-93755804D01*
X180175000Y-93755804D01*
X180175002Y-93755804D01*
X180308121Y-93734720D01*
X180308121Y-93734719D01*
X180308126Y-93734719D01*
X180428220Y-93673528D01*
X180523528Y-93578220D01*
X180584719Y-93458126D01*
X180594306Y-93397596D01*
X180605804Y-93325002D01*
X180605804Y-93324997D01*
X180584720Y-93191878D01*
X180584719Y-93191876D01*
X180584719Y-93191874D01*
X180523528Y-93071780D01*
X180523526Y-93071778D01*
X180523523Y-93071774D01*
X180428225Y-92976476D01*
X180428221Y-92976473D01*
X180428220Y-92976472D01*
X180308126Y-92915281D01*
X180308124Y-92915280D01*
X180308121Y-92915279D01*
X180175002Y-92894196D01*
X180174998Y-92894196D01*
X180041878Y-92915279D01*
X179921778Y-92976473D01*
X179921774Y-92976476D01*
X179826476Y-93071774D01*
X179826473Y-93071778D01*
X179765279Y-93191878D01*
X179744196Y-93324997D01*
X174550337Y-93324997D01*
X174553220Y-93323528D01*
X174648528Y-93228220D01*
X174709719Y-93108126D01*
X174715477Y-93071774D01*
X174730804Y-92975002D01*
X174730804Y-92974997D01*
X174709720Y-92841878D01*
X174709719Y-92841876D01*
X174709719Y-92841874D01*
X174648528Y-92721780D01*
X174648526Y-92721778D01*
X174648523Y-92721774D01*
X174553225Y-92626476D01*
X174553221Y-92626473D01*
X174553220Y-92626472D01*
X174433126Y-92565281D01*
X174433124Y-92565280D01*
X174433121Y-92565279D01*
X174300002Y-92544196D01*
X174299998Y-92544196D01*
X174166878Y-92565279D01*
X174046778Y-92626473D01*
X174046774Y-92626476D01*
X173951476Y-92721774D01*
X173951473Y-92721778D01*
X173890279Y-92841878D01*
X173869196Y-92974997D01*
X143625500Y-92974997D01*
X143625500Y-92796535D01*
X143585130Y-92593580D01*
X143505941Y-92402402D01*
X143470925Y-92349997D01*
X167219196Y-92349997D01*
X167219196Y-92350002D01*
X167240279Y-92483121D01*
X167240280Y-92483124D01*
X167240281Y-92483126D01*
X167296564Y-92593587D01*
X167301473Y-92603221D01*
X167301476Y-92603225D01*
X167396774Y-92698523D01*
X167396778Y-92698526D01*
X167396780Y-92698528D01*
X167516874Y-92759719D01*
X167516876Y-92759719D01*
X167516878Y-92759720D01*
X167649998Y-92780804D01*
X167650000Y-92780804D01*
X167650002Y-92780804D01*
X167783121Y-92759720D01*
X167783121Y-92759719D01*
X167783126Y-92759719D01*
X167903220Y-92698528D01*
X167998528Y-92603220D01*
X168059719Y-92483126D01*
X168059720Y-92483121D01*
X168080804Y-92350002D01*
X168080804Y-92349997D01*
X168059720Y-92216878D01*
X168059719Y-92216876D01*
X168059719Y-92216874D01*
X168051120Y-92199997D01*
X171669196Y-92199997D01*
X171669196Y-92200002D01*
X171690279Y-92333121D01*
X171690280Y-92333124D01*
X171690281Y-92333126D01*
X171751472Y-92453220D01*
X171751473Y-92453221D01*
X171751476Y-92453225D01*
X171846774Y-92548523D01*
X171846778Y-92548526D01*
X171846780Y-92548528D01*
X171966874Y-92609719D01*
X171966876Y-92609719D01*
X171966878Y-92609720D01*
X172099998Y-92630804D01*
X172100000Y-92630804D01*
X172100002Y-92630804D01*
X172233121Y-92609720D01*
X172233121Y-92609719D01*
X172233126Y-92609719D01*
X172353220Y-92548528D01*
X172448528Y-92453220D01*
X172509719Y-92333126D01*
X172511239Y-92323528D01*
X172530804Y-92200002D01*
X172530804Y-92199997D01*
X172509720Y-92066878D01*
X172509719Y-92066876D01*
X172509719Y-92066874D01*
X172475173Y-91999074D01*
X172470652Y-91974997D01*
X182219196Y-91974997D01*
X182219196Y-91975002D01*
X182240279Y-92108121D01*
X182240280Y-92108124D01*
X182240281Y-92108126D01*
X182295691Y-92216874D01*
X182301473Y-92228221D01*
X182301476Y-92228225D01*
X182396774Y-92323523D01*
X182396778Y-92323526D01*
X182396780Y-92323528D01*
X182516874Y-92384719D01*
X182516876Y-92384719D01*
X182516878Y-92384720D01*
X182649998Y-92405804D01*
X182650000Y-92405804D01*
X182650002Y-92405804D01*
X182783121Y-92384720D01*
X182783121Y-92384719D01*
X182783126Y-92384719D01*
X182903220Y-92323528D01*
X182998528Y-92228220D01*
X183059719Y-92108126D01*
X183061516Y-92096780D01*
X183080804Y-91975002D01*
X183080804Y-91974997D01*
X183059720Y-91841878D01*
X183059719Y-91841876D01*
X183059719Y-91841874D01*
X182998528Y-91721780D01*
X182998526Y-91721778D01*
X182998523Y-91721774D01*
X182903225Y-91626476D01*
X182903221Y-91626473D01*
X182903220Y-91626472D01*
X182783126Y-91565281D01*
X182783124Y-91565280D01*
X182783121Y-91565279D01*
X182650002Y-91544196D01*
X182649998Y-91544196D01*
X182516878Y-91565279D01*
X182396778Y-91626473D01*
X182396774Y-91626476D01*
X182301476Y-91721774D01*
X182301473Y-91721778D01*
X182240279Y-91841878D01*
X182219196Y-91974997D01*
X172470652Y-91974997D01*
X172462278Y-91930407D01*
X172488554Y-91865667D01*
X172545661Y-91825410D01*
X172566251Y-91820310D01*
X172633126Y-91809719D01*
X172753220Y-91748528D01*
X172848528Y-91653220D01*
X172909719Y-91533126D01*
X172909720Y-91533121D01*
X172930804Y-91400002D01*
X172930804Y-91399997D01*
X172909720Y-91266878D01*
X172909719Y-91266876D01*
X172909719Y-91266874D01*
X172875643Y-91199997D01*
X180269196Y-91199997D01*
X180269196Y-91200000D01*
X180290279Y-91333121D01*
X180290280Y-91333124D01*
X180290281Y-91333126D01*
X180351472Y-91453220D01*
X180351473Y-91453221D01*
X180351476Y-91453225D01*
X180446774Y-91548523D01*
X180446778Y-91548526D01*
X180446780Y-91548528D01*
X180566874Y-91609719D01*
X180566876Y-91609719D01*
X180566878Y-91609720D01*
X180699998Y-91630804D01*
X180700000Y-91630804D01*
X180700002Y-91630804D01*
X180833121Y-91609720D01*
X180833121Y-91609719D01*
X180833126Y-91609719D01*
X180953220Y-91548528D01*
X181048528Y-91453220D01*
X181109719Y-91333126D01*
X181130804Y-91200000D01*
X181124206Y-91158343D01*
X181109720Y-91066878D01*
X181109719Y-91066876D01*
X181109719Y-91066874D01*
X181048528Y-90946780D01*
X181048526Y-90946778D01*
X181048523Y-90946774D01*
X180953225Y-90851476D01*
X180953221Y-90851473D01*
X180953220Y-90851472D01*
X180833126Y-90790281D01*
X180833124Y-90790280D01*
X180833121Y-90790279D01*
X180700002Y-90769196D01*
X180699998Y-90769196D01*
X180566878Y-90790279D01*
X180446778Y-90851473D01*
X180446774Y-90851476D01*
X180351476Y-90946774D01*
X180351473Y-90946778D01*
X180290279Y-91066878D01*
X180269196Y-91199997D01*
X172875643Y-91199997D01*
X172848528Y-91146780D01*
X172848526Y-91146778D01*
X172848523Y-91146774D01*
X172753225Y-91051476D01*
X172753221Y-91051473D01*
X172753220Y-91051472D01*
X172633126Y-90990281D01*
X172633124Y-90990280D01*
X172633121Y-90990279D01*
X172500002Y-90969196D01*
X172499998Y-90969196D01*
X172366878Y-90990279D01*
X172366874Y-90990280D01*
X172366874Y-90990281D01*
X172333335Y-91007370D01*
X172246778Y-91051473D01*
X172246774Y-91051476D01*
X172151476Y-91146774D01*
X172151473Y-91146778D01*
X172090279Y-91266878D01*
X172069196Y-91399997D01*
X172069196Y-91400002D01*
X172090279Y-91533123D01*
X172124825Y-91600923D01*
X172137721Y-91669592D01*
X172111444Y-91734332D01*
X172054337Y-91774589D01*
X172033738Y-91779690D01*
X171966878Y-91790279D01*
X171846778Y-91851473D01*
X171846774Y-91851476D01*
X171751476Y-91946774D01*
X171751473Y-91946778D01*
X171690279Y-92066878D01*
X171669196Y-92199997D01*
X168051120Y-92199997D01*
X167998528Y-92096780D01*
X167998526Y-92096778D01*
X167998523Y-92096774D01*
X167903225Y-92001476D01*
X167903221Y-92001473D01*
X167903220Y-92001472D01*
X167783126Y-91940281D01*
X167783124Y-91940280D01*
X167783121Y-91940279D01*
X167650002Y-91919196D01*
X167649998Y-91919196D01*
X167516878Y-91940279D01*
X167396778Y-92001473D01*
X167396774Y-92001476D01*
X167301476Y-92096774D01*
X167301473Y-92096778D01*
X167240279Y-92216878D01*
X167219196Y-92349997D01*
X143470925Y-92349997D01*
X143390977Y-92230345D01*
X143390975Y-92230342D01*
X143244657Y-92084024D01*
X143081489Y-91975000D01*
X143072598Y-91969059D01*
X143070565Y-91968217D01*
X142881420Y-91889870D01*
X142881412Y-91889868D01*
X142678469Y-91849500D01*
X142678465Y-91849500D01*
X142221535Y-91849500D01*
X142221530Y-91849500D01*
X142018587Y-91889868D01*
X142018579Y-91889870D01*
X141827403Y-91969058D01*
X141655342Y-92084024D01*
X141509024Y-92230342D01*
X141394058Y-92402403D01*
X141314870Y-92593579D01*
X141314868Y-92593587D01*
X141274500Y-92796530D01*
X140000000Y-92796530D01*
X140000000Y-87650000D01*
X140997769Y-87650000D01*
X142045854Y-87650000D01*
X142007370Y-87716657D01*
X141975000Y-87837465D01*
X141975000Y-87962535D01*
X142007370Y-88083343D01*
X142045854Y-88150000D01*
X140997769Y-88150000D01*
X141008242Y-88216126D01*
X141008242Y-88216129D01*
X141073904Y-88418217D01*
X141170379Y-88607557D01*
X141295272Y-88779459D01*
X141295276Y-88779464D01*
X141445535Y-88929723D01*
X141445540Y-88929727D01*
X141617442Y-89054620D01*
X141806782Y-89151095D01*
X141928855Y-89190759D01*
X141986530Y-89230196D01*
X142013729Y-89294555D01*
X142001815Y-89363401D01*
X141954570Y-89414877D01*
X141937990Y-89423251D01*
X141827404Y-89469057D01*
X141655342Y-89584024D01*
X141509024Y-89730342D01*
X141394058Y-89902403D01*
X141314870Y-90093579D01*
X141314868Y-90093587D01*
X141274500Y-90296530D01*
X141274500Y-90503469D01*
X141314868Y-90706412D01*
X141314870Y-90706420D01*
X141394058Y-90897596D01*
X141509024Y-91069657D01*
X141655342Y-91215975D01*
X141655345Y-91215977D01*
X141827402Y-91330941D01*
X142018580Y-91410130D01*
X142221530Y-91450499D01*
X142221534Y-91450500D01*
X142221535Y-91450500D01*
X142678466Y-91450500D01*
X142678467Y-91450499D01*
X142881420Y-91410130D01*
X143072598Y-91330941D01*
X143244655Y-91215977D01*
X143390977Y-91069655D01*
X143437521Y-90999997D01*
X153269196Y-90999997D01*
X153269196Y-91000002D01*
X153290279Y-91133121D01*
X153290280Y-91133124D01*
X153290281Y-91133126D01*
X153332495Y-91215975D01*
X153351473Y-91253221D01*
X153351476Y-91253225D01*
X153446774Y-91348523D01*
X153446778Y-91348526D01*
X153446780Y-91348528D01*
X153566874Y-91409719D01*
X153566876Y-91409719D01*
X153566878Y-91409720D01*
X153699998Y-91430804D01*
X153700000Y-91430804D01*
X153700002Y-91430804D01*
X153833121Y-91409720D01*
X153833121Y-91409719D01*
X153833126Y-91409719D01*
X153953220Y-91348528D01*
X154048528Y-91253220D01*
X154109719Y-91133126D01*
X154119732Y-91069905D01*
X154130804Y-91000002D01*
X154130804Y-90999997D01*
X154109720Y-90866878D01*
X154109719Y-90866876D01*
X154109719Y-90866874D01*
X154048528Y-90746780D01*
X154048526Y-90746778D01*
X154048523Y-90746774D01*
X153953225Y-90651476D01*
X153953221Y-90651473D01*
X153953220Y-90651472D01*
X153833126Y-90590281D01*
X153833124Y-90590280D01*
X153833121Y-90590279D01*
X153700002Y-90569196D01*
X153699998Y-90569196D01*
X153566878Y-90590279D01*
X153446778Y-90651473D01*
X153446774Y-90651476D01*
X153351476Y-90746774D01*
X153351473Y-90746778D01*
X153290279Y-90866878D01*
X153269196Y-90999997D01*
X143437521Y-90999997D01*
X143505941Y-90897598D01*
X143585130Y-90706420D01*
X143625500Y-90503465D01*
X143625500Y-90399997D01*
X183019196Y-90399997D01*
X183019196Y-90400002D01*
X183040279Y-90533121D01*
X183040280Y-90533124D01*
X183040281Y-90533126D01*
X183101472Y-90653220D01*
X183101473Y-90653221D01*
X183101476Y-90653225D01*
X183196774Y-90748523D01*
X183196778Y-90748526D01*
X183196780Y-90748528D01*
X183316874Y-90809719D01*
X183316876Y-90809719D01*
X183316878Y-90809720D01*
X183449998Y-90830804D01*
X183450000Y-90830804D01*
X183450002Y-90830804D01*
X183583121Y-90809720D01*
X183583121Y-90809719D01*
X183583126Y-90809719D01*
X183703220Y-90748528D01*
X183798528Y-90653220D01*
X183859719Y-90533126D01*
X183877593Y-90420276D01*
X183880804Y-90400002D01*
X183880804Y-90399997D01*
X183859720Y-90266878D01*
X183859719Y-90266876D01*
X183859719Y-90266874D01*
X183798528Y-90146780D01*
X183798526Y-90146778D01*
X183798523Y-90146774D01*
X183703225Y-90051476D01*
X183703221Y-90051473D01*
X183703220Y-90051472D01*
X183583126Y-89990281D01*
X183583124Y-89990280D01*
X183583121Y-89990279D01*
X183450002Y-89969196D01*
X183449998Y-89969196D01*
X183316878Y-89990279D01*
X183196778Y-90051473D01*
X183196774Y-90051476D01*
X183101476Y-90146774D01*
X183101473Y-90146778D01*
X183040279Y-90266878D01*
X183019196Y-90399997D01*
X143625500Y-90399997D01*
X143625500Y-90296535D01*
X143585130Y-90093580D01*
X143505941Y-89902402D01*
X143390977Y-89730345D01*
X143390975Y-89730342D01*
X143244657Y-89584024D01*
X143072596Y-89469057D01*
X142962009Y-89423251D01*
X142907606Y-89379410D01*
X142885541Y-89313116D01*
X142902820Y-89245416D01*
X142953958Y-89197806D01*
X142971144Y-89190759D01*
X143093217Y-89151095D01*
X143282557Y-89054620D01*
X143454459Y-88929727D01*
X143454464Y-88929723D01*
X143531372Y-88852815D01*
X164816378Y-88852815D01*
X164816378Y-88852820D01*
X164837461Y-88985939D01*
X164837462Y-88985942D01*
X164837463Y-88985944D01*
X164898654Y-89106038D01*
X164898655Y-89106039D01*
X164898658Y-89106043D01*
X164993956Y-89201341D01*
X164993960Y-89201344D01*
X164993962Y-89201346D01*
X165114056Y-89262537D01*
X165114058Y-89262537D01*
X165114060Y-89262538D01*
X165247180Y-89283622D01*
X165247182Y-89283622D01*
X165247184Y-89283622D01*
X165380303Y-89262538D01*
X165380303Y-89262537D01*
X165380308Y-89262537D01*
X165500402Y-89201346D01*
X165595710Y-89106038D01*
X165637002Y-89024997D01*
X184619196Y-89024997D01*
X184619196Y-89025002D01*
X184640279Y-89158121D01*
X184640280Y-89158124D01*
X184640281Y-89158126D01*
X184693482Y-89262538D01*
X184701473Y-89278221D01*
X184701476Y-89278225D01*
X184796774Y-89373523D01*
X184796778Y-89373526D01*
X184796780Y-89373528D01*
X184916874Y-89434719D01*
X184916876Y-89434719D01*
X184916878Y-89434720D01*
X185049998Y-89455804D01*
X185050000Y-89455804D01*
X185050002Y-89455804D01*
X185183121Y-89434720D01*
X185183121Y-89434719D01*
X185183126Y-89434719D01*
X185303220Y-89373528D01*
X185398528Y-89278220D01*
X185459719Y-89158126D01*
X185476295Y-89053469D01*
X185480804Y-89025002D01*
X185480804Y-89024997D01*
X185459720Y-88891878D01*
X185459719Y-88891876D01*
X185459719Y-88891874D01*
X185398528Y-88771780D01*
X185398526Y-88771778D01*
X185398523Y-88771774D01*
X185303225Y-88676476D01*
X185303221Y-88676473D01*
X185303220Y-88676472D01*
X185183126Y-88615281D01*
X185183124Y-88615280D01*
X185183121Y-88615279D01*
X185050002Y-88594196D01*
X185049998Y-88594196D01*
X184916878Y-88615279D01*
X184796778Y-88676473D01*
X184796774Y-88676476D01*
X184701476Y-88771774D01*
X184701473Y-88771778D01*
X184640279Y-88891878D01*
X184619196Y-89024997D01*
X165637002Y-89024997D01*
X165656901Y-88985944D01*
X165665805Y-88929727D01*
X165677986Y-88852820D01*
X165677986Y-88852815D01*
X165656902Y-88719696D01*
X165656901Y-88719694D01*
X165656901Y-88719692D01*
X165595710Y-88599598D01*
X165595708Y-88599596D01*
X165595705Y-88599592D01*
X165500407Y-88504294D01*
X165500403Y-88504291D01*
X165500402Y-88504290D01*
X165380308Y-88443099D01*
X165380306Y-88443098D01*
X165380303Y-88443097D01*
X165247184Y-88422014D01*
X165247180Y-88422014D01*
X165114060Y-88443097D01*
X164993960Y-88504291D01*
X164993956Y-88504294D01*
X164898658Y-88599592D01*
X164898655Y-88599596D01*
X164837461Y-88719696D01*
X164816378Y-88852815D01*
X143531372Y-88852815D01*
X143604723Y-88779464D01*
X143604727Y-88779459D01*
X143729620Y-88607557D01*
X143826095Y-88418217D01*
X143888876Y-88224997D01*
X165919196Y-88224997D01*
X165919196Y-88225002D01*
X165940279Y-88358121D01*
X165940280Y-88358124D01*
X165940281Y-88358126D01*
X165988318Y-88452403D01*
X166001473Y-88478221D01*
X166001476Y-88478225D01*
X166096774Y-88573523D01*
X166096778Y-88573526D01*
X166096780Y-88573528D01*
X166216874Y-88634719D01*
X166216876Y-88634719D01*
X166216878Y-88634720D01*
X166349998Y-88655804D01*
X166350000Y-88655804D01*
X166350002Y-88655804D01*
X166483121Y-88634720D01*
X166483121Y-88634719D01*
X166483126Y-88634719D01*
X166603220Y-88573528D01*
X166698528Y-88478220D01*
X166759719Y-88358126D01*
X166760496Y-88353220D01*
X166780804Y-88225002D01*
X166780804Y-88224997D01*
X166759720Y-88091878D01*
X166759719Y-88091876D01*
X166759719Y-88091874D01*
X166698528Y-87971780D01*
X166698526Y-87971778D01*
X166698523Y-87971774D01*
X166603225Y-87876476D01*
X166603221Y-87876473D01*
X166603220Y-87876472D01*
X166483126Y-87815281D01*
X166483124Y-87815280D01*
X166483121Y-87815279D01*
X166350002Y-87794196D01*
X166349998Y-87794196D01*
X166216878Y-87815279D01*
X166216874Y-87815280D01*
X166216874Y-87815281D01*
X166162049Y-87843216D01*
X166096778Y-87876473D01*
X166096774Y-87876476D01*
X166001476Y-87971774D01*
X166001473Y-87971778D01*
X165940279Y-88091878D01*
X165919196Y-88224997D01*
X143888876Y-88224997D01*
X143891757Y-88216129D01*
X143891757Y-88216126D01*
X143902231Y-88150000D01*
X142854146Y-88150000D01*
X142892630Y-88083343D01*
X142925000Y-87962535D01*
X142925000Y-87837465D01*
X142892630Y-87716657D01*
X142883011Y-87699997D01*
X159669196Y-87699997D01*
X159669196Y-87700002D01*
X159690279Y-87833121D01*
X159690280Y-87833124D01*
X159690281Y-87833126D01*
X159751472Y-87953220D01*
X159751473Y-87953221D01*
X159751476Y-87953225D01*
X159846774Y-88048523D01*
X159846778Y-88048526D01*
X159846780Y-88048528D01*
X159966874Y-88109719D01*
X159966876Y-88109719D01*
X159966878Y-88109720D01*
X160099998Y-88130804D01*
X160100000Y-88130804D01*
X160100002Y-88130804D01*
X160233121Y-88109720D01*
X160233121Y-88109719D01*
X160233126Y-88109719D01*
X160353220Y-88048528D01*
X160448528Y-87953220D01*
X160509719Y-87833126D01*
X160510087Y-87830804D01*
X160524045Y-87742674D01*
X172561874Y-87742674D01*
X172561874Y-87742679D01*
X172582957Y-87875798D01*
X172582958Y-87875801D01*
X172582959Y-87875803D01*
X172644150Y-87995897D01*
X172644151Y-87995898D01*
X172644154Y-87995902D01*
X172739452Y-88091200D01*
X172739456Y-88091203D01*
X172739458Y-88091205D01*
X172859552Y-88152396D01*
X172859554Y-88152396D01*
X172859556Y-88152397D01*
X172992676Y-88173481D01*
X172992678Y-88173481D01*
X172992680Y-88173481D01*
X173125799Y-88152397D01*
X173125799Y-88152396D01*
X173125804Y-88152396D01*
X173245898Y-88091205D01*
X173341206Y-87995897D01*
X173402397Y-87875803D01*
X173402398Y-87875798D01*
X173423482Y-87742679D01*
X173423482Y-87742674D01*
X173402398Y-87609555D01*
X173402397Y-87609553D01*
X173402397Y-87609551D01*
X173341206Y-87489457D01*
X173341204Y-87489455D01*
X173341201Y-87489451D01*
X173251747Y-87399997D01*
X175869196Y-87399997D01*
X175869196Y-87400002D01*
X175890279Y-87533121D01*
X175890280Y-87533124D01*
X175890281Y-87533126D01*
X175951472Y-87653220D01*
X175951473Y-87653221D01*
X175951476Y-87653225D01*
X176046774Y-87748523D01*
X176046778Y-87748526D01*
X176046780Y-87748528D01*
X176166874Y-87809719D01*
X176189405Y-87813287D01*
X176252540Y-87843216D01*
X176289471Y-87902527D01*
X176288698Y-87956742D01*
X176291807Y-87957235D01*
X176269196Y-88099997D01*
X176269196Y-88100002D01*
X176290279Y-88233121D01*
X176290280Y-88233124D01*
X176290281Y-88233126D01*
X176351472Y-88353220D01*
X176351473Y-88353221D01*
X176351476Y-88353225D01*
X176446774Y-88448523D01*
X176446778Y-88448526D01*
X176446780Y-88448528D01*
X176566874Y-88509719D01*
X176566876Y-88509719D01*
X176566878Y-88509720D01*
X176699998Y-88530804D01*
X176700000Y-88530804D01*
X176700002Y-88530804D01*
X176833121Y-88509720D01*
X176833121Y-88509719D01*
X176833126Y-88509719D01*
X176953220Y-88448528D01*
X177028160Y-88373588D01*
X179317787Y-88373588D01*
X179317787Y-88373593D01*
X179338870Y-88506712D01*
X179338871Y-88506715D01*
X179338872Y-88506717D01*
X179400063Y-88626811D01*
X179400064Y-88626812D01*
X179400067Y-88626816D01*
X179495365Y-88722114D01*
X179495369Y-88722117D01*
X179495371Y-88722119D01*
X179615465Y-88783310D01*
X179615467Y-88783310D01*
X179615469Y-88783311D01*
X179748589Y-88804395D01*
X179748591Y-88804395D01*
X179748593Y-88804395D01*
X179881712Y-88783311D01*
X179881712Y-88783310D01*
X179881717Y-88783310D01*
X180001811Y-88722119D01*
X180097119Y-88626811D01*
X180158310Y-88506717D01*
X180158694Y-88504291D01*
X180179395Y-88373593D01*
X180179395Y-88373588D01*
X180158311Y-88240469D01*
X180158310Y-88240467D01*
X180158310Y-88240465D01*
X180097119Y-88120371D01*
X180097117Y-88120369D01*
X180097114Y-88120365D01*
X180001816Y-88025067D01*
X180001812Y-88025064D01*
X180001811Y-88025063D01*
X179881717Y-87963872D01*
X179881715Y-87963871D01*
X179881712Y-87963870D01*
X179748593Y-87942787D01*
X179748589Y-87942787D01*
X179615469Y-87963870D01*
X179615465Y-87963871D01*
X179615465Y-87963872D01*
X179552603Y-87995902D01*
X179495369Y-88025064D01*
X179495365Y-88025067D01*
X179400067Y-88120365D01*
X179400064Y-88120369D01*
X179338870Y-88240469D01*
X179317787Y-88373588D01*
X177028160Y-88373588D01*
X177048528Y-88353220D01*
X177109719Y-88233126D01*
X177122505Y-88152397D01*
X177130804Y-88100002D01*
X177130804Y-88099997D01*
X177109720Y-87966878D01*
X177109719Y-87966876D01*
X177109719Y-87966874D01*
X177048528Y-87846780D01*
X177048526Y-87846778D01*
X177048523Y-87846774D01*
X176953225Y-87751476D01*
X176953221Y-87751473D01*
X176953220Y-87751472D01*
X176833126Y-87690281D01*
X176833125Y-87690280D01*
X176833122Y-87690279D01*
X176810591Y-87686711D01*
X176747457Y-87656781D01*
X176710527Y-87597469D01*
X176711301Y-87543257D01*
X176708193Y-87542765D01*
X176730804Y-87400002D01*
X176730804Y-87399997D01*
X176709721Y-87266884D01*
X176709720Y-87266881D01*
X176709719Y-87266874D01*
X176709715Y-87266867D01*
X176709285Y-87265542D01*
X176709235Y-87263817D01*
X176708193Y-87257235D01*
X176709043Y-87257100D01*
X176707284Y-87195701D01*
X176743359Y-87135865D01*
X176806057Y-87105031D01*
X176857157Y-87108685D01*
X176857235Y-87108193D01*
X176862967Y-87109100D01*
X176865542Y-87109285D01*
X176866867Y-87109715D01*
X176866874Y-87109719D01*
X176866881Y-87109720D01*
X176866884Y-87109721D01*
X176999998Y-87130804D01*
X177000000Y-87130804D01*
X177000002Y-87130804D01*
X177133121Y-87109720D01*
X177133121Y-87109719D01*
X177133126Y-87109719D01*
X177253220Y-87048528D01*
X177348528Y-86953220D01*
X177409719Y-86833126D01*
X177411670Y-86820811D01*
X177430804Y-86700000D01*
X177430804Y-86699997D01*
X177409720Y-86566878D01*
X177409719Y-86566876D01*
X177409719Y-86566874D01*
X177348528Y-86446780D01*
X177348526Y-86446778D01*
X177348523Y-86446774D01*
X177253225Y-86351476D01*
X177253221Y-86351473D01*
X177253220Y-86351472D01*
X177133126Y-86290281D01*
X177133124Y-86290280D01*
X177133121Y-86290279D01*
X177000002Y-86269196D01*
X176999998Y-86269196D01*
X176866878Y-86290279D01*
X176746778Y-86351473D01*
X176746774Y-86351476D01*
X176651476Y-86446774D01*
X176651473Y-86446778D01*
X176651472Y-86446780D01*
X176606889Y-86534280D01*
X176590279Y-86566878D01*
X176569196Y-86699997D01*
X176569196Y-86700000D01*
X176590279Y-86833120D01*
X176590716Y-86834464D01*
X176590765Y-86836187D01*
X176591807Y-86842765D01*
X176590957Y-86842899D01*
X176592713Y-86904305D01*
X176556635Y-86964139D01*
X176493935Y-86994969D01*
X176442842Y-86991315D01*
X176442765Y-86991807D01*
X176437039Y-86990900D01*
X176434464Y-86990716D01*
X176433120Y-86990279D01*
X176300002Y-86969196D01*
X176299998Y-86969196D01*
X176166878Y-86990279D01*
X176046778Y-87051473D01*
X176046774Y-87051476D01*
X175951476Y-87146774D01*
X175951473Y-87146778D01*
X175890279Y-87266878D01*
X175869196Y-87399997D01*
X173251747Y-87399997D01*
X173245903Y-87394153D01*
X173245899Y-87394150D01*
X173245898Y-87394149D01*
X173125804Y-87332958D01*
X173125802Y-87332957D01*
X173125799Y-87332956D01*
X172992680Y-87311873D01*
X172992676Y-87311873D01*
X172859556Y-87332956D01*
X172739456Y-87394150D01*
X172739452Y-87394153D01*
X172644154Y-87489451D01*
X172644151Y-87489455D01*
X172644150Y-87489457D01*
X172585472Y-87604620D01*
X172582957Y-87609555D01*
X172561874Y-87742674D01*
X160524045Y-87742674D01*
X160530804Y-87700002D01*
X160530804Y-87699997D01*
X160509720Y-87566878D01*
X160509719Y-87566876D01*
X160509719Y-87566874D01*
X160448528Y-87446780D01*
X160448526Y-87446778D01*
X160448523Y-87446774D01*
X160353225Y-87351476D01*
X160353221Y-87351473D01*
X160353220Y-87351472D01*
X160233126Y-87290281D01*
X160233124Y-87290280D01*
X160233121Y-87290279D01*
X160100002Y-87269196D01*
X160099998Y-87269196D01*
X159966878Y-87290279D01*
X159846778Y-87351473D01*
X159846774Y-87351476D01*
X159751476Y-87446774D01*
X159751473Y-87446778D01*
X159751472Y-87446780D01*
X159707477Y-87533126D01*
X159690279Y-87566878D01*
X159669196Y-87699997D01*
X142883011Y-87699997D01*
X142854146Y-87650000D01*
X143902231Y-87650000D01*
X143891757Y-87583873D01*
X143891757Y-87583870D01*
X143826095Y-87381782D01*
X143729620Y-87192442D01*
X143604727Y-87020540D01*
X143604723Y-87020535D01*
X143454464Y-86870276D01*
X143454459Y-86870272D01*
X143340528Y-86787497D01*
X166556696Y-86787497D01*
X166556696Y-86787502D01*
X166577779Y-86920621D01*
X166577780Y-86920624D01*
X166577781Y-86920626D01*
X166628690Y-87020540D01*
X166638973Y-87040721D01*
X166638976Y-87040725D01*
X166734274Y-87136023D01*
X166734278Y-87136026D01*
X166734280Y-87136028D01*
X166854374Y-87197219D01*
X166854376Y-87197219D01*
X166854378Y-87197220D01*
X166987498Y-87218304D01*
X166987500Y-87218304D01*
X166987502Y-87218304D01*
X167120621Y-87197220D01*
X167120621Y-87197219D01*
X167120626Y-87197219D01*
X167240720Y-87136028D01*
X167336028Y-87040720D01*
X167397219Y-86920626D01*
X167405194Y-86870276D01*
X167418304Y-86787502D01*
X167418304Y-86787497D01*
X167397220Y-86654378D01*
X167397219Y-86654376D01*
X167397219Y-86654374D01*
X167336028Y-86534280D01*
X167336026Y-86534278D01*
X167336023Y-86534274D01*
X167240725Y-86438976D01*
X167240721Y-86438973D01*
X167240720Y-86438972D01*
X167185995Y-86411088D01*
X175280287Y-86411088D01*
X175280287Y-86411093D01*
X175301370Y-86544212D01*
X175301371Y-86544215D01*
X175301372Y-86544217D01*
X175357500Y-86654374D01*
X175362564Y-86664312D01*
X175362567Y-86664316D01*
X175457865Y-86759614D01*
X175457869Y-86759617D01*
X175457871Y-86759619D01*
X175577965Y-86820810D01*
X175577967Y-86820810D01*
X175577969Y-86820811D01*
X175711089Y-86841895D01*
X175711091Y-86841895D01*
X175711093Y-86841895D01*
X175844212Y-86820811D01*
X175844212Y-86820810D01*
X175844217Y-86820810D01*
X175964311Y-86759619D01*
X176059619Y-86664311D01*
X176120810Y-86544217D01*
X176129891Y-86486883D01*
X176141895Y-86411093D01*
X176141895Y-86411088D01*
X176120811Y-86277969D01*
X176120810Y-86277967D01*
X176120810Y-86277965D01*
X176059619Y-86157871D01*
X176059617Y-86157869D01*
X176059614Y-86157865D01*
X175964316Y-86062567D01*
X175964312Y-86062564D01*
X175964311Y-86062563D01*
X175844217Y-86001372D01*
X175844215Y-86001371D01*
X175844212Y-86001370D01*
X175711093Y-85980287D01*
X175711089Y-85980287D01*
X175577969Y-86001370D01*
X175577965Y-86001371D01*
X175577965Y-86001372D01*
X175497902Y-86042166D01*
X175457869Y-86062564D01*
X175457865Y-86062567D01*
X175362567Y-86157865D01*
X175362564Y-86157869D01*
X175301370Y-86277969D01*
X175280287Y-86411088D01*
X167185995Y-86411088D01*
X167120626Y-86377781D01*
X167120624Y-86377780D01*
X167120621Y-86377779D01*
X166987502Y-86356696D01*
X166987498Y-86356696D01*
X166854378Y-86377779D01*
X166854374Y-86377780D01*
X166854374Y-86377781D01*
X166788996Y-86411093D01*
X166734278Y-86438973D01*
X166734274Y-86438976D01*
X166638976Y-86534274D01*
X166638973Y-86534278D01*
X166577779Y-86654378D01*
X166556696Y-86787497D01*
X143340528Y-86787497D01*
X143282557Y-86745379D01*
X143093216Y-86648904D01*
X142971144Y-86609240D01*
X142913468Y-86569802D01*
X142886270Y-86505444D01*
X142898185Y-86436597D01*
X142945429Y-86385122D01*
X142962006Y-86376749D01*
X143072598Y-86330941D01*
X143244655Y-86215977D01*
X143390977Y-86069655D01*
X143505941Y-85897598D01*
X143585130Y-85706420D01*
X143606299Y-85599997D01*
X166969196Y-85599997D01*
X166969196Y-85600002D01*
X166990279Y-85733121D01*
X166990280Y-85733124D01*
X166990281Y-85733126D01*
X167051472Y-85853220D01*
X167051473Y-85853221D01*
X167051476Y-85853225D01*
X167146774Y-85948523D01*
X167146778Y-85948526D01*
X167146780Y-85948528D01*
X167266874Y-86009719D01*
X167266876Y-86009719D01*
X167266878Y-86009720D01*
X167399998Y-86030804D01*
X167400000Y-86030804D01*
X167400002Y-86030804D01*
X167533121Y-86009720D01*
X167533121Y-86009719D01*
X167533126Y-86009719D01*
X167653220Y-85948528D01*
X167748528Y-85853220D01*
X167762908Y-85824997D01*
X183019196Y-85824997D01*
X183019196Y-85825002D01*
X183040279Y-85958121D01*
X183040280Y-85958124D01*
X183040281Y-85958126D01*
X183101472Y-86078220D01*
X183101473Y-86078221D01*
X183101476Y-86078225D01*
X183196774Y-86173523D01*
X183196778Y-86173526D01*
X183196780Y-86173528D01*
X183316874Y-86234719D01*
X183316876Y-86234719D01*
X183316878Y-86234720D01*
X183449998Y-86255804D01*
X183450000Y-86255804D01*
X183450002Y-86255804D01*
X183583121Y-86234720D01*
X183583121Y-86234719D01*
X183583126Y-86234719D01*
X183651266Y-86200000D01*
X189997769Y-86200000D01*
X191045854Y-86200000D01*
X191007370Y-86266657D01*
X190975000Y-86387465D01*
X190975000Y-86512535D01*
X191007370Y-86633343D01*
X191045854Y-86700000D01*
X189997769Y-86700000D01*
X190008242Y-86766126D01*
X190008242Y-86766129D01*
X190073904Y-86968217D01*
X190170379Y-87157557D01*
X190295272Y-87329459D01*
X190295276Y-87329464D01*
X190445535Y-87479723D01*
X190445540Y-87479727D01*
X190617442Y-87604620D01*
X190806782Y-87701095D01*
X190928855Y-87740759D01*
X190986530Y-87780196D01*
X191013729Y-87844555D01*
X191001815Y-87913401D01*
X190954570Y-87964877D01*
X190937990Y-87973251D01*
X190827404Y-88019057D01*
X190655342Y-88134024D01*
X190509024Y-88280342D01*
X190394058Y-88452403D01*
X190314870Y-88643579D01*
X190314868Y-88643587D01*
X190274500Y-88846530D01*
X190274500Y-89053469D01*
X190314868Y-89256412D01*
X190314870Y-89256420D01*
X190326137Y-89283622D01*
X190394059Y-89447598D01*
X190408399Y-89469059D01*
X190509024Y-89619657D01*
X190655342Y-89765975D01*
X190655345Y-89765977D01*
X190827402Y-89880941D01*
X190937990Y-89926748D01*
X190992393Y-89970589D01*
X191014458Y-90036883D01*
X190997179Y-90104582D01*
X190946042Y-90152193D01*
X190928856Y-90159240D01*
X190806781Y-90198905D01*
X190617442Y-90295379D01*
X190445540Y-90420272D01*
X190445535Y-90420276D01*
X190295276Y-90570535D01*
X190295272Y-90570540D01*
X190170379Y-90742442D01*
X190073904Y-90931782D01*
X190008242Y-91133870D01*
X190008242Y-91133873D01*
X189997769Y-91200000D01*
X191045854Y-91200000D01*
X191007370Y-91266657D01*
X190975000Y-91387465D01*
X190975000Y-91512535D01*
X191007370Y-91633343D01*
X191045854Y-91700000D01*
X189997769Y-91700000D01*
X190008242Y-91766126D01*
X190008242Y-91766129D01*
X190073904Y-91968217D01*
X190170379Y-92157557D01*
X190295272Y-92329459D01*
X190295276Y-92329464D01*
X190445535Y-92479723D01*
X190445540Y-92479727D01*
X190617442Y-92604620D01*
X190735971Y-92665015D01*
X190786767Y-92712990D01*
X190803562Y-92780811D01*
X190781024Y-92846946D01*
X190726309Y-92890397D01*
X190679676Y-92899500D01*
X190670730Y-92899500D01*
X190640300Y-92902353D01*
X190640298Y-92902353D01*
X190512119Y-92947206D01*
X190512117Y-92947207D01*
X190402850Y-93027850D01*
X190322207Y-93137117D01*
X190322206Y-93137119D01*
X190277353Y-93265298D01*
X190277353Y-93265300D01*
X190274500Y-93295730D01*
X190274500Y-94604269D01*
X190277353Y-94634699D01*
X190277353Y-94634701D01*
X190310982Y-94730804D01*
X190322207Y-94762882D01*
X190402850Y-94872150D01*
X190512118Y-94952793D01*
X190554845Y-94967744D01*
X190640299Y-94997646D01*
X190670730Y-95000500D01*
X190670734Y-95000500D01*
X192229270Y-95000500D01*
X192259699Y-94997646D01*
X192259701Y-94997646D01*
X192323790Y-94975219D01*
X192387882Y-94952793D01*
X192497150Y-94872150D01*
X192577793Y-94762882D01*
X192605143Y-94684719D01*
X192622646Y-94634701D01*
X192622646Y-94634699D01*
X192625500Y-94604269D01*
X192625500Y-93295730D01*
X192622646Y-93265300D01*
X192622646Y-93265298D01*
X192577793Y-93137119D01*
X192577792Y-93137117D01*
X192556392Y-93108121D01*
X192497150Y-93027850D01*
X192387882Y-92947207D01*
X192387880Y-92947206D01*
X192259700Y-92902353D01*
X192229270Y-92899500D01*
X192229266Y-92899500D01*
X192220324Y-92899500D01*
X192153285Y-92879815D01*
X192107530Y-92827011D01*
X192097586Y-92757853D01*
X192126611Y-92694297D01*
X192164029Y-92665015D01*
X192282557Y-92604620D01*
X192454459Y-92479727D01*
X192454464Y-92479723D01*
X192604723Y-92329464D01*
X192604727Y-92329459D01*
X192729620Y-92157557D01*
X192826095Y-91968217D01*
X192891757Y-91766129D01*
X192891757Y-91766126D01*
X192902231Y-91700000D01*
X191854146Y-91700000D01*
X191892630Y-91633343D01*
X191925000Y-91512535D01*
X191925000Y-91387465D01*
X191892630Y-91266657D01*
X191854146Y-91200000D01*
X192902231Y-91200000D01*
X192891757Y-91133873D01*
X192891757Y-91133870D01*
X192826095Y-90931782D01*
X192729620Y-90742442D01*
X192604727Y-90570540D01*
X192604723Y-90570535D01*
X192454464Y-90420276D01*
X192454459Y-90420272D01*
X192282557Y-90295379D01*
X192093216Y-90198904D01*
X191971144Y-90159240D01*
X191913468Y-90119802D01*
X191886270Y-90055444D01*
X191898185Y-89986597D01*
X191945429Y-89935122D01*
X191962006Y-89926749D01*
X192072598Y-89880941D01*
X192244655Y-89765977D01*
X192390977Y-89619655D01*
X192505941Y-89447598D01*
X192585130Y-89256420D01*
X192625500Y-89053465D01*
X192625500Y-88846535D01*
X192585130Y-88643580D01*
X192505941Y-88452402D01*
X192390977Y-88280345D01*
X192390975Y-88280342D01*
X192244657Y-88134024D01*
X192072596Y-88019057D01*
X191962009Y-87973251D01*
X191907606Y-87929410D01*
X191885541Y-87863116D01*
X191902820Y-87795416D01*
X191953958Y-87747806D01*
X191971144Y-87740759D01*
X192093217Y-87701095D01*
X192282557Y-87604620D01*
X192454459Y-87479727D01*
X192454464Y-87479723D01*
X192604723Y-87329464D01*
X192604727Y-87329459D01*
X192729620Y-87157557D01*
X192826095Y-86968217D01*
X192891757Y-86766129D01*
X192891757Y-86766126D01*
X192902231Y-86700000D01*
X191854146Y-86700000D01*
X191892630Y-86633343D01*
X191925000Y-86512535D01*
X191925000Y-86387465D01*
X191892630Y-86266657D01*
X191854146Y-86200000D01*
X192902231Y-86200000D01*
X192891757Y-86133873D01*
X192891757Y-86133870D01*
X192826095Y-85931782D01*
X192729620Y-85742442D01*
X192604727Y-85570540D01*
X192604723Y-85570535D01*
X192454464Y-85420276D01*
X192454459Y-85420272D01*
X192282557Y-85295379D01*
X192093217Y-85198904D01*
X191891128Y-85133242D01*
X191700000Y-85102969D01*
X191700000Y-86045854D01*
X191633343Y-86007370D01*
X191512535Y-85975000D01*
X191387465Y-85975000D01*
X191266657Y-86007370D01*
X191200000Y-86045854D01*
X191200000Y-85102969D01*
X191008872Y-85133242D01*
X191008869Y-85133242D01*
X190806782Y-85198904D01*
X190617442Y-85295379D01*
X190445540Y-85420272D01*
X190445535Y-85420276D01*
X190295276Y-85570535D01*
X190295272Y-85570540D01*
X190170379Y-85742442D01*
X190073904Y-85931782D01*
X190008242Y-86133870D01*
X190008242Y-86133873D01*
X189997769Y-86200000D01*
X183651266Y-86200000D01*
X183703220Y-86173528D01*
X183798528Y-86078220D01*
X183859719Y-85958126D01*
X183861239Y-85948528D01*
X183880804Y-85825002D01*
X183880804Y-85824997D01*
X183859720Y-85691878D01*
X183859719Y-85691876D01*
X183859719Y-85691874D01*
X183798528Y-85571780D01*
X183798526Y-85571778D01*
X183798523Y-85571774D01*
X183703225Y-85476476D01*
X183703221Y-85476473D01*
X183703220Y-85476472D01*
X183583126Y-85415281D01*
X183583124Y-85415280D01*
X183583121Y-85415279D01*
X183450002Y-85394196D01*
X183449998Y-85394196D01*
X183316878Y-85415279D01*
X183196778Y-85476473D01*
X183196774Y-85476476D01*
X183101476Y-85571774D01*
X183101473Y-85571778D01*
X183040279Y-85691878D01*
X183019196Y-85824997D01*
X167762908Y-85824997D01*
X167809719Y-85733126D01*
X167830804Y-85600000D01*
X167826334Y-85571780D01*
X167809720Y-85466878D01*
X167809719Y-85466876D01*
X167809719Y-85466874D01*
X167748528Y-85346780D01*
X167748526Y-85346778D01*
X167748523Y-85346774D01*
X167653225Y-85251476D01*
X167653221Y-85251473D01*
X167653220Y-85251472D01*
X167533126Y-85190281D01*
X167533124Y-85190280D01*
X167533121Y-85190279D01*
X167400002Y-85169196D01*
X167399998Y-85169196D01*
X167266878Y-85190279D01*
X167146778Y-85251473D01*
X167146774Y-85251476D01*
X167051476Y-85346774D01*
X167051473Y-85346778D01*
X166990279Y-85466878D01*
X166969196Y-85599997D01*
X143606299Y-85599997D01*
X143625500Y-85503465D01*
X143625500Y-85296535D01*
X143585130Y-85093580D01*
X143505941Y-84902402D01*
X143390977Y-84730345D01*
X143390975Y-84730342D01*
X143244657Y-84584024D01*
X143118900Y-84499997D01*
X164069196Y-84499997D01*
X164069196Y-84500002D01*
X164090279Y-84633121D01*
X164090280Y-84633124D01*
X164090281Y-84633126D01*
X164139817Y-84730345D01*
X164151473Y-84753221D01*
X164151476Y-84753225D01*
X164246774Y-84848523D01*
X164246778Y-84848526D01*
X164246780Y-84848528D01*
X164366874Y-84909719D01*
X164366876Y-84909719D01*
X164366878Y-84909720D01*
X164499998Y-84930804D01*
X164500000Y-84930804D01*
X164500002Y-84930804D01*
X164633121Y-84909720D01*
X164633121Y-84909719D01*
X164633126Y-84909719D01*
X164753220Y-84848528D01*
X164848528Y-84753220D01*
X164909719Y-84633126D01*
X164930804Y-84500000D01*
X164930804Y-84499997D01*
X176939196Y-84499997D01*
X176939196Y-84500002D01*
X176960279Y-84633121D01*
X176960280Y-84633124D01*
X176960281Y-84633126D01*
X177009817Y-84730345D01*
X177021473Y-84753221D01*
X177021476Y-84753225D01*
X177116774Y-84848523D01*
X177116778Y-84848526D01*
X177116780Y-84848528D01*
X177236874Y-84909719D01*
X177236876Y-84909719D01*
X177236878Y-84909720D01*
X177369998Y-84930804D01*
X177370000Y-84930804D01*
X177370002Y-84930804D01*
X177503121Y-84909720D01*
X177503121Y-84909719D01*
X177503126Y-84909719D01*
X177623220Y-84848528D01*
X177718528Y-84753220D01*
X177779719Y-84633126D01*
X177800804Y-84500000D01*
X177795903Y-84469059D01*
X177779720Y-84366878D01*
X177779719Y-84366876D01*
X177779719Y-84366874D01*
X177718528Y-84246780D01*
X177718526Y-84246778D01*
X177718523Y-84246774D01*
X177623225Y-84151476D01*
X177623221Y-84151473D01*
X177623220Y-84151472D01*
X177503126Y-84090281D01*
X177503124Y-84090280D01*
X177503121Y-84090279D01*
X177370002Y-84069196D01*
X177369998Y-84069196D01*
X177236878Y-84090279D01*
X177116778Y-84151473D01*
X177116774Y-84151476D01*
X177021476Y-84246774D01*
X177021473Y-84246778D01*
X176960279Y-84366878D01*
X176939196Y-84499997D01*
X164930804Y-84499997D01*
X164925903Y-84469059D01*
X164909720Y-84366878D01*
X164909719Y-84366876D01*
X164909719Y-84366874D01*
X164848528Y-84246780D01*
X164848526Y-84246778D01*
X164848523Y-84246774D01*
X164753225Y-84151476D01*
X164753221Y-84151473D01*
X164753220Y-84151472D01*
X164633126Y-84090281D01*
X164633124Y-84090280D01*
X164633121Y-84090279D01*
X164500002Y-84069196D01*
X164499998Y-84069196D01*
X164366878Y-84090279D01*
X164246778Y-84151473D01*
X164246774Y-84151476D01*
X164151476Y-84246774D01*
X164151473Y-84246778D01*
X164090279Y-84366878D01*
X164069196Y-84499997D01*
X143118900Y-84499997D01*
X143072598Y-84469059D01*
X142881420Y-84389870D01*
X142881412Y-84389868D01*
X142678469Y-84349500D01*
X142678465Y-84349500D01*
X142221535Y-84349500D01*
X142221530Y-84349500D01*
X142018587Y-84389868D01*
X142018579Y-84389870D01*
X141827403Y-84469058D01*
X141655342Y-84584024D01*
X141509024Y-84730342D01*
X141394058Y-84902403D01*
X141314870Y-85093579D01*
X141314868Y-85093587D01*
X141274500Y-85296530D01*
X141274500Y-85503469D01*
X141314868Y-85706412D01*
X141314870Y-85706420D01*
X141394058Y-85897596D01*
X141509024Y-86069657D01*
X141655342Y-86215975D01*
X141655345Y-86215977D01*
X141827402Y-86330941D01*
X141937990Y-86376748D01*
X141992393Y-86420589D01*
X142014458Y-86486883D01*
X141997179Y-86554582D01*
X141946042Y-86602193D01*
X141928856Y-86609240D01*
X141806781Y-86648905D01*
X141617442Y-86745379D01*
X141445540Y-86870272D01*
X141445535Y-86870276D01*
X141295276Y-87020535D01*
X141295272Y-87020540D01*
X141170379Y-87192442D01*
X141073904Y-87381782D01*
X141008242Y-87583870D01*
X141008242Y-87583873D01*
X140997769Y-87650000D01*
X140000000Y-87650000D01*
X140000000Y-82796530D01*
X141274500Y-82796530D01*
X141274500Y-83003469D01*
X141314868Y-83206412D01*
X141314870Y-83206420D01*
X141394058Y-83397596D01*
X141509024Y-83569657D01*
X141655342Y-83715975D01*
X141655345Y-83715977D01*
X141827402Y-83830941D01*
X142018580Y-83910130D01*
X142221530Y-83950499D01*
X142221534Y-83950500D01*
X142221535Y-83950500D01*
X142678466Y-83950500D01*
X142678467Y-83950499D01*
X142881420Y-83910130D01*
X143072598Y-83830941D01*
X143244655Y-83715977D01*
X143390977Y-83569655D01*
X143505941Y-83397598D01*
X143536014Y-83324997D01*
X173244196Y-83324997D01*
X173244196Y-83325002D01*
X173265279Y-83458121D01*
X173265280Y-83458124D01*
X173265281Y-83458126D01*
X173322108Y-83569655D01*
X173326473Y-83578221D01*
X173326476Y-83578225D01*
X173421774Y-83673523D01*
X173421778Y-83673526D01*
X173421780Y-83673528D01*
X173541874Y-83734719D01*
X173541876Y-83734719D01*
X173541878Y-83734720D01*
X173674998Y-83755804D01*
X173675000Y-83755804D01*
X173675002Y-83755804D01*
X173808121Y-83734720D01*
X173808121Y-83734719D01*
X173808126Y-83734719D01*
X173928220Y-83673528D01*
X174023528Y-83578220D01*
X174084719Y-83458126D01*
X174105804Y-83325000D01*
X174084719Y-83191874D01*
X174023528Y-83071780D01*
X174023526Y-83071778D01*
X174023523Y-83071774D01*
X173928225Y-82976476D01*
X173928221Y-82976473D01*
X173928220Y-82976472D01*
X173808126Y-82915281D01*
X173808124Y-82915280D01*
X173808121Y-82915279D01*
X173675002Y-82894196D01*
X173674998Y-82894196D01*
X173541878Y-82915279D01*
X173421778Y-82976473D01*
X173421774Y-82976476D01*
X173326476Y-83071774D01*
X173326473Y-83071778D01*
X173265279Y-83191878D01*
X173244196Y-83324997D01*
X143536014Y-83324997D01*
X143585130Y-83206420D01*
X143625500Y-83003465D01*
X143625500Y-82796535D01*
X143606298Y-82699997D01*
X146769196Y-82699997D01*
X146769196Y-82700002D01*
X146790279Y-82833121D01*
X146790280Y-82833124D01*
X146790281Y-82833126D01*
X146851472Y-82953220D01*
X146851473Y-82953221D01*
X146851476Y-82953225D01*
X146946774Y-83048523D01*
X146946778Y-83048526D01*
X146946780Y-83048528D01*
X147066874Y-83109719D01*
X147066876Y-83109719D01*
X147066878Y-83109720D01*
X147199998Y-83130804D01*
X147200000Y-83130804D01*
X147200002Y-83130804D01*
X147333121Y-83109720D01*
X147333121Y-83109719D01*
X147333126Y-83109719D01*
X147453220Y-83048528D01*
X147548528Y-82953220D01*
X147609719Y-82833126D01*
X147609720Y-82833121D01*
X147630804Y-82700002D01*
X147630804Y-82699997D01*
X165019196Y-82699997D01*
X165019196Y-82700002D01*
X165040279Y-82833121D01*
X165040280Y-82833124D01*
X165040281Y-82833126D01*
X165101472Y-82953220D01*
X165101473Y-82953221D01*
X165101476Y-82953225D01*
X165196774Y-83048523D01*
X165196778Y-83048526D01*
X165196780Y-83048528D01*
X165316874Y-83109719D01*
X165316876Y-83109719D01*
X165316878Y-83109720D01*
X165449998Y-83130804D01*
X165450000Y-83130804D01*
X165450002Y-83130804D01*
X165583121Y-83109720D01*
X165583121Y-83109719D01*
X165583126Y-83109719D01*
X165703220Y-83048528D01*
X165798528Y-82953220D01*
X165859719Y-82833126D01*
X165859720Y-82833121D01*
X165880804Y-82700002D01*
X165880804Y-82699997D01*
X165859720Y-82566878D01*
X165859719Y-82566876D01*
X165859719Y-82566874D01*
X165825643Y-82499997D01*
X178469196Y-82499997D01*
X178469196Y-82500002D01*
X178490279Y-82633121D01*
X178490280Y-82633124D01*
X178490281Y-82633126D01*
X178551472Y-82753220D01*
X178551473Y-82753221D01*
X178551476Y-82753225D01*
X178646774Y-82848523D01*
X178646778Y-82848526D01*
X178646780Y-82848528D01*
X178766874Y-82909719D01*
X178766876Y-82909719D01*
X178766878Y-82909720D01*
X178899998Y-82930804D01*
X178900000Y-82930804D01*
X178900002Y-82930804D01*
X179033121Y-82909720D01*
X179033121Y-82909719D01*
X179033126Y-82909719D01*
X179153220Y-82848528D01*
X179168627Y-82833121D01*
X179212319Y-82789430D01*
X179273642Y-82755945D01*
X179343334Y-82760929D01*
X179387681Y-82789430D01*
X179446774Y-82848523D01*
X179446778Y-82848526D01*
X179446780Y-82848528D01*
X179566874Y-82909719D01*
X179566876Y-82909719D01*
X179566878Y-82909720D01*
X179699998Y-82930804D01*
X179700000Y-82930804D01*
X179700002Y-82930804D01*
X179833121Y-82909720D01*
X179833121Y-82909719D01*
X179833126Y-82909719D01*
X179953220Y-82848528D01*
X180048528Y-82753220D01*
X180109719Y-82633126D01*
X180109720Y-82633121D01*
X180130804Y-82500002D01*
X180130804Y-82499997D01*
X180109720Y-82366878D01*
X180109719Y-82366876D01*
X180109719Y-82366874D01*
X180048528Y-82246780D01*
X180048526Y-82246778D01*
X180048523Y-82246774D01*
X179953225Y-82151476D01*
X179953221Y-82151473D01*
X179953220Y-82151472D01*
X179833126Y-82090281D01*
X179833124Y-82090280D01*
X179833121Y-82090279D01*
X179700002Y-82069196D01*
X179699998Y-82069196D01*
X179566878Y-82090279D01*
X179446778Y-82151473D01*
X179446774Y-82151476D01*
X179387681Y-82210570D01*
X179326358Y-82244055D01*
X179256666Y-82239071D01*
X179212319Y-82210570D01*
X179153225Y-82151476D01*
X179153221Y-82151473D01*
X179153220Y-82151472D01*
X179033126Y-82090281D01*
X179033124Y-82090280D01*
X179033121Y-82090279D01*
X178900002Y-82069196D01*
X178899998Y-82069196D01*
X178766878Y-82090279D01*
X178646778Y-82151473D01*
X178646774Y-82151476D01*
X178551476Y-82246774D01*
X178551473Y-82246778D01*
X178490279Y-82366878D01*
X178469196Y-82499997D01*
X165825643Y-82499997D01*
X165798528Y-82446780D01*
X165798526Y-82446778D01*
X165798523Y-82446774D01*
X165703225Y-82351476D01*
X165703221Y-82351473D01*
X165703220Y-82351472D01*
X165583126Y-82290281D01*
X165583124Y-82290280D01*
X165583121Y-82290279D01*
X165450002Y-82269196D01*
X165449998Y-82269196D01*
X165316878Y-82290279D01*
X165196778Y-82351473D01*
X165196774Y-82351476D01*
X165101476Y-82446774D01*
X165101473Y-82446778D01*
X165040279Y-82566878D01*
X165019196Y-82699997D01*
X147630804Y-82699997D01*
X147609720Y-82566878D01*
X147609719Y-82566876D01*
X147609719Y-82566874D01*
X147548528Y-82446780D01*
X147548526Y-82446778D01*
X147548523Y-82446774D01*
X147453225Y-82351476D01*
X147453221Y-82351473D01*
X147453220Y-82351472D01*
X147333126Y-82290281D01*
X147333124Y-82290280D01*
X147333121Y-82290279D01*
X147200002Y-82269196D01*
X147199998Y-82269196D01*
X147066878Y-82290279D01*
X146946778Y-82351473D01*
X146946774Y-82351476D01*
X146851476Y-82446774D01*
X146851473Y-82446778D01*
X146790279Y-82566878D01*
X146769196Y-82699997D01*
X143606298Y-82699997D01*
X143585130Y-82593580D01*
X143505941Y-82402402D01*
X143390977Y-82230345D01*
X143390975Y-82230342D01*
X143244657Y-82084024D01*
X143118900Y-81999997D01*
X155194196Y-81999997D01*
X155194196Y-82000002D01*
X155215279Y-82133121D01*
X155215280Y-82133124D01*
X155215281Y-82133126D01*
X155273188Y-82246774D01*
X155276473Y-82253221D01*
X155276476Y-82253225D01*
X155371774Y-82348523D01*
X155371778Y-82348526D01*
X155371780Y-82348528D01*
X155491874Y-82409719D01*
X155491876Y-82409719D01*
X155491878Y-82409720D01*
X155624998Y-82430804D01*
X155625000Y-82430804D01*
X155625002Y-82430804D01*
X155758121Y-82409720D01*
X155758121Y-82409719D01*
X155758126Y-82409719D01*
X155878220Y-82348528D01*
X155973528Y-82253220D01*
X156034719Y-82133126D01*
X156041505Y-82090281D01*
X156055804Y-82000002D01*
X156055804Y-81999997D01*
X163419196Y-81999997D01*
X163419196Y-82000002D01*
X163440279Y-82133121D01*
X163440280Y-82133124D01*
X163440281Y-82133126D01*
X163498188Y-82246774D01*
X163501473Y-82253221D01*
X163501476Y-82253225D01*
X163596774Y-82348523D01*
X163596778Y-82348526D01*
X163596780Y-82348528D01*
X163716874Y-82409719D01*
X163716876Y-82409719D01*
X163716878Y-82409720D01*
X163849998Y-82430804D01*
X163850000Y-82430804D01*
X163850002Y-82430804D01*
X163983121Y-82409720D01*
X163983121Y-82409719D01*
X163983126Y-82409719D01*
X164103220Y-82348528D01*
X164198528Y-82253220D01*
X164259719Y-82133126D01*
X164266505Y-82090281D01*
X164280804Y-82000002D01*
X164280804Y-81999997D01*
X164259720Y-81866878D01*
X164259719Y-81866876D01*
X164259719Y-81866874D01*
X164198528Y-81746780D01*
X164198526Y-81746778D01*
X164198523Y-81746774D01*
X164103225Y-81651476D01*
X164103221Y-81651473D01*
X164103220Y-81651472D01*
X164002197Y-81599998D01*
X165391379Y-81599998D01*
X165391379Y-81600003D01*
X165412462Y-81733122D01*
X165412463Y-81733125D01*
X165412464Y-81733127D01*
X165473655Y-81853221D01*
X165473656Y-81853222D01*
X165473659Y-81853226D01*
X165568957Y-81948524D01*
X165568961Y-81948527D01*
X165568963Y-81948529D01*
X165689057Y-82009720D01*
X165689059Y-82009720D01*
X165689061Y-82009721D01*
X165822181Y-82030805D01*
X165822183Y-82030805D01*
X165822185Y-82030805D01*
X165955304Y-82009721D01*
X165955304Y-82009720D01*
X165955309Y-82009720D01*
X166072522Y-81949997D01*
X177419196Y-81949997D01*
X177419196Y-81950002D01*
X177440279Y-82083121D01*
X177440280Y-82083124D01*
X177440281Y-82083126D01*
X177501472Y-82203220D01*
X177501473Y-82203221D01*
X177501476Y-82203225D01*
X177596774Y-82298523D01*
X177596778Y-82298526D01*
X177596780Y-82298528D01*
X177716874Y-82359719D01*
X177716876Y-82359719D01*
X177716878Y-82359720D01*
X177849998Y-82380804D01*
X177850000Y-82380804D01*
X177850002Y-82380804D01*
X177983121Y-82359720D01*
X177983121Y-82359719D01*
X177983126Y-82359719D01*
X178103220Y-82298528D01*
X178198528Y-82203220D01*
X178259719Y-82083126D01*
X178259720Y-82083121D01*
X178280804Y-81950002D01*
X178280804Y-81949997D01*
X178259720Y-81816878D01*
X178259719Y-81816876D01*
X178259719Y-81816874D01*
X178198528Y-81696780D01*
X178198526Y-81696778D01*
X178198523Y-81696774D01*
X178103225Y-81601476D01*
X178103221Y-81601473D01*
X178103220Y-81601472D01*
X177983126Y-81540281D01*
X177983124Y-81540280D01*
X177983121Y-81540279D01*
X177850002Y-81519196D01*
X177849998Y-81519196D01*
X177716878Y-81540279D01*
X177596778Y-81601473D01*
X177596774Y-81601476D01*
X177501476Y-81696774D01*
X177501473Y-81696778D01*
X177440279Y-81816878D01*
X177419196Y-81949997D01*
X166072522Y-81949997D01*
X166075403Y-81948529D01*
X166170711Y-81853221D01*
X166231902Y-81733127D01*
X166244835Y-81651472D01*
X166252987Y-81600003D01*
X166252987Y-81599998D01*
X166231903Y-81466879D01*
X166231902Y-81466877D01*
X166231902Y-81466875D01*
X166170711Y-81346781D01*
X166170709Y-81346779D01*
X166170706Y-81346775D01*
X166075408Y-81251477D01*
X166075404Y-81251474D01*
X166075403Y-81251473D01*
X165955309Y-81190282D01*
X165955307Y-81190281D01*
X165955304Y-81190280D01*
X165822185Y-81169197D01*
X165822181Y-81169197D01*
X165689061Y-81190280D01*
X165568961Y-81251474D01*
X165568957Y-81251477D01*
X165473659Y-81346775D01*
X165473656Y-81346779D01*
X165473655Y-81346781D01*
X165420808Y-81450500D01*
X165412462Y-81466879D01*
X165391379Y-81599998D01*
X164002197Y-81599998D01*
X163983126Y-81590281D01*
X163983124Y-81590280D01*
X163983121Y-81590279D01*
X163850002Y-81569196D01*
X163849998Y-81569196D01*
X163716878Y-81590279D01*
X163716874Y-81590280D01*
X163716874Y-81590281D01*
X163694903Y-81601476D01*
X163596778Y-81651473D01*
X163596774Y-81651476D01*
X163501476Y-81746774D01*
X163501473Y-81746778D01*
X163440279Y-81866878D01*
X163419196Y-81999997D01*
X156055804Y-81999997D01*
X156034720Y-81866878D01*
X156034719Y-81866876D01*
X156034719Y-81866874D01*
X155973528Y-81746780D01*
X155973526Y-81746778D01*
X155973523Y-81746774D01*
X155878225Y-81651476D01*
X155878221Y-81651473D01*
X155878220Y-81651472D01*
X155758126Y-81590281D01*
X155758124Y-81590280D01*
X155758121Y-81590279D01*
X155625002Y-81569196D01*
X155624998Y-81569196D01*
X155491878Y-81590279D01*
X155491874Y-81590280D01*
X155491874Y-81590281D01*
X155469903Y-81601476D01*
X155371778Y-81651473D01*
X155371774Y-81651476D01*
X155276476Y-81746774D01*
X155276473Y-81746778D01*
X155215279Y-81866878D01*
X155194196Y-81999997D01*
X143118900Y-81999997D01*
X143072598Y-81969059D01*
X143023034Y-81948529D01*
X142881420Y-81889870D01*
X142881412Y-81889868D01*
X142678469Y-81849500D01*
X142678465Y-81849500D01*
X142221535Y-81849500D01*
X142221530Y-81849500D01*
X142018587Y-81889868D01*
X142018579Y-81889870D01*
X141827403Y-81969058D01*
X141655342Y-82084024D01*
X141509024Y-82230342D01*
X141394058Y-82402403D01*
X141314870Y-82593579D01*
X141314868Y-82593587D01*
X141274500Y-82796530D01*
X140000000Y-82796530D01*
X140000000Y-80296530D01*
X141274500Y-80296530D01*
X141274500Y-80503469D01*
X141314868Y-80706412D01*
X141314870Y-80706420D01*
X141357658Y-80809720D01*
X141394059Y-80897598D01*
X141417795Y-80933121D01*
X141509024Y-81069657D01*
X141655342Y-81215975D01*
X141655345Y-81215977D01*
X141827402Y-81330941D01*
X142018580Y-81410130D01*
X142221530Y-81450499D01*
X142221534Y-81450500D01*
X142221535Y-81450500D01*
X142678466Y-81450500D01*
X142678467Y-81450499D01*
X142881420Y-81410130D01*
X143072598Y-81330941D01*
X143244655Y-81215977D01*
X143390977Y-81069655D01*
X143505941Y-80897598D01*
X143546369Y-80799997D01*
X158769196Y-80799997D01*
X158769196Y-80800002D01*
X158790279Y-80933121D01*
X158790280Y-80933124D01*
X158790281Y-80933126D01*
X158851472Y-81053220D01*
X158851473Y-81053221D01*
X158851476Y-81053225D01*
X158946774Y-81148523D01*
X158946778Y-81148526D01*
X158946780Y-81148528D01*
X159066874Y-81209719D01*
X159066876Y-81209719D01*
X159066878Y-81209720D01*
X159199998Y-81230804D01*
X159200000Y-81230804D01*
X159200002Y-81230804D01*
X159333121Y-81209720D01*
X159333121Y-81209719D01*
X159333126Y-81209719D01*
X159453220Y-81148528D01*
X159548528Y-81053220D01*
X159609719Y-80933126D01*
X159612678Y-80914442D01*
X159630804Y-80800002D01*
X159630804Y-80799997D01*
X159609720Y-80666878D01*
X159609719Y-80666876D01*
X159609719Y-80666874D01*
X159548528Y-80546780D01*
X159548526Y-80546778D01*
X159548523Y-80546774D01*
X159476746Y-80474997D01*
X165044196Y-80474997D01*
X165044196Y-80475002D01*
X165065279Y-80608121D01*
X165065280Y-80608124D01*
X165065281Y-80608126D01*
X165126472Y-80728220D01*
X165126473Y-80728221D01*
X165126476Y-80728225D01*
X165221774Y-80823523D01*
X165221778Y-80823526D01*
X165221780Y-80823528D01*
X165341874Y-80884719D01*
X165341876Y-80884719D01*
X165341878Y-80884720D01*
X165474998Y-80905804D01*
X165475000Y-80905804D01*
X165475002Y-80905804D01*
X165608121Y-80884720D01*
X165608121Y-80884719D01*
X165608126Y-80884719D01*
X165728220Y-80823528D01*
X165823528Y-80728220D01*
X165857667Y-80661218D01*
X166155417Y-80661218D01*
X166155417Y-80661223D01*
X166176500Y-80794342D01*
X166176501Y-80794345D01*
X166176502Y-80794347D01*
X166237693Y-80914441D01*
X166237694Y-80914442D01*
X166237697Y-80914446D01*
X166332995Y-81009744D01*
X166332999Y-81009747D01*
X166333001Y-81009749D01*
X166453095Y-81070940D01*
X166453097Y-81070940D01*
X166453099Y-81070941D01*
X166586219Y-81092025D01*
X166586221Y-81092025D01*
X166586223Y-81092025D01*
X166719342Y-81070941D01*
X166719342Y-81070940D01*
X166719347Y-81070940D01*
X166839441Y-81009749D01*
X166934749Y-80914441D01*
X166995940Y-80794347D01*
X167003197Y-80748528D01*
X167017025Y-80661223D01*
X167017025Y-80661218D01*
X166995941Y-80528099D01*
X166995940Y-80528097D01*
X166995940Y-80528095D01*
X166934749Y-80408001D01*
X166934747Y-80407999D01*
X166931894Y-80402399D01*
X166931443Y-80399997D01*
X184519196Y-80399997D01*
X184519196Y-80400002D01*
X184540279Y-80533121D01*
X184540280Y-80533124D01*
X184540281Y-80533126D01*
X184601472Y-80653220D01*
X184601473Y-80653221D01*
X184601476Y-80653225D01*
X184696774Y-80748523D01*
X184696778Y-80748526D01*
X184696780Y-80748528D01*
X184816874Y-80809719D01*
X184816876Y-80809719D01*
X184816878Y-80809720D01*
X184949998Y-80830804D01*
X184950000Y-80830804D01*
X184950002Y-80830804D01*
X185083121Y-80809720D01*
X185083121Y-80809719D01*
X185083126Y-80809719D01*
X185203220Y-80748528D01*
X185298528Y-80653220D01*
X185359719Y-80533126D01*
X185379537Y-80407999D01*
X185380804Y-80400002D01*
X185380804Y-80399997D01*
X185359720Y-80266878D01*
X185359719Y-80266876D01*
X185359719Y-80266874D01*
X185298528Y-80146780D01*
X185298526Y-80146778D01*
X185298523Y-80146774D01*
X185203225Y-80051476D01*
X185203221Y-80051473D01*
X185203220Y-80051472D01*
X185083126Y-79990281D01*
X185083124Y-79990280D01*
X185083121Y-79990279D01*
X184950002Y-79969196D01*
X184949998Y-79969196D01*
X184816878Y-79990279D01*
X184816874Y-79990280D01*
X184816874Y-79990281D01*
X184742415Y-80028220D01*
X184696778Y-80051473D01*
X184696774Y-80051476D01*
X184601476Y-80146774D01*
X184601473Y-80146778D01*
X184540279Y-80266878D01*
X184519196Y-80399997D01*
X166931443Y-80399997D01*
X166918998Y-80333730D01*
X166945274Y-80268989D01*
X166954689Y-80258431D01*
X167009901Y-80203220D01*
X167071092Y-80083126D01*
X167071093Y-80083121D01*
X167092177Y-79950002D01*
X167092177Y-79949997D01*
X167071093Y-79816878D01*
X167071092Y-79816876D01*
X167071092Y-79816874D01*
X167009901Y-79696780D01*
X167009899Y-79696778D01*
X167009896Y-79696774D01*
X166914598Y-79601476D01*
X166914594Y-79601473D01*
X166914593Y-79601472D01*
X166794499Y-79540281D01*
X166794497Y-79540280D01*
X166794494Y-79540279D01*
X166661375Y-79519196D01*
X166661371Y-79519196D01*
X166528251Y-79540279D01*
X166408151Y-79601473D01*
X166408147Y-79601476D01*
X166312849Y-79696774D01*
X166312846Y-79696778D01*
X166251652Y-79816878D01*
X166230569Y-79949997D01*
X166230569Y-79950002D01*
X166251652Y-80083123D01*
X166315699Y-80208822D01*
X166328595Y-80277491D01*
X166302318Y-80342231D01*
X166292896Y-80352797D01*
X166237694Y-80407998D01*
X166237694Y-80407999D01*
X166176500Y-80528099D01*
X166155417Y-80661218D01*
X165857667Y-80661218D01*
X165884719Y-80608126D01*
X165901295Y-80503469D01*
X165905804Y-80475002D01*
X165905804Y-80474997D01*
X165884720Y-80341878D01*
X165884719Y-80341876D01*
X165884719Y-80341874D01*
X165823528Y-80221780D01*
X165823526Y-80221778D01*
X165823523Y-80221774D01*
X165728225Y-80126476D01*
X165728221Y-80126473D01*
X165728220Y-80126472D01*
X165608126Y-80065281D01*
X165608124Y-80065280D01*
X165608121Y-80065279D01*
X165475002Y-80044196D01*
X165474998Y-80044196D01*
X165341878Y-80065279D01*
X165221778Y-80126473D01*
X165221774Y-80126476D01*
X165126476Y-80221774D01*
X165126473Y-80221778D01*
X165065279Y-80341878D01*
X165044196Y-80474997D01*
X159476746Y-80474997D01*
X159453225Y-80451476D01*
X159453221Y-80451473D01*
X159453220Y-80451472D01*
X159333126Y-80390281D01*
X159333124Y-80390280D01*
X159333121Y-80390279D01*
X159200002Y-80369196D01*
X159199998Y-80369196D01*
X159066878Y-80390279D01*
X159066874Y-80390280D01*
X159066874Y-80390281D01*
X159032097Y-80408001D01*
X158946778Y-80451473D01*
X158946774Y-80451476D01*
X158851476Y-80546774D01*
X158851473Y-80546778D01*
X158790279Y-80666878D01*
X158769196Y-80799997D01*
X143546369Y-80799997D01*
X143585130Y-80706420D01*
X143625500Y-80503465D01*
X143625500Y-80296535D01*
X143585130Y-80093580D01*
X143505941Y-79902402D01*
X143420812Y-79774997D01*
X147819196Y-79774997D01*
X147819196Y-79775002D01*
X147840279Y-79908121D01*
X147840280Y-79908124D01*
X147840281Y-79908126D01*
X147901472Y-80028220D01*
X147901473Y-80028221D01*
X147901476Y-80028225D01*
X147996774Y-80123523D01*
X147996778Y-80123526D01*
X147996780Y-80123528D01*
X148116874Y-80184719D01*
X148116876Y-80184719D01*
X148116878Y-80184720D01*
X148249998Y-80205804D01*
X148250000Y-80205804D01*
X148250002Y-80205804D01*
X148383121Y-80184720D01*
X148383121Y-80184719D01*
X148383126Y-80184719D01*
X148503220Y-80123528D01*
X148598528Y-80028220D01*
X148612908Y-79999997D01*
X149744196Y-79999997D01*
X149744196Y-80000002D01*
X149765279Y-80133121D01*
X149765280Y-80133124D01*
X149765281Y-80133126D01*
X149810453Y-80221780D01*
X149826473Y-80253221D01*
X149826476Y-80253225D01*
X149921774Y-80348523D01*
X149921778Y-80348526D01*
X149921780Y-80348528D01*
X150041874Y-80409719D01*
X150041876Y-80409719D01*
X150041878Y-80409720D01*
X150174998Y-80430804D01*
X150175000Y-80430804D01*
X150175002Y-80430804D01*
X150308121Y-80409720D01*
X150308121Y-80409719D01*
X150308126Y-80409719D01*
X150428220Y-80348528D01*
X150523528Y-80253220D01*
X150584719Y-80133126D01*
X150586239Y-80123528D01*
X150605804Y-80000002D01*
X150605804Y-79999997D01*
X150593925Y-79924997D01*
X163844196Y-79924997D01*
X163844196Y-79925002D01*
X163865279Y-80058121D01*
X163865280Y-80058124D01*
X163865281Y-80058126D01*
X163910453Y-80146780D01*
X163926473Y-80178221D01*
X163926476Y-80178225D01*
X164021774Y-80273523D01*
X164021778Y-80273526D01*
X164021780Y-80273528D01*
X164141874Y-80334719D01*
X164141876Y-80334719D01*
X164141878Y-80334720D01*
X164274998Y-80355804D01*
X164275000Y-80355804D01*
X164275002Y-80355804D01*
X164408121Y-80334720D01*
X164408121Y-80334719D01*
X164408126Y-80334719D01*
X164528220Y-80273528D01*
X164623528Y-80178220D01*
X164684719Y-80058126D01*
X164685773Y-80051472D01*
X164705804Y-79925002D01*
X164705804Y-79924997D01*
X164684720Y-79791878D01*
X164684719Y-79791876D01*
X164684719Y-79791874D01*
X164623528Y-79671780D01*
X164623526Y-79671778D01*
X164623523Y-79671774D01*
X164528225Y-79576476D01*
X164528221Y-79576473D01*
X164528220Y-79576472D01*
X164408126Y-79515281D01*
X164408124Y-79515280D01*
X164408121Y-79515279D01*
X164275002Y-79494196D01*
X164274998Y-79494196D01*
X164141878Y-79515279D01*
X164021778Y-79576473D01*
X164021774Y-79576476D01*
X163926476Y-79671774D01*
X163926473Y-79671778D01*
X163865279Y-79791878D01*
X163844196Y-79924997D01*
X150593925Y-79924997D01*
X150584720Y-79866878D01*
X150584719Y-79866876D01*
X150584719Y-79866874D01*
X150523528Y-79746780D01*
X150523526Y-79746778D01*
X150523523Y-79746774D01*
X150428225Y-79651476D01*
X150428221Y-79651473D01*
X150428220Y-79651472D01*
X150308126Y-79590281D01*
X150308124Y-79590280D01*
X150308121Y-79590279D01*
X150175002Y-79569196D01*
X150174998Y-79569196D01*
X150041878Y-79590279D01*
X150041874Y-79590280D01*
X150041874Y-79590281D01*
X150019903Y-79601476D01*
X149921778Y-79651473D01*
X149921774Y-79651476D01*
X149826476Y-79746774D01*
X149826473Y-79746778D01*
X149765279Y-79866878D01*
X149744196Y-79999997D01*
X148612908Y-79999997D01*
X148659719Y-79908126D01*
X148659720Y-79908121D01*
X148680804Y-79775002D01*
X148680804Y-79774997D01*
X148659720Y-79641878D01*
X148659719Y-79641876D01*
X148659719Y-79641874D01*
X148598528Y-79521780D01*
X148598526Y-79521778D01*
X148598523Y-79521774D01*
X148503225Y-79426476D01*
X148503221Y-79426473D01*
X148503220Y-79426472D01*
X148383126Y-79365281D01*
X148383124Y-79365280D01*
X148383121Y-79365279D01*
X148250002Y-79344196D01*
X148249998Y-79344196D01*
X148116878Y-79365279D01*
X147996778Y-79426473D01*
X147996774Y-79426476D01*
X147901476Y-79521774D01*
X147901473Y-79521778D01*
X147840279Y-79641878D01*
X147819196Y-79774997D01*
X143420812Y-79774997D01*
X143390977Y-79730345D01*
X143390975Y-79730342D01*
X143244657Y-79584024D01*
X143110218Y-79494196D01*
X143072598Y-79469059D01*
X142911556Y-79402353D01*
X142881420Y-79389870D01*
X142881412Y-79389868D01*
X142678469Y-79349500D01*
X142678465Y-79349500D01*
X142221535Y-79349500D01*
X142221530Y-79349500D01*
X142018587Y-79389868D01*
X142018579Y-79389870D01*
X141827403Y-79469058D01*
X141655342Y-79584024D01*
X141509024Y-79730342D01*
X141394058Y-79902403D01*
X141314870Y-80093579D01*
X141314868Y-80093587D01*
X141274500Y-80296530D01*
X140000000Y-80296530D01*
X140000000Y-77245730D01*
X141274500Y-77245730D01*
X141274500Y-78554269D01*
X141277353Y-78584699D01*
X141277353Y-78584701D01*
X141322206Y-78712880D01*
X141322207Y-78712882D01*
X141402850Y-78822150D01*
X141512118Y-78902793D01*
X141554845Y-78917744D01*
X141640299Y-78947646D01*
X141670730Y-78950500D01*
X141670734Y-78950500D01*
X143229270Y-78950500D01*
X143259699Y-78947646D01*
X143259701Y-78947646D01*
X143323790Y-78925219D01*
X143387882Y-78902793D01*
X143459418Y-78849997D01*
X155819196Y-78849997D01*
X155819196Y-78850002D01*
X155840279Y-78983121D01*
X155840280Y-78983124D01*
X155840281Y-78983126D01*
X155892662Y-79085929D01*
X155901473Y-79103221D01*
X155901476Y-79103225D01*
X155996774Y-79198523D01*
X155996778Y-79198526D01*
X155996780Y-79198528D01*
X156116874Y-79259719D01*
X156116876Y-79259719D01*
X156116878Y-79259720D01*
X156249998Y-79280804D01*
X156250000Y-79280804D01*
X156250002Y-79280804D01*
X156383121Y-79259720D01*
X156383121Y-79259719D01*
X156383126Y-79259719D01*
X156503220Y-79198528D01*
X156536733Y-79165015D01*
X156587319Y-79114430D01*
X156648642Y-79080945D01*
X156718334Y-79085929D01*
X156762681Y-79114430D01*
X156846774Y-79198523D01*
X156846778Y-79198526D01*
X156846780Y-79198528D01*
X156966874Y-79259719D01*
X156966876Y-79259719D01*
X156966878Y-79259720D01*
X157099998Y-79280804D01*
X157100000Y-79280804D01*
X157100002Y-79280804D01*
X157233121Y-79259720D01*
X157233121Y-79259719D01*
X157233126Y-79259719D01*
X157353220Y-79198528D01*
X157448528Y-79103220D01*
X157464515Y-79071842D01*
X157512489Y-79021046D01*
X157580310Y-79004251D01*
X157646445Y-79026788D01*
X157685484Y-79071841D01*
X157692662Y-79085929D01*
X157701471Y-79103218D01*
X157701476Y-79103225D01*
X157796774Y-79198523D01*
X157796778Y-79198526D01*
X157796780Y-79198528D01*
X157916874Y-79259719D01*
X157916876Y-79259719D01*
X157916878Y-79259720D01*
X158049998Y-79280804D01*
X158050000Y-79280804D01*
X158050002Y-79280804D01*
X158183121Y-79259720D01*
X158183121Y-79259719D01*
X158183126Y-79259719D01*
X158303220Y-79198528D01*
X158398528Y-79103220D01*
X158459719Y-78983126D01*
X158459720Y-78983121D01*
X158461007Y-78974997D01*
X177919196Y-78974997D01*
X177919196Y-78975002D01*
X177940279Y-79108121D01*
X177940280Y-79108124D01*
X177940281Y-79108126D01*
X177993712Y-79212990D01*
X178001473Y-79228221D01*
X178001476Y-79228225D01*
X178096774Y-79323523D01*
X178096778Y-79323526D01*
X178096780Y-79323528D01*
X178216874Y-79384719D01*
X178216876Y-79384719D01*
X178216878Y-79384720D01*
X178349998Y-79405804D01*
X178350000Y-79405804D01*
X178350002Y-79405804D01*
X178483121Y-79384720D01*
X178483121Y-79384719D01*
X178483126Y-79384719D01*
X178603220Y-79323528D01*
X178698528Y-79228220D01*
X178759719Y-79108126D01*
X178759720Y-79108121D01*
X178780804Y-78975002D01*
X178780804Y-78974997D01*
X178759720Y-78841878D01*
X178759719Y-78841876D01*
X178759719Y-78841874D01*
X178698528Y-78721780D01*
X178698526Y-78721778D01*
X178698523Y-78721774D01*
X178603225Y-78626476D01*
X178603221Y-78626473D01*
X178603220Y-78626472D01*
X178483126Y-78565281D01*
X178483124Y-78565280D01*
X178483121Y-78565279D01*
X178350002Y-78544196D01*
X178349998Y-78544196D01*
X178216878Y-78565279D01*
X178096778Y-78626473D01*
X178096774Y-78626476D01*
X178001476Y-78721774D01*
X178001473Y-78721778D01*
X177940279Y-78841878D01*
X177919196Y-78974997D01*
X158461007Y-78974997D01*
X158480804Y-78850002D01*
X158480804Y-78849997D01*
X158459720Y-78716878D01*
X158459719Y-78716876D01*
X158459719Y-78716874D01*
X158398528Y-78596780D01*
X158398526Y-78596778D01*
X158398523Y-78596774D01*
X158303225Y-78501476D01*
X158303221Y-78501473D01*
X158303220Y-78501472D01*
X158183126Y-78440281D01*
X158183124Y-78440280D01*
X158183121Y-78440279D01*
X158050002Y-78419196D01*
X158049998Y-78419196D01*
X157916878Y-78440279D01*
X157796778Y-78501473D01*
X157796774Y-78501476D01*
X157701476Y-78596774D01*
X157701469Y-78596783D01*
X157685484Y-78628157D01*
X157637510Y-78678953D01*
X157569689Y-78695748D01*
X157503554Y-78673210D01*
X157464516Y-78628157D01*
X157448530Y-78596783D01*
X157448523Y-78596774D01*
X157353225Y-78501476D01*
X157353221Y-78501473D01*
X157353220Y-78501472D01*
X157233126Y-78440281D01*
X157233124Y-78440280D01*
X157233121Y-78440279D01*
X157100002Y-78419196D01*
X157099998Y-78419196D01*
X156966878Y-78440279D01*
X156846778Y-78501473D01*
X156846774Y-78501476D01*
X156762681Y-78585570D01*
X156701358Y-78619055D01*
X156631666Y-78614071D01*
X156587319Y-78585570D01*
X156503225Y-78501476D01*
X156503221Y-78501473D01*
X156503220Y-78501472D01*
X156383126Y-78440281D01*
X156383124Y-78440280D01*
X156383121Y-78440279D01*
X156250002Y-78419196D01*
X156249998Y-78419196D01*
X156116878Y-78440279D01*
X155996778Y-78501473D01*
X155996774Y-78501476D01*
X155901476Y-78596774D01*
X155901473Y-78596778D01*
X155840279Y-78716878D01*
X155819196Y-78849997D01*
X143459418Y-78849997D01*
X143497150Y-78822150D01*
X143577793Y-78712882D01*
X143600219Y-78648790D01*
X143622646Y-78584701D01*
X143622646Y-78584699D01*
X143625500Y-78554269D01*
X143625500Y-77245730D01*
X143622646Y-77215300D01*
X143622646Y-77215298D01*
X143577793Y-77087119D01*
X143577792Y-77087117D01*
X143549312Y-77048528D01*
X143497150Y-76977850D01*
X143387882Y-76897207D01*
X143387880Y-76897206D01*
X143259700Y-76852353D01*
X143229270Y-76849500D01*
X143229266Y-76849500D01*
X141670734Y-76849500D01*
X141670730Y-76849500D01*
X141640300Y-76852353D01*
X141640298Y-76852353D01*
X141512119Y-76897206D01*
X141512117Y-76897207D01*
X141402850Y-76977850D01*
X141322207Y-77087117D01*
X141322206Y-77087119D01*
X141277353Y-77215298D01*
X141277353Y-77215300D01*
X141274500Y-77245730D01*
X140000000Y-77245730D01*
X140000000Y-76224997D01*
X145119196Y-76224997D01*
X145119196Y-76225002D01*
X145140279Y-76358121D01*
X145140280Y-76358124D01*
X145140281Y-76358126D01*
X145192255Y-76460130D01*
X145201473Y-76478221D01*
X145201476Y-76478225D01*
X145296774Y-76573523D01*
X145296778Y-76573526D01*
X145296780Y-76573528D01*
X145416874Y-76634719D01*
X145416876Y-76634719D01*
X145416878Y-76634720D01*
X145549998Y-76655804D01*
X145550000Y-76655804D01*
X145550002Y-76655804D01*
X145683121Y-76634720D01*
X145683121Y-76634719D01*
X145683126Y-76634719D01*
X145803220Y-76573528D01*
X145898528Y-76478220D01*
X145912908Y-76449997D01*
X165069196Y-76449997D01*
X165069196Y-76450002D01*
X165090279Y-76583121D01*
X165090280Y-76583124D01*
X165090281Y-76583126D01*
X165151472Y-76703220D01*
X165151473Y-76703221D01*
X165151476Y-76703225D01*
X165246774Y-76798523D01*
X165246778Y-76798526D01*
X165246780Y-76798528D01*
X165366874Y-76859719D01*
X165366876Y-76859719D01*
X165366878Y-76859720D01*
X165499998Y-76880804D01*
X165500000Y-76880804D01*
X165500002Y-76880804D01*
X165633121Y-76859720D01*
X165633121Y-76859719D01*
X165633126Y-76859719D01*
X165753220Y-76798528D01*
X165848528Y-76703220D01*
X165909719Y-76583126D01*
X165911239Y-76573528D01*
X165930804Y-76450002D01*
X165930804Y-76449997D01*
X165909720Y-76316878D01*
X165909719Y-76316876D01*
X165909719Y-76316874D01*
X165848528Y-76196780D01*
X165848526Y-76196778D01*
X165848523Y-76196774D01*
X165770366Y-76118617D01*
X175178506Y-76118617D01*
X175178506Y-76118622D01*
X175199589Y-76251741D01*
X175199590Y-76251744D01*
X175199591Y-76251746D01*
X175260782Y-76371840D01*
X175260783Y-76371841D01*
X175260786Y-76371845D01*
X175356084Y-76467143D01*
X175356086Y-76467144D01*
X175356090Y-76467148D01*
X175414604Y-76496962D01*
X175465400Y-76544937D01*
X175482195Y-76612758D01*
X175480782Y-76626844D01*
X175469196Y-76699996D01*
X175469196Y-76700002D01*
X175490279Y-76833121D01*
X175490280Y-76833124D01*
X175490281Y-76833126D01*
X175551472Y-76953220D01*
X175551473Y-76953221D01*
X175551476Y-76953225D01*
X175646774Y-77048523D01*
X175646778Y-77048526D01*
X175646780Y-77048528D01*
X175766874Y-77109719D01*
X175766876Y-77109719D01*
X175766878Y-77109720D01*
X175899998Y-77130804D01*
X175900000Y-77130804D01*
X175900002Y-77130804D01*
X176033121Y-77109720D01*
X176033121Y-77109719D01*
X176033126Y-77109719D01*
X176153220Y-77048528D01*
X176248528Y-76953220D01*
X176309719Y-76833126D01*
X176315698Y-76795379D01*
X176330804Y-76700002D01*
X176330804Y-76699997D01*
X176309720Y-76566878D01*
X176309719Y-76566876D01*
X176309719Y-76566874D01*
X176248528Y-76446780D01*
X176248526Y-76446778D01*
X176248523Y-76446774D01*
X176153225Y-76351476D01*
X176153221Y-76351473D01*
X176153220Y-76351472D01*
X176094702Y-76321656D01*
X176043909Y-76273684D01*
X176027114Y-76205863D01*
X176028525Y-76191784D01*
X176040114Y-76118620D01*
X176037398Y-76101473D01*
X176019030Y-75985498D01*
X176019029Y-75985496D01*
X176019029Y-75985494D01*
X175957838Y-75865400D01*
X175957836Y-75865398D01*
X175957833Y-75865394D01*
X175862535Y-75770096D01*
X175862531Y-75770093D01*
X175862530Y-75770092D01*
X175742436Y-75708901D01*
X175742434Y-75708900D01*
X175742431Y-75708899D01*
X175609312Y-75687816D01*
X175609308Y-75687816D01*
X175476188Y-75708899D01*
X175356088Y-75770093D01*
X175356084Y-75770096D01*
X175260786Y-75865394D01*
X175260783Y-75865398D01*
X175199589Y-75985498D01*
X175178506Y-76118617D01*
X165770366Y-76118617D01*
X165753225Y-76101476D01*
X165753221Y-76101473D01*
X165753220Y-76101472D01*
X165633126Y-76040281D01*
X165633124Y-76040280D01*
X165633121Y-76040279D01*
X165500002Y-76019196D01*
X165499998Y-76019196D01*
X165366878Y-76040279D01*
X165246778Y-76101473D01*
X165246774Y-76101476D01*
X165151476Y-76196774D01*
X165151473Y-76196778D01*
X165090279Y-76316878D01*
X165069196Y-76449997D01*
X145912908Y-76449997D01*
X145959719Y-76358126D01*
X145971248Y-76285337D01*
X145980804Y-76225002D01*
X145980804Y-76224997D01*
X145959720Y-76091878D01*
X145959719Y-76091876D01*
X145959719Y-76091874D01*
X145898528Y-75971780D01*
X145898526Y-75971778D01*
X145898523Y-75971774D01*
X145803225Y-75876476D01*
X145803221Y-75876473D01*
X145803220Y-75876472D01*
X145702195Y-75824997D01*
X149844196Y-75824997D01*
X149844196Y-75825002D01*
X149865279Y-75958121D01*
X149865280Y-75958124D01*
X149865281Y-75958126D01*
X149926472Y-76078220D01*
X149926473Y-76078221D01*
X149926476Y-76078225D01*
X150021774Y-76173523D01*
X150021778Y-76173526D01*
X150021780Y-76173528D01*
X150141874Y-76234719D01*
X150141876Y-76234719D01*
X150141878Y-76234720D01*
X150274998Y-76255804D01*
X150275000Y-76255804D01*
X150275002Y-76255804D01*
X150408121Y-76234720D01*
X150408121Y-76234719D01*
X150408126Y-76234719D01*
X150528220Y-76173528D01*
X150623528Y-76078220D01*
X150684719Y-75958126D01*
X150684720Y-75958121D01*
X150705804Y-75825002D01*
X150705804Y-75824997D01*
X150684720Y-75691878D01*
X150684719Y-75691876D01*
X150684719Y-75691874D01*
X150623528Y-75571780D01*
X150623526Y-75571778D01*
X150623523Y-75571774D01*
X150528225Y-75476476D01*
X150528221Y-75476473D01*
X150528220Y-75476472D01*
X150408126Y-75415281D01*
X150408124Y-75415280D01*
X150408121Y-75415279D01*
X150311630Y-75399997D01*
X184319196Y-75399997D01*
X184319196Y-75400002D01*
X184340279Y-75533121D01*
X184340280Y-75533124D01*
X184340281Y-75533126D01*
X184401472Y-75653220D01*
X184401473Y-75653221D01*
X184401476Y-75653225D01*
X184496774Y-75748523D01*
X184496778Y-75748526D01*
X184496780Y-75748528D01*
X184616874Y-75809719D01*
X184616876Y-75809719D01*
X184616878Y-75809720D01*
X184749998Y-75830804D01*
X184750000Y-75830804D01*
X184750002Y-75830804D01*
X184883121Y-75809720D01*
X184883121Y-75809719D01*
X184883126Y-75809719D01*
X185003220Y-75748528D01*
X185098528Y-75653220D01*
X185159719Y-75533126D01*
X185159720Y-75533121D01*
X185180804Y-75400002D01*
X185180804Y-75399997D01*
X185159720Y-75266878D01*
X185159719Y-75266876D01*
X185159719Y-75266874D01*
X185098528Y-75146780D01*
X185098526Y-75146778D01*
X185098523Y-75146774D01*
X185003225Y-75051476D01*
X185003221Y-75051473D01*
X185003220Y-75051472D01*
X184883126Y-74990281D01*
X184883124Y-74990280D01*
X184883121Y-74990279D01*
X184750002Y-74969196D01*
X184749998Y-74969196D01*
X184616878Y-74990279D01*
X184496778Y-75051473D01*
X184496774Y-75051476D01*
X184401476Y-75146774D01*
X184401473Y-75146778D01*
X184340279Y-75266878D01*
X184319196Y-75399997D01*
X150311630Y-75399997D01*
X150275002Y-75394196D01*
X150274998Y-75394196D01*
X150141878Y-75415279D01*
X150021778Y-75476473D01*
X150021774Y-75476476D01*
X149926476Y-75571774D01*
X149926473Y-75571778D01*
X149865279Y-75691878D01*
X149844196Y-75824997D01*
X145702195Y-75824997D01*
X145683126Y-75815281D01*
X145683124Y-75815280D01*
X145683121Y-75815279D01*
X145550002Y-75794196D01*
X145549998Y-75794196D01*
X145416878Y-75815279D01*
X145416874Y-75815280D01*
X145416874Y-75815281D01*
X145386408Y-75830804D01*
X145296778Y-75876473D01*
X145296774Y-75876476D01*
X145201476Y-75971774D01*
X145201473Y-75971778D01*
X145140279Y-76091878D01*
X145119196Y-76224997D01*
X140000000Y-76224997D01*
X140000000Y-74074997D01*
X159569196Y-74074997D01*
X159569196Y-74075002D01*
X159590279Y-74208121D01*
X159590280Y-74208124D01*
X159590281Y-74208126D01*
X159627003Y-74280196D01*
X159651473Y-74328221D01*
X159651476Y-74328225D01*
X159753680Y-74430429D01*
X159752189Y-74431919D01*
X159787032Y-74477096D01*
X159793018Y-74546708D01*
X159760418Y-74608507D01*
X159759168Y-74609775D01*
X159736819Y-74632124D01*
X159675625Y-74752224D01*
X159654542Y-74885343D01*
X159654542Y-74885348D01*
X159675625Y-75018467D01*
X159675626Y-75018470D01*
X159675627Y-75018472D01*
X159736818Y-75138566D01*
X159736819Y-75138567D01*
X159736822Y-75138571D01*
X159832120Y-75233869D01*
X159832124Y-75233872D01*
X159832126Y-75233874D01*
X159952220Y-75295065D01*
X159952222Y-75295065D01*
X159952224Y-75295066D01*
X160085344Y-75316150D01*
X160085346Y-75316150D01*
X160085348Y-75316150D01*
X160218467Y-75295066D01*
X160218467Y-75295065D01*
X160218472Y-75295065D01*
X160338566Y-75233874D01*
X160433874Y-75138566D01*
X160495065Y-75018472D01*
X160499530Y-74990281D01*
X160516150Y-74885348D01*
X160516150Y-74885343D01*
X160495066Y-74752224D01*
X160495065Y-74752222D01*
X160495065Y-74752220D01*
X160433874Y-74632126D01*
X160433872Y-74632124D01*
X160433869Y-74632120D01*
X160331666Y-74529917D01*
X160333156Y-74528426D01*
X160298312Y-74483246D01*
X160292328Y-74413633D01*
X160324930Y-74351835D01*
X160326110Y-74350637D01*
X160348528Y-74328220D01*
X160409719Y-74208126D01*
X160430804Y-74075000D01*
X160423804Y-74030804D01*
X160422884Y-74024997D01*
X166269196Y-74024997D01*
X166269196Y-74025002D01*
X166290279Y-74158121D01*
X166290280Y-74158124D01*
X166290281Y-74158126D01*
X166351472Y-74278220D01*
X166351473Y-74278221D01*
X166351476Y-74278225D01*
X166446774Y-74373523D01*
X166446778Y-74373526D01*
X166446780Y-74373528D01*
X166566874Y-74434719D01*
X166566876Y-74434719D01*
X166566878Y-74434720D01*
X166699998Y-74455804D01*
X166700000Y-74455804D01*
X166700002Y-74455804D01*
X166833121Y-74434720D01*
X166833121Y-74434719D01*
X166833126Y-74434719D01*
X166953220Y-74373528D01*
X167048528Y-74278220D01*
X167109719Y-74158126D01*
X167113679Y-74133126D01*
X167130804Y-74025002D01*
X167130804Y-74024997D01*
X167126844Y-73999997D01*
X167969196Y-73999997D01*
X167969196Y-74000002D01*
X167990279Y-74133121D01*
X167990280Y-74133124D01*
X167990281Y-74133126D01*
X168051472Y-74253220D01*
X168051473Y-74253221D01*
X168051476Y-74253225D01*
X168146774Y-74348523D01*
X168146778Y-74348526D01*
X168146780Y-74348528D01*
X168266874Y-74409719D01*
X168266876Y-74409719D01*
X168266878Y-74409720D01*
X168399998Y-74430804D01*
X168400000Y-74430804D01*
X168400002Y-74430804D01*
X168533121Y-74409720D01*
X168533121Y-74409719D01*
X168533126Y-74409719D01*
X168653220Y-74348528D01*
X168748528Y-74253220D01*
X168809719Y-74133126D01*
X168826844Y-74025002D01*
X168830804Y-74000002D01*
X168830804Y-73999997D01*
X168809720Y-73866878D01*
X168809719Y-73866876D01*
X168809719Y-73866874D01*
X168748528Y-73746780D01*
X168748526Y-73746778D01*
X168748523Y-73746774D01*
X168653225Y-73651476D01*
X168653221Y-73651473D01*
X168653220Y-73651472D01*
X168533126Y-73590281D01*
X168533124Y-73590280D01*
X168533121Y-73590279D01*
X168400002Y-73569196D01*
X168399998Y-73569196D01*
X168266878Y-73590279D01*
X168266874Y-73590280D01*
X168266874Y-73590281D01*
X168217813Y-73615279D01*
X168146778Y-73651473D01*
X168146774Y-73651476D01*
X168051476Y-73746774D01*
X168051473Y-73746778D01*
X167990279Y-73866878D01*
X167969196Y-73999997D01*
X167126844Y-73999997D01*
X167109720Y-73891878D01*
X167109719Y-73891876D01*
X167109719Y-73891874D01*
X167048528Y-73771780D01*
X167048526Y-73771778D01*
X167048523Y-73771774D01*
X166953225Y-73676476D01*
X166953221Y-73676473D01*
X166953220Y-73676472D01*
X166833126Y-73615281D01*
X166833124Y-73615280D01*
X166833121Y-73615279D01*
X166700002Y-73594196D01*
X166699998Y-73594196D01*
X166566878Y-73615279D01*
X166446778Y-73676473D01*
X166446774Y-73676476D01*
X166351476Y-73771774D01*
X166351473Y-73771778D01*
X166290279Y-73891878D01*
X166269196Y-74024997D01*
X160422884Y-74024997D01*
X160409720Y-73941878D01*
X160409719Y-73941876D01*
X160409719Y-73941874D01*
X160348528Y-73821780D01*
X160348526Y-73821778D01*
X160348523Y-73821774D01*
X160253225Y-73726476D01*
X160253221Y-73726473D01*
X160253220Y-73726472D01*
X160133126Y-73665281D01*
X160133124Y-73665280D01*
X160133121Y-73665279D01*
X160000002Y-73644196D01*
X159999998Y-73644196D01*
X159866878Y-73665279D01*
X159866874Y-73665280D01*
X159866874Y-73665281D01*
X159844903Y-73676476D01*
X159746778Y-73726473D01*
X159746774Y-73726476D01*
X159651476Y-73821774D01*
X159651473Y-73821778D01*
X159590279Y-73941878D01*
X159569196Y-74074997D01*
X140000000Y-74074997D01*
X140000000Y-72824997D01*
X159669196Y-72824997D01*
X159669196Y-72825002D01*
X159690279Y-72958121D01*
X159690280Y-72958124D01*
X159690281Y-72958126D01*
X159751118Y-73077525D01*
X159751473Y-73078221D01*
X159751476Y-73078225D01*
X159846774Y-73173523D01*
X159846778Y-73173526D01*
X159846780Y-73173528D01*
X159966874Y-73234719D01*
X159966876Y-73234719D01*
X159966878Y-73234720D01*
X160099998Y-73255804D01*
X160100000Y-73255804D01*
X160100002Y-73255804D01*
X160233121Y-73234720D01*
X160233121Y-73234719D01*
X160233126Y-73234719D01*
X160353220Y-73173528D01*
X160448528Y-73078220D01*
X160509719Y-72958126D01*
X160513679Y-72933126D01*
X160514966Y-72924997D01*
X163644196Y-72924997D01*
X163644196Y-72925002D01*
X163665279Y-73058121D01*
X163665280Y-73058124D01*
X163665281Y-73058126D01*
X163726472Y-73178220D01*
X163726473Y-73178221D01*
X163726476Y-73178225D01*
X163821774Y-73273523D01*
X163821778Y-73273526D01*
X163821780Y-73273528D01*
X163941874Y-73334719D01*
X163941876Y-73334719D01*
X163941878Y-73334720D01*
X164074998Y-73355804D01*
X164075000Y-73355804D01*
X164075002Y-73355804D01*
X164208122Y-73334720D01*
X164208123Y-73334719D01*
X164208126Y-73334719D01*
X164256454Y-73310094D01*
X164325120Y-73297198D01*
X164389861Y-73323473D01*
X164430118Y-73380579D01*
X164435220Y-73401179D01*
X164440279Y-73433122D01*
X164440280Y-73433125D01*
X164440281Y-73433126D01*
X164457476Y-73466874D01*
X164501473Y-73553221D01*
X164501476Y-73553225D01*
X164596774Y-73648523D01*
X164596778Y-73648526D01*
X164596780Y-73648528D01*
X164716874Y-73709719D01*
X164716876Y-73709719D01*
X164716878Y-73709720D01*
X164849998Y-73730804D01*
X164850000Y-73730804D01*
X164850002Y-73730804D01*
X164983121Y-73709720D01*
X164983121Y-73709719D01*
X164983126Y-73709719D01*
X165103220Y-73648528D01*
X165198528Y-73553220D01*
X165258758Y-73435012D01*
X170698467Y-73435012D01*
X170698467Y-73435017D01*
X170719550Y-73568136D01*
X170719551Y-73568139D01*
X170719552Y-73568141D01*
X170780743Y-73688235D01*
X170780744Y-73688236D01*
X170780747Y-73688240D01*
X170876045Y-73783538D01*
X170876049Y-73783541D01*
X170876051Y-73783543D01*
X170996145Y-73844734D01*
X170996147Y-73844734D01*
X170996149Y-73844735D01*
X171129269Y-73865819D01*
X171129271Y-73865819D01*
X171129273Y-73865819D01*
X171262392Y-73844735D01*
X171262392Y-73844734D01*
X171262397Y-73844734D01*
X171382491Y-73783543D01*
X171477799Y-73688235D01*
X171522759Y-73599997D01*
X175969196Y-73599997D01*
X175969196Y-73600002D01*
X175990279Y-73733121D01*
X175990280Y-73733124D01*
X175990281Y-73733126D01*
X176047149Y-73844735D01*
X176051473Y-73853221D01*
X176051476Y-73853225D01*
X176146774Y-73948523D01*
X176146778Y-73948526D01*
X176146780Y-73948528D01*
X176266874Y-74009719D01*
X176266876Y-74009719D01*
X176266878Y-74009720D01*
X176399998Y-74030804D01*
X176400000Y-74030804D01*
X176400002Y-74030804D01*
X176533121Y-74009720D01*
X176533121Y-74009719D01*
X176533126Y-74009719D01*
X176653220Y-73948528D01*
X176748528Y-73853220D01*
X176809719Y-73733126D01*
X176813426Y-73709720D01*
X176830804Y-73600002D01*
X176830804Y-73599997D01*
X176809720Y-73466878D01*
X176809719Y-73466876D01*
X176809719Y-73466874D01*
X176748528Y-73346780D01*
X176748526Y-73346778D01*
X176748523Y-73346774D01*
X176653225Y-73251476D01*
X176653221Y-73251473D01*
X176653220Y-73251472D01*
X176533126Y-73190281D01*
X176533124Y-73190280D01*
X176533121Y-73190279D01*
X176400002Y-73169196D01*
X176399998Y-73169196D01*
X176266878Y-73190279D01*
X176146778Y-73251473D01*
X176146774Y-73251476D01*
X176051476Y-73346774D01*
X176051473Y-73346778D01*
X176051472Y-73346780D01*
X176007477Y-73433126D01*
X175990279Y-73466878D01*
X175969196Y-73599997D01*
X171522759Y-73599997D01*
X171538990Y-73568141D01*
X171538991Y-73568136D01*
X171560075Y-73435017D01*
X171560075Y-73435012D01*
X171538991Y-73301891D01*
X171538027Y-73300000D01*
X171496492Y-73218482D01*
X171474309Y-73174945D01*
X171461413Y-73106276D01*
X171473932Y-73075430D01*
X171461192Y-73084412D01*
X171391387Y-73087404D01*
X171364907Y-73077527D01*
X171262397Y-73025296D01*
X171262395Y-73025295D01*
X171262392Y-73025294D01*
X171129273Y-73004211D01*
X171129269Y-73004211D01*
X170996149Y-73025294D01*
X170876049Y-73086488D01*
X170876045Y-73086491D01*
X170780747Y-73181789D01*
X170780744Y-73181793D01*
X170780743Y-73181795D01*
X170720514Y-73300002D01*
X170719550Y-73301893D01*
X170698467Y-73435012D01*
X165258758Y-73435012D01*
X165259719Y-73433126D01*
X165273396Y-73346774D01*
X165280804Y-73300002D01*
X165280804Y-73299997D01*
X165264764Y-73198726D01*
X165273719Y-73129433D01*
X165318715Y-73075981D01*
X165385466Y-73055341D01*
X165391938Y-73055804D01*
X165400000Y-73055804D01*
X165400002Y-73055804D01*
X165533121Y-73034720D01*
X165533121Y-73034719D01*
X165533126Y-73034719D01*
X165653220Y-72973528D01*
X165748528Y-72878220D01*
X165788385Y-72799997D01*
X169669196Y-72799997D01*
X169669196Y-72800002D01*
X169690279Y-72933121D01*
X169690280Y-72933124D01*
X169690281Y-72933126D01*
X169742046Y-73034720D01*
X169751473Y-73053221D01*
X169751476Y-73053225D01*
X169846774Y-73148523D01*
X169846778Y-73148526D01*
X169846780Y-73148528D01*
X169966874Y-73209719D01*
X169966876Y-73209719D01*
X169966878Y-73209720D01*
X170099998Y-73230804D01*
X170100000Y-73230804D01*
X170100002Y-73230804D01*
X170233121Y-73209720D01*
X170233121Y-73209719D01*
X170233126Y-73209719D01*
X170353220Y-73148528D01*
X170448528Y-73053220D01*
X170509719Y-72933126D01*
X170509720Y-72933121D01*
X170530804Y-72800002D01*
X170530804Y-72799997D01*
X170509720Y-72666878D01*
X170509719Y-72666876D01*
X170509719Y-72666874D01*
X170501465Y-72650674D01*
X171445915Y-72650674D01*
X171445915Y-72650679D01*
X171466998Y-72783800D01*
X171531680Y-72910746D01*
X171544576Y-72979415D01*
X171532056Y-73010259D01*
X171544796Y-73001279D01*
X171614602Y-72998287D01*
X171641084Y-73008165D01*
X171743593Y-73060396D01*
X171784178Y-73066824D01*
X171876717Y-73081481D01*
X171876719Y-73081481D01*
X171876721Y-73081481D01*
X172009840Y-73060397D01*
X172009840Y-73060396D01*
X172009845Y-73060396D01*
X172129939Y-72999205D01*
X172225247Y-72903897D01*
X172271255Y-72813601D01*
X172582800Y-72813601D01*
X172582800Y-72813606D01*
X172603883Y-72946725D01*
X172603884Y-72946728D01*
X172603885Y-72946730D01*
X172665076Y-73066824D01*
X172665077Y-73066825D01*
X172665080Y-73066829D01*
X172760378Y-73162127D01*
X172760382Y-73162130D01*
X172760384Y-73162132D01*
X172880478Y-73223323D01*
X172880480Y-73223323D01*
X172880482Y-73223324D01*
X173013602Y-73244408D01*
X173013604Y-73244408D01*
X173013606Y-73244408D01*
X173146725Y-73223324D01*
X173146725Y-73223323D01*
X173146730Y-73223323D01*
X173266824Y-73162132D01*
X173343603Y-73085353D01*
X177354551Y-73085353D01*
X177354551Y-73085358D01*
X177375634Y-73218477D01*
X177375635Y-73218480D01*
X177375636Y-73218482D01*
X177436827Y-73338576D01*
X177436828Y-73338577D01*
X177436831Y-73338581D01*
X177532129Y-73433879D01*
X177532133Y-73433882D01*
X177532135Y-73433884D01*
X177652229Y-73495075D01*
X177652231Y-73495075D01*
X177652233Y-73495076D01*
X177785353Y-73516160D01*
X177785355Y-73516160D01*
X177785357Y-73516160D01*
X177918476Y-73495076D01*
X177918476Y-73495075D01*
X177918481Y-73495075D01*
X178038575Y-73433884D01*
X178133883Y-73338576D01*
X178195074Y-73218482D01*
X178202194Y-73173528D01*
X178216159Y-73085358D01*
X178216159Y-73085353D01*
X178195075Y-72952234D01*
X178195074Y-72952232D01*
X178195074Y-72952230D01*
X178133883Y-72832136D01*
X178133881Y-72832134D01*
X178133878Y-72832130D01*
X178038580Y-72736832D01*
X178038576Y-72736829D01*
X178038575Y-72736828D01*
X177966296Y-72700000D01*
X189997769Y-72700000D01*
X191045854Y-72700000D01*
X191007370Y-72766657D01*
X190975000Y-72887465D01*
X190975000Y-73012535D01*
X191007370Y-73133343D01*
X191045854Y-73200000D01*
X189997769Y-73200000D01*
X190008242Y-73266126D01*
X190008242Y-73266129D01*
X190073904Y-73468217D01*
X190170379Y-73657557D01*
X190295272Y-73829459D01*
X190295276Y-73829464D01*
X190445535Y-73979723D01*
X190445540Y-73979727D01*
X190617442Y-74104620D01*
X190806782Y-74201095D01*
X190928855Y-74240759D01*
X190986530Y-74280196D01*
X191013729Y-74344555D01*
X191001815Y-74413401D01*
X190954570Y-74464877D01*
X190937990Y-74473251D01*
X190827404Y-74519057D01*
X190655342Y-74634024D01*
X190509024Y-74780342D01*
X190394058Y-74952403D01*
X190314870Y-75143579D01*
X190314868Y-75143587D01*
X190274500Y-75346530D01*
X190274500Y-75553469D01*
X190313300Y-75748528D01*
X190314870Y-75756420D01*
X190394059Y-75947598D01*
X190410217Y-75971780D01*
X190509024Y-76119657D01*
X190655342Y-76265975D01*
X190655345Y-76265977D01*
X190827402Y-76380941D01*
X190937990Y-76426748D01*
X190992393Y-76470589D01*
X191014458Y-76536883D01*
X190997179Y-76604582D01*
X190946042Y-76652193D01*
X190928856Y-76659240D01*
X190806781Y-76698905D01*
X190617442Y-76795379D01*
X190445540Y-76920272D01*
X190445535Y-76920276D01*
X190295276Y-77070535D01*
X190295272Y-77070540D01*
X190170379Y-77242442D01*
X190073904Y-77431782D01*
X190008242Y-77633870D01*
X190008242Y-77633873D01*
X189997769Y-77700000D01*
X191045854Y-77700000D01*
X191007370Y-77766657D01*
X190975000Y-77887465D01*
X190975000Y-78012535D01*
X191007370Y-78133343D01*
X191045854Y-78200000D01*
X189997769Y-78200000D01*
X190008242Y-78266126D01*
X190008242Y-78266129D01*
X190073904Y-78468217D01*
X190170379Y-78657557D01*
X190295272Y-78829459D01*
X190295276Y-78829464D01*
X190445535Y-78979723D01*
X190445540Y-78979727D01*
X190617442Y-79104620D01*
X190735971Y-79165015D01*
X190786767Y-79212990D01*
X190803562Y-79280811D01*
X190781024Y-79346946D01*
X190726309Y-79390397D01*
X190679676Y-79399500D01*
X190670730Y-79399500D01*
X190640300Y-79402353D01*
X190640298Y-79402353D01*
X190512119Y-79447206D01*
X190512117Y-79447207D01*
X190402850Y-79527850D01*
X190322207Y-79637117D01*
X190322206Y-79637119D01*
X190277353Y-79765298D01*
X190277353Y-79765300D01*
X190274500Y-79795730D01*
X190274500Y-81104269D01*
X190277353Y-81134699D01*
X190277353Y-81134701D01*
X190318215Y-81251474D01*
X190322207Y-81262882D01*
X190402850Y-81372150D01*
X190512118Y-81452793D01*
X190552362Y-81466875D01*
X190640299Y-81497646D01*
X190670730Y-81500500D01*
X190670734Y-81500500D01*
X192229270Y-81500500D01*
X192259699Y-81497646D01*
X192259701Y-81497646D01*
X192347626Y-81466879D01*
X192387882Y-81452793D01*
X192497150Y-81372150D01*
X192577793Y-81262882D01*
X192603197Y-81190282D01*
X192622646Y-81134701D01*
X192622646Y-81134699D01*
X192625500Y-81104269D01*
X192625500Y-79795730D01*
X192622646Y-79765300D01*
X192622646Y-79765298D01*
X192582816Y-79651473D01*
X192577793Y-79637118D01*
X192497150Y-79527850D01*
X192387882Y-79447207D01*
X192387880Y-79447206D01*
X192259700Y-79402353D01*
X192229270Y-79399500D01*
X192229266Y-79399500D01*
X192220324Y-79399500D01*
X192153285Y-79379815D01*
X192107530Y-79327011D01*
X192097586Y-79257853D01*
X192126611Y-79194297D01*
X192164029Y-79165015D01*
X192282557Y-79104620D01*
X192454459Y-78979727D01*
X192454464Y-78979723D01*
X192604723Y-78829464D01*
X192604727Y-78829459D01*
X192729620Y-78657557D01*
X192826095Y-78468217D01*
X192891757Y-78266129D01*
X192891757Y-78266126D01*
X192902231Y-78200000D01*
X191854146Y-78200000D01*
X191892630Y-78133343D01*
X191925000Y-78012535D01*
X191925000Y-77887465D01*
X191892630Y-77766657D01*
X191854146Y-77700000D01*
X192902231Y-77700000D01*
X192891757Y-77633873D01*
X192891757Y-77633870D01*
X192826095Y-77431782D01*
X192729620Y-77242442D01*
X192604727Y-77070540D01*
X192604723Y-77070535D01*
X192454464Y-76920276D01*
X192454459Y-76920272D01*
X192282557Y-76795379D01*
X192093216Y-76698904D01*
X191971144Y-76659240D01*
X191913468Y-76619802D01*
X191886270Y-76555444D01*
X191898185Y-76486597D01*
X191945429Y-76435122D01*
X191962006Y-76426749D01*
X192072598Y-76380941D01*
X192244655Y-76265977D01*
X192390977Y-76119655D01*
X192505941Y-75947598D01*
X192585130Y-75756420D01*
X192625500Y-75553465D01*
X192625500Y-75346535D01*
X192585130Y-75143580D01*
X192505941Y-74952402D01*
X192390977Y-74780345D01*
X192390975Y-74780342D01*
X192244657Y-74634024D01*
X192072596Y-74519057D01*
X191962009Y-74473251D01*
X191907606Y-74429410D01*
X191885541Y-74363116D01*
X191902820Y-74295416D01*
X191953958Y-74247806D01*
X191971144Y-74240759D01*
X192093217Y-74201095D01*
X192282557Y-74104620D01*
X192454459Y-73979727D01*
X192454464Y-73979723D01*
X192604723Y-73829464D01*
X192604727Y-73829459D01*
X192729620Y-73657557D01*
X192826095Y-73468217D01*
X192891757Y-73266129D01*
X192891757Y-73266126D01*
X192902231Y-73200000D01*
X191854146Y-73200000D01*
X191892630Y-73133343D01*
X191925000Y-73012535D01*
X191925000Y-72887465D01*
X191892630Y-72766657D01*
X191854146Y-72700000D01*
X192902231Y-72700000D01*
X192891757Y-72633873D01*
X192891757Y-72633870D01*
X192826095Y-72431782D01*
X192729620Y-72242442D01*
X192604727Y-72070540D01*
X192604723Y-72070535D01*
X192454464Y-71920276D01*
X192454459Y-71920272D01*
X192282557Y-71795379D01*
X192093217Y-71698904D01*
X191891128Y-71633242D01*
X191700000Y-71602969D01*
X191700000Y-72545854D01*
X191633343Y-72507370D01*
X191512535Y-72475000D01*
X191387465Y-72475000D01*
X191266657Y-72507370D01*
X191200000Y-72545854D01*
X191200000Y-71602969D01*
X191008872Y-71633242D01*
X191008869Y-71633242D01*
X190806782Y-71698904D01*
X190617442Y-71795379D01*
X190445540Y-71920272D01*
X190445535Y-71920276D01*
X190295276Y-72070535D01*
X190295272Y-72070540D01*
X190170379Y-72242442D01*
X190073904Y-72431782D01*
X190008242Y-72633870D01*
X190008242Y-72633873D01*
X189997769Y-72700000D01*
X177966296Y-72700000D01*
X177918481Y-72675637D01*
X177918479Y-72675636D01*
X177918476Y-72675635D01*
X177785357Y-72654552D01*
X177785353Y-72654552D01*
X177652233Y-72675635D01*
X177532133Y-72736829D01*
X177532129Y-72736832D01*
X177436831Y-72832130D01*
X177436828Y-72832134D01*
X177375634Y-72952234D01*
X177354551Y-73085353D01*
X173343603Y-73085353D01*
X173362132Y-73066824D01*
X173423323Y-72946730D01*
X173425478Y-72933126D01*
X173444408Y-72813606D01*
X173444408Y-72813601D01*
X173423324Y-72680482D01*
X173423323Y-72680480D01*
X173423323Y-72680478D01*
X173362132Y-72560384D01*
X173362130Y-72560382D01*
X173362127Y-72560378D01*
X173266829Y-72465080D01*
X173266825Y-72465077D01*
X173266824Y-72465076D01*
X173146730Y-72403885D01*
X173146728Y-72403884D01*
X173146725Y-72403883D01*
X173013606Y-72382800D01*
X173013602Y-72382800D01*
X172880482Y-72403883D01*
X172760382Y-72465077D01*
X172760378Y-72465080D01*
X172665080Y-72560378D01*
X172665077Y-72560382D01*
X172603883Y-72680482D01*
X172582800Y-72813601D01*
X172271255Y-72813601D01*
X172286438Y-72783803D01*
X172290506Y-72758121D01*
X172307523Y-72650679D01*
X172307523Y-72650674D01*
X172286439Y-72517555D01*
X172286438Y-72517553D01*
X172286438Y-72517551D01*
X172225247Y-72397457D01*
X172225245Y-72397455D01*
X172225242Y-72397451D01*
X172129944Y-72302153D01*
X172129940Y-72302150D01*
X172129939Y-72302149D01*
X172009845Y-72240958D01*
X172009843Y-72240957D01*
X172009840Y-72240956D01*
X171876721Y-72219873D01*
X171876717Y-72219873D01*
X171743597Y-72240956D01*
X171743593Y-72240957D01*
X171743593Y-72240958D01*
X171706771Y-72259720D01*
X171623497Y-72302150D01*
X171623493Y-72302153D01*
X171528195Y-72397451D01*
X171528192Y-72397455D01*
X171528191Y-72397457D01*
X171472188Y-72507370D01*
X171466998Y-72517555D01*
X171445915Y-72650674D01*
X170501465Y-72650674D01*
X170448528Y-72546780D01*
X170448526Y-72546778D01*
X170448523Y-72546774D01*
X170353225Y-72451476D01*
X170353221Y-72451473D01*
X170353220Y-72451472D01*
X170233126Y-72390281D01*
X170233124Y-72390280D01*
X170233121Y-72390279D01*
X170100002Y-72369196D01*
X170099998Y-72369196D01*
X169966878Y-72390279D01*
X169846778Y-72451473D01*
X169846774Y-72451476D01*
X169751476Y-72546774D01*
X169751473Y-72546778D01*
X169751472Y-72546780D01*
X169698625Y-72650499D01*
X169690279Y-72666878D01*
X169669196Y-72799997D01*
X165788385Y-72799997D01*
X165809719Y-72758126D01*
X165820212Y-72691878D01*
X165830804Y-72625002D01*
X165830804Y-72624997D01*
X165809720Y-72491878D01*
X165809719Y-72491876D01*
X165809719Y-72491874D01*
X165748528Y-72371780D01*
X165748526Y-72371778D01*
X165748523Y-72371774D01*
X165653225Y-72276476D01*
X165653221Y-72276473D01*
X165653220Y-72276472D01*
X165533126Y-72215281D01*
X165533124Y-72215280D01*
X165533121Y-72215279D01*
X165400002Y-72194196D01*
X165399998Y-72194196D01*
X165266878Y-72215279D01*
X165146778Y-72276473D01*
X165146774Y-72276476D01*
X165051476Y-72371774D01*
X165051473Y-72371778D01*
X164990279Y-72491878D01*
X164969196Y-72624997D01*
X164969196Y-72625003D01*
X164985235Y-72726274D01*
X164976280Y-72795567D01*
X164931284Y-72849019D01*
X164864532Y-72869658D01*
X164858063Y-72869196D01*
X164849998Y-72869196D01*
X164716876Y-72890279D01*
X164668546Y-72914905D01*
X164599876Y-72927801D01*
X164535136Y-72901524D01*
X164494880Y-72844417D01*
X164489779Y-72823818D01*
X164484720Y-72791878D01*
X164484719Y-72791876D01*
X164484719Y-72791874D01*
X164423528Y-72671780D01*
X164423526Y-72671778D01*
X164423523Y-72671774D01*
X164328225Y-72576476D01*
X164328221Y-72576473D01*
X164328220Y-72576472D01*
X164208126Y-72515281D01*
X164208123Y-72515280D01*
X164201102Y-72511703D01*
X164150306Y-72463729D01*
X164144977Y-72442212D01*
X164143951Y-72445226D01*
X164089236Y-72488678D01*
X164062000Y-72496254D01*
X163941878Y-72515279D01*
X163821778Y-72576473D01*
X163821774Y-72576476D01*
X163726476Y-72671774D01*
X163726473Y-72671778D01*
X163726472Y-72671780D01*
X163682477Y-72758126D01*
X163665279Y-72791878D01*
X163644196Y-72924997D01*
X160514966Y-72924997D01*
X160530804Y-72825002D01*
X160530804Y-72824997D01*
X160509720Y-72691878D01*
X160509719Y-72691876D01*
X160509719Y-72691874D01*
X160448528Y-72571780D01*
X160448526Y-72571778D01*
X160448523Y-72571774D01*
X160353225Y-72476476D01*
X160353221Y-72476473D01*
X160353220Y-72476472D01*
X160233126Y-72415281D01*
X160233124Y-72415280D01*
X160233121Y-72415279D01*
X160100002Y-72394196D01*
X160099998Y-72394196D01*
X159966878Y-72415279D01*
X159846778Y-72476473D01*
X159846774Y-72476476D01*
X159751476Y-72571774D01*
X159751473Y-72571778D01*
X159690279Y-72691878D01*
X159669196Y-72824997D01*
X140000000Y-72824997D01*
X140000000Y-71496530D01*
X141249500Y-71496530D01*
X141249500Y-71703469D01*
X141289868Y-71906412D01*
X141289870Y-71906420D01*
X141329966Y-72003221D01*
X141369059Y-72097598D01*
X141372816Y-72103221D01*
X141484024Y-72269657D01*
X141630342Y-72415975D01*
X141630345Y-72415977D01*
X141802402Y-72530941D01*
X141993580Y-72610130D01*
X142196530Y-72650499D01*
X142196534Y-72650500D01*
X142196535Y-72650500D01*
X142703466Y-72650500D01*
X142703467Y-72650499D01*
X142906420Y-72610130D01*
X143097598Y-72530941D01*
X143269655Y-72415977D01*
X143415977Y-72269655D01*
X143530941Y-72097598D01*
X143610130Y-71906420D01*
X143621353Y-71849997D01*
X163794196Y-71849997D01*
X163794196Y-71850002D01*
X163815279Y-71983121D01*
X163815280Y-71983124D01*
X163815281Y-71983126D01*
X163876472Y-72103220D01*
X163876473Y-72103221D01*
X163876476Y-72103225D01*
X163971774Y-72198523D01*
X163971777Y-72198525D01*
X163971780Y-72198528D01*
X164091874Y-72259719D01*
X164091876Y-72259719D01*
X164098896Y-72263296D01*
X164149693Y-72311270D01*
X164155021Y-72332786D01*
X164156048Y-72329773D01*
X164210763Y-72286321D01*
X164238000Y-72278745D01*
X164358121Y-72259720D01*
X164358121Y-72259719D01*
X164358126Y-72259719D01*
X164478220Y-72198528D01*
X164573528Y-72103220D01*
X164634719Y-71983126D01*
X164634720Y-71983121D01*
X164655804Y-71850002D01*
X164655804Y-71849997D01*
X164639966Y-71749997D01*
X165994196Y-71749997D01*
X165994196Y-71750002D01*
X166015279Y-71883121D01*
X166015280Y-71883124D01*
X166015281Y-71883126D01*
X166066234Y-71983126D01*
X166076473Y-72003221D01*
X166076476Y-72003225D01*
X166171774Y-72098523D01*
X166171778Y-72098526D01*
X166171780Y-72098528D01*
X166291874Y-72159719D01*
X166291876Y-72159719D01*
X166291878Y-72159720D01*
X166424998Y-72180804D01*
X166425000Y-72180804D01*
X166425002Y-72180804D01*
X166558121Y-72159720D01*
X166558121Y-72159719D01*
X166558126Y-72159719D01*
X166678220Y-72098528D01*
X166773528Y-72003220D01*
X166834719Y-71883126D01*
X166834720Y-71883121D01*
X166855804Y-71750002D01*
X166855804Y-71749997D01*
X166834720Y-71616878D01*
X166834719Y-71616876D01*
X166834719Y-71616874D01*
X166773528Y-71496780D01*
X166773526Y-71496778D01*
X166773523Y-71496774D01*
X166678225Y-71401476D01*
X166678221Y-71401473D01*
X166678220Y-71401472D01*
X166558126Y-71340281D01*
X166558124Y-71340280D01*
X166558121Y-71340279D01*
X166425002Y-71319196D01*
X166424998Y-71319196D01*
X166291878Y-71340279D01*
X166171778Y-71401473D01*
X166171774Y-71401476D01*
X166076476Y-71496774D01*
X166076473Y-71496778D01*
X166015279Y-71616878D01*
X165994196Y-71749997D01*
X164639966Y-71749997D01*
X164634720Y-71716878D01*
X164634719Y-71716876D01*
X164634719Y-71716874D01*
X164573528Y-71596780D01*
X164573526Y-71596778D01*
X164573523Y-71596774D01*
X164478225Y-71501476D01*
X164478221Y-71501473D01*
X164478220Y-71501472D01*
X164358126Y-71440281D01*
X164358124Y-71440280D01*
X164358121Y-71440279D01*
X164225002Y-71419196D01*
X164224998Y-71419196D01*
X164091878Y-71440279D01*
X163971778Y-71501473D01*
X163971774Y-71501476D01*
X163876476Y-71596774D01*
X163876473Y-71596778D01*
X163815279Y-71716878D01*
X163794196Y-71849997D01*
X143621353Y-71849997D01*
X143650500Y-71703465D01*
X143650500Y-71496535D01*
X143610130Y-71293580D01*
X143530941Y-71102402D01*
X143415977Y-70930345D01*
X143415975Y-70930342D01*
X143269657Y-70784024D01*
X143181316Y-70724997D01*
X150494196Y-70724997D01*
X150494196Y-70725002D01*
X150515279Y-70858121D01*
X150515280Y-70858124D01*
X150515281Y-70858126D01*
X150576472Y-70978220D01*
X150576473Y-70978221D01*
X150576476Y-70978225D01*
X150671774Y-71073523D01*
X150671778Y-71073526D01*
X150671780Y-71073528D01*
X150791874Y-71134719D01*
X150791876Y-71134719D01*
X150791878Y-71134720D01*
X150924998Y-71155804D01*
X150925000Y-71155804D01*
X150925002Y-71155804D01*
X151058121Y-71134720D01*
X151058121Y-71134719D01*
X151058126Y-71134719D01*
X151178220Y-71073528D01*
X151273528Y-70978220D01*
X151313385Y-70899997D01*
X156269196Y-70899997D01*
X156269196Y-70900002D01*
X156290279Y-71033121D01*
X156290280Y-71033124D01*
X156290281Y-71033126D01*
X156342046Y-71134720D01*
X156351473Y-71153221D01*
X156351476Y-71153225D01*
X156446774Y-71248523D01*
X156446778Y-71248526D01*
X156446780Y-71248528D01*
X156566874Y-71309719D01*
X156566876Y-71309719D01*
X156566878Y-71309720D01*
X156699998Y-71330804D01*
X156700000Y-71330804D01*
X156700002Y-71330804D01*
X156833121Y-71309720D01*
X156833121Y-71309719D01*
X156833126Y-71309719D01*
X156953220Y-71248528D01*
X157048528Y-71153220D01*
X157109719Y-71033126D01*
X157117179Y-70986026D01*
X157130804Y-70900002D01*
X157130804Y-70899997D01*
X157109720Y-70766878D01*
X157109719Y-70766876D01*
X157109719Y-70766874D01*
X157048528Y-70646780D01*
X157048526Y-70646778D01*
X157048523Y-70646774D01*
X156953225Y-70551476D01*
X156953221Y-70551473D01*
X156953220Y-70551472D01*
X156833126Y-70490281D01*
X156833124Y-70490280D01*
X156833121Y-70490279D01*
X156700002Y-70469196D01*
X156699998Y-70469196D01*
X156566878Y-70490279D01*
X156566874Y-70490280D01*
X156566874Y-70490281D01*
X156539215Y-70504374D01*
X156446778Y-70551473D01*
X156446774Y-70551476D01*
X156351476Y-70646774D01*
X156351473Y-70646778D01*
X156290279Y-70766878D01*
X156269196Y-70899997D01*
X151313385Y-70899997D01*
X151334719Y-70858126D01*
X151336239Y-70848528D01*
X151355804Y-70725002D01*
X151355804Y-70724997D01*
X151334720Y-70591878D01*
X151334719Y-70591876D01*
X151334719Y-70591874D01*
X151273528Y-70471780D01*
X151273526Y-70471778D01*
X151273523Y-70471774D01*
X151178225Y-70376476D01*
X151178221Y-70376473D01*
X151178220Y-70376472D01*
X151175325Y-70374997D01*
X158844196Y-70374997D01*
X158844196Y-70375002D01*
X158865279Y-70508121D01*
X158865280Y-70508124D01*
X158865281Y-70508126D01*
X158887369Y-70551476D01*
X158926473Y-70628221D01*
X158926476Y-70628225D01*
X159021774Y-70723523D01*
X159021778Y-70723526D01*
X159021780Y-70723528D01*
X159141874Y-70784719D01*
X159141876Y-70784719D01*
X159141878Y-70784720D01*
X159274998Y-70805804D01*
X159275000Y-70805804D01*
X159275002Y-70805804D01*
X159408121Y-70784720D01*
X159408121Y-70784719D01*
X159408126Y-70784719D01*
X159528220Y-70723528D01*
X159623528Y-70628220D01*
X159684719Y-70508126D01*
X159686007Y-70499997D01*
X159701622Y-70401406D01*
X163570605Y-70401406D01*
X163570605Y-70401411D01*
X163591688Y-70534530D01*
X163591689Y-70534533D01*
X163591690Y-70534535D01*
X163648879Y-70646774D01*
X163652882Y-70654630D01*
X163652885Y-70654634D01*
X163748183Y-70749932D01*
X163748187Y-70749935D01*
X163748189Y-70749937D01*
X163868283Y-70811128D01*
X163868285Y-70811128D01*
X163868287Y-70811129D01*
X164001407Y-70832213D01*
X164001409Y-70832213D01*
X164001411Y-70832213D01*
X164134530Y-70811129D01*
X164134530Y-70811128D01*
X164134535Y-70811128D01*
X164254629Y-70749937D01*
X164349937Y-70654629D01*
X164358666Y-70637497D01*
X175131696Y-70637497D01*
X175131696Y-70637502D01*
X175152779Y-70770621D01*
X175152780Y-70770624D01*
X175152781Y-70770626D01*
X175197362Y-70858121D01*
X175213973Y-70890721D01*
X175213976Y-70890725D01*
X175309274Y-70986023D01*
X175309278Y-70986026D01*
X175309280Y-70986028D01*
X175429374Y-71047219D01*
X175429376Y-71047219D01*
X175429378Y-71047220D01*
X175562498Y-71068304D01*
X175562500Y-71068304D01*
X175562502Y-71068304D01*
X175695621Y-71047220D01*
X175695621Y-71047219D01*
X175695626Y-71047219D01*
X175815720Y-70986028D01*
X175911028Y-70890720D01*
X175972219Y-70770626D01*
X175979445Y-70725002D01*
X175993304Y-70637502D01*
X175993304Y-70637497D01*
X175972220Y-70504378D01*
X175972219Y-70504376D01*
X175972219Y-70504374D01*
X175969989Y-70499997D01*
X183569196Y-70499997D01*
X183569196Y-70500002D01*
X183590279Y-70633121D01*
X183590280Y-70633124D01*
X183590281Y-70633126D01*
X183651472Y-70753220D01*
X183651473Y-70753221D01*
X183651476Y-70753225D01*
X183746774Y-70848523D01*
X183746778Y-70848526D01*
X183746780Y-70848528D01*
X183866874Y-70909719D01*
X183866876Y-70909719D01*
X183866878Y-70909720D01*
X183999998Y-70930804D01*
X184000000Y-70930804D01*
X184000002Y-70930804D01*
X184133121Y-70909720D01*
X184133121Y-70909719D01*
X184133126Y-70909719D01*
X184253220Y-70848528D01*
X184348528Y-70753220D01*
X184409719Y-70633126D01*
X184416570Y-70589870D01*
X184430804Y-70500002D01*
X184430804Y-70499997D01*
X184409720Y-70366878D01*
X184409719Y-70366876D01*
X184409719Y-70366874D01*
X184348528Y-70246780D01*
X184348526Y-70246778D01*
X184348523Y-70246774D01*
X184253225Y-70151476D01*
X184253221Y-70151473D01*
X184253220Y-70151472D01*
X184133126Y-70090281D01*
X184133124Y-70090280D01*
X184133121Y-70090279D01*
X184000002Y-70069196D01*
X183999998Y-70069196D01*
X183866878Y-70090279D01*
X183746778Y-70151473D01*
X183746774Y-70151476D01*
X183651476Y-70246774D01*
X183651473Y-70246778D01*
X183590279Y-70366878D01*
X183569196Y-70499997D01*
X175969989Y-70499997D01*
X175911028Y-70384280D01*
X175911026Y-70384278D01*
X175911023Y-70384274D01*
X175815725Y-70288976D01*
X175815721Y-70288973D01*
X175815720Y-70288972D01*
X175695626Y-70227781D01*
X175695624Y-70227780D01*
X175695621Y-70227779D01*
X175562502Y-70206696D01*
X175562498Y-70206696D01*
X175429378Y-70227779D01*
X175309278Y-70288973D01*
X175309274Y-70288976D01*
X175213976Y-70384274D01*
X175213973Y-70384278D01*
X175213972Y-70384280D01*
X175169389Y-70471780D01*
X175152779Y-70504378D01*
X175131696Y-70637497D01*
X164358666Y-70637497D01*
X164411128Y-70534535D01*
X164415312Y-70508121D01*
X164432213Y-70401411D01*
X164432213Y-70401406D01*
X164411129Y-70268287D01*
X164411128Y-70268285D01*
X164411128Y-70268283D01*
X164349937Y-70148189D01*
X164349935Y-70148187D01*
X164349932Y-70148183D01*
X164254634Y-70052885D01*
X164254630Y-70052882D01*
X164254629Y-70052881D01*
X164134535Y-69991690D01*
X164134533Y-69991689D01*
X164134530Y-69991688D01*
X164001411Y-69970605D01*
X164001407Y-69970605D01*
X163868287Y-69991688D01*
X163748187Y-70052882D01*
X163748183Y-70052885D01*
X163652885Y-70148183D01*
X163652882Y-70148187D01*
X163591688Y-70268287D01*
X163570605Y-70401406D01*
X159701622Y-70401406D01*
X159705804Y-70375002D01*
X159705804Y-70374997D01*
X159684720Y-70241878D01*
X159684719Y-70241876D01*
X159684719Y-70241874D01*
X159623528Y-70121780D01*
X159623526Y-70121778D01*
X159623523Y-70121774D01*
X159528225Y-70026476D01*
X159528221Y-70026473D01*
X159528220Y-70026472D01*
X159408126Y-69965281D01*
X159408124Y-69965280D01*
X159408121Y-69965279D01*
X159275002Y-69944196D01*
X159274998Y-69944196D01*
X159141878Y-69965279D01*
X159021778Y-70026473D01*
X159021774Y-70026476D01*
X158926476Y-70121774D01*
X158926473Y-70121778D01*
X158865279Y-70241878D01*
X158844196Y-70374997D01*
X151175325Y-70374997D01*
X151058126Y-70315281D01*
X151058124Y-70315280D01*
X151058121Y-70315279D01*
X150925002Y-70294196D01*
X150924998Y-70294196D01*
X150791878Y-70315279D01*
X150671778Y-70376473D01*
X150671774Y-70376476D01*
X150576476Y-70471774D01*
X150576473Y-70471778D01*
X150515279Y-70591878D01*
X150494196Y-70724997D01*
X143181316Y-70724997D01*
X143179110Y-70723523D01*
X143097598Y-70669059D01*
X143062773Y-70654634D01*
X142906420Y-70589870D01*
X142906412Y-70589868D01*
X142703469Y-70549500D01*
X142703465Y-70549500D01*
X142196535Y-70549500D01*
X142196530Y-70549500D01*
X141993587Y-70589868D01*
X141993579Y-70589870D01*
X141802403Y-70669058D01*
X141630342Y-70784024D01*
X141484024Y-70930342D01*
X141369058Y-71102403D01*
X141289870Y-71293579D01*
X141289868Y-71293587D01*
X141249500Y-71496530D01*
X140000000Y-71496530D01*
X140000000Y-68445730D01*
X141249500Y-68445730D01*
X141249500Y-69754269D01*
X141252353Y-69784699D01*
X141252353Y-69784701D01*
X141297206Y-69912880D01*
X141297207Y-69912882D01*
X141377850Y-70022150D01*
X141487118Y-70102793D01*
X141529845Y-70117744D01*
X141615299Y-70147646D01*
X141645730Y-70150500D01*
X141645734Y-70150500D01*
X143254270Y-70150500D01*
X143284699Y-70147646D01*
X143284701Y-70147646D01*
X143358620Y-70121780D01*
X143412882Y-70102793D01*
X143522150Y-70022150D01*
X143602793Y-69912882D01*
X143638891Y-69809720D01*
X143647646Y-69784701D01*
X143647646Y-69784699D01*
X143650500Y-69754269D01*
X143650500Y-69299997D01*
X158069196Y-69299997D01*
X158069196Y-69300002D01*
X158090279Y-69433121D01*
X158090280Y-69433124D01*
X158090281Y-69433126D01*
X158141234Y-69533126D01*
X158151473Y-69553221D01*
X158151476Y-69553225D01*
X158246774Y-69648523D01*
X158246778Y-69648526D01*
X158246780Y-69648528D01*
X158366874Y-69709719D01*
X158366876Y-69709719D01*
X158366878Y-69709720D01*
X158499998Y-69730804D01*
X158500000Y-69730804D01*
X158500002Y-69730804D01*
X158633121Y-69709720D01*
X158633121Y-69709719D01*
X158633126Y-69709719D01*
X158753220Y-69648528D01*
X158848528Y-69553220D01*
X158909719Y-69433126D01*
X158910261Y-69429704D01*
X158914966Y-69399997D01*
X162469196Y-69399997D01*
X162469196Y-69400002D01*
X162490279Y-69533121D01*
X162490280Y-69533124D01*
X162490281Y-69533126D01*
X162551472Y-69653220D01*
X162551473Y-69653221D01*
X162551476Y-69653225D01*
X162646774Y-69748523D01*
X162646778Y-69748526D01*
X162646780Y-69748528D01*
X162766874Y-69809719D01*
X162766876Y-69809719D01*
X162766878Y-69809720D01*
X162899998Y-69830804D01*
X162900000Y-69830804D01*
X162900002Y-69830804D01*
X163033121Y-69809720D01*
X163033121Y-69809719D01*
X163033126Y-69809719D01*
X163153220Y-69748528D01*
X163248528Y-69653220D01*
X163309719Y-69533126D01*
X163309720Y-69533121D01*
X163314966Y-69499997D01*
X177869196Y-69499997D01*
X177869196Y-69500002D01*
X177890279Y-69633121D01*
X177890280Y-69633124D01*
X177890281Y-69633126D01*
X177951472Y-69753220D01*
X177951473Y-69753221D01*
X177951476Y-69753225D01*
X178046774Y-69848523D01*
X178046778Y-69848526D01*
X178046780Y-69848528D01*
X178166874Y-69909719D01*
X178166876Y-69909719D01*
X178166878Y-69909720D01*
X178299998Y-69930804D01*
X178300000Y-69930804D01*
X178300002Y-69930804D01*
X178433121Y-69909720D01*
X178433121Y-69909719D01*
X178433126Y-69909719D01*
X178553220Y-69848528D01*
X178648528Y-69753220D01*
X178709719Y-69633126D01*
X178722375Y-69553220D01*
X178730804Y-69500002D01*
X178730804Y-69499996D01*
X178719671Y-69429704D01*
X178728626Y-69360411D01*
X178773622Y-69306959D01*
X178840374Y-69286320D01*
X178861540Y-69287833D01*
X178887145Y-69291889D01*
X178974998Y-69305804D01*
X178975000Y-69305804D01*
X178975002Y-69305804D01*
X179108121Y-69284720D01*
X179108121Y-69284719D01*
X179108126Y-69284719D01*
X179228220Y-69223528D01*
X179323528Y-69128220D01*
X179384719Y-69008126D01*
X179384720Y-69008121D01*
X179405804Y-68875002D01*
X179405804Y-68874997D01*
X179384720Y-68741878D01*
X179384719Y-68741876D01*
X179384719Y-68741874D01*
X179323528Y-68621780D01*
X179323526Y-68621778D01*
X179323523Y-68621774D01*
X179301746Y-68599997D01*
X180569196Y-68599997D01*
X180569196Y-68600002D01*
X180590279Y-68733121D01*
X180590280Y-68733124D01*
X180590281Y-68733126D01*
X180651472Y-68853220D01*
X180651473Y-68853221D01*
X180651476Y-68853225D01*
X180746774Y-68948523D01*
X180746778Y-68948526D01*
X180746780Y-68948528D01*
X180866874Y-69009719D01*
X180866876Y-69009719D01*
X180866878Y-69009720D01*
X180999998Y-69030804D01*
X181000000Y-69030804D01*
X181000002Y-69030804D01*
X181133121Y-69009720D01*
X181133121Y-69009719D01*
X181133126Y-69009719D01*
X181253220Y-68948528D01*
X181348528Y-68853220D01*
X181409719Y-68733126D01*
X181409720Y-68733121D01*
X181430804Y-68600002D01*
X181430804Y-68599997D01*
X181409720Y-68466878D01*
X181409719Y-68466876D01*
X181409719Y-68466874D01*
X181348528Y-68346780D01*
X181348526Y-68346778D01*
X181348523Y-68346774D01*
X181253225Y-68251476D01*
X181253221Y-68251473D01*
X181253220Y-68251472D01*
X181133126Y-68190281D01*
X181133124Y-68190280D01*
X181133121Y-68190279D01*
X181000002Y-68169196D01*
X180999998Y-68169196D01*
X180866878Y-68190279D01*
X180746778Y-68251473D01*
X180746774Y-68251476D01*
X180651476Y-68346774D01*
X180651473Y-68346778D01*
X180590279Y-68466878D01*
X180569196Y-68599997D01*
X179301746Y-68599997D01*
X179228225Y-68526476D01*
X179228221Y-68526473D01*
X179228220Y-68526472D01*
X179108126Y-68465281D01*
X179108124Y-68465280D01*
X179108121Y-68465279D01*
X178975002Y-68444196D01*
X178974998Y-68444196D01*
X178841878Y-68465279D01*
X178721778Y-68526473D01*
X178721774Y-68526476D01*
X178626476Y-68621774D01*
X178626473Y-68621778D01*
X178565279Y-68741878D01*
X178545115Y-68869196D01*
X178544196Y-68875000D01*
X178546616Y-68890279D01*
X178555329Y-68945296D01*
X178546373Y-69014589D01*
X178501376Y-69068040D01*
X178434624Y-69088679D01*
X178413458Y-69087165D01*
X178300003Y-69069196D01*
X178299998Y-69069196D01*
X178166878Y-69090279D01*
X178046778Y-69151473D01*
X178046774Y-69151476D01*
X177951476Y-69246774D01*
X177951473Y-69246778D01*
X177890279Y-69366878D01*
X177869196Y-69499997D01*
X163314966Y-69499997D01*
X163330804Y-69400002D01*
X163330804Y-69399997D01*
X163309720Y-69266878D01*
X163309719Y-69266876D01*
X163309719Y-69266874D01*
X163248528Y-69146780D01*
X163248526Y-69146778D01*
X163248523Y-69146774D01*
X163153225Y-69051476D01*
X163153221Y-69051473D01*
X163153220Y-69051472D01*
X163033126Y-68990281D01*
X163033124Y-68990280D01*
X163033121Y-68990279D01*
X162900002Y-68969196D01*
X162899998Y-68969196D01*
X162766878Y-68990279D01*
X162646778Y-69051473D01*
X162646774Y-69051476D01*
X162551476Y-69146774D01*
X162551473Y-69146778D01*
X162490279Y-69266878D01*
X162469196Y-69399997D01*
X158914966Y-69399997D01*
X158930804Y-69300002D01*
X158930804Y-69299997D01*
X158909720Y-69166878D01*
X158909719Y-69166876D01*
X158909719Y-69166874D01*
X158848528Y-69046780D01*
X158848526Y-69046778D01*
X158848523Y-69046774D01*
X158753225Y-68951476D01*
X158753221Y-68951473D01*
X158753220Y-68951472D01*
X158633126Y-68890281D01*
X158633124Y-68890280D01*
X158633121Y-68890279D01*
X158500002Y-68869196D01*
X158499998Y-68869196D01*
X158366878Y-68890279D01*
X158246778Y-68951473D01*
X158246774Y-68951476D01*
X158151476Y-69046774D01*
X158151473Y-69046778D01*
X158090279Y-69166878D01*
X158069196Y-69299997D01*
X143650500Y-69299997D01*
X143650500Y-68445730D01*
X143647646Y-68415300D01*
X143647646Y-68415298D01*
X143602793Y-68287119D01*
X143602792Y-68287117D01*
X143576488Y-68251476D01*
X143522150Y-68177850D01*
X143412882Y-68097207D01*
X143412880Y-68097206D01*
X143284700Y-68052353D01*
X143254270Y-68049500D01*
X143254266Y-68049500D01*
X141645734Y-68049500D01*
X141645730Y-68049500D01*
X141615300Y-68052353D01*
X141615298Y-68052353D01*
X141487119Y-68097206D01*
X141487117Y-68097207D01*
X141377850Y-68177850D01*
X141297207Y-68287117D01*
X141297206Y-68287119D01*
X141252353Y-68415298D01*
X141252353Y-68415300D01*
X141249500Y-68445730D01*
X140000000Y-68445730D01*
X140000000Y-67374997D01*
X167469196Y-67374997D01*
X167469196Y-67375002D01*
X167490279Y-67508121D01*
X167490280Y-67508124D01*
X167490281Y-67508126D01*
X167551472Y-67628220D01*
X167551473Y-67628221D01*
X167551476Y-67628225D01*
X167646774Y-67723523D01*
X167646778Y-67723526D01*
X167646780Y-67723528D01*
X167766874Y-67784719D01*
X167766876Y-67784719D01*
X167766878Y-67784720D01*
X167899998Y-67805804D01*
X167900000Y-67805804D01*
X167900002Y-67805804D01*
X168033121Y-67784720D01*
X168033121Y-67784719D01*
X168033126Y-67784719D01*
X168153220Y-67723528D01*
X168248528Y-67628220D01*
X168309719Y-67508126D01*
X168330804Y-67375000D01*
X168309719Y-67241874D01*
X168248528Y-67121780D01*
X168248526Y-67121778D01*
X168248523Y-67121774D01*
X168153225Y-67026476D01*
X168153221Y-67026473D01*
X168153220Y-67026472D01*
X168033126Y-66965281D01*
X168033124Y-66965280D01*
X168033121Y-66965279D01*
X167900002Y-66944196D01*
X167899998Y-66944196D01*
X167766878Y-66965279D01*
X167646778Y-67026473D01*
X167646774Y-67026476D01*
X167551476Y-67121774D01*
X167551473Y-67121778D01*
X167490279Y-67241878D01*
X167469196Y-67374997D01*
X140000000Y-67374997D01*
X140000000Y-66499997D01*
X147569196Y-66499997D01*
X147569196Y-66500002D01*
X147590279Y-66633121D01*
X147590280Y-66633124D01*
X147590281Y-66633126D01*
X147598879Y-66650000D01*
X147651473Y-66753221D01*
X147651476Y-66753225D01*
X147746774Y-66848523D01*
X147746778Y-66848526D01*
X147746780Y-66848528D01*
X147866874Y-66909719D01*
X147866876Y-66909719D01*
X147866878Y-66909720D01*
X147999998Y-66930804D01*
X148000000Y-66930804D01*
X148000002Y-66930804D01*
X148133121Y-66909720D01*
X148133121Y-66909719D01*
X148133126Y-66909719D01*
X148253220Y-66848528D01*
X148348528Y-66753220D01*
X148401123Y-66649997D01*
X165919196Y-66649997D01*
X165919196Y-66650002D01*
X165940279Y-66783121D01*
X165940280Y-66783124D01*
X165940281Y-66783126D01*
X166001472Y-66903220D01*
X166001473Y-66903221D01*
X166001476Y-66903225D01*
X166096774Y-66998523D01*
X166096778Y-66998526D01*
X166096780Y-66998528D01*
X166216874Y-67059719D01*
X166216876Y-67059719D01*
X166216878Y-67059720D01*
X166349998Y-67080804D01*
X166350000Y-67080804D01*
X166350002Y-67080804D01*
X166483121Y-67059720D01*
X166483121Y-67059719D01*
X166483126Y-67059719D01*
X166603220Y-66998528D01*
X166698528Y-66903220D01*
X166759719Y-66783126D01*
X166764455Y-66753225D01*
X166780804Y-66650002D01*
X166780804Y-66649997D01*
X166759720Y-66516878D01*
X166759719Y-66516876D01*
X166759719Y-66516874D01*
X166698528Y-66396780D01*
X166698526Y-66396778D01*
X166698523Y-66396774D01*
X166603225Y-66301476D01*
X166603221Y-66301473D01*
X166603220Y-66301472D01*
X166483126Y-66240281D01*
X166483124Y-66240280D01*
X166483121Y-66240279D01*
X166350002Y-66219196D01*
X166349998Y-66219196D01*
X166216878Y-66240279D01*
X166096778Y-66301473D01*
X166096774Y-66301476D01*
X166001476Y-66396774D01*
X166001473Y-66396778D01*
X165940279Y-66516878D01*
X165919196Y-66649997D01*
X148401123Y-66649997D01*
X148409719Y-66633126D01*
X148428131Y-66516878D01*
X148430804Y-66500002D01*
X148430804Y-66499997D01*
X148409720Y-66366878D01*
X148409719Y-66366876D01*
X148409719Y-66366874D01*
X148348528Y-66246780D01*
X148348526Y-66246778D01*
X148348523Y-66246774D01*
X148253225Y-66151476D01*
X148253221Y-66151473D01*
X148253220Y-66151472D01*
X148133126Y-66090281D01*
X148133124Y-66090280D01*
X148133121Y-66090279D01*
X148000002Y-66069196D01*
X147999998Y-66069196D01*
X147866878Y-66090279D01*
X147746778Y-66151473D01*
X147746774Y-66151476D01*
X147651476Y-66246774D01*
X147651473Y-66246778D01*
X147590279Y-66366878D01*
X147569196Y-66499997D01*
X140000000Y-66499997D01*
X140000000Y-65899997D01*
X191869196Y-65899997D01*
X191869196Y-65900002D01*
X191890279Y-66033121D01*
X191890280Y-66033124D01*
X191890281Y-66033126D01*
X191951472Y-66153220D01*
X191951473Y-66153221D01*
X191951476Y-66153225D01*
X192046774Y-66248523D01*
X192046778Y-66248526D01*
X192046780Y-66248528D01*
X192166874Y-66309719D01*
X192166876Y-66309719D01*
X192166878Y-66309720D01*
X192299998Y-66330804D01*
X192300000Y-66330804D01*
X192300002Y-66330804D01*
X192433121Y-66309720D01*
X192433121Y-66309719D01*
X192433126Y-66309719D01*
X192553220Y-66248528D01*
X192648528Y-66153220D01*
X192709719Y-66033126D01*
X192730804Y-65900000D01*
X192709719Y-65766874D01*
X192648528Y-65646780D01*
X192648526Y-65646778D01*
X192648523Y-65646774D01*
X192553225Y-65551476D01*
X192553221Y-65551473D01*
X192553220Y-65551472D01*
X192433126Y-65490281D01*
X192433124Y-65490280D01*
X192433121Y-65490279D01*
X192300002Y-65469196D01*
X192299998Y-65469196D01*
X192166878Y-65490279D01*
X192046778Y-65551473D01*
X192046774Y-65551476D01*
X191951476Y-65646774D01*
X191951473Y-65646778D01*
X191890279Y-65766878D01*
X191869196Y-65899997D01*
X140000000Y-65899997D01*
X140000000Y-59800013D01*
X140950000Y-59800013D01*
X140950000Y-60200000D01*
X142016988Y-60200000D01*
X141984075Y-60257007D01*
X141950000Y-60384174D01*
X141950000Y-60515826D01*
X141984075Y-60642993D01*
X142016988Y-60700000D01*
X140950001Y-60700000D01*
X140950001Y-61099986D01*
X140960494Y-61202697D01*
X141015641Y-61369119D01*
X141015643Y-61369124D01*
X141107684Y-61518345D01*
X141231654Y-61642315D01*
X141380875Y-61734356D01*
X141380880Y-61734358D01*
X141547302Y-61789505D01*
X141547309Y-61789506D01*
X141650019Y-61799999D01*
X141721471Y-61799999D01*
X141788511Y-61819683D01*
X141834267Y-61872486D01*
X141844211Y-61941644D01*
X141815187Y-62005200D01*
X141790364Y-62027101D01*
X141630345Y-62134022D01*
X141630341Y-62134025D01*
X141484024Y-62280342D01*
X141369058Y-62452403D01*
X141289870Y-62643579D01*
X141289868Y-62643587D01*
X141249500Y-62846530D01*
X141249500Y-63053469D01*
X141289868Y-63256412D01*
X141289870Y-63256420D01*
X141369059Y-63447598D01*
X141372816Y-63453221D01*
X141484024Y-63619657D01*
X141630342Y-63765975D01*
X141630345Y-63765977D01*
X141802402Y-63880941D01*
X141993580Y-63960130D01*
X142196530Y-64000499D01*
X142196534Y-64000500D01*
X142196535Y-64000500D01*
X142703466Y-64000500D01*
X142703467Y-64000499D01*
X142906420Y-63960130D01*
X143097598Y-63880941D01*
X143269655Y-63765977D01*
X143415977Y-63619655D01*
X143530941Y-63447598D01*
X143610130Y-63256420D01*
X143621353Y-63199997D01*
X154469196Y-63199997D01*
X154469196Y-63200002D01*
X154490279Y-63333121D01*
X154490280Y-63333124D01*
X154490281Y-63333126D01*
X154551472Y-63453220D01*
X154551473Y-63453221D01*
X154551476Y-63453225D01*
X154646774Y-63548523D01*
X154646778Y-63548526D01*
X154646780Y-63548528D01*
X154766874Y-63609719D01*
X154766876Y-63609719D01*
X154766878Y-63609720D01*
X154899998Y-63630804D01*
X154900000Y-63630804D01*
X154900002Y-63630804D01*
X155033121Y-63609720D01*
X155033121Y-63609719D01*
X155033126Y-63609719D01*
X155153220Y-63548528D01*
X155248528Y-63453220D01*
X155309719Y-63333126D01*
X155321868Y-63256420D01*
X155330804Y-63200002D01*
X155330804Y-63199997D01*
X155309720Y-63066878D01*
X155309719Y-63066876D01*
X155309719Y-63066874D01*
X155248528Y-62946780D01*
X155248526Y-62946778D01*
X155248523Y-62946774D01*
X155153225Y-62851476D01*
X155153221Y-62851473D01*
X155153220Y-62851472D01*
X155033126Y-62790281D01*
X155033124Y-62790280D01*
X155033121Y-62790279D01*
X154900002Y-62769196D01*
X154899998Y-62769196D01*
X154766878Y-62790279D01*
X154646778Y-62851473D01*
X154646774Y-62851476D01*
X154551476Y-62946774D01*
X154551473Y-62946778D01*
X154490279Y-63066878D01*
X154469196Y-63199997D01*
X143621353Y-63199997D01*
X143650500Y-63053465D01*
X143650500Y-62846535D01*
X143610130Y-62643580D01*
X143530941Y-62452402D01*
X143415977Y-62280345D01*
X143415975Y-62280342D01*
X143385630Y-62249997D01*
X158269196Y-62249997D01*
X158269196Y-62250002D01*
X158290279Y-62383121D01*
X158290280Y-62383124D01*
X158290281Y-62383126D01*
X158351472Y-62503220D01*
X158351473Y-62503221D01*
X158351476Y-62503225D01*
X158446774Y-62598523D01*
X158446778Y-62598526D01*
X158446780Y-62598528D01*
X158566874Y-62659719D01*
X158566876Y-62659719D01*
X158566878Y-62659720D01*
X158699998Y-62680804D01*
X158700000Y-62680804D01*
X158700002Y-62680804D01*
X158833121Y-62659720D01*
X158833121Y-62659719D01*
X158833126Y-62659719D01*
X158953220Y-62598528D01*
X159048528Y-62503220D01*
X159109719Y-62383126D01*
X159113679Y-62358126D01*
X159130804Y-62250002D01*
X159130804Y-62249997D01*
X159126844Y-62224997D01*
X165369196Y-62224997D01*
X165369196Y-62225002D01*
X165390279Y-62358121D01*
X165390280Y-62358124D01*
X165390281Y-62358126D01*
X165451472Y-62478220D01*
X165451473Y-62478221D01*
X165451476Y-62478225D01*
X165546774Y-62573523D01*
X165546778Y-62573526D01*
X165546780Y-62573528D01*
X165666874Y-62634719D01*
X165666876Y-62634719D01*
X165666878Y-62634720D01*
X165799998Y-62655804D01*
X165800000Y-62655804D01*
X165800002Y-62655804D01*
X165933121Y-62634720D01*
X165933121Y-62634719D01*
X165933126Y-62634719D01*
X166053220Y-62573528D01*
X166148528Y-62478220D01*
X166209719Y-62358126D01*
X166220114Y-62292497D01*
X170769196Y-62292497D01*
X170769196Y-62292502D01*
X170790279Y-62425621D01*
X170790280Y-62425624D01*
X170790281Y-62425626D01*
X170829818Y-62503221D01*
X170851473Y-62545721D01*
X170851476Y-62545725D01*
X170946774Y-62641023D01*
X170946778Y-62641026D01*
X170946780Y-62641028D01*
X171066874Y-62702219D01*
X171066876Y-62702219D01*
X171066878Y-62702220D01*
X171199998Y-62723304D01*
X171200000Y-62723304D01*
X171200002Y-62723304D01*
X171333121Y-62702220D01*
X171333121Y-62702219D01*
X171333126Y-62702219D01*
X171453220Y-62641028D01*
X171548528Y-62545720D01*
X171609719Y-62425626D01*
X171609720Y-62425621D01*
X171630804Y-62292502D01*
X171630804Y-62292497D01*
X171618925Y-62217497D01*
X177969196Y-62217497D01*
X177969196Y-62217502D01*
X177990279Y-62350621D01*
X177990280Y-62350624D01*
X177990281Y-62350626D01*
X178051472Y-62470720D01*
X178051473Y-62470721D01*
X178051476Y-62470725D01*
X178146774Y-62566023D01*
X178146778Y-62566026D01*
X178146780Y-62566028D01*
X178266874Y-62627219D01*
X178266876Y-62627219D01*
X178266878Y-62627220D01*
X178399998Y-62648304D01*
X178400000Y-62648304D01*
X178400002Y-62648304D01*
X178533121Y-62627220D01*
X178533121Y-62627219D01*
X178533126Y-62627219D01*
X178653220Y-62566028D01*
X178748528Y-62470720D01*
X178809719Y-62350626D01*
X178818926Y-62292497D01*
X178830804Y-62217502D01*
X178830804Y-62217497D01*
X178809720Y-62084378D01*
X178809719Y-62084376D01*
X178809719Y-62084374D01*
X178748528Y-61964280D01*
X178748526Y-61964278D01*
X178748523Y-61964274D01*
X178653225Y-61868976D01*
X178653221Y-61868973D01*
X178653220Y-61868972D01*
X178533126Y-61807781D01*
X178533124Y-61807780D01*
X178533121Y-61807779D01*
X178400002Y-61786696D01*
X178399998Y-61786696D01*
X178266878Y-61807779D01*
X178146778Y-61868973D01*
X178146774Y-61868976D01*
X178051476Y-61964274D01*
X178051473Y-61964278D01*
X177990279Y-62084378D01*
X177969196Y-62217497D01*
X171618925Y-62217497D01*
X171609720Y-62159378D01*
X171609719Y-62159376D01*
X171609719Y-62159374D01*
X171548528Y-62039280D01*
X171548526Y-62039278D01*
X171548523Y-62039274D01*
X171453225Y-61943976D01*
X171453221Y-61943973D01*
X171453220Y-61943972D01*
X171333126Y-61882781D01*
X171333124Y-61882780D01*
X171333121Y-61882779D01*
X171200002Y-61861696D01*
X171199998Y-61861696D01*
X171066878Y-61882779D01*
X170946778Y-61943973D01*
X170946774Y-61943976D01*
X170851476Y-62039274D01*
X170851473Y-62039278D01*
X170851472Y-62039280D01*
X170803198Y-62134024D01*
X170790279Y-62159378D01*
X170769196Y-62292497D01*
X166220114Y-62292497D01*
X166230804Y-62225002D01*
X166230804Y-62224997D01*
X166209720Y-62091878D01*
X166209719Y-62091876D01*
X166209719Y-62091874D01*
X166148528Y-61971780D01*
X166148526Y-61971778D01*
X166148523Y-61971774D01*
X166053225Y-61876476D01*
X166053221Y-61876473D01*
X166053220Y-61876472D01*
X165933126Y-61815281D01*
X165933124Y-61815280D01*
X165933121Y-61815279D01*
X165800002Y-61794196D01*
X165799998Y-61794196D01*
X165666878Y-61815279D01*
X165546778Y-61876473D01*
X165546774Y-61876476D01*
X165451476Y-61971774D01*
X165451473Y-61971778D01*
X165390279Y-62091878D01*
X165369196Y-62224997D01*
X159126844Y-62224997D01*
X159109720Y-62116878D01*
X159109719Y-62116876D01*
X159109719Y-62116874D01*
X159048528Y-61996780D01*
X159048526Y-61996778D01*
X159048523Y-61996774D01*
X158953225Y-61901476D01*
X158953221Y-61901473D01*
X158953220Y-61901472D01*
X158833126Y-61840281D01*
X158833124Y-61840280D01*
X158833121Y-61840279D01*
X158700002Y-61819196D01*
X158699998Y-61819196D01*
X158566878Y-61840279D01*
X158446778Y-61901473D01*
X158446774Y-61901476D01*
X158351476Y-61996774D01*
X158351473Y-61996778D01*
X158290279Y-62116878D01*
X158269196Y-62249997D01*
X143385630Y-62249997D01*
X143269657Y-62134024D01*
X143195349Y-62084374D01*
X143109632Y-62027100D01*
X143064829Y-61973490D01*
X143056121Y-61904165D01*
X143086275Y-61841137D01*
X143145718Y-61804417D01*
X143178524Y-61799999D01*
X143249971Y-61799999D01*
X143249987Y-61799998D01*
X143352697Y-61789505D01*
X143519119Y-61734358D01*
X143519124Y-61734356D01*
X143668345Y-61642315D01*
X143792315Y-61518345D01*
X143884356Y-61369124D01*
X143884358Y-61369119D01*
X143939505Y-61202697D01*
X143939506Y-61202690D01*
X143949999Y-61099986D01*
X143950000Y-61099973D01*
X143950000Y-60749997D01*
X158269196Y-60749997D01*
X158269196Y-60750002D01*
X158290279Y-60883121D01*
X158290280Y-60883124D01*
X158290281Y-60883126D01*
X158351472Y-61003220D01*
X158351473Y-61003221D01*
X158351476Y-61003225D01*
X158446774Y-61098523D01*
X158446778Y-61098526D01*
X158446780Y-61098528D01*
X158566874Y-61159719D01*
X158566876Y-61159719D01*
X158566878Y-61159720D01*
X158699998Y-61180804D01*
X158700000Y-61180804D01*
X158700002Y-61180804D01*
X158833121Y-61159720D01*
X158833121Y-61159719D01*
X158833126Y-61159719D01*
X158953220Y-61098528D01*
X159048528Y-61003220D01*
X159109719Y-60883126D01*
X159114950Y-60850099D01*
X159130804Y-60750002D01*
X159130804Y-60749997D01*
X159129616Y-60742497D01*
X170769196Y-60742497D01*
X170769196Y-60742502D01*
X170790279Y-60875621D01*
X170790280Y-60875624D01*
X170790281Y-60875626D01*
X170851472Y-60995720D01*
X170851473Y-60995721D01*
X170851476Y-60995725D01*
X170946774Y-61091023D01*
X170946778Y-61091026D01*
X170946780Y-61091028D01*
X171066874Y-61152219D01*
X171066876Y-61152219D01*
X171066878Y-61152220D01*
X171199998Y-61173304D01*
X171200000Y-61173304D01*
X171200002Y-61173304D01*
X171333121Y-61152220D01*
X171333121Y-61152219D01*
X171333126Y-61152219D01*
X171453220Y-61091028D01*
X171548528Y-60995720D01*
X171609719Y-60875626D01*
X171613762Y-60850099D01*
X171630804Y-60742502D01*
X171630804Y-60742497D01*
X171609720Y-60609378D01*
X171609719Y-60609376D01*
X171609719Y-60609374D01*
X171548528Y-60489280D01*
X171548526Y-60489278D01*
X171548523Y-60489274D01*
X171453225Y-60393976D01*
X171453221Y-60393973D01*
X171453220Y-60393972D01*
X171333126Y-60332781D01*
X171333124Y-60332780D01*
X171333121Y-60332779D01*
X171200002Y-60311696D01*
X171199998Y-60311696D01*
X171066878Y-60332779D01*
X170946778Y-60393973D01*
X170946774Y-60393976D01*
X170851476Y-60489274D01*
X170851473Y-60489278D01*
X170790279Y-60609378D01*
X170769196Y-60742497D01*
X159129616Y-60742497D01*
X159109720Y-60616878D01*
X159109719Y-60616876D01*
X159109719Y-60616874D01*
X159048528Y-60496780D01*
X159048526Y-60496778D01*
X159048523Y-60496774D01*
X158953225Y-60401476D01*
X158953221Y-60401473D01*
X158953220Y-60401472D01*
X158833126Y-60340281D01*
X158833124Y-60340280D01*
X158833121Y-60340279D01*
X158700002Y-60319196D01*
X158699998Y-60319196D01*
X158566878Y-60340279D01*
X158446778Y-60401473D01*
X158446774Y-60401476D01*
X158351476Y-60496774D01*
X158351473Y-60496778D01*
X158290279Y-60616878D01*
X158269196Y-60749997D01*
X143950000Y-60749997D01*
X143950000Y-60700000D01*
X142883012Y-60700000D01*
X142915925Y-60642993D01*
X142950000Y-60515826D01*
X142950000Y-60384174D01*
X142915925Y-60257007D01*
X142883012Y-60200000D01*
X143949999Y-60200000D01*
X143949999Y-59800028D01*
X143949998Y-59800013D01*
X143939505Y-59697302D01*
X143903948Y-59589997D01*
X184844196Y-59589997D01*
X184844196Y-59590002D01*
X184865279Y-59723121D01*
X184865280Y-59723124D01*
X184865281Y-59723126D01*
X184904457Y-59800013D01*
X184926473Y-59843221D01*
X184926476Y-59843225D01*
X185021774Y-59938523D01*
X185021778Y-59938526D01*
X185021780Y-59938528D01*
X185141874Y-59999719D01*
X185141876Y-59999719D01*
X185141878Y-59999720D01*
X185274998Y-60020804D01*
X185275000Y-60020804D01*
X185275002Y-60020804D01*
X185408121Y-59999720D01*
X185408121Y-59999719D01*
X185408126Y-59999719D01*
X185528220Y-59938528D01*
X185623528Y-59843220D01*
X185684719Y-59723126D01*
X185705804Y-59590000D01*
X185696440Y-59530880D01*
X185684720Y-59456878D01*
X185684719Y-59456876D01*
X185684719Y-59456874D01*
X185623528Y-59336780D01*
X185623526Y-59336778D01*
X185623523Y-59336774D01*
X185528225Y-59241476D01*
X185528221Y-59241473D01*
X185528220Y-59241472D01*
X185408126Y-59180281D01*
X185408124Y-59180280D01*
X185408121Y-59180279D01*
X185275002Y-59159196D01*
X185274998Y-59159196D01*
X185141878Y-59180279D01*
X185021778Y-59241473D01*
X185021774Y-59241476D01*
X184926476Y-59336774D01*
X184926473Y-59336778D01*
X184865279Y-59456878D01*
X184844196Y-59589997D01*
X143903948Y-59589997D01*
X143884358Y-59530880D01*
X143884356Y-59530875D01*
X143792315Y-59381654D01*
X143668345Y-59257684D01*
X143519124Y-59165643D01*
X143519119Y-59165641D01*
X143352697Y-59110494D01*
X143352690Y-59110493D01*
X143249986Y-59100000D01*
X142700000Y-59100000D01*
X142700000Y-60016988D01*
X142642993Y-59984075D01*
X142515826Y-59950000D01*
X142384174Y-59950000D01*
X142257007Y-59984075D01*
X142200000Y-60016988D01*
X142200000Y-59100000D01*
X141650028Y-59100000D01*
X141650012Y-59100001D01*
X141547302Y-59110494D01*
X141380880Y-59165641D01*
X141380875Y-59165643D01*
X141231654Y-59257684D01*
X141107684Y-59381654D01*
X141015643Y-59530875D01*
X141015641Y-59530880D01*
X140960494Y-59697302D01*
X140960493Y-59697309D01*
X140950000Y-59800013D01*
X140000000Y-59800013D01*
X140000000Y-58999997D01*
X146419196Y-58999997D01*
X146419196Y-59000002D01*
X146440279Y-59133121D01*
X146440280Y-59133124D01*
X146440281Y-59133126D01*
X146501472Y-59253220D01*
X146501473Y-59253221D01*
X146501476Y-59253225D01*
X146596774Y-59348523D01*
X146596778Y-59348526D01*
X146596780Y-59348528D01*
X146716874Y-59409719D01*
X146716876Y-59409719D01*
X146716878Y-59409720D01*
X146849998Y-59430804D01*
X146850000Y-59430804D01*
X146850002Y-59430804D01*
X146983121Y-59409720D01*
X146983121Y-59409719D01*
X146983126Y-59409719D01*
X147103220Y-59348528D01*
X147198528Y-59253220D01*
X147259719Y-59133126D01*
X147263304Y-59110493D01*
X147280804Y-59000002D01*
X147280804Y-58999997D01*
X147259720Y-58866878D01*
X147259719Y-58866876D01*
X147259719Y-58866874D01*
X147198528Y-58746780D01*
X147198526Y-58746778D01*
X147198523Y-58746774D01*
X147126746Y-58674997D01*
X167394196Y-58674997D01*
X167394196Y-58675002D01*
X167415279Y-58808121D01*
X167415280Y-58808124D01*
X167415281Y-58808126D01*
X167445215Y-58866874D01*
X167476473Y-58928221D01*
X167476476Y-58928225D01*
X167571774Y-59023523D01*
X167571778Y-59023526D01*
X167571780Y-59023528D01*
X167691874Y-59084719D01*
X167691876Y-59084719D01*
X167691878Y-59084720D01*
X167824998Y-59105804D01*
X167825000Y-59105804D01*
X167825002Y-59105804D01*
X167958121Y-59084720D01*
X167958121Y-59084719D01*
X167958126Y-59084719D01*
X168078220Y-59023528D01*
X168173528Y-58928220D01*
X168234719Y-58808126D01*
X168255804Y-58675000D01*
X168252078Y-58651476D01*
X168234720Y-58541878D01*
X168234719Y-58541876D01*
X168234719Y-58541874D01*
X168173528Y-58421780D01*
X168173526Y-58421778D01*
X168173523Y-58421774D01*
X168078225Y-58326476D01*
X168078221Y-58326473D01*
X168078220Y-58326472D01*
X167958126Y-58265281D01*
X167958124Y-58265280D01*
X167958121Y-58265279D01*
X167825002Y-58244196D01*
X167824998Y-58244196D01*
X167691878Y-58265279D01*
X167571778Y-58326473D01*
X167571774Y-58326476D01*
X167476476Y-58421774D01*
X167476473Y-58421778D01*
X167415279Y-58541878D01*
X167394196Y-58674997D01*
X147126746Y-58674997D01*
X147103225Y-58651476D01*
X147103221Y-58651473D01*
X147103220Y-58651472D01*
X146983126Y-58590281D01*
X146983124Y-58590280D01*
X146983121Y-58590279D01*
X146850002Y-58569196D01*
X146849998Y-58569196D01*
X146716878Y-58590279D01*
X146596778Y-58651473D01*
X146596774Y-58651476D01*
X146501476Y-58746774D01*
X146501473Y-58746778D01*
X146440279Y-58866878D01*
X146419196Y-58999997D01*
X140000000Y-58999997D01*
X140000000Y-54000787D01*
X140000009Y-53999267D01*
X140000036Y-53997055D01*
X140297866Y-53997055D01*
X140297866Y-53997056D01*
X140318163Y-54384343D01*
X140378830Y-54767379D01*
X140378831Y-54767386D01*
X140479206Y-55141992D01*
X140618188Y-55504050D01*
X140794254Y-55849599D01*
X141005475Y-56174849D01*
X141214039Y-56432406D01*
X141214040Y-56432406D01*
X142708692Y-54937754D01*
X142782532Y-55039386D01*
X142960614Y-55217468D01*
X143062244Y-55291307D01*
X141567592Y-56785959D01*
X141567593Y-56785960D01*
X141825150Y-56994524D01*
X142150400Y-57205745D01*
X142495949Y-57381811D01*
X142858007Y-57520793D01*
X143232613Y-57621168D01*
X143232620Y-57621169D01*
X143615656Y-57681836D01*
X144002943Y-57702134D01*
X144002945Y-57702134D01*
X144390231Y-57681836D01*
X144773267Y-57621169D01*
X144773274Y-57621168D01*
X145147880Y-57520793D01*
X145509938Y-57381811D01*
X145855487Y-57205745D01*
X146180727Y-56994532D01*
X146180729Y-56994531D01*
X146438293Y-56785958D01*
X144943642Y-55291307D01*
X145045274Y-55217468D01*
X145223356Y-55039386D01*
X145297195Y-54937754D01*
X146791846Y-56432405D01*
X147000419Y-56174841D01*
X147000420Y-56174839D01*
X147049023Y-56099997D01*
X153369196Y-56099997D01*
X153369196Y-56100002D01*
X153390279Y-56233121D01*
X153390280Y-56233124D01*
X153390281Y-56233126D01*
X153398879Y-56250000D01*
X153451473Y-56353221D01*
X153451476Y-56353225D01*
X153546774Y-56448523D01*
X153546778Y-56448526D01*
X153546780Y-56448528D01*
X153666874Y-56509719D01*
X153666876Y-56509719D01*
X153666878Y-56509720D01*
X153799998Y-56530804D01*
X153800000Y-56530804D01*
X153800002Y-56530804D01*
X153933121Y-56509720D01*
X153933121Y-56509719D01*
X153933126Y-56509719D01*
X154053220Y-56448528D01*
X154148528Y-56353220D01*
X154201123Y-56249997D01*
X171169196Y-56249997D01*
X171169196Y-56250002D01*
X171190279Y-56383121D01*
X171190280Y-56383124D01*
X171190281Y-56383126D01*
X171251472Y-56503220D01*
X171251473Y-56503221D01*
X171251476Y-56503225D01*
X171346774Y-56598523D01*
X171346778Y-56598526D01*
X171346780Y-56598528D01*
X171466874Y-56659719D01*
X171466876Y-56659719D01*
X171466878Y-56659720D01*
X171599998Y-56680804D01*
X171600000Y-56680804D01*
X171600002Y-56680804D01*
X171733121Y-56659720D01*
X171733121Y-56659719D01*
X171733126Y-56659719D01*
X171853220Y-56598528D01*
X171948528Y-56503220D01*
X172009719Y-56383126D01*
X172014455Y-56353225D01*
X172030804Y-56250002D01*
X172030804Y-56249997D01*
X172009720Y-56116878D01*
X172009719Y-56116876D01*
X172009719Y-56116874D01*
X171948528Y-55996780D01*
X171948526Y-55996778D01*
X171948523Y-55996774D01*
X171853225Y-55901476D01*
X171853221Y-55901473D01*
X171853220Y-55901472D01*
X171733126Y-55840281D01*
X171733124Y-55840280D01*
X171733121Y-55840279D01*
X171600002Y-55819196D01*
X171599998Y-55819196D01*
X171466878Y-55840279D01*
X171466874Y-55840280D01*
X171466874Y-55840281D01*
X171386811Y-55881075D01*
X171346778Y-55901473D01*
X171346774Y-55901476D01*
X171251476Y-55996774D01*
X171251473Y-55996778D01*
X171190279Y-56116878D01*
X171169196Y-56249997D01*
X154201123Y-56249997D01*
X154209719Y-56233126D01*
X154218484Y-56177785D01*
X154230804Y-56100002D01*
X154230804Y-56099997D01*
X154209720Y-55966878D01*
X154209719Y-55966876D01*
X154209719Y-55966874D01*
X154148528Y-55846780D01*
X154148526Y-55846778D01*
X154148523Y-55846774D01*
X154053225Y-55751476D01*
X154053221Y-55751473D01*
X154053220Y-55751472D01*
X153933126Y-55690281D01*
X153933124Y-55690280D01*
X153933121Y-55690279D01*
X153800002Y-55669196D01*
X153799998Y-55669196D01*
X153666878Y-55690279D01*
X153546778Y-55751473D01*
X153546774Y-55751476D01*
X153451476Y-55846774D01*
X153451473Y-55846778D01*
X153390279Y-55966878D01*
X153369196Y-56099997D01*
X147049023Y-56099997D01*
X147211633Y-55849599D01*
X147387699Y-55504050D01*
X147526681Y-55141992D01*
X147627056Y-54767386D01*
X147627057Y-54767379D01*
X147687724Y-54384343D01*
X147707868Y-53999999D01*
X186294922Y-53999999D01*
X186294922Y-54000000D01*
X186315219Y-54387287D01*
X186375886Y-54770323D01*
X186375887Y-54770330D01*
X186476262Y-55144936D01*
X186615244Y-55506994D01*
X186791310Y-55852543D01*
X187002531Y-56177793D01*
X187211095Y-56435350D01*
X187211096Y-56435350D01*
X188705748Y-54940698D01*
X188779588Y-55042330D01*
X188957670Y-55220412D01*
X189059300Y-55294251D01*
X187564648Y-56788903D01*
X187564649Y-56788904D01*
X187822206Y-56997468D01*
X188147456Y-57208689D01*
X188493008Y-57384756D01*
X188618596Y-57432965D01*
X188674129Y-57475367D01*
X188697922Y-57541061D01*
X188682421Y-57609189D01*
X188661841Y-57636409D01*
X188626476Y-57671774D01*
X188626473Y-57671778D01*
X188565279Y-57791878D01*
X188544196Y-57924997D01*
X188544196Y-57925002D01*
X188565279Y-58058121D01*
X188565280Y-58058124D01*
X188565281Y-58058126D01*
X188626472Y-58178220D01*
X188626473Y-58178221D01*
X188626476Y-58178225D01*
X188721774Y-58273523D01*
X188721778Y-58273526D01*
X188721780Y-58273528D01*
X188841874Y-58334719D01*
X188841876Y-58334719D01*
X188841878Y-58334720D01*
X188974998Y-58355804D01*
X188975000Y-58355804D01*
X188975002Y-58355804D01*
X189108121Y-58334720D01*
X189108121Y-58334719D01*
X189108126Y-58334719D01*
X189228220Y-58273528D01*
X189323528Y-58178220D01*
X189384719Y-58058126D01*
X189405804Y-57925000D01*
X189388153Y-57813555D01*
X189397108Y-57744262D01*
X189442104Y-57690810D01*
X189508855Y-57670170D01*
X189530024Y-57671684D01*
X189612712Y-57684780D01*
X189999999Y-57705078D01*
X190000001Y-57705078D01*
X190387287Y-57684780D01*
X190770323Y-57624113D01*
X190770330Y-57624112D01*
X191144936Y-57523737D01*
X191506994Y-57384755D01*
X191852543Y-57208689D01*
X192177783Y-56997476D01*
X192177785Y-56997475D01*
X192435349Y-56788902D01*
X190940698Y-55294251D01*
X191042330Y-55220412D01*
X191220412Y-55042330D01*
X191294251Y-54940698D01*
X192788902Y-56435349D01*
X192997475Y-56177785D01*
X192997476Y-56177783D01*
X193208689Y-55852543D01*
X193384755Y-55506994D01*
X193523737Y-55144936D01*
X193624112Y-54770330D01*
X193624113Y-54770323D01*
X193684780Y-54387287D01*
X193705078Y-54000000D01*
X193705078Y-53999999D01*
X193684780Y-53612712D01*
X193624113Y-53229676D01*
X193624112Y-53229669D01*
X193523737Y-52855063D01*
X193384755Y-52493005D01*
X193208689Y-52147456D01*
X192997468Y-51822206D01*
X192788904Y-51564649D01*
X192788903Y-51564648D01*
X191294251Y-53059300D01*
X191220412Y-52957670D01*
X191042330Y-52779588D01*
X190940698Y-52705748D01*
X192435350Y-51211096D01*
X192435350Y-51211095D01*
X192177793Y-51002531D01*
X191852543Y-50791310D01*
X191506994Y-50615244D01*
X191144936Y-50476262D01*
X190770330Y-50375887D01*
X190770323Y-50375886D01*
X190387287Y-50315219D01*
X190000001Y-50294922D01*
X189999999Y-50294922D01*
X189612712Y-50315219D01*
X189229676Y-50375886D01*
X189229669Y-50375887D01*
X188855063Y-50476262D01*
X188493005Y-50615244D01*
X188147456Y-50791310D01*
X187822206Y-51002531D01*
X187564648Y-51211095D01*
X187564648Y-51211096D01*
X189059301Y-52705748D01*
X188957670Y-52779588D01*
X188779588Y-52957670D01*
X188705748Y-53059300D01*
X187211096Y-51564648D01*
X187211095Y-51564648D01*
X187002531Y-51822206D01*
X186791310Y-52147456D01*
X186615244Y-52493005D01*
X186476262Y-52855063D01*
X186375887Y-53229669D01*
X186375886Y-53229676D01*
X186315219Y-53612712D01*
X186294922Y-53999999D01*
X147707868Y-53999999D01*
X147708022Y-53997056D01*
X147708022Y-53997055D01*
X147687724Y-53609768D01*
X147627057Y-53226732D01*
X147627056Y-53226725D01*
X147526681Y-52852119D01*
X147387699Y-52490061D01*
X147276352Y-52271530D01*
X150349500Y-52271530D01*
X150349500Y-52728469D01*
X150389868Y-52931412D01*
X150389870Y-52931420D01*
X150407921Y-52975000D01*
X150469059Y-53122598D01*
X150484988Y-53146437D01*
X150584024Y-53294657D01*
X150730342Y-53440975D01*
X150730345Y-53440977D01*
X150902402Y-53555941D01*
X151093580Y-53635130D01*
X151282187Y-53672646D01*
X151296530Y-53675499D01*
X151296534Y-53675500D01*
X151296535Y-53675500D01*
X151503466Y-53675500D01*
X151503467Y-53675499D01*
X151706420Y-53635130D01*
X151897598Y-53555941D01*
X152069655Y-53440977D01*
X152215977Y-53294655D01*
X152330941Y-53122598D01*
X152410130Y-52931420D01*
X152450500Y-52728465D01*
X152450500Y-52271535D01*
X152450499Y-52271530D01*
X152849500Y-52271530D01*
X152849500Y-52728469D01*
X152889868Y-52931412D01*
X152889870Y-52931420D01*
X152907921Y-52975000D01*
X152969059Y-53122598D01*
X152984988Y-53146437D01*
X153084024Y-53294657D01*
X153230342Y-53440975D01*
X153230345Y-53440977D01*
X153402402Y-53555941D01*
X153593580Y-53635130D01*
X153782187Y-53672646D01*
X153796530Y-53675499D01*
X153796534Y-53675500D01*
X153796535Y-53675500D01*
X154003466Y-53675500D01*
X154003467Y-53675499D01*
X154206420Y-53635130D01*
X154397598Y-53555941D01*
X154569655Y-53440977D01*
X154715977Y-53294655D01*
X154830941Y-53122598D01*
X154910130Y-52931420D01*
X154950500Y-52728465D01*
X154950500Y-52271535D01*
X154950499Y-52271530D01*
X155349500Y-52271530D01*
X155349500Y-52728469D01*
X155389868Y-52931412D01*
X155389870Y-52931420D01*
X155407921Y-52975000D01*
X155469059Y-53122598D01*
X155484988Y-53146437D01*
X155584024Y-53294657D01*
X155730342Y-53440975D01*
X155730345Y-53440977D01*
X155902402Y-53555941D01*
X156093580Y-53635130D01*
X156282187Y-53672646D01*
X156296530Y-53675499D01*
X156296534Y-53675500D01*
X156296535Y-53675500D01*
X156503466Y-53675500D01*
X156503467Y-53675499D01*
X156706420Y-53635130D01*
X156897598Y-53555941D01*
X157069655Y-53440977D01*
X157215977Y-53294655D01*
X157330941Y-53122598D01*
X157410130Y-52931420D01*
X157450500Y-52728465D01*
X157450500Y-52271535D01*
X157450499Y-52271530D01*
X157849500Y-52271530D01*
X157849500Y-52728469D01*
X157889868Y-52931412D01*
X157889870Y-52931420D01*
X157907921Y-52975000D01*
X157969059Y-53122598D01*
X157984988Y-53146437D01*
X158084024Y-53294657D01*
X158230342Y-53440975D01*
X158230345Y-53440977D01*
X158402402Y-53555941D01*
X158593580Y-53635130D01*
X158782187Y-53672646D01*
X158796530Y-53675499D01*
X158796534Y-53675500D01*
X158796535Y-53675500D01*
X159003466Y-53675500D01*
X159003467Y-53675499D01*
X159206420Y-53635130D01*
X159397598Y-53555941D01*
X159569655Y-53440977D01*
X159715977Y-53294655D01*
X159830941Y-53122598D01*
X159876748Y-53012009D01*
X159920589Y-52957606D01*
X159986883Y-52935541D01*
X160054582Y-52952820D01*
X160102193Y-53003957D01*
X160109240Y-53021144D01*
X160148904Y-53143216D01*
X160245379Y-53332557D01*
X160370272Y-53504459D01*
X160370276Y-53504464D01*
X160520535Y-53654723D01*
X160520540Y-53654727D01*
X160692442Y-53779620D01*
X160881782Y-53876095D01*
X161083871Y-53941757D01*
X161150000Y-53952231D01*
X161150000Y-52904145D01*
X161216657Y-52942630D01*
X161337465Y-52975000D01*
X161462535Y-52975000D01*
X161583343Y-52942630D01*
X161650000Y-52904145D01*
X161650000Y-53952230D01*
X161716126Y-53941757D01*
X161716129Y-53941757D01*
X161918217Y-53876095D01*
X162107557Y-53779620D01*
X162279459Y-53654727D01*
X162279464Y-53654723D01*
X162429723Y-53504464D01*
X162429727Y-53504459D01*
X162554620Y-53332557D01*
X162615015Y-53214028D01*
X162662990Y-53163232D01*
X162730811Y-53146437D01*
X162796946Y-53168974D01*
X162840397Y-53223690D01*
X162849500Y-53270323D01*
X162849500Y-53279269D01*
X162852353Y-53309699D01*
X162852353Y-53309701D01*
X162886311Y-53406744D01*
X162897207Y-53437882D01*
X162977850Y-53547150D01*
X163087118Y-53627793D01*
X163108089Y-53635131D01*
X163215299Y-53672646D01*
X163245730Y-53675500D01*
X163245734Y-53675500D01*
X164554270Y-53675500D01*
X164584699Y-53672646D01*
X164584701Y-53672646D01*
X164648790Y-53650219D01*
X164712882Y-53627793D01*
X164822150Y-53547150D01*
X164902793Y-53437882D01*
X164939648Y-53332557D01*
X164947646Y-53309701D01*
X164947646Y-53309699D01*
X164950500Y-53279269D01*
X164950500Y-52271530D01*
X168849500Y-52271530D01*
X168849500Y-52728469D01*
X168889868Y-52931412D01*
X168889870Y-52931420D01*
X168907921Y-52975000D01*
X168969059Y-53122598D01*
X168984988Y-53146437D01*
X169084024Y-53294657D01*
X169230342Y-53440975D01*
X169230345Y-53440977D01*
X169402402Y-53555941D01*
X169593580Y-53635130D01*
X169782187Y-53672646D01*
X169796530Y-53675499D01*
X169796534Y-53675500D01*
X169796535Y-53675500D01*
X170003466Y-53675500D01*
X170003467Y-53675499D01*
X170206420Y-53635130D01*
X170397598Y-53555941D01*
X170569655Y-53440977D01*
X170715977Y-53294655D01*
X170830941Y-53122598D01*
X170910130Y-52931420D01*
X170950500Y-52728465D01*
X170950500Y-52271535D01*
X170950499Y-52271530D01*
X171349500Y-52271530D01*
X171349500Y-52728469D01*
X171389868Y-52931412D01*
X171389870Y-52931420D01*
X171407921Y-52975000D01*
X171469059Y-53122598D01*
X171484988Y-53146437D01*
X171584024Y-53294657D01*
X171730342Y-53440975D01*
X171730345Y-53440977D01*
X171902402Y-53555941D01*
X172093580Y-53635130D01*
X172282187Y-53672646D01*
X172296530Y-53675499D01*
X172296534Y-53675500D01*
X172296535Y-53675500D01*
X172503466Y-53675500D01*
X172503467Y-53675499D01*
X172706420Y-53635130D01*
X172897598Y-53555941D01*
X173069655Y-53440977D01*
X173215977Y-53294655D01*
X173330941Y-53122598D01*
X173410130Y-52931420D01*
X173450500Y-52728465D01*
X173450500Y-52271535D01*
X173450499Y-52271530D01*
X173849500Y-52271530D01*
X173849500Y-52728469D01*
X173889868Y-52931412D01*
X173889870Y-52931420D01*
X173907921Y-52975000D01*
X173969059Y-53122598D01*
X173984988Y-53146437D01*
X174084024Y-53294657D01*
X174230342Y-53440975D01*
X174230345Y-53440977D01*
X174402402Y-53555941D01*
X174593580Y-53635130D01*
X174782187Y-53672646D01*
X174796530Y-53675499D01*
X174796534Y-53675500D01*
X174796535Y-53675500D01*
X175003466Y-53675500D01*
X175003467Y-53675499D01*
X175206420Y-53635130D01*
X175397598Y-53555941D01*
X175569655Y-53440977D01*
X175715977Y-53294655D01*
X175830941Y-53122598D01*
X175910130Y-52931420D01*
X175950500Y-52728465D01*
X175950500Y-52271535D01*
X175950499Y-52271530D01*
X176349500Y-52271530D01*
X176349500Y-52728469D01*
X176389868Y-52931412D01*
X176389870Y-52931420D01*
X176407921Y-52975000D01*
X176469059Y-53122598D01*
X176484988Y-53146437D01*
X176584024Y-53294657D01*
X176730342Y-53440975D01*
X176730345Y-53440977D01*
X176902402Y-53555941D01*
X177093580Y-53635130D01*
X177282187Y-53672646D01*
X177296530Y-53675499D01*
X177296534Y-53675500D01*
X177296535Y-53675500D01*
X177503466Y-53675500D01*
X177503467Y-53675499D01*
X177706420Y-53635130D01*
X177897598Y-53555941D01*
X178069655Y-53440977D01*
X178215977Y-53294655D01*
X178330941Y-53122598D01*
X178376748Y-53012009D01*
X178420589Y-52957606D01*
X178486883Y-52935541D01*
X178554582Y-52952820D01*
X178602193Y-53003957D01*
X178609240Y-53021144D01*
X178648904Y-53143216D01*
X178745379Y-53332557D01*
X178870272Y-53504459D01*
X178870276Y-53504464D01*
X179020535Y-53654723D01*
X179020540Y-53654727D01*
X179192442Y-53779620D01*
X179381782Y-53876095D01*
X179583871Y-53941757D01*
X179650000Y-53952231D01*
X179650000Y-52904145D01*
X179716657Y-52942630D01*
X179837465Y-52975000D01*
X179962535Y-52975000D01*
X180083343Y-52942630D01*
X180150000Y-52904145D01*
X180150000Y-53952230D01*
X180216126Y-53941757D01*
X180216129Y-53941757D01*
X180418217Y-53876095D01*
X180607557Y-53779620D01*
X180779459Y-53654727D01*
X180779464Y-53654723D01*
X180929723Y-53504464D01*
X180929727Y-53504459D01*
X181054620Y-53332557D01*
X181115015Y-53214028D01*
X181162990Y-53163232D01*
X181230811Y-53146437D01*
X181296946Y-53168974D01*
X181340397Y-53223690D01*
X181349500Y-53270323D01*
X181349500Y-53279269D01*
X181352353Y-53309699D01*
X181352353Y-53309701D01*
X181386311Y-53406744D01*
X181397207Y-53437882D01*
X181477850Y-53547150D01*
X181587118Y-53627793D01*
X181608089Y-53635131D01*
X181715299Y-53672646D01*
X181745730Y-53675500D01*
X181745734Y-53675500D01*
X183054270Y-53675500D01*
X183084699Y-53672646D01*
X183084701Y-53672646D01*
X183148790Y-53650219D01*
X183212882Y-53627793D01*
X183322150Y-53547150D01*
X183402793Y-53437882D01*
X183439648Y-53332557D01*
X183447646Y-53309701D01*
X183447646Y-53309699D01*
X183450500Y-53279269D01*
X183450500Y-51720730D01*
X183447646Y-51690300D01*
X183447646Y-51690298D01*
X183414006Y-51594163D01*
X183402793Y-51562118D01*
X183322150Y-51452850D01*
X183212882Y-51372207D01*
X183212880Y-51372206D01*
X183084700Y-51327353D01*
X183054270Y-51324500D01*
X183054266Y-51324500D01*
X181745734Y-51324500D01*
X181745730Y-51324500D01*
X181715300Y-51327353D01*
X181715298Y-51327353D01*
X181587119Y-51372206D01*
X181587117Y-51372207D01*
X181477850Y-51452850D01*
X181397207Y-51562117D01*
X181397206Y-51562119D01*
X181352353Y-51690298D01*
X181352353Y-51690300D01*
X181349500Y-51720730D01*
X181349500Y-51729676D01*
X181329815Y-51796715D01*
X181277011Y-51842470D01*
X181207853Y-51852414D01*
X181144297Y-51823389D01*
X181115015Y-51785971D01*
X181054620Y-51667442D01*
X180929727Y-51495540D01*
X180929723Y-51495535D01*
X180779464Y-51345276D01*
X180779459Y-51345272D01*
X180607557Y-51220379D01*
X180418215Y-51123903D01*
X180216124Y-51058241D01*
X180150000Y-51047768D01*
X180150000Y-52095854D01*
X180083343Y-52057370D01*
X179962535Y-52025000D01*
X179837465Y-52025000D01*
X179716657Y-52057370D01*
X179650000Y-52095854D01*
X179650000Y-51047768D01*
X179649999Y-51047768D01*
X179583875Y-51058241D01*
X179381784Y-51123903D01*
X179192442Y-51220379D01*
X179020540Y-51345272D01*
X179020535Y-51345276D01*
X178870276Y-51495535D01*
X178870272Y-51495540D01*
X178745379Y-51667442D01*
X178648905Y-51856781D01*
X178609240Y-51978856D01*
X178569802Y-52036531D01*
X178505443Y-52063729D01*
X178436597Y-52051814D01*
X178385121Y-52004570D01*
X178376748Y-51987990D01*
X178372965Y-51978856D01*
X178330941Y-51877402D01*
X178215977Y-51705345D01*
X178215975Y-51705342D01*
X178069657Y-51559024D01*
X177974638Y-51495535D01*
X177897598Y-51444059D01*
X177706420Y-51364870D01*
X177706412Y-51364868D01*
X177503469Y-51324500D01*
X177503465Y-51324500D01*
X177296535Y-51324500D01*
X177296530Y-51324500D01*
X177093587Y-51364868D01*
X177093579Y-51364870D01*
X176902403Y-51444058D01*
X176730342Y-51559024D01*
X176584024Y-51705342D01*
X176469058Y-51877403D01*
X176389870Y-52068579D01*
X176389868Y-52068587D01*
X176349500Y-52271530D01*
X175950499Y-52271530D01*
X175910130Y-52068580D01*
X175830941Y-51877402D01*
X175715977Y-51705345D01*
X175715975Y-51705342D01*
X175569657Y-51559024D01*
X175474638Y-51495535D01*
X175397598Y-51444059D01*
X175206420Y-51364870D01*
X175206412Y-51364868D01*
X175003469Y-51324500D01*
X175003465Y-51324500D01*
X174796535Y-51324500D01*
X174796530Y-51324500D01*
X174593587Y-51364868D01*
X174593579Y-51364870D01*
X174402403Y-51444058D01*
X174230342Y-51559024D01*
X174084024Y-51705342D01*
X173969058Y-51877403D01*
X173889870Y-52068579D01*
X173889868Y-52068587D01*
X173849500Y-52271530D01*
X173450499Y-52271530D01*
X173410130Y-52068580D01*
X173330941Y-51877402D01*
X173215977Y-51705345D01*
X173215975Y-51705342D01*
X173069657Y-51559024D01*
X172974638Y-51495535D01*
X172897598Y-51444059D01*
X172706420Y-51364870D01*
X172706412Y-51364868D01*
X172503469Y-51324500D01*
X172503465Y-51324500D01*
X172296535Y-51324500D01*
X172296530Y-51324500D01*
X172093587Y-51364868D01*
X172093579Y-51364870D01*
X171902403Y-51444058D01*
X171730342Y-51559024D01*
X171584024Y-51705342D01*
X171469058Y-51877403D01*
X171389870Y-52068579D01*
X171389868Y-52068587D01*
X171349500Y-52271530D01*
X170950499Y-52271530D01*
X170910130Y-52068580D01*
X170830941Y-51877402D01*
X170715977Y-51705345D01*
X170715975Y-51705342D01*
X170569657Y-51559024D01*
X170474638Y-51495535D01*
X170397598Y-51444059D01*
X170206420Y-51364870D01*
X170206412Y-51364868D01*
X170003469Y-51324500D01*
X170003465Y-51324500D01*
X169796535Y-51324500D01*
X169796530Y-51324500D01*
X169593587Y-51364868D01*
X169593579Y-51364870D01*
X169402403Y-51444058D01*
X169230342Y-51559024D01*
X169084024Y-51705342D01*
X168969058Y-51877403D01*
X168889870Y-52068579D01*
X168889868Y-52068587D01*
X168849500Y-52271530D01*
X164950500Y-52271530D01*
X164950500Y-51720730D01*
X164947646Y-51690300D01*
X164947646Y-51690298D01*
X164914006Y-51594163D01*
X164902793Y-51562118D01*
X164822150Y-51452850D01*
X164712882Y-51372207D01*
X164712880Y-51372206D01*
X164584700Y-51327353D01*
X164554270Y-51324500D01*
X164554266Y-51324500D01*
X163245734Y-51324500D01*
X163245730Y-51324500D01*
X163215300Y-51327353D01*
X163215298Y-51327353D01*
X163087119Y-51372206D01*
X163087117Y-51372207D01*
X162977850Y-51452850D01*
X162897207Y-51562117D01*
X162897206Y-51562119D01*
X162852353Y-51690298D01*
X162852353Y-51690300D01*
X162849500Y-51720730D01*
X162849500Y-51729676D01*
X162829815Y-51796715D01*
X162777011Y-51842470D01*
X162707853Y-51852414D01*
X162644297Y-51823389D01*
X162615015Y-51785971D01*
X162554620Y-51667442D01*
X162429727Y-51495540D01*
X162429723Y-51495535D01*
X162279464Y-51345276D01*
X162279459Y-51345272D01*
X162107557Y-51220379D01*
X161918215Y-51123903D01*
X161716124Y-51058241D01*
X161650000Y-51047768D01*
X161650000Y-52095854D01*
X161583343Y-52057370D01*
X161462535Y-52025000D01*
X161337465Y-52025000D01*
X161216657Y-52057370D01*
X161150000Y-52095854D01*
X161150000Y-51047768D01*
X161149999Y-51047768D01*
X161083875Y-51058241D01*
X160881784Y-51123903D01*
X160692442Y-51220379D01*
X160520540Y-51345272D01*
X160520535Y-51345276D01*
X160370276Y-51495535D01*
X160370272Y-51495540D01*
X160245379Y-51667442D01*
X160148905Y-51856781D01*
X160109240Y-51978856D01*
X160069802Y-52036531D01*
X160005443Y-52063729D01*
X159936597Y-52051814D01*
X159885121Y-52004570D01*
X159876748Y-51987990D01*
X159872965Y-51978856D01*
X159830941Y-51877402D01*
X159715977Y-51705345D01*
X159715975Y-51705342D01*
X159569657Y-51559024D01*
X159474638Y-51495535D01*
X159397598Y-51444059D01*
X159206420Y-51364870D01*
X159206412Y-51364868D01*
X159003469Y-51324500D01*
X159003465Y-51324500D01*
X158796535Y-51324500D01*
X158796530Y-51324500D01*
X158593587Y-51364868D01*
X158593579Y-51364870D01*
X158402403Y-51444058D01*
X158230342Y-51559024D01*
X158084024Y-51705342D01*
X157969058Y-51877403D01*
X157889870Y-52068579D01*
X157889868Y-52068587D01*
X157849500Y-52271530D01*
X157450499Y-52271530D01*
X157410130Y-52068580D01*
X157330941Y-51877402D01*
X157215977Y-51705345D01*
X157215975Y-51705342D01*
X157069657Y-51559024D01*
X156974638Y-51495535D01*
X156897598Y-51444059D01*
X156706420Y-51364870D01*
X156706412Y-51364868D01*
X156503469Y-51324500D01*
X156503465Y-51324500D01*
X156296535Y-51324500D01*
X156296530Y-51324500D01*
X156093587Y-51364868D01*
X156093579Y-51364870D01*
X155902403Y-51444058D01*
X155730342Y-51559024D01*
X155584024Y-51705342D01*
X155469058Y-51877403D01*
X155389870Y-52068579D01*
X155389868Y-52068587D01*
X155349500Y-52271530D01*
X154950499Y-52271530D01*
X154910130Y-52068580D01*
X154830941Y-51877402D01*
X154715977Y-51705345D01*
X154715975Y-51705342D01*
X154569657Y-51559024D01*
X154474638Y-51495535D01*
X154397598Y-51444059D01*
X154206420Y-51364870D01*
X154206412Y-51364868D01*
X154003469Y-51324500D01*
X154003465Y-51324500D01*
X153796535Y-51324500D01*
X153796530Y-51324500D01*
X153593587Y-51364868D01*
X153593579Y-51364870D01*
X153402403Y-51444058D01*
X153230342Y-51559024D01*
X153084024Y-51705342D01*
X152969058Y-51877403D01*
X152889870Y-52068579D01*
X152889868Y-52068587D01*
X152849500Y-52271530D01*
X152450499Y-52271530D01*
X152410130Y-52068580D01*
X152330941Y-51877402D01*
X152215977Y-51705345D01*
X152215975Y-51705342D01*
X152069657Y-51559024D01*
X151974638Y-51495535D01*
X151897598Y-51444059D01*
X151706420Y-51364870D01*
X151706412Y-51364868D01*
X151503469Y-51324500D01*
X151503465Y-51324500D01*
X151296535Y-51324500D01*
X151296530Y-51324500D01*
X151093587Y-51364868D01*
X151093579Y-51364870D01*
X150902403Y-51444058D01*
X150730342Y-51559024D01*
X150584024Y-51705342D01*
X150469058Y-51877403D01*
X150389870Y-52068579D01*
X150389868Y-52068587D01*
X150349500Y-52271530D01*
X147276352Y-52271530D01*
X147211633Y-52144512D01*
X147000412Y-51819262D01*
X146791848Y-51561705D01*
X146791847Y-51561704D01*
X145297195Y-53056356D01*
X145223356Y-52954726D01*
X145045274Y-52776644D01*
X144943642Y-52702804D01*
X146438294Y-51208152D01*
X146438294Y-51208151D01*
X146180737Y-50999587D01*
X145855487Y-50788366D01*
X145509938Y-50612300D01*
X145147880Y-50473318D01*
X144773274Y-50372943D01*
X144773267Y-50372942D01*
X144390231Y-50312275D01*
X144002945Y-50291978D01*
X144002943Y-50291978D01*
X143615656Y-50312275D01*
X143232620Y-50372942D01*
X143232613Y-50372943D01*
X142858007Y-50473318D01*
X142495949Y-50612300D01*
X142150400Y-50788366D01*
X141825150Y-50999587D01*
X141567592Y-51208151D01*
X141567592Y-51208152D01*
X143062245Y-52702804D01*
X142960614Y-52776644D01*
X142782532Y-52954726D01*
X142708692Y-53056356D01*
X141214040Y-51561704D01*
X141214039Y-51561704D01*
X141005475Y-51819262D01*
X140794254Y-52144512D01*
X140618188Y-52490061D01*
X140479206Y-52852119D01*
X140378831Y-53226725D01*
X140378830Y-53226732D01*
X140318163Y-53609768D01*
X140297866Y-53997055D01*
X140000036Y-53997055D01*
X140000714Y-53941757D01*
X140002343Y-53808922D01*
X140002930Y-53798320D01*
X140040312Y-53418772D01*
X140042097Y-53406744D01*
X140061401Y-53309699D01*
X140116346Y-53033468D01*
X140119301Y-53021670D01*
X140122232Y-53012010D01*
X140229787Y-52657447D01*
X140233885Y-52645997D01*
X140297256Y-52493005D01*
X140379535Y-52294363D01*
X140384730Y-52283380D01*
X140564152Y-51947708D01*
X140570390Y-51937300D01*
X140781852Y-51620825D01*
X140789091Y-51611064D01*
X141030555Y-51316838D01*
X141038707Y-51307844D01*
X141307844Y-51038707D01*
X141316838Y-51030555D01*
X141611064Y-50789091D01*
X141620825Y-50781852D01*
X141937300Y-50570390D01*
X141947708Y-50564152D01*
X142283380Y-50384730D01*
X142294363Y-50379535D01*
X142646004Y-50233882D01*
X142657447Y-50229787D01*
X143021677Y-50119299D01*
X143033468Y-50116346D01*
X143406753Y-50042095D01*
X143418772Y-50040312D01*
X143798320Y-50002930D01*
X143808922Y-50002343D01*
X143996784Y-50000039D01*
X143999267Y-50000009D01*
X144000787Y-50000000D01*
X189999213Y-50000000D01*
X190000733Y-50000008D01*
G37*
%TD.AperFunction*%
%TD*%
M02*
