%TF.GenerationSoftware,KiCad,Pcbnew,8.0.5*%
%TF.CreationDate,2024-10-23T00:06:32+02:00*%
%TF.ProjectId,Projet_torero,50726f6a-6574-45f7-946f-7265726f2e6b,rev?*%
%TF.SameCoordinates,Original*%
%TF.FileFunction,Soldermask,Top*%
%TF.FilePolarity,Negative*%
%FSLAX46Y46*%
G04 Gerber Fmt 4.6, Leading zero omitted, Abs format (unit mm)*
G04 Created by KiCad (PCBNEW 8.0.5) date 2024-10-23 00:06:32*
%MOMM*%
%LPD*%
G01*
G04 APERTURE LIST*
G04 Aperture macros list*
%AMRoundRect*
0 Rectangle with rounded corners*
0 $1 Rounding radius*
0 $2 $3 $4 $5 $6 $7 $8 $9 X,Y pos of 4 corners*
0 Add a 4 corners polygon primitive as box body*
4,1,4,$2,$3,$4,$5,$6,$7,$8,$9,$2,$3,0*
0 Add four circle primitives for the rounded corners*
1,1,$1+$1,$2,$3*
1,1,$1+$1,$4,$5*
1,1,$1+$1,$6,$7*
1,1,$1+$1,$8,$9*
0 Add four rect primitives between the rounded corners*
20,1,$1+$1,$2,$3,$4,$5,0*
20,1,$1+$1,$4,$5,$6,$7,0*
20,1,$1+$1,$6,$7,$8,$9,0*
20,1,$1+$1,$8,$9,$2,$3,0*%
%AMFreePoly0*
4,1,19,2.150000,-1.200000,1.177922,-1.200000,1.064578,-1.003895,0.918917,-0.830439,0.745359,-0.684899,0.549174,-0.571693,0.336318,-0.494257,0.113252,-0.454942,-0.113252,-0.454942,-0.336318,-0.494257,-0.549174,-0.571693,-0.745359,-0.684899,-0.918917,-0.830439,-1.064578,-1.003895,-1.177922,-1.200000,-2.150000,-1.200000,-2.150000,0.400000,2.150000,0.400000,2.150000,-1.200000,2.150000,-1.200000,
$1*%
%AMFreePoly1*
4,1,19,-1.064578,1.003895,-0.918917,0.830439,-0.745359,0.684899,-0.549174,0.571693,-0.336318,0.494257,-0.113252,0.454942,0.113252,0.454942,0.336318,0.494257,0.549174,0.571693,0.745359,0.684899,0.918917,0.830439,1.064578,1.003895,1.177922,1.200000,2.150000,1.200000,2.150000,-0.400000,-2.150000,-0.400000,-2.150000,1.200000,-1.177922,1.200000,-1.064578,1.003895,-1.064578,1.003895,
$1*%
G04 Aperture macros list end*
%ADD10C,1.500000*%
%ADD11RoundRect,0.140000X0.170000X-0.140000X0.170000X0.140000X-0.170000X0.140000X-0.170000X-0.140000X0*%
%ADD12RoundRect,0.200000X0.200000X0.275000X-0.200000X0.275000X-0.200000X-0.275000X0.200000X-0.275000X0*%
%ADD13RoundRect,0.250000X0.600000X0.725000X-0.600000X0.725000X-0.600000X-0.725000X0.600000X-0.725000X0*%
%ADD14O,1.700000X1.950000*%
%ADD15R,1.300000X1.550000*%
%ADD16RoundRect,0.250000X0.725000X-0.600000X0.725000X0.600000X-0.725000X0.600000X-0.725000X-0.600000X0*%
%ADD17O,1.950000X1.700000*%
%ADD18RoundRect,0.225000X-0.250000X0.225000X-0.250000X-0.225000X0.250000X-0.225000X0.250000X0.225000X0*%
%ADD19RoundRect,0.237500X0.287500X0.237500X-0.287500X0.237500X-0.287500X-0.237500X0.287500X-0.237500X0*%
%ADD20RoundRect,0.225000X0.250000X-0.225000X0.250000X0.225000X-0.250000X0.225000X-0.250000X-0.225000X0*%
%ADD21RoundRect,0.225000X0.225000X0.250000X-0.225000X0.250000X-0.225000X-0.250000X0.225000X-0.250000X0*%
%ADD22RoundRect,0.200000X-0.275000X0.200000X-0.275000X-0.200000X0.275000X-0.200000X0.275000X0.200000X0*%
%ADD23R,0.900000X0.600000*%
%ADD24RoundRect,0.250000X-0.750000X0.600000X-0.750000X-0.600000X0.750000X-0.600000X0.750000X0.600000X0*%
%ADD25O,2.000000X1.700000*%
%ADD26RoundRect,0.225000X-0.225000X-0.250000X0.225000X-0.250000X0.225000X0.250000X-0.225000X0.250000X0*%
%ADD27RoundRect,0.140000X-0.170000X0.140000X-0.170000X-0.140000X0.170000X-0.140000X0.170000X0.140000X0*%
%ADD28RoundRect,0.140000X-0.140000X-0.170000X0.140000X-0.170000X0.140000X0.170000X-0.140000X0.170000X0*%
%ADD29RoundRect,0.150000X0.150000X-0.325000X0.150000X0.325000X-0.150000X0.325000X-0.150000X-0.325000X0*%
%ADD30RoundRect,0.150000X0.325000X-0.150000X0.325000X0.150000X-0.325000X0.150000X-0.325000X-0.150000X0*%
%ADD31R,0.450000X1.150000*%
%ADD32RoundRect,0.062500X-0.375000X-0.062500X0.375000X-0.062500X0.375000X0.062500X-0.375000X0.062500X0*%
%ADD33RoundRect,0.062500X-0.062500X-0.375000X0.062500X-0.375000X0.062500X0.375000X-0.062500X0.375000X0*%
%ADD34R,5.600000X5.600000*%
%ADD35RoundRect,0.200000X-0.200000X-0.275000X0.200000X-0.275000X0.200000X0.275000X-0.200000X0.275000X0*%
%ADD36C,0.800000*%
%ADD37C,6.400000*%
%ADD38RoundRect,0.250000X-0.250000X-0.475000X0.250000X-0.475000X0.250000X0.475000X-0.250000X0.475000X0*%
%ADD39RoundRect,0.135000X0.135000X0.185000X-0.135000X0.185000X-0.135000X-0.185000X0.135000X-0.185000X0*%
%ADD40FreePoly0,0.000000*%
%ADD41FreePoly1,0.000000*%
%ADD42R,2.400000X0.740000*%
%ADD43R,1.505000X0.802000*%
%ADD44R,2.613000X3.502000*%
%ADD45RoundRect,0.250000X-0.725000X0.600000X-0.725000X-0.600000X0.725000X-0.600000X0.725000X0.600000X0*%
%ADD46RoundRect,0.237500X-0.237500X0.287500X-0.237500X-0.287500X0.237500X-0.287500X0.237500X0.287500X0*%
%ADD47RoundRect,0.140000X0.140000X0.170000X-0.140000X0.170000X-0.140000X-0.170000X0.140000X-0.170000X0*%
%ADD48RoundRect,0.218750X-0.218750X-0.256250X0.218750X-0.256250X0.218750X0.256250X-0.218750X0.256250X0*%
%ADD49R,0.740000X2.400000*%
%ADD50R,1.000000X1.300000*%
G04 APERTURE END LIST*
D10*
%TO.C,TP1*%
X173925000Y-65550000D03*
%TD*%
D11*
%TO.C,C206*%
X168400000Y-73280000D03*
X168400000Y-72320000D03*
%TD*%
D12*
%TO.C,R202*%
X153025000Y-58975000D03*
X151375000Y-58975000D03*
%TD*%
D13*
%TO.C,Moteur D*%
X182400000Y-52500000D03*
D14*
X179900000Y-52500000D03*
X177400000Y-52500000D03*
X174900000Y-52500000D03*
X172400000Y-52500000D03*
X169900000Y-52500000D03*
%TD*%
D12*
%TO.C,R802*%
X187400000Y-89000000D03*
X185750000Y-89000000D03*
%TD*%
D15*
%TO.C,Reset*%
X184750000Y-97750000D03*
X184750000Y-105700000D03*
X180250000Y-97750000D03*
X180250000Y-105700000D03*
%TD*%
D16*
%TO.C,CapteurBD*%
X191450000Y-80450000D03*
D17*
X191450000Y-77950000D03*
X191450000Y-75450000D03*
X191450000Y-72950000D03*
%TD*%
D18*
%TO.C,C505*%
X158500000Y-70000000D03*
X158500000Y-71550000D03*
%TD*%
D19*
%TO.C,D201*%
X149650000Y-59000000D03*
X147900000Y-59000000D03*
%TD*%
D20*
%TO.C,C601*%
X170450000Y-63817500D03*
X170450000Y-62267500D03*
%TD*%
D21*
%TO.C,C703*%
X156150000Y-56075000D03*
X154600000Y-56075000D03*
%TD*%
D22*
%TO.C,R204*%
X150400000Y-95600000D03*
X150400000Y-97250000D03*
%TD*%
D23*
%TO.C,R\u00E9gu3.3V*%
X160100000Y-70375000D03*
X160100000Y-71325000D03*
X160100000Y-72275000D03*
X162900000Y-72275000D03*
X162900000Y-70375000D03*
%TD*%
D20*
%TO.C,C602*%
X170450000Y-60717500D03*
X170450000Y-59167500D03*
%TD*%
D10*
%TO.C,TP4*%
X165300000Y-65450000D03*
%TD*%
D22*
%TO.C,R203*%
X174600000Y-67950000D03*
X174600000Y-69600000D03*
%TD*%
D24*
%TO.C,ON/OFF*%
X142450000Y-69100000D03*
D25*
X142450000Y-71600000D03*
%TD*%
D26*
%TO.C,C506*%
X161325000Y-68575000D03*
X162875000Y-68575000D03*
%TD*%
D27*
%TO.C,C208*%
X173675000Y-83865000D03*
X173675000Y-84825000D03*
%TD*%
D28*
%TO.C,C502*%
X150270000Y-69800000D03*
X151230000Y-69800000D03*
%TD*%
D29*
%TO.C,Acc*%
X175200000Y-91700000D03*
X176000000Y-91700000D03*
X176800000Y-91700000D03*
X177600000Y-91700000D03*
X178400000Y-91700000D03*
X179200000Y-91700000D03*
D30*
X179200000Y-90700000D03*
D29*
X179200000Y-89700000D03*
X178400000Y-89700000D03*
X177600000Y-89700000D03*
X176800000Y-89700000D03*
X176000000Y-89700000D03*
X175200000Y-89700000D03*
D30*
X175200000Y-90700000D03*
%TD*%
D31*
%TO.C,R\u00E9gu5V*%
X149625000Y-74550000D03*
X150275000Y-74550000D03*
X150925000Y-74550000D03*
X151575000Y-74550000D03*
X151575000Y-71950000D03*
X150925000Y-71950000D03*
X150275000Y-71950000D03*
X149625000Y-71950000D03*
%TD*%
D32*
%TO.C,U201*%
X167762500Y-75750000D03*
X167762500Y-76250000D03*
X167762500Y-76750000D03*
X167762500Y-77250000D03*
X167762500Y-77750000D03*
X167762500Y-78250000D03*
X167762500Y-78750000D03*
X167762500Y-79250000D03*
X167762500Y-79750000D03*
X167762500Y-80250000D03*
X167762500Y-80750000D03*
X167762500Y-81250000D03*
D33*
X168450000Y-81937500D03*
X168950000Y-81937500D03*
X169450000Y-81937500D03*
X169950000Y-81937500D03*
X170450000Y-81937500D03*
X170950000Y-81937500D03*
X171450000Y-81937500D03*
X171950000Y-81937500D03*
X172450000Y-81937500D03*
X172950000Y-81937500D03*
X173450000Y-81937500D03*
X173950000Y-81937500D03*
D32*
X174637500Y-81250000D03*
X174637500Y-80750000D03*
X174637500Y-80250000D03*
X174637500Y-79750000D03*
X174637500Y-79250000D03*
X174637500Y-78750000D03*
X174637500Y-78250000D03*
X174637500Y-77750000D03*
X174637500Y-77250000D03*
X174637500Y-76750000D03*
X174637500Y-76250000D03*
X174637500Y-75750000D03*
D33*
X173950000Y-75062500D03*
X173450000Y-75062500D03*
X172950000Y-75062500D03*
X172450000Y-75062500D03*
X171950000Y-75062500D03*
X171450000Y-75062500D03*
X170950000Y-75062500D03*
X170450000Y-75062500D03*
X169950000Y-75062500D03*
X169450000Y-75062500D03*
X168950000Y-75062500D03*
X168450000Y-75062500D03*
D34*
X171200000Y-78500000D03*
%TD*%
D35*
%TO.C,10k201*%
X172950000Y-95800000D03*
X174600000Y-95800000D03*
%TD*%
D36*
%TO.C,H2*%
X141602944Y-53997056D03*
X142305888Y-52300000D03*
X142305888Y-55694112D03*
X144002944Y-51597056D03*
D37*
X144002944Y-53997056D03*
D36*
X144002944Y-56397056D03*
X145700000Y-52300000D03*
X145700000Y-55694112D03*
X146402944Y-53997056D03*
%TD*%
D22*
%TO.C,R209*%
X157900000Y-95675000D03*
X157900000Y-97325000D03*
%TD*%
D21*
%TO.C,C504*%
X154675000Y-82000000D03*
X153125000Y-82000000D03*
%TD*%
D35*
%TO.C,R901*%
X185750000Y-80400000D03*
X187400000Y-80400000D03*
%TD*%
D38*
%TO.C,C501*%
X150150000Y-78850000D03*
X152050000Y-78850000D03*
%TD*%
D36*
%TO.C,H1*%
X187600000Y-54000000D03*
X188302944Y-52302944D03*
X188302944Y-55697056D03*
X190000000Y-51600000D03*
D37*
X190000000Y-54000000D03*
D36*
X190000000Y-56400000D03*
X191697056Y-52302944D03*
X191697056Y-55697056D03*
X192400000Y-54000000D03*
%TD*%
D24*
%TO.C,Batterie*%
X142450000Y-60450000D03*
D25*
X142450000Y-62950000D03*
%TD*%
D39*
%TO.C,R201*%
X166110000Y-77700000D03*
X165090000Y-77700000D03*
%TD*%
D21*
%TO.C,C603*%
X174075000Y-56200000D03*
X172525000Y-56200000D03*
%TD*%
D12*
%TO.C,R501*%
X148275000Y-78850000D03*
X146625000Y-78850000D03*
%TD*%
D15*
%TO.C,SW201*%
X173150000Y-105675000D03*
X173150000Y-97725000D03*
X177650000Y-105675000D03*
X177650000Y-97725000D03*
%TD*%
D22*
%TO.C,R503*%
X153375000Y-71475000D03*
X153375000Y-73125000D03*
%TD*%
%TO.C,R207*%
X154850000Y-95650000D03*
X154850000Y-97300000D03*
%TD*%
D40*
%TO.C,L501*%
X157175000Y-74400000D03*
D41*
X157175000Y-77900000D03*
%TD*%
D28*
%TO.C,C503*%
X154615000Y-71250000D03*
X155575000Y-71250000D03*
%TD*%
D22*
%TO.C,R505*%
X148000000Y-67575000D03*
X148000000Y-69225000D03*
%TD*%
D28*
%TO.C,C207*%
X176860000Y-75500000D03*
X177820000Y-75500000D03*
%TD*%
D22*
%TO.C,R506*%
X146450000Y-72125000D03*
X146450000Y-73775000D03*
%TD*%
%TO.C,R208*%
X156400000Y-95675000D03*
X156400000Y-97325000D03*
%TD*%
D10*
%TO.C,TP3*%
X177375000Y-66175000D03*
%TD*%
D42*
%TO.C,ST-LINK*%
X190800000Y-67210000D03*
X186900000Y-67210000D03*
X190800000Y-65940000D03*
X186900000Y-65940000D03*
X190800000Y-64670000D03*
X186900000Y-64670000D03*
X190800000Y-63400000D03*
X186900000Y-63400000D03*
X190800000Y-62130000D03*
X186900000Y-62130000D03*
X190800000Y-60860000D03*
X186900000Y-60860000D03*
X190800000Y-59590000D03*
X186900000Y-59590000D03*
%TD*%
D28*
%TO.C,C202*%
X161720000Y-75000000D03*
X162680000Y-75000000D03*
%TD*%
D22*
%TO.C,R210*%
X159400000Y-95675000D03*
X159400000Y-97325000D03*
%TD*%
%TO.C,R504*%
X148025000Y-72125000D03*
X148025000Y-73775000D03*
%TD*%
D21*
%TO.C,C401*%
X179400000Y-93300000D03*
X177850000Y-93300000D03*
%TD*%
D43*
%TO.C,Hacheur D*%
X172350000Y-59657500D03*
X172350000Y-60927500D03*
X172350000Y-62197500D03*
X172350000Y-63467500D03*
X177345000Y-63467500D03*
X177345000Y-62197500D03*
X177345000Y-60927500D03*
X177345000Y-59657500D03*
D44*
X174847500Y-61562500D03*
%TD*%
D35*
%TO.C,R801*%
X185800000Y-94000000D03*
X187450000Y-94000000D03*
%TD*%
D45*
%TO.C,LIDAR*%
X142450000Y-77900000D03*
D17*
X142450000Y-80400000D03*
X142450000Y-82900000D03*
X142450000Y-85400000D03*
X142450000Y-87900000D03*
X142450000Y-90400000D03*
X142450000Y-92900000D03*
X142450000Y-95400000D03*
%TD*%
D36*
%TO.C,H3*%
X141600000Y-102900000D03*
X142302944Y-101202944D03*
X142302944Y-104597056D03*
X144000000Y-100500000D03*
D37*
X144000000Y-102900000D03*
D36*
X144000000Y-105300000D03*
X145697056Y-101202944D03*
X145697056Y-104597056D03*
X146400000Y-102900000D03*
%TD*%
D20*
%TO.C,C701*%
X157900000Y-63775000D03*
X157900000Y-62225000D03*
%TD*%
D43*
%TO.C,HacheurG*%
X159802500Y-59652500D03*
X159802500Y-60922500D03*
X159802500Y-62192500D03*
X159802500Y-63462500D03*
X164797500Y-63462500D03*
X164797500Y-62192500D03*
X164797500Y-60922500D03*
X164797500Y-59652500D03*
D44*
X162300000Y-61557500D03*
%TD*%
D46*
%TO.C,D202*%
X173000000Y-69625000D03*
X173000000Y-71375000D03*
%TD*%
D26*
%TO.C,C205*%
X168650000Y-86500000D03*
X170200000Y-86500000D03*
%TD*%
D22*
%TO.C,R205*%
X151875000Y-95650000D03*
X151875000Y-97300000D03*
%TD*%
D47*
%TO.C,C203*%
X166080000Y-78700000D03*
X165120000Y-78700000D03*
%TD*%
D16*
%TO.C,CapteurBG*%
X191450000Y-93950000D03*
D17*
X191450000Y-91450000D03*
X191450000Y-88950000D03*
X191450000Y-86450000D03*
%TD*%
D48*
%TO.C,L202*%
X178412500Y-84500000D03*
X179987500Y-84500000D03*
%TD*%
D27*
%TO.C,C211*%
X172325000Y-83570000D03*
X172325000Y-84530000D03*
%TD*%
D47*
%TO.C,C204*%
X166380000Y-75000000D03*
X165420000Y-75000000D03*
%TD*%
D35*
%TO.C,R502*%
X146600000Y-77250000D03*
X148250000Y-77250000D03*
%TD*%
D22*
%TO.C,R206*%
X153350000Y-95650000D03*
X153350000Y-97300000D03*
%TD*%
%TO.C,R314*%
X169800000Y-68000000D03*
X169800000Y-69650000D03*
%TD*%
D12*
%TO.C,R902*%
X187300000Y-75400000D03*
X185650000Y-75400000D03*
%TD*%
D36*
%TO.C,H4*%
X192400000Y-102900000D03*
X191697056Y-104597056D03*
X191697056Y-101202944D03*
X190000000Y-105300000D03*
D37*
X190000000Y-102900000D03*
D36*
X190000000Y-100500000D03*
X188302944Y-104597056D03*
X188302944Y-101202944D03*
X187600000Y-102900000D03*
%TD*%
D49*
%TO.C,LEDs Lidar*%
X150600000Y-104750000D03*
X150600000Y-100850000D03*
X151870000Y-104750000D03*
X151870000Y-100850000D03*
X153140000Y-104750000D03*
X153140000Y-100850000D03*
X154410000Y-104750000D03*
X154410000Y-100850000D03*
X155680000Y-104750000D03*
X155680000Y-100850000D03*
X156950000Y-104750000D03*
X156950000Y-100850000D03*
X158220000Y-104750000D03*
X158220000Y-100850000D03*
X159490000Y-104750000D03*
X159490000Y-100850000D03*
%TD*%
D10*
%TO.C,TP2*%
X161500000Y-65975000D03*
%TD*%
D28*
%TO.C,C201*%
X162520000Y-80200000D03*
X163480000Y-80200000D03*
%TD*%
D46*
%TO.C,D1*%
X171400000Y-69650000D03*
X171400000Y-71400000D03*
%TD*%
D22*
%TO.C,R211*%
X160900000Y-95675000D03*
X160900000Y-97325000D03*
%TD*%
D13*
%TO.C,Moteur G*%
X163900000Y-52500000D03*
D14*
X161400000Y-52500000D03*
X158900000Y-52500000D03*
X156400000Y-52500000D03*
X153900000Y-52500000D03*
X151400000Y-52500000D03*
%TD*%
D20*
%TO.C,C210*%
X171775000Y-88100000D03*
X171775000Y-86550000D03*
%TD*%
D47*
%TO.C,C402*%
X175980000Y-93000000D03*
X175020000Y-93000000D03*
%TD*%
D20*
%TO.C,C702*%
X157900000Y-60675000D03*
X157900000Y-59125000D03*
%TD*%
D50*
%TO.C,Y201*%
X161700000Y-76500000D03*
X161700000Y-78700000D03*
X163500000Y-78700000D03*
X163500000Y-76500000D03*
%TD*%
D26*
%TO.C,C209*%
X177140000Y-76800000D03*
X178690000Y-76800000D03*
%TD*%
M02*
