M48
; DRILL file {KiCad 8.0.5} date 2024-10-23T08:54:46+0200
; FORMAT={-:-/ absolute / metric / decimal}
; #@! TF.CreationDate,2024-10-23T08:54:46+02:00
; #@! TF.GenerationSoftware,Kicad,Pcbnew,8.0.5
; #@! TF.FileFunction,Plated,1,4,PTH
FMAT,2
METRIC
; #@! TA.AperFunction,Plated,PTH,ViaDrill
T1C0.300
; #@! TA.AperFunction,Plated,PTH,ComponentDrill
T2C0.500
; #@! TA.AperFunction,Plated,PTH,ComponentDrill
T3C0.950
; #@! TA.AperFunction,Plated,PTH,ComponentDrill
T4C1.000
; #@! TA.AperFunction,Plated,PTH,ComponentDrill
T5C3.200
%
G90
G05
T1
X145.55Y-76.225
X146.45Y-75.1
X146.85Y-59.0
X147.2Y-82.7
X148.0Y-66.5
X148.25Y-79.775
X148.3Y-96.7
X148.713Y-104.75
X150.175Y-80.0
X150.275Y-75.825
X150.925Y-70.725
X151.825Y-94.275
X151.975Y-69.8
X152.25Y-82.0
X152.85Y-74.55
X153.3Y-78.85
X153.325Y-94.375
X153.7Y-91.0
X153.8Y-56.1
X154.05Y-58.975
X154.85Y-94.3
X154.9Y-63.2
X155.625Y-82.0
X156.25Y-78.85
X156.45Y-94.275
X156.7Y-70.9
X156.9Y-56.125
X157.0Y-59.2
X157.1Y-78.85
X157.925Y-64.75
X158.05Y-78.85
X158.5Y-69.3
X158.7Y-60.75
X158.7Y-62.25
X159.2Y-80.8
X159.275Y-70.375
X159.275Y-71.4
X159.925Y-94.125
X160.0Y-74.075
X160.085Y-74.885
X160.1Y-72.825
X160.1Y-87.7
X160.3Y-68.5
X160.65Y-78.75
X161.25Y-60.1
X161.25Y-61.55
X161.25Y-63.0
X161.25Y-104.75
X161.8Y-80.2
X162.2Y-83.5
X162.3Y-60.1
X162.3Y-63.0
X162.9Y-69.4
X163.225Y-73.675
X163.35Y-60.1
X163.35Y-61.55
X163.35Y-63.0
X163.675Y-75.0
X163.85Y-82.0
X164.001Y-70.401
X164.075Y-72.925
X164.225Y-71.85
X164.275Y-79.925
X164.5Y-84.5
X164.525Y-76.475
X164.775Y-86.825
X164.85Y-73.3
X164.875Y-79.475
X165.247Y-88.853
X165.4Y-72.625
X165.45Y-82.7
X165.475Y-80.475
X165.5Y-76.45
X165.8Y-62.225
X165.822Y-81.6
X165.925Y-68.875
X166.35Y-66.65
X166.35Y-88.225
X166.425Y-71.75
X166.586Y-80.661
X166.661Y-79.95
X166.7Y-74.025
X166.987Y-86.787
X167.4Y-85.6
X167.65Y-92.35
X167.825Y-58.675
X167.9Y-67.375
X168.263Y-71.513
X168.4Y-74.0
X169.8Y-77.1
X169.8Y-78.5
X169.8Y-79.9
X169.825Y-67.0
X170.1Y-72.8
X170.45Y-58.4
X170.45Y-64.5
X171.05Y-97.375
X171.129Y-73.435
X171.2Y-60.742
X171.2Y-62.292
X171.2Y-77.1
X171.2Y-78.5
X171.2Y-79.9
X171.6Y-56.25
X171.877Y-72.651
X172.1Y-92.2
X172.2Y-95.8
X172.3Y-93.6
X172.325Y-85.225
X172.5Y-91.4
X172.6Y-77.1
X172.6Y-78.5
X172.6Y-79.9
X172.775Y-86.55
X172.993Y-87.743
X173.014Y-72.814
X173.2Y-90.725
X173.675Y-83.325
X173.675Y-85.525
X173.8Y-60.092
X173.8Y-61.542
X173.8Y-62.992
X174.3Y-92.975
X174.55Y-67.0
X174.85Y-60.092
X174.85Y-62.992
X175.075Y-56.2
X175.562Y-70.638
X175.609Y-76.119
X175.711Y-86.411
X175.9Y-60.092
X175.9Y-61.542
X175.9Y-62.992
X175.9Y-76.7
X175.98Y-92.4
X176.3Y-87.4
X176.4Y-73.6
X176.675Y-105.725
X176.7Y-88.1
X177.0Y-86.7
X177.37Y-84.5
X177.725Y-96.37
X177.785Y-73.085
X177.85Y-81.95
X177.85Y-92.5
X177.996Y-90.704
X178.3Y-69.5
X178.35Y-78.975
X178.4Y-62.217
X178.9Y-75.525
X178.9Y-82.5
X178.975Y-68.875
X179.7Y-82.5
X179.749Y-88.374
X179.8Y-76.825
X180.175Y-93.325
X180.7Y-91.2
X181.0Y-68.6
X181.2Y-96.05
X182.0Y-68.2
X182.65Y-91.975
X183.45Y-85.825
X183.45Y-90.4
X184.0Y-70.5
X184.75Y-75.4
X184.75Y-96.325
X184.95Y-80.4
X184.95Y-93.95
X185.05Y-89.025
X185.275Y-59.59
X186.05Y-105.7
X188.975Y-57.925
X192.27Y-60.875
X192.3Y-65.9
X192.32Y-63.45
X192.32Y-64.675
T2
X141.6Y-102.9
X141.603Y-53.997
X142.303Y-101.203
X142.303Y-104.597
X142.306Y-52.3
X142.306Y-55.694
X144.0Y-100.5
X144.0Y-105.3
X144.003Y-51.597
X144.003Y-56.397
X145.697Y-101.203
X145.697Y-104.597
X145.7Y-52.3
X145.7Y-55.694
X146.4Y-102.9
X146.403Y-53.997
X187.6Y-54.0
X187.6Y-102.9
X188.303Y-52.303
X188.303Y-55.697
X188.303Y-101.203
X188.303Y-104.597
X190.0Y-51.6
X190.0Y-56.4
X190.0Y-100.5
X190.0Y-105.3
X191.697Y-52.303
X191.697Y-55.697
X191.697Y-101.203
X191.697Y-104.597
X192.4Y-54.0
X192.4Y-102.9
T3
X142.45Y-77.9
X142.45Y-80.4
X142.45Y-82.9
X142.45Y-85.4
X142.45Y-87.9
X142.45Y-90.4
X142.45Y-92.9
X142.45Y-95.4
X151.4Y-52.5
X153.9Y-52.5
X156.4Y-52.5
X158.9Y-52.5
X161.4Y-52.5
X163.9Y-52.5
X169.9Y-52.5
X172.4Y-52.5
X174.9Y-52.5
X177.4Y-52.5
X179.9Y-52.5
X182.4Y-52.5
X191.45Y-72.95
X191.45Y-75.45
X191.45Y-77.95
X191.45Y-80.45
X191.45Y-86.45
X191.45Y-88.95
X191.45Y-91.45
X191.45Y-93.95
T4
X142.45Y-60.45
X142.45Y-62.95
X142.45Y-69.1
X142.45Y-71.6
T5
X144.0Y-102.9
X144.003Y-53.997
X190.0Y-54.0
X190.0Y-102.9
M30
